<?xml version="1.0" encoding="UTF-8"?>
<svg id="Layer_1" data-name="Layer 1" xmlns="http://www.w3.org/2000/svg" viewBox="0 0 493.97 95">
  <defs>
    <style>
      .cls-1 {
        fill: #787979;
      }

      .cls-1, .cls-2, .cls-3, .cls-4 {
        stroke-width: 0px;
      }

      .cls-2 {
        fill: #e0dede;
      }

      .cls-3 {
        fill: #9f9e9e;
      }

      .cls-4 {
        fill: #9e9c9d;
      }
    </style>
  </defs>
  <g id="Logomark">
    <g id="Rocket">
      <path class="cls-1" d="M82.47,54.16c-.73.73-1.7,1.15-2.8,1.2-6.77.33-12.68,2.82-17.08,7.23-4.4,4.4-6.9,10.31-7.23,17.08-.05,1.1-.47,2.07-1.2,2.8-.9.9-2.14,1.3-3.48,1.12l-33.86-4.57c-2.19-.29-3.99-2.1-4.28-4.28L3.56,8.2c-.18-1.36.22-2.6,1.13-3.51s2.16-1.31,3.51-1.13l66.54,8.97c2.19.29,3.99,2.1,4.28,4.28l4.57,33.86c.18,1.34-.22,2.57-1.12,3.48Z"/>
      <path class="cls-2" d="M33.81,32.42L7.56,6.17l-1.38,1.38,26.25,26.25c-1.26,1.9-1.05,4.48.62,6.15,1.91,1.91,5.01,1.91,6.92,0s1.91-5.01,0-6.92c-1.67-1.67-4.26-1.88-6.15-.62Z"/>
      <path class="cls-3" d="M84.96,56.65c-1.36,1.36-3.13,2.13-5.12,2.23-5.89.28-10.99,2.43-14.76,6.2-3.77,3.77-5.92,8.88-6.2,14.76-.09,1.96-.89,3.78-2.23,5.12-1.67,1.67-4.02,2.45-6.44,2.12l-33.86-4.57c-3.73-.5-6.8-3.57-7.3-7.3L.07,8.67c-.33-2.43.45-4.79,2.13-6.47C3.88.52,6.24-.25,8.67.07l66.54,8.97c3.73.5,6.8,3.57,7.3,7.3l4.57,33.86c.33,2.42-.45,4.76-2.12,6.44ZM60.1,60.1c5.03-5.03,11.74-7.89,19.4-8.25.33-.02.44-.13.48-.17.05-.05.17-.17.12-.52l-4.57-33.86c-.08-.61-.65-1.18-1.26-1.26L7.73,7.05c-.37-.05-.49.07-.55.13s-.18.18-.13.55l8.97,66.54c.08.61.65,1.18,1.26,1.26l33.86,4.57c.35.05.46-.07.52-.12.04-.04.16-.16.17-.48.37-7.66,3.22-14.37,8.25-19.4Z"/>
    </g>
    <g id="Fire">
      <rect class="cls-3" x="69.99" y="69.99" width="25.01" height="25.01" rx="2.79" ry="2.79"/>
      <rect class="cls-2" x="75.12" y="75.12" width="14.75" height="14.75" rx="1.57" ry="1.57"/>
    </g>
  </g>
  <g id="Logotype">
    <g>
      <path class="cls-2" d="M126.24,52.2V8.98h24.7c2.27,0,4.32.44,6.14,1.32s3.26,2.12,4.32,3.72c1.05,1.6,1.58,3.47,1.58,5.61,0,1.72-.32,3.26-.95,4.6-.63,1.34-1.48,2.46-2.55,3.34-1.07.88-2.28,1.53-3.62,1.95v.25c1.6.34,3.01.97,4.25,1.89,1.24.92,2.23,2.11,2.96,3.56.73,1.45,1.1,3.16,1.1,5.13,0,2.6-.6,4.79-1.79,6.55s-2.78,3.09-4.76,3.97c-1.97.88-4.18,1.32-6.62,1.32h-24.76ZM135.63,26.43h12.47c1.13,0,2.09-.22,2.87-.66.78-.44,1.36-1.03,1.76-1.76.4-.73.6-1.58.6-2.55,0-1.64-.45-2.88-1.35-3.72-.9-.84-2.09-1.26-3.56-1.26h-12.79v9.95ZM135.63,44.51h13.55c1.55,0,2.82-.44,3.81-1.32.99-.88,1.48-2.25,1.48-4.1,0-1.09-.21-2.04-.63-2.83-.42-.8-1.05-1.42-1.89-1.86-.84-.44-1.91-.66-3.21-.66h-13.1v10.77Z"/>
      <path class="cls-2" d="M201.34,52.96c-4.58,0-8.53-.82-11.84-2.46-3.32-1.64-5.86-4.12-7.62-7.43-1.76-3.32-2.65-7.48-2.65-12.47s.88-9.27,2.65-12.57c1.76-3.3,4.3-5.75,7.62-7.37,3.32-1.62,7.27-2.43,11.84-2.43s8.64.81,11.94,2.43c3.3,1.62,5.83,4.07,7.59,7.37,1.76,3.3,2.65,7.49,2.65,12.57s-.88,9.16-2.65,12.47c-1.76,3.32-4.29,5.8-7.59,7.43-3.3,1.64-7.28,2.46-11.94,2.46ZM201.34,45.27c2.06,0,3.86-.29,5.42-.88,1.55-.59,2.86-1.47,3.91-2.65,1.05-1.18,1.85-2.61,2.39-4.32.54-1.7.82-3.64.82-5.83v-1.95c0-2.23-.27-4.2-.82-5.92-.55-1.72-1.34-3.16-2.39-4.32-1.05-1.15-2.35-2.03-3.91-2.61-1.55-.59-3.36-.88-5.42-.88s-3.8.29-5.36.88c-1.55.59-2.86,1.46-3.91,2.61-1.05,1.16-1.84,2.59-2.36,4.32-.53,1.72-.79,3.7-.79,5.92v1.95c0,2.18.26,4.13.79,5.83.52,1.7,1.31,3.14,2.36,4.32,1.05,1.18,2.35,2.06,3.91,2.65,1.55.59,3.34.88,5.36.88Z"/>
      <path class="cls-2" d="M260.75,52.96c-4.58,0-8.53-.82-11.84-2.46-3.32-1.64-5.86-4.12-7.62-7.43-1.76-3.32-2.65-7.48-2.65-12.47s.88-9.27,2.65-12.57c1.76-3.3,4.3-5.75,7.62-7.37,3.32-1.62,7.27-2.43,11.84-2.43s8.64.81,11.94,2.43c3.3,1.62,5.83,4.07,7.59,7.37,1.76,3.3,2.65,7.49,2.65,12.57s-.88,9.16-2.65,12.47c-1.76,3.32-4.29,5.8-7.59,7.43-3.3,1.64-7.28,2.46-11.94,2.46ZM260.75,45.27c2.06,0,3.86-.29,5.42-.88,1.55-.59,2.86-1.47,3.91-2.65,1.05-1.18,1.85-2.61,2.39-4.32.54-1.7.82-3.64.82-5.83v-1.95c0-2.23-.27-4.2-.82-5.92-.55-1.72-1.34-3.16-2.39-4.32-1.05-1.15-2.35-2.03-3.91-2.61-1.55-.59-3.36-.88-5.42-.88s-3.8.29-5.36.88c-1.55.59-2.86,1.46-3.91,2.61-1.05,1.16-1.84,2.59-2.36,4.32-.53,1.72-.79,3.7-.79,5.92v1.95c0,2.18.26,4.13.79,5.83.52,1.7,1.31,3.14,2.36,4.32,1.05,1.18,2.35,2.06,3.91,2.65,1.55.59,3.34.88,5.36.88Z"/>
      <path class="cls-2" d="M316.81,52.96c-2.52,0-4.91-.25-7.18-.76-2.27-.5-4.27-1.31-6.02-2.43-1.74-1.11-3.11-2.52-4.1-4.22-.99-1.7-1.48-3.77-1.48-6.21v-.66c0-.23.02-.41.06-.54h9.32c-.04.13-.06.29-.06.5v.57c0,1.34.37,2.48,1.1,3.4.73.92,1.82,1.62,3.24,2.08,1.43.46,3.09.69,4.98.69,1.22,0,2.3-.07,3.24-.22.95-.15,1.79-.36,2.52-.63.73-.27,1.34-.6,1.83-.98.48-.38.84-.82,1.07-1.32.23-.5.35-1.07.35-1.7,0-1.13-.37-2.06-1.1-2.77-.74-.71-1.74-1.32-3.02-1.83-1.28-.5-2.72-.97-4.32-1.39-1.6-.42-3.23-.85-4.91-1.29-1.68-.44-3.32-.99-4.91-1.64-1.6-.65-3.02-1.44-4.28-2.36-1.26-.92-2.27-2.1-3.02-3.53-.76-1.43-1.13-3.15-1.13-5.17,0-2.14.45-3.99,1.35-5.54.9-1.55,2.17-2.83,3.81-3.84,1.64-1.01,3.53-1.75,5.67-2.24,2.14-.48,4.47-.72,6.99-.72,2.35,0,4.58.24,6.68.72,2.1.48,3.95,1.25,5.54,2.3,1.6,1.05,2.84,2.37,3.75,3.97.9,1.6,1.35,3.49,1.35,5.67v.76h-9.14v-.5c0-1.13-.34-2.1-1.01-2.9-.67-.8-1.62-1.43-2.83-1.89-1.22-.46-2.65-.69-4.28-.69-1.76,0-3.27.17-4.5.5-1.24.34-2.18.83-2.83,1.48-.65.65-.98,1.42-.98,2.3,0,1.01.37,1.84,1.1,2.49.73.65,1.74,1.22,3.02,1.7,1.28.48,2.72.91,4.32,1.29,1.6.38,3.23.8,4.91,1.26,1.68.46,3.32,1.01,4.91,1.64,1.6.63,3.02,1.42,4.28,2.36,1.26.95,2.27,2.11,3.02,3.5.76,1.39,1.13,3.05,1.13,4.98,0,3.32-.8,5.98-2.39,8-1.6,2.02-3.78,3.49-6.55,4.41-2.77.92-5.94,1.39-9.51,1.39Z"/>
      <path class="cls-2" d="M362.87,52.2V16.86h-13.86v-7.88h37.23v7.88h-13.92v35.34h-9.45Z"/>
      <path class="cls-2" d="M402.05,52.2V8.98h34.52v7.69h-25.07v9.64h22.18v7.62h-22.18v10.52h25.45v7.75h-34.9Z"/>
      <path class="cls-2" d="M454.53,52.2V8.98h23.69c3.19,0,5.85.57,7.97,1.7,2.12,1.13,3.71,2.72,4.76,4.76,1.05,2.04,1.58,4.38,1.58,7.02,0,2.81-.63,5.3-1.89,7.47-1.26,2.16-3.09,3.81-5.48,4.95l8.82,17.33h-10.39l-7.62-15.75h-12.03v15.75h-9.39ZM463.92,29.02h13.04c1.89,0,3.36-.58,4.41-1.73,1.05-1.15,1.58-2.72,1.58-4.69,0-1.26-.23-2.34-.69-3.24-.46-.9-1.13-1.58-2.02-2.05-.88-.46-1.97-.69-3.28-.69h-13.04v12.41Z"/>
    </g>
    <g>
      <path class="cls-4" d="M184.87,83.66v-15.09h5.63c1.58,0,2.93.26,4.05.79,1.11.53,1.97,1.35,2.56,2.45.59,1.11.89,2.54.89,4.3s-.3,3.15-.89,4.27-1.45,1.94-2.56,2.47c-1.12.54-2.46.8-4.05.8h-5.63ZM186.96,81.85h3.5c.84,0,1.58-.11,2.24-.32.66-.21,1.22-.54,1.69-.98s.83-1.01,1.07-1.71c.24-.7.36-1.53.36-2.5v-.44c0-1-.12-1.84-.36-2.54-.24-.7-.59-1.26-1.06-1.71-.46-.44-1.02-.77-1.68-.98-.66-.21-1.42-.32-2.27-.32h-3.5v11.48Z"/>
      <path class="cls-4" d="M207.62,83.66v-15.09h11.62v1.8h-9.53v4.66h8.56v1.8h-8.56v5.02h9.66v1.8h-11.75Z"/>
      <path class="cls-4" d="M234.66,83.92c-.82,0-1.61-.08-2.36-.24-.76-.16-1.43-.42-2.01-.78-.59-.36-1.05-.83-1.4-1.4-.34-.57-.52-1.28-.52-2.11,0-.07,0-.15.01-.22,0-.07.01-.15.01-.22h2.11s0,.11-.01.21c0,.1-.01.18-.01.25,0,.59.18,1.09.53,1.5.35.41.84.71,1.46.91.62.2,1.33.3,2.12.3.35,0,.72-.02,1.11-.07.39-.04.76-.12,1.12-.23s.68-.26.97-.44.51-.41.68-.68c.17-.27.25-.6.25-1,0-.5-.14-.91-.43-1.24s-.66-.6-1.13-.81c-.47-.21-1-.4-1.6-.57-.59-.17-1.21-.33-1.84-.5-.63-.16-1.24-.35-1.84-.56-.59-.21-1.13-.48-1.59-.79-.47-.32-.85-.71-1.13-1.18s-.43-1.04-.43-1.72c0-.63.13-1.2.39-1.69.26-.5.64-.92,1.14-1.27.51-.34,1.13-.61,1.88-.79.75-.18,1.61-.27,2.57-.27.79,0,1.53.08,2.21.25.68.17,1.28.43,1.8.77.52.34.93.78,1.22,1.31.29.53.44,1.17.44,1.91v.26h-2.07v-.33c0-.5-.15-.92-.46-1.28-.31-.35-.73-.62-1.27-.81-.54-.19-1.14-.29-1.81-.29-.88,0-1.61.08-2.2.25-.59.17-1.02.41-1.31.73-.29.32-.43.67-.43,1.07,0,.45.14.84.43,1.14.29.31.66.56,1.13.76.47.2,1,.38,1.61.54.6.16,1.21.33,1.84.5s1.23.36,1.83.57c.59.21,1.13.48,1.61.79.48.32.85.71,1.13,1.19.28.48.42,1.06.42,1.75,0,1.07-.26,1.94-.79,2.61-.53.67-1.25,1.16-2.18,1.46-.92.31-2,.46-3.21.46Z"/>
      <path class="cls-4" d="M250.52,83.66v-15.09h2.09v15.09h-2.09Z"/>
      <path class="cls-4" d="M269.79,83.92c-2.44,0-4.29-.64-5.56-1.91s-1.9-3.24-1.9-5.9c0-1.73.29-3.18.88-4.33.59-1.16,1.45-2.03,2.6-2.61s2.54-.87,4.18-.87c1.03,0,1.96.11,2.79.33.84.22,1.56.55,2.17,1s1.08,1.01,1.41,1.68.5,1.47.5,2.4h-2.13c0-.65-.12-1.2-.35-1.66s-.57-.84-1-1.13-.93-.5-1.51-.63c-.57-.12-1.18-.19-1.83-.19-.88,0-1.66.11-2.35.33-.69.22-1.27.56-1.74,1.03-.47.47-.83,1.07-1.08,1.8s-.37,1.61-.37,2.62v.46c0,1.36.21,2.47.63,3.32s1.02,1.47,1.82,1.86c.79.39,1.75.58,2.86.58s2.06-.16,2.79-.47c.73-.31,1.28-.8,1.64-1.44.36-.65.54-1.46.54-2.44v-.26h-5.32v-1.78h7.44v7.94h-1.58l-.22-1.91c-.4.51-.87.93-1.41,1.25-.54.32-1.14.56-1.79.7-.65.15-1.35.22-2.08.22Z"/>
      <path class="cls-4" d="M287.1,83.66v-15.09h2.02l7.33,9.94c.07.09.17.22.29.4.12.18.23.35.35.52s.21.32.29.45h.09v-11.31h2.05v15.09h-1.91l-7.41-10.12c-.1-.16-.25-.39-.45-.68-.2-.29-.36-.53-.5-.7h-.11v11.51h-2.02Z"/>
      <path class="cls-4" d="M327.87,83.92c-1.57,0-2.92-.29-4.04-.86-1.12-.57-1.99-1.44-2.6-2.6-.61-1.16-.91-2.61-.91-4.36s.3-3.22.91-4.37c.61-1.15,1.47-2.01,2.6-2.58,1.12-.57,2.47-.86,4.04-.86s2.92.29,4.04.86c1.12.57,1.99,1.43,2.6,2.58.61,1.15.91,2.61.91,4.37s-.3,3.2-.91,4.36-1.47,2.02-2.6,2.6c-1.12.57-2.47.86-4.04.86ZM327.87,82.12c.82,0,1.57-.11,2.23-.33.67-.22,1.23-.57,1.69-1.04.46-.48.82-1.08,1.07-1.8.25-.73.37-1.59.37-2.58v-.46c0-1.01-.12-1.88-.37-2.61-.25-.73-.61-1.33-1.07-1.8s-1.03-.83-1.69-1.05c-.67-.22-1.41-.33-2.23-.33s-1.58.11-2.24.33c-.66.22-1.22.57-1.69,1.05-.47.48-.83,1.08-1.07,1.8s-.36,1.6-.36,2.61v.46c0,1,.12,1.86.36,2.58.24.73.6,1.33,1.07,1.8.47.48,1.03.83,1.69,1.04.66.22,1.41.33,2.24.33Z"/>
      <path class="cls-4" d="M345.03,83.66v-15.09h10.69v1.8h-8.6v4.84h7.83v1.78h-7.83v6.67h-2.09Z"/>
      <path class="cls-4" d="M365.09,83.66v-15.09h10.69v1.8h-8.6v4.84h7.83v1.78h-7.83v6.67h-2.09Z"/>
      <path class="cls-4" d="M385.16,83.66v-15.09h2.09v15.09h-2.09Z"/>
      <path class="cls-4" d="M404.08,83.92c-1.54,0-2.85-.28-3.92-.85-1.07-.56-1.89-1.42-2.45-2.57-.56-1.15-.85-2.61-.85-4.39,0-2.63.64-4.58,1.91-5.87,1.28-1.29,3.05-1.94,5.32-1.94,1.29,0,2.43.21,3.43.63s1.78,1.05,2.34,1.89.85,1.9.85,3.18h-2.11c0-.88-.19-1.61-.56-2.18-.37-.57-.9-1-1.57-1.29-.67-.29-1.47-.43-2.38-.43-1.06,0-1.97.21-2.73.62s-1.34,1.04-1.74,1.9c-.4.86-.59,1.96-.59,3.31v.46c0,1.33.2,2.42.59,3.27.4.84.97,1.46,1.73,1.86.75.4,1.67.59,2.74.59.94,0,1.75-.14,2.43-.42.68-.28,1.21-.71,1.58-1.29.37-.58.56-1.31.56-2.19h2.05c0,1.31-.29,2.38-.87,3.21-.58.84-1.37,1.46-2.37,1.87-1,.41-2.13.62-3.41.62Z"/>
      <path class="cls-4" d="M420.25,83.66v-15.09h11.62v1.8h-9.53v4.66h8.56v1.8h-8.56v5.02h9.66v1.8h-11.75Z"/>
    </g>
  </g>
</svg>