<svg width="100" height="100" viewBox="0 0 100 100" fill="none" xmlns="http://www.w3.org/2000/svg">
<g clip-path="url(#clip0_2330_9668)">
<path d="M12.0007 47.499C12.3162 47.4913 12.5932 47.5452 12.8317 47.6683C13.0741 47.7876 13.2781 47.9569 13.4435 48.1723C13.609 48.3878 13.7398 48.6418 13.8321 48.9342C13.9245 49.2228 13.9745 49.5344 13.986 49.8653L14.0938 53.4821L6.66399 53.6822L6.54472 49.6768C6.53702 49.4151 6.58704 49.1804 6.69093 48.965C6.79481 48.7495 6.93717 48.5687 7.11032 48.4147C7.28346 48.2608 7.48354 48.1416 7.7067 48.0569C7.92986 47.9684 8.15687 47.9223 8.38773 47.9184C8.74941 47.9069 9.09185 47.9915 9.41505 48.1647C9.73825 48.3378 9.98065 48.5994 10.1461 48.9457C10.2577 48.5148 10.4731 48.1685 10.7925 47.9107C11.108 47.6529 11.512 47.5182 12.0007 47.5029V47.499ZM7.85676 52.1931L9.73056 52.1431L9.67284 50.2039C9.66515 49.9576 9.57665 49.7499 9.40351 49.5844C9.23036 49.4151 8.99951 49.3382 8.70324 49.3459C8.41851 49.3536 8.1915 49.4382 8.0299 49.5998C7.8683 49.7614 7.7875 49.9615 7.7952 50.1924L7.85291 52.197L7.85676 52.1931ZM11.7737 48.9727C11.6428 48.9727 11.5159 49.0034 11.3927 49.0496C11.2735 49.0996 11.1657 49.1612 11.0772 49.242C10.9887 49.3228 10.9195 49.4151 10.8695 49.5229C10.8194 49.6306 10.7964 49.746 10.8002 49.873L10.8656 52.1085L12.8241 52.0546L12.7586 49.8922C12.7548 49.7576 12.7279 49.6344 12.674 49.519C12.6201 49.4036 12.5509 49.3074 12.4624 49.2228C12.3739 49.142 12.2661 49.0765 12.1469 49.0304C12.0276 48.9842 11.9006 48.965 11.7698 48.965L11.7737 48.9727Z" fill="#19181C"/>
<path d="M5.96738 45.0674L4.65918 44.9058L4.80924 43.6399L6.11743 43.8015L5.96738 45.0674ZM14.159 46.1601L6.77923 45.2521L6.95237 43.8053L14.3321 44.7134L14.159 46.1601Z" fill="#19181C"/>
<path d="M14.6712 42.3932L7.51074 40.3655L7.9032 38.965L13.8439 40.6464L14.8713 36.9719L16.091 37.3182L14.675 42.3932H14.6712Z" fill="#19181C"/>
<path d="M17.4337 31.5544L18.5726 32.1124L16.3102 36.7872L9.62305 33.5129L11.8431 28.9265L12.982 29.4844L11.393 32.7626L13.0051 33.5514L14.3787 30.7157L15.433 31.2312L14.0594 34.067L15.8023 34.9211L17.4337 31.5544Z" fill="#19181C"/>
<path d="M15.8984 29.0957C15.5329 28.8264 15.2212 28.4916 14.9596 28.0953C14.7018 27.699 14.5248 27.2681 14.4286 26.8064C14.3363 26.3446 14.3363 25.8637 14.4286 25.3673C14.5248 24.871 14.7441 24.3862 15.0904 23.9168C15.4983 23.3627 15.9715 22.9741 16.5102 22.7471C17.0489 22.5239 17.5837 22.4547 18.1185 22.5432L18.0723 23.8975C17.8453 23.8514 17.6337 23.8437 17.4336 23.8706C17.2336 23.8975 17.0527 23.9514 16.8911 24.0322C16.7295 24.113 16.5795 24.2131 16.4448 24.3285C16.3101 24.4478 16.1908 24.5747 16.0947 24.7094C15.8792 25.0018 15.7484 25.3019 15.706 25.6097C15.6637 25.9137 15.683 26.21 15.7676 26.4947C15.8484 26.7794 15.9831 27.0449 16.1678 27.295C16.3524 27.5451 16.5641 27.7567 16.7988 27.9337C17.0643 28.1299 17.349 28.2762 17.6568 28.3723C17.9646 28.4685 18.2686 28.507 18.5687 28.4916C18.8688 28.4724 19.1535 28.3993 19.4267 28.2646C19.6999 28.1299 19.9307 27.9337 20.1231 27.6721C20.2232 27.5374 20.3117 27.3835 20.3848 27.2104C20.4579 27.0372 20.5079 26.8602 20.5348 26.6717C20.5579 26.4832 20.5541 26.2908 20.5233 26.0945C20.4925 25.8945 20.4194 25.7021 20.304 25.5135L21.5583 24.9633C21.7122 25.225 21.8084 25.5097 21.8507 25.8137C21.893 26.1176 21.8892 26.4254 21.843 26.7371C21.7969 27.0488 21.7122 27.3527 21.5852 27.6528C21.4583 27.953 21.3082 28.2261 21.1312 28.4685C20.8157 28.8995 20.4348 29.2227 19.9962 29.4458C19.5537 29.669 19.0958 29.7998 18.6149 29.846C18.1378 29.8883 17.6606 29.846 17.1874 29.7152C16.7141 29.5882 16.2832 29.3804 15.9023 29.0957H15.8984Z" fill="#19181C"/>
<path d="M18.1684 19.119L17.2373 18.1763L18.1415 17.2798L19.0726 18.2225L18.1684 19.119ZM23.9322 25.0712L18.6917 19.7692L19.7229 18.7457L24.9634 24.0478L23.9322 25.0712Z" fill="#19181C"/>
<path d="M26.4795 22.5547L22.124 16.5139L23.2976 15.6636L25.3676 18.5339L25.8293 13.8168L27.1221 12.8779L26.7412 17.2411L31.6277 18.8225L30.3079 19.7806L26.5411 18.5263L26.3487 19.896L27.6531 21.7006L26.4795 22.5509V22.5547Z" fill="#19181C"/>
<path d="M36.8523 17.9299C36.9485 17.9452 37.087 17.9414 37.264 17.9183C37.441 17.8952 37.6219 17.8491 37.795 17.7798C37.9643 17.7144 38.0913 17.6374 38.1682 17.5528C38.249 17.4643 38.2644 17.3643 38.2182 17.245C38.1721 17.1257 38.0951 17.0603 37.9797 17.0487C37.8643 17.0372 37.7334 17.0603 37.5834 17.118C37.4449 17.1719 37.3063 17.2411 37.164 17.3296C37.0216 17.4181 36.9139 17.4874 36.8446 17.5374L36.9447 16.5409C36.4522 16.7025 35.9404 16.7948 35.421 16.8217C34.8977 16.8487 34.4014 16.8025 33.9243 16.6755L34.0743 15.2788C34.1551 15.3135 34.2898 15.3519 34.4822 15.3866C34.6707 15.4212 34.89 15.4481 35.1363 15.4635C35.3825 15.4789 35.6442 15.4674 35.9251 15.4366C36.2059 15.4058 36.4791 15.3366 36.7484 15.2327C37.4949 14.9479 37.7758 14.5632 37.5911 14.0861C37.5334 13.936 37.441 13.8244 37.3179 13.7513C37.1909 13.6782 37.037 13.6359 36.8485 13.6167C36.6599 13.5974 36.4445 13.6013 36.1982 13.6167C35.952 13.6359 35.675 13.659 35.371 13.6859C35.0016 13.7244 34.6746 13.7321 34.386 13.7205C34.0974 13.7052 33.8473 13.659 33.6242 13.5743C33.4049 13.4897 33.2163 13.3666 33.0586 13.205C32.9008 13.0434 32.7738 12.8279 32.67 12.5624C32.5353 12.2084 32.4776 11.8698 32.5045 11.5466C32.5314 11.2234 32.6238 10.9233 32.7854 10.6501C32.947 10.377 33.1625 10.1346 33.4356 9.92293C33.705 9.71131 34.0205 9.53432 34.3706 9.39965C34.8631 9.21112 35.3402 9.11493 35.8135 9.11108C36.2829 9.10723 36.7138 9.14956 37.1024 9.2419L36.9254 10.5693C36.8639 10.5424 36.7561 10.5116 36.6022 10.4808C36.4522 10.4501 36.2752 10.427 36.0713 10.4193C35.8673 10.4116 35.6557 10.4193 35.4326 10.4462C35.2094 10.4731 34.9939 10.5232 34.7823 10.604C34.4091 10.7463 34.159 10.9233 34.0282 11.1311C33.8973 11.3389 33.882 11.5659 33.9743 11.816C34.0282 11.9583 34.109 12.0661 34.2167 12.1353C34.3206 12.2046 34.4553 12.2507 34.613 12.27C34.7708 12.2931 34.9631 12.2931 35.1825 12.2777C35.4056 12.2584 35.6596 12.2354 35.9443 12.1969C36.3214 12.1584 36.6676 12.1392 36.9832 12.1353C37.3025 12.1353 37.5872 12.1738 37.8412 12.2546C38.0951 12.3392 38.3144 12.4701 38.503 12.6471C38.6915 12.8279 38.8493 13.0741 38.9724 13.3973C39.107 13.7436 39.1609 14.063 39.134 14.3593C39.107 14.6555 39.0262 14.9249 38.8839 15.1711C38.7415 15.4174 38.553 15.6367 38.3144 15.829C38.0759 16.0214 37.8065 16.1869 37.5064 16.3254L37.4141 16.7563C37.4564 16.7255 37.5026 16.6948 37.5564 16.6678C37.6103 16.6409 37.6603 16.6178 37.7142 16.5947C37.9412 16.5062 38.1605 16.487 38.3644 16.5293C38.5684 16.5755 38.7184 16.7179 38.8108 16.9603C38.907 17.2103 38.8839 17.4528 38.7377 17.6952C38.5953 17.9376 38.3106 18.1415 37.8835 18.3031C37.668 18.3877 37.4641 18.4416 37.2717 18.4685C37.0793 18.4955 36.91 18.5108 36.7561 18.507L36.8369 17.926L36.8523 17.9299Z" fill="#19181C"/>
<path d="M45.9791 12.8435L46.2138 14.094L41.1196 15.0482L39.7383 7.71842L44.7402 6.78345L44.9749 8.03393L41.4005 8.70342L41.7352 10.4695L44.8249 9.89234L45.0442 11.0505L41.9545 11.6276L42.3162 13.536L45.983 12.8473L45.9791 12.8435Z" fill="#19181C"/>
<path d="M48.2689 6.53339L50.1196 10.1232L51.978 6.52954H53.544L50.8468 11.3814L50.8545 13.9863H49.4155L49.4078 11.3622L46.6875 6.53339H48.265H48.2689Z" fill="#19181C"/>
<path d="M62.1042 8.09169L60.6036 15.3907L59.1915 15.0944L59.8341 11.9778L56.5174 11.2814L55.8749 14.398L54.4551 14.1017L55.9557 6.80273L57.3754 7.099L56.7675 10.0501L60.0842 10.7466L60.6921 7.79542L62.1042 8.09169Z" fill="#19181C"/>
<path d="M69.9348 18.2954L69.3499 19.4189L64.7559 16.9988L68.1995 10.3962L72.7089 12.7741L72.1202 13.8976L68.8959 12.2008L68.0648 13.7899L70.8505 15.2596L70.308 16.3024L67.5223 14.8326L66.6258 16.5525L69.9348 18.2954Z" fill="#19181C"/>
<path d="M70.7119 20.3077L75.4368 14.5632L77.5299 16.2985C77.9993 16.6871 78.3495 17.1065 78.5803 17.5528C78.8112 17.9992 78.9382 18.4493 78.9651 18.9034C78.992 19.3612 78.9189 19.8114 78.7535 20.2577C78.588 20.7041 78.3418 21.1234 78.0186 21.5198C77.6607 21.9584 77.2683 22.297 76.845 22.5394C76.4218 22.7818 75.9832 22.928 75.5253 22.9703C75.0713 23.0165 74.6096 22.9626 74.1479 22.8087C73.6861 22.6587 73.2398 22.4009 72.805 22.043L70.7119 20.3077ZM76.8874 20.5809C77.1144 20.3078 77.2837 20.0192 77.3991 19.7268C77.5145 19.4305 77.5684 19.1419 77.5607 18.8533C77.553 18.5648 77.4799 18.2877 77.3414 18.0184C77.2029 17.7491 76.9989 17.5028 76.7296 17.2797L75.7562 16.4717L72.6396 20.2577L73.613 21.0657C73.8901 21.2927 74.1748 21.4505 74.4672 21.5275C74.7596 21.6083 75.0482 21.6236 75.3329 21.5698C75.6176 21.5198 75.8908 21.4082 76.1563 21.2389C76.4218 21.0696 76.6681 20.8503 76.8874 20.5809Z" fill="#19181C"/>
<path d="M80.6929 28.5725L79.7118 29.3728L76.4336 25.3366L82.1935 20.6387L85.4101 24.6017L84.429 25.402L82.1281 22.5663L80.7391 23.6975L82.7283 26.1446L81.8203 26.8872L79.8311 24.4401L78.3305 25.6637L80.6891 28.5725H80.6929Z" fill="#19181C"/>
<path d="M85.0977 35.2096C84.8206 35.3558 84.5475 35.4251 84.2781 35.4251C84.0088 35.4251 83.751 35.3597 83.5086 35.2366C83.2623 35.1134 83.0353 34.9441 82.8276 34.7248C82.6198 34.5055 82.439 34.2477 82.2851 33.9553L80.6113 30.7464L87.1985 27.3027L89.053 30.8579C89.1723 31.0888 89.2339 31.3235 89.23 31.5621C89.23 31.8006 89.1839 32.0276 89.0954 32.2392C89.0069 32.4509 88.8799 32.6471 88.7145 32.8241C88.549 33.0011 88.3682 33.1434 88.1642 33.2512C87.841 33.4205 87.4986 33.4974 87.1331 33.482C86.7675 33.4666 86.4328 33.3397 86.1365 33.0973C86.225 33.5359 86.1827 33.9399 86.0096 34.3131C85.8364 34.6863 85.5363 34.9826 85.1015 35.2096H85.0977ZM84.6629 33.7822C84.7822 33.7206 84.8822 33.6398 84.9707 33.5436C85.0592 33.4474 85.1246 33.3435 85.1669 33.2319C85.2131 33.1204 85.2323 33.0088 85.2285 32.8895C85.2246 32.7702 85.1939 32.6548 85.1361 32.5432L84.1011 30.5578L82.3659 31.4659L83.3662 33.3858C83.4278 33.5051 83.5086 33.6052 83.6048 33.6821C83.701 33.7629 83.8087 33.8206 83.9241 33.8553C84.0396 33.8899 84.1627 33.9014 84.2897 33.8899C84.4166 33.8783 84.5398 33.8437 84.659 33.7822H84.6629ZM86.7752 29.165L85.1131 30.0346L86.0096 31.7544C86.125 31.9738 86.2943 32.12 86.5213 32.1931C86.7483 32.27 86.9946 32.2392 87.2523 32.1007C87.5063 31.9699 87.6717 31.7929 87.7448 31.5736C87.8179 31.3543 87.8026 31.1427 87.6948 30.9388L86.7675 29.1611L86.7752 29.165Z" fill="#19181C"/>
<path d="M91.7005 37.7491L92.043 38.9919L85.6405 43.7168L85.2404 42.274L86.841 41.1081L86.1446 38.5841L84.1746 38.4148L83.7744 36.9719L91.7005 37.7491ZM87.749 40.581L90.2885 38.8072L87.1873 38.5456L87.749 40.581Z" fill="#19181C"/>
<path d="M85.752 45.0443L93.1663 44.5095L93.2741 45.9601L87.1217 46.4026L87.4026 50.2117L86.1406 50.3041L85.752 45.0443Z" fill="#19181C"/>
<path d="M86.0175 50.9773L93.4434 51.3505L93.3742 52.8049L85.9482 52.4317L86.0175 50.9773ZM94.263 51.4775L95.5827 51.5429L95.5212 52.8165L94.2014 52.7511L94.263 51.4775Z" fill="#19181C"/>
<path d="M79.2498 70.3386L78.1494 69.6037L78.8535 68.5417L79.954 69.2766L79.2498 70.3386ZM86.0832 75.0135L79.8924 70.8657L80.6965 69.6537L86.8874 73.8015L86.0832 75.0135Z" fill="#19181C"/>
<path d="M79.7921 74.3248C79.7228 74.3248 79.6151 74.3517 79.465 74.3902C79.315 74.4287 79.1495 74.4902 78.9648 74.5749C78.7801 74.6595 78.5954 74.7634 78.4069 74.8865C78.2184 75.0096 78.0491 75.1559 77.899 75.3213C77.6297 75.6176 77.4873 75.8869 77.4642 76.1332C77.4412 76.3794 77.5296 76.591 77.7259 76.768C77.8413 76.8719 77.9606 76.9296 78.0837 76.945C78.2068 76.9604 78.3453 76.9412 78.4954 76.8873C78.6455 76.8334 78.8186 76.7526 79.0071 76.6333C79.1957 76.5179 79.4111 76.3794 79.6535 76.2178C79.9691 76.0139 80.2692 75.8369 80.5539 75.6907C80.8348 75.5445 81.108 75.4521 81.3734 75.4098C81.6351 75.3675 81.8929 75.3867 82.1391 75.4598C82.3892 75.5329 82.6393 75.6868 82.8933 75.9177C83.1895 76.187 83.3896 76.4717 83.4973 76.7757C83.6051 77.0797 83.6397 77.3836 83.5974 77.6914C83.555 77.9993 83.4512 78.3032 83.2896 78.6033C83.1241 78.9034 82.9202 79.192 82.6778 79.4614C82.3007 79.8769 81.8698 80.2309 81.3773 80.5272C80.8848 80.8196 80.3807 81.0235 79.8613 81.1389L79.3688 79.823C79.4573 79.8192 79.5958 79.7884 79.7805 79.7345C79.9652 79.6807 80.173 79.6037 80.3961 79.5075C80.6231 79.4075 80.8502 79.2805 81.0887 79.1266C81.3234 78.9689 81.5389 78.7842 81.7313 78.5726C82.2661 77.98 82.3469 77.5106 81.966 77.1682C81.8467 77.0604 81.7159 77.0027 81.5697 76.995C81.4273 76.9873 81.2657 77.0181 81.0926 77.0874C80.9194 77.1566 80.7232 77.2567 80.5116 77.3836C80.2999 77.5145 80.0652 77.6607 79.8036 77.8223C79.4919 78.0223 79.2034 78.1801 78.9417 78.2994C78.6801 78.4187 78.4338 78.4879 78.1991 78.511C77.9644 78.5341 77.7413 78.511 77.5297 78.4379C77.318 78.3648 77.1064 78.2301 76.8948 78.0377C76.6139 77.7838 76.4138 77.5068 76.2907 77.2028C76.1676 76.9027 76.1176 76.591 76.1368 76.2755C76.1599 75.96 76.2407 75.6445 76.3869 75.3328C76.5331 75.0212 76.7332 74.7211 76.9871 74.4402C77.3411 74.0516 77.7259 73.7476 78.1414 73.5283C78.5608 73.3128 78.961 73.1551 79.3496 73.0627L79.7882 74.3286L79.7921 74.3248Z" fill="#19181C"/>
<path d="M77.9955 82.3048L78.7612 83.3206L74.6327 86.4564L70.1387 80.5041L74.1941 77.426L74.9598 78.4418L72.0625 80.6426L73.1437 82.0778L75.6485 80.1771L76.3564 81.1159L73.8516 83.0166L75.0213 84.5672L77.9955 82.3087V82.3048Z" fill="#19181C"/>
<path d="M69.8071 82.2777L67.6755 83.355L70.4612 88.8841L69.1761 89.5343L66.3904 84.0053L64.2588 85.0826L63.6855 83.9476L69.23 81.1465L69.8033 82.2815L69.8071 82.2777Z" fill="#19181C"/>
<path d="M60.9925 83.9014L60.5615 82.6471L61.7658 82.2354L62.1968 83.4897L60.9925 83.9014ZM63.605 91.7736L61.1848 84.7171L62.5584 84.2477L64.9786 91.3042L63.605 91.7736Z" fill="#19181C"/>
<path d="M59.4304 87.2951C59.3726 87.2567 59.2726 87.2066 59.1302 87.1489C58.9879 87.0912 58.8147 87.0412 58.6185 86.9989C58.4223 86.9566 58.2107 86.9258 57.9875 86.9142C57.7643 86.9027 57.5412 86.9142 57.3219 86.9604C56.9294 87.0373 56.6524 87.1682 56.4869 87.349C56.3215 87.5298 56.2676 87.753 56.3176 88.0146C56.3484 88.1647 56.41 88.284 56.4985 88.3686C56.5908 88.4533 56.7139 88.5225 56.864 88.5687C57.0179 88.6187 57.2026 88.6534 57.4257 88.6726C57.6489 88.6918 57.9029 88.7111 58.1914 88.7265C58.5685 88.7534 58.9148 88.7919 59.2264 88.8457C59.5419 88.8996 59.8151 88.9881 60.0498 89.1112C60.2845 89.2382 60.4808 89.4036 60.6347 89.6114C60.7886 89.8192 60.9002 90.0924 60.9694 90.431C61.0464 90.8234 61.0387 91.1736 60.9463 91.4814C60.854 91.7892 60.7001 92.0547 60.4808 92.274C60.2653 92.4933 59.9998 92.678 59.6882 92.8203C59.3765 92.9627 59.0418 93.0704 58.6839 93.1397C58.1337 93.2474 57.5758 93.2705 57.0064 93.2128C56.4369 93.1512 55.9098 93.0127 55.425 92.7934L55.8136 91.4429C55.8867 91.4929 56.0137 91.5506 56.1983 91.6199C56.3792 91.6891 56.5908 91.7507 56.8294 91.8084C57.0679 91.8661 57.3296 91.9008 57.6104 91.9162C57.8913 91.9315 58.1722 91.9162 58.4569 91.8584C59.2418 91.7045 59.5843 91.3775 59.4842 90.8734C59.4534 90.7157 59.3803 90.5887 59.2726 90.4964C59.161 90.404 59.0148 90.3309 58.834 90.2809C58.6531 90.2309 58.4377 90.1963 58.1914 90.1732C57.9452 90.1501 57.6681 90.127 57.3642 90.1001C56.9948 90.0731 56.6678 90.027 56.3907 89.9654C56.1099 89.9038 55.8674 89.8115 55.6674 89.6884C55.4634 89.5691 55.3018 89.4152 55.1749 89.2267C55.0479 89.042 54.9594 88.8073 54.9017 88.5264C54.8286 88.157 54.8324 87.8107 54.9132 87.4952C54.994 87.1797 55.1364 86.9027 55.3442 86.6603C55.5519 86.4217 55.8059 86.2178 56.1099 86.0562C56.4138 85.8946 56.7524 85.7753 57.1218 85.7022C57.6374 85.6022 58.1299 85.5906 58.5916 85.6637C59.0571 85.7407 59.4727 85.8561 59.8382 86.0139L59.4381 87.2913L59.4304 87.2951Z" fill="#19181C"/>
<path d="M47.6225 93.9014L47.584 86.4447L50.8853 86.437C51.2277 86.437 51.547 86.5063 51.8395 86.6486C52.1319 86.791 52.382 86.9795 52.5936 87.2142C52.8052 87.4489 52.9707 87.7144 53.0938 88.0107C53.2131 88.307 53.2746 88.6071 53.2785 88.9072C53.2785 89.392 53.1631 89.8306 52.9207 90.2269C52.6821 90.6232 52.3551 90.908 51.9434 91.085L53.6632 93.886H52.0318L50.4928 91.3928H49.0615L49.073 93.8976H47.6225V93.9014ZM49.0538 90.1269H50.8737C51.0084 90.123 51.1315 90.0884 51.2469 90.0269C51.3624 89.9653 51.4624 89.8768 51.547 89.7691C51.6317 89.6613 51.6971 89.5305 51.7433 89.3843C51.7933 89.2381 51.8164 89.0803 51.8164 88.911C51.8164 88.7379 51.7856 88.5763 51.7279 88.4262C51.6702 88.28 51.5932 88.1531 51.5009 88.0453C51.4047 87.9376 51.297 87.8529 51.1738 87.7952C51.0507 87.7375 50.9276 87.7067 50.8006 87.7067H49.0461L49.0576 90.1269H49.0538Z" fill="#19181C"/>
<path d="M44.8632 92.3779L44.6246 93.6245L39.5342 92.6241L40.9424 85.3059L45.9405 86.2871L45.7019 87.5337L42.1275 86.8334L41.7889 88.5956L44.8747 89.1997L44.6515 90.354L41.5657 89.7499L41.2002 91.6583L44.867 92.3779H44.8632Z" fill="#19181C"/>
<path d="M34.8362 83.0513L34.6169 89.0382L38.5645 84.5595L39.9805 85.1328L34.5091 90.9505L33.3779 90.4926L33.4241 82.4741L34.84 83.0474L34.8362 83.0513Z" fill="#19181C"/>
<path d="M27.6064 87.5567L31.331 81.1119L32.5853 81.843L28.8608 88.2878L27.6064 87.5567ZM31.8158 80.4347L32.4776 79.292L33.578 79.9345L32.9162 81.0773L31.8158 80.4347Z" fill="#19181C"/>
<path d="M24.0209 79.0228L21.0044 82.7126L19.8809 81.7892L24.5904 76.0293L25.4599 76.745L25.383 83.0051L28.4649 79.2344L29.5884 80.1578L24.8866 85.91L23.9747 85.1597L24.0209 79.0228Z" fill="#19181C"/>
<path d="M16.5645 76.1293C16.7761 76.4025 17.0108 76.5871 17.2647 76.6872C17.5187 76.7872 17.7803 76.8257 18.042 76.7988C18.3074 76.7757 18.5691 76.6949 18.8346 76.5641C19.1001 76.4332 19.354 76.2716 19.5926 76.0831L22.5745 73.7438L23.4633 74.8826L20.4814 77.222C20.0812 77.5375 19.6657 77.7838 19.2386 77.9608C18.8115 78.1416 18.3844 78.2301 17.9573 78.2262C17.5302 78.2262 17.1147 78.1224 16.703 77.9146C16.2951 77.7068 15.9104 77.3759 15.5564 76.9219C15.187 76.4525 14.9562 75.9869 14.86 75.5291C14.7638 75.0712 14.7676 74.6364 14.8754 74.2209C14.9831 73.8053 15.1755 73.4167 15.4525 73.0473C15.7334 72.6818 16.0604 72.3471 16.4413 72.0508L19.4233 69.7114L20.3198 70.858L17.3378 73.1974C17.0916 73.3898 16.8723 73.6014 16.6799 73.8284C16.4875 74.0554 16.349 74.294 16.2643 74.5441C16.1759 74.7942 16.1528 75.0558 16.1874 75.3213C16.222 75.5868 16.3451 75.8561 16.5529 76.1216L16.5645 76.1293ZM21.1278 70.5233L22.1089 69.7537L22.8284 70.6772L21.8473 71.4467L21.1278 70.5233ZM22.3744 72.12L23.3555 71.3505L24.075 72.274L23.0939 73.0435L22.3744 72.12Z" fill="#19181C"/>
<path d="M50.0039 100C49.9808 100 49.9616 100 49.9385 100C43.1897 99.9923 36.6411 98.6611 30.481 96.0447C24.5287 93.5168 19.1882 89.9077 14.6018 85.3098C10.0154 80.7118 6.41789 75.3598 3.90538 69.4037C1.30438 63.2359 -0.00766161 56.6872 3.36535e-05 49.9346C0.00772892 43.1859 1.33901 36.6372 3.9554 30.4771C6.4833 24.5248 10.0924 19.1843 14.6903 14.598C19.2882 10.0116 24.6403 6.41404 30.5964 3.90153C36.7642 1.30438 43.3128 -0.00766161 50.0654 3.36536e-05C56.8142 0.00772892 63.3629 1.33901 69.5229 3.9554C75.4752 6.47945 80.8157 10.0924 85.4021 14.6903C89.9885 19.2882 93.586 24.6403 96.0985 30.5964C98.6995 36.7642 100.012 43.3128 100.004 50.0654C99.9962 56.8142 98.6649 63.3629 96.0485 69.5229C93.5245 75.4752 89.9115 80.8157 85.3136 85.4021C80.7157 89.9885 75.3636 93.586 69.4075 96.0985C63.259 98.688 56.7334 100.004 50.0077 100.004L50.0039 100ZM50 1.73147C43.5052 1.73147 37.2028 3.00119 31.2698 5.50215C25.5175 7.92616 20.3502 11.4006 15.9138 15.8292C11.4737 20.2578 7.98772 25.4137 5.54832 31.1582C3.02427 37.1066 1.73916 43.4244 1.73147 49.9423C1.72377 56.4602 2.98965 62.7819 5.50215 68.7342C7.92616 74.4864 11.4006 79.6537 15.8292 84.0901C20.2578 88.5302 25.4137 92.0162 31.1582 94.4556C37.1066 96.9796 43.4244 98.2648 49.9423 98.2724C49.9616 98.2724 49.9846 98.2724 50.0077 98.2724C56.5025 98.2724 62.805 97.0027 68.738 94.5018C74.4902 92.0778 79.6538 88.6033 84.0939 84.1747C88.5341 79.7461 92.02 74.5903 94.4594 68.8457C96.9835 62.8973 98.2686 56.5795 98.2763 50.0616C98.284 43.5437 97.0181 37.222 94.5056 31.2697C92.0816 25.5175 88.6072 20.3502 84.1786 15.9138C79.7499 11.4737 74.5941 7.98772 68.8496 5.54832C62.9012 3.02427 56.5833 1.73916 50.0654 1.73147C50.0462 1.73147 50.0231 1.73147 50.0039 1.73147H50Z" fill="#9D202A"/>
<path d="M50.0001 81.2736C45.7792 81.2736 41.6815 80.4463 37.8262 78.8149C34.1016 77.2413 30.7581 74.9865 27.8839 72.1124C25.0097 69.2382 22.7588 65.8946 21.1813 62.1701C19.5499 58.3148 18.7227 54.217 18.7227 49.9962C18.7227 45.7753 19.5499 41.6776 21.1813 37.8223C22.755 34.0977 25.0097 30.7541 27.8839 27.88C30.7542 25.0096 34.1016 22.7549 37.8262 21.1774C41.6815 19.546 45.7792 18.7188 50.0001 18.7188C54.2209 18.7188 58.3187 19.546 62.174 21.1774C65.8985 22.7511 69.2421 25.0058 72.1163 27.88C74.9866 30.7503 77.2413 34.0977 78.8189 37.8223C80.4502 41.6776 81.2775 45.7753 81.2775 49.9962C81.2775 54.217 80.4502 58.3148 78.8189 62.1701C77.2452 65.8946 74.9905 69.2382 72.1163 72.1124C69.2459 74.9827 65.8985 77.2374 62.174 78.8149C58.3187 80.4463 54.2209 81.2736 50.0001 81.2736ZM50.0001 19.7538C45.9177 19.7538 41.9547 20.5541 38.2263 22.1316C34.6249 23.6553 31.3891 25.8369 28.6111 28.6149C25.8331 31.3929 23.6515 34.6287 22.1278 38.2301C20.5503 41.9585 19.75 45.9177 19.75 50.0039C19.75 54.0901 20.5503 58.0493 22.1278 61.7776C23.6515 65.379 25.8331 68.6149 28.6111 71.3929C31.3891 74.1708 34.6249 76.3525 38.2263 77.8761C41.9547 79.4537 45.9139 80.254 50.0001 80.254C54.0863 80.254 58.0455 79.4537 61.7738 77.8761C65.3752 76.3525 68.6111 74.1708 71.3891 71.3929C74.1671 68.6149 76.3487 65.379 77.8723 61.7776C79.4499 58.0493 80.2502 54.0901 80.2502 50.0039C80.2502 45.9177 79.4499 41.9585 77.8723 38.2301C76.3487 34.6287 74.1671 31.3929 71.3891 28.6149C68.6111 25.8369 65.3752 23.6553 61.7738 22.1316C58.0455 20.5541 54.0863 19.7538 50.0001 19.7538Z" fill="#9D202A"/>
<path d="M48.7265 58.0647L48.688 58.0724L48.6572 58.0454C48.6957 58.0185 48.7611 57.9608 48.7688 57.9685C48.8458 58.03 48.7611 58.0377 48.7265 58.0647Z" fill="#C2C9B5"/>
<path d="M48.8692 58.1801L48.7461 58.2262V58.157L48.8692 58.1801Z" fill="#D4AC9F"/>
<path d="M55.1131 56.1985C55.1246 56.2254 55.1323 56.2485 55.1361 56.2754C55.1361 56.2831 55.1092 56.2908 55.0977 56.2985C55.1054 56.2677 55.1092 56.2331 55.1131 56.1985Z" fill="#D4AC9F"/>
<path d="M58.199 61.0659L58.1875 61.0736L58.2029 61.0697L58.199 61.062" fill="#9FAC8B"/>
<path d="M57.9725 61.5698L57.9648 61.5852L57.9764 61.5814L57.9725 61.5698Z" fill="#9FAC8B"/>
<path d="M45.6017 75.4251C45.7825 75.2674 45.9326 75.1019 46.0557 74.9326C46.1788 74.7633 46.2404 74.6017 46.2404 74.4478C46.2404 74.3555 46.2212 74.2824 46.1788 74.2324C46.1365 74.1785 46.075 74.1554 45.9942 74.1554C45.9134 74.1554 45.8441 74.19 45.7979 74.2631C45.7518 74.3363 45.7287 74.4363 45.7325 74.5748H44.9053C44.913 74.317 44.9707 74.1054 45.0746 73.9361C45.1785 73.7668 45.317 73.6437 45.4824 73.5629C45.6517 73.4821 45.8364 73.4436 46.0442 73.4436C46.402 73.4436 46.6675 73.5321 46.8406 73.7091C47.0138 73.8861 47.1023 74.1131 47.1023 74.394C47.1023 74.6941 47.0022 74.9788 46.7983 75.2404C46.5982 75.5021 46.3443 75.7406 46.0442 75.9484H47.1331V76.6371H44.913V75.9984C45.1938 75.7791 45.4247 75.5906 45.6055 75.429L45.6017 75.4251Z" fill="#19181C"/>
<path d="M47.7102 73.867C47.9141 73.5822 48.2335 73.436 48.6683 73.436C49.1031 73.436 49.4224 73.5784 49.6263 73.867C49.8303 74.1517 49.9341 74.5442 49.9341 75.0443C49.9341 75.5445 49.8341 75.9447 49.6302 76.2294C49.4263 76.5141 49.1069 76.6604 48.6683 76.6604C48.2296 76.6604 47.9103 76.518 47.7102 76.2294C47.5101 75.9447 47.4062 75.5484 47.4062 75.0443C47.4062 74.5403 47.5063 74.1555 47.7102 73.867ZM49.0069 74.4441C48.953 74.3056 48.8376 74.2363 48.6683 74.2363C48.499 74.2363 48.3835 74.3056 48.3297 74.4441C48.2758 74.5826 48.2489 74.7789 48.2489 75.0405C48.2489 75.3021 48.2758 75.5099 48.3297 75.6446C48.3835 75.7831 48.499 75.8523 48.6721 75.8523C48.8453 75.8523 48.9607 75.7831 49.0146 75.6446C49.0684 75.5061 49.0954 75.306 49.0954 75.0405C49.0954 74.775 49.0684 74.5826 49.0146 74.4441H49.0069Z" fill="#19181C"/>
<path d="M50.5657 73.867C50.7696 73.5822 51.089 73.436 51.5237 73.436C51.9585 73.436 52.2779 73.5784 52.4818 73.867C52.6857 74.1517 52.7896 74.5442 52.7896 75.0443C52.7896 75.5445 52.6896 75.9447 52.4857 76.2294C52.2817 76.5141 51.9624 76.6604 51.5237 76.6604C51.0851 76.6604 50.7658 76.518 50.5657 76.2294C50.3656 75.9447 50.2617 75.5484 50.2617 75.0443C50.2617 74.5403 50.3618 74.1555 50.5657 73.867ZM51.8623 74.4441C51.8085 74.3056 51.693 74.2363 51.5237 74.2363C51.3544 74.2363 51.239 74.3056 51.1851 74.4441C51.1313 74.5826 51.1044 74.7789 51.1044 75.0405C51.1044 75.3021 51.1313 75.5099 51.1851 75.6446C51.239 75.7831 51.3544 75.8523 51.5276 75.8523C51.7007 75.8523 51.8162 75.7831 51.87 75.6446C51.9239 75.5061 51.9508 75.306 51.9508 75.0405C51.9508 74.775 51.9239 74.5826 51.87 74.4441H51.8623Z" fill="#19181C"/>
<path d="M55.1516 74.1361L54.1089 76.6756H53.2355L54.2897 74.2362H53.0508V73.5051H55.1554V74.1361H55.1516Z" fill="#19181C"/>
<path d="M63.8936 28.4224H37.1641V70.8772H63.8936V28.4224Z" fill="#9D202A"/>
<path d="M65.5484 28.4224H64.3672V70.8772H65.5484V28.4224Z" fill="#9D202A"/>
<mask id="mask0_2330_9668" style="mask-type:luminance" maskUnits="userSpaceOnUse" x="65" y="28" width="2" height="43">
<path d="M66.8373 28.4224H65.9678V70.8772H66.8373V28.4224Z" fill="white"/>
</mask>
<g mask="url(#mask0_2330_9668)">
<path d="M66.8373 28.4224H65.9678V70.8772H66.8373V28.4224Z" fill="#9D202A"/>
</g>
<mask id="mask1_2330_9668" style="mask-type:luminance" maskUnits="userSpaceOnUse" x="67" y="28" width="1" height="43">
<path d="M67.8533 28.4224H67.1953V70.8772H67.8533V28.4224Z" fill="white"/>
</mask>
<g mask="url(#mask1_2330_9668)">
<path d="M67.1953 28.4223H67.557C67.7186 28.4223 67.8494 28.5531 67.8494 28.7147V70.5808C67.8494 70.7424 67.7186 70.8732 67.557 70.8732H67.1953V28.4185V28.4223Z" fill="#9D202A"/>
</g>
<path fill-rule="evenodd" clip-rule="evenodd" d="M32.7937 70.8772H35.8834V28.4224H32.7899C32.2512 28.4224 31.8164 28.8571 31.8164 29.3958V69.896C31.8164 70.4347 32.255 70.8733 32.7937 70.8733" fill="#9D202A"/>
<path d="M42.1007 50.1384C42.0238 50.0768 41.9968 49.973 42.0315 49.8806C42.1007 49.946 42.1277 50.0461 42.1007 50.1384Z" fill="#B87060"/>
<path d="M48.8877 49.0263C48.9223 48.9648 48.9954 48.9301 49.0647 48.9455L48.8877 49.0263Z" fill="#B87060"/>
<path d="M31.7852 38.3492V39.7228C56.637 43.9629 56.4293 60.3615 31.7852 60.2037V67.4642C71.2272 70.1883 71.158 36.7524 31.7852 38.3492Z" fill="white"/>
<path fill-rule="evenodd" clip-rule="evenodd" d="M36.0371 29.4229L63.894 29.7807V30.9042L36.0371 29.4229Z" fill="white"/>
</g>
<defs>
<clipPath id="clip0_2330_9668">
<rect width="100" height="100" fill="white"/>
</clipPath>
</defs>
</svg>
