<svg width="100" height="100" viewBox="0 0 100 100" fill="none" xmlns="http://www.w3.org/2000/svg">
<g clip-path="url(#clip0_2330_9745)">
<path d="M50.0001 99.8068C77.5076 99.8068 99.8068 77.5076 99.8068 50.0001C99.8068 22.4926 77.5076 0.193359 50.0001 0.193359C22.4926 0.193359 0.193359 22.4926 0.193359 50.0001C0.193359 77.5076 22.4926 99.8068 50.0001 99.8068Z" fill="white" stroke="#878787" stroke-width="0.66" stroke-miterlimit="3.86"/>
<path fill-rule="evenodd" clip-rule="evenodd" d="M39.3405 49.063C39.3405 49.3734 39.2995 49.6838 39.2995 50.0001C39.2995 52.838 40.4269 55.5597 42.4336 57.5665C44.4404 59.5732 47.1621 60.7006 50 60.7006C52.838 60.7006 55.5597 59.5732 57.5664 57.5665C59.5731 55.5597 60.7005 52.838 60.7005 50.0001C60.7005 49.6838 60.7005 49.3734 60.6595 49.063H70.0715C70.0715 49.3734 70.0715 49.6838 70.0715 50.0001C70.0734 54.3643 68.6549 58.6107 66.0303 62.0975C63.4056 65.5843 59.7175 68.1222 55.523 69.3277C55.1136 68.1862 54.3617 67.199 53.3699 66.5011C52.3782 65.8032 51.1951 65.4287 49.9824 65.4287C48.7698 65.4287 47.5867 65.8032 46.5949 66.5011C45.6032 67.199 44.8512 68.1862 44.4419 69.3277C40.2463 68.1233 36.5569 65.5858 33.9311 62.0989C31.3053 58.612 29.886 54.3651 29.8876 50.0001C29.8876 49.6838 29.8876 49.3734 29.8876 49.063H39.3405ZM50 27.4278C44.5275 27.4332 39.2432 29.4261 35.13 33.0358C31.0168 36.6455 28.3546 41.6263 27.6385 47.0517C26.9225 52.4772 28.2013 57.9781 31.2372 62.5313C34.2731 67.0845 38.8594 70.3801 44.1432 71.8052C44.1432 73.3585 44.7602 74.8482 45.8586 75.9466C46.957 77.045 48.4467 77.662 50 77.662C51.5533 77.662 53.0431 77.045 54.1414 75.9466C55.2398 74.8482 55.8569 73.3585 55.8569 71.8052C60.6531 70.5145 64.8901 67.6787 67.9118 63.7369C70.9336 59.795 72.5717 54.9669 72.5723 50.0001C72.5723 49.6838 72.5723 49.3734 72.5723 49.063H81.9433C81.9433 49.3734 81.9433 49.6897 81.9433 50.0001C81.9546 58.1002 78.8887 65.9021 73.366 71.8276C67.8433 77.7531 60.2761 81.3597 52.1953 81.9177C44.1145 82.4758 36.1233 79.9436 29.8385 74.8335C23.5537 69.7235 19.4445 62.417 18.3422 54.3923C17.2399 46.3675 19.2268 38.2237 23.901 31.6083C28.5751 24.9928 35.5875 20.3998 43.5195 18.7582C51.4515 17.1167 59.711 18.5493 66.6268 22.7662C73.5427 26.9831 78.5987 33.6694 80.7719 41.4725H70.9031C69.2086 37.3196 66.3153 33.7656 62.5922 31.2641C58.8692 28.7626 54.4854 27.4271 50 27.4278ZM39.3347 32.9742H48.7642V49.063H39.3347V32.9742ZM51.2417 32.9742H60.6712V49.063H51.2417V32.9742Z" fill="#005D22"/>
<path fill-rule="evenodd" clip-rule="evenodd" d="M25.0322 82.529C24.2123 83.4427 23.3454 84.0986 22.1038 84.1338C21.5181 84.1338 20.6513 84.0049 19.4623 82.9624C18.8084 82.4088 18.3503 81.6592 18.1563 80.8246C18.1393 80.5971 18.1701 80.3686 18.2468 80.1538C18.3234 79.9389 18.4442 79.7425 18.6014 79.5771C18.7127 79.4541 18.7595 79.3839 18.6951 79.3253C18.6307 79.2667 18.578 79.3253 18.4491 79.4424C18.3203 79.5596 17.8634 80.0574 17.594 80.3327C17.3246 80.6079 17.1665 80.7251 17.102 80.7954C17.0376 80.8656 17.0376 80.9008 17.102 81.0003C17.3864 81.2987 17.6505 81.6157 17.8927 81.9492C18.2448 82.4066 18.6368 82.8319 19.0641 83.2201C20.4346 84.4617 21.6235 84.7722 22.6426 84.7194C23.8881 84.6431 25.0554 84.0867 25.899 83.1674C26.3626 82.6952 26.7183 82.1282 26.9418 81.5054C27.1652 80.8826 27.2511 80.2187 27.1934 79.5596C27.0578 78.376 26.508 77.2786 25.6413 76.4613L26.5609 76.4964C26.6956 76.4964 26.7658 76.4964 26.7893 76.4964C26.8127 76.4964 26.7893 76.4086 26.7248 76.2914C26.3383 75.6706 26.4379 75.3251 26.6721 75.0615C26.9064 74.7979 27.4745 74.8682 27.8435 75.1142C27.9489 75.1962 28.0368 75.2548 28.1129 75.1786C28.1891 75.1025 28.1129 75.0556 28.0602 75.0029C27.8105 74.7958 27.5246 74.637 27.2168 74.5344C27.0089 74.4353 26.7769 74.398 26.5485 74.4271C26.32 74.4562 26.1047 74.5503 25.9283 74.6984C25.5945 75.0615 25.7409 75.5828 26.2504 76.1333C26.1274 76.1333 25.5945 76.1333 25.3309 76.1333C25.2728 76.0685 25.2102 76.0078 25.1435 75.9517C24.6157 75.4455 24.0107 75.0264 23.3513 74.7101C23.2785 74.6701 23.1953 74.6532 23.1127 74.6616C23.03 74.6699 22.9519 74.7032 22.8886 74.7569C22.4611 75.0533 22.0541 75.3781 21.6704 75.7292C21.606 75.7995 21.565 75.8815 21.6118 75.9225C21.6587 75.9635 21.7172 75.9224 21.8227 75.8639C22.1153 75.6351 22.4589 75.4804 22.8242 75.4129C23.5094 75.3719 24.1127 75.7643 24.7804 76.3676C25.2053 76.7533 25.5492 77.2196 25.7922 77.7394C26.0352 78.2592 26.1724 78.8222 26.1959 79.3956C26.2193 79.9689 26.1285 80.5412 25.9287 81.0791C25.7289 81.6171 25.4242 82.1099 25.0322 82.529Z" fill="#1D1D1B"/>
<path fill-rule="evenodd" clip-rule="evenodd" d="M17.8812 74.0425C19.3688 73.1171 19.8374 72.2854 20.0072 71.4831C20.1295 70.5908 19.9212 69.6846 19.4216 68.9353C18.9707 68.1465 18.2318 67.5629 17.3599 67.3071C16.13 66.944 14.8298 67.5882 13.7287 68.2735L12.6393 68.9529C11.0521 69.9486 10.771 70.1243 10.4313 70.3117C10.0916 70.4991 9.8456 70.5342 9.61132 70.3117C9.54451 70.2372 9.48194 70.159 9.4239 70.0774C9.4239 70.0364 9.35362 70.0071 9.31262 70.0364C9.27162 70.0657 9.25991 70.136 9.31262 70.2473C9.5059 70.5518 9.83388 71.0145 9.89831 71.0848C9.96273 71.1551 10.2556 71.7232 10.5426 72.18C10.6128 72.2913 10.6656 72.3323 10.7241 72.2913C10.7827 72.2503 10.7593 72.2152 10.7241 72.1742C10.6502 72.0594 10.5875 71.9378 10.5367 71.811C10.3961 71.4303 10.5367 71.2254 10.8471 71.0086C11.1575 70.7919 11.4328 70.6045 13.0317 69.6147L14.3027 68.8182C15.351 68.1622 16.294 67.7464 17.1667 67.8518C17.5233 67.906 17.8643 68.0353 18.1672 68.2312C18.4701 68.4271 18.728 68.6851 18.9237 68.988C19.1183 69.256 19.2547 69.5616 19.3243 69.8854C19.3939 70.2091 19.3951 70.5438 19.3278 70.8681C19.1814 71.5651 18.7422 72.2854 17.2897 73.2108L15.8664 74.1011C14.2792 75.0967 13.9923 75.2724 13.6526 75.454C13.3129 75.6356 13.0669 75.6941 12.8384 75.454C12.7683 75.3808 12.7037 75.3025 12.6452 75.2197C12.6361 75.1992 12.6196 75.1829 12.5989 75.1742C12.5782 75.1654 12.5549 75.165 12.5339 75.1729C12.4753 75.2139 12.487 75.2783 12.5339 75.3896C12.7213 75.6941 13.1196 76.2857 13.1957 76.3794C13.2719 76.4731 13.6057 77.1115 13.8927 77.5508C13.963 77.662 14.0157 77.703 14.0801 77.662C14.1445 77.621 14.1152 77.5859 14.0801 77.5449C14.0102 77.4267 13.9495 77.3034 13.8985 77.1759C13.758 76.7952 13.8985 76.5902 14.2031 76.3794C14.5077 76.1685 14.7888 75.9753 16.3877 74.9855L17.8812 74.0425Z" fill="#1D1D1B"/>
<path fill-rule="evenodd" clip-rule="evenodd" d="M12.4454 62.897C13.5582 62.5983 14.4778 62.3523 14.9815 62.3113C15.327 62.2645 15.5964 62.2527 15.7077 62.4753C15.7654 62.5817 15.8125 62.6935 15.8483 62.8091C15.8483 62.8794 15.9068 62.8911 15.942 62.8853C15.9771 62.8794 16.0181 62.8033 15.983 62.6744C15.8893 62.3289 15.6784 61.6612 15.6491 61.5675C15.6199 61.4738 15.4793 60.7944 15.327 60.2263C15.2919 60.0974 15.245 60.0506 15.1864 60.0681C15.1279 60.0857 15.122 60.1091 15.1396 60.1794C15.1759 60.3317 15.2013 60.4863 15.2157 60.6421C15.2626 61.0052 15.0283 61.1399 14.7003 61.2629C14.2259 61.4562 13.3123 61.7022 12.1995 61.995L11.0632 62.2996V62.2469C11.6021 61.5031 13.5992 58.3345 13.8862 57.6961C14.1717 57.2193 14.2873 56.6598 14.2142 56.1089C14.1676 55.836 14.1051 55.5662 14.0268 55.3007L13.8687 54.715C13.8159 54.5158 13.7632 54.469 13.7047 54.4866C13.6461 54.5041 13.6578 54.5744 13.6754 54.6564C13.7337 54.9038 13.7476 55.1597 13.7164 55.4119C13.6344 56.0328 13.5055 56.2787 12.8613 57.497C12.545 58.0827 10.7001 61.1692 10.4424 61.5616C10.091 61.3918 7.57839 59.9041 7.22112 59.6874C6.70355 59.4409 6.23979 59.0946 5.85647 58.6683C5.70634 58.497 5.59097 58.2981 5.51677 58.0827C5.51677 57.989 5.46406 57.9714 5.40549 57.9831C5.34693 57.9948 5.33521 58.0534 5.37035 58.1822C5.44649 58.4692 5.68662 59.2248 5.70419 59.2833C5.78033 59.5644 5.8389 59.9334 5.90333 60.1618C5.90333 60.2438 5.9619 60.2966 6.02046 60.279C6.07903 60.2614 6.07903 60.2146 6.08489 60.1501C6.0906 60.0965 6.11375 60.0463 6.15079 60.0072C6.18782 59.968 6.23669 59.9421 6.28988 59.9334C6.48316 59.8866 6.87557 60.1033 7.2914 60.3376C7.87709 60.6363 10.5537 62.1649 10.8055 62.2996V62.3465L10.1144 62.5339C8.30464 63.02 7.97665 63.1196 7.60182 63.1781C7.22698 63.2367 6.96927 63.225 6.82285 62.9263C6.77971 62.8371 6.74253 62.7451 6.71157 62.651C6.71157 62.6042 6.66472 62.5632 6.61786 62.5749C6.57101 62.5866 6.54172 62.6569 6.57687 62.7857C6.67058 63.1313 6.88142 63.7931 6.91071 63.8985C6.93999 64.0039 7.08056 64.6658 7.21526 65.187C7.2504 65.31 7.2914 65.3627 7.36168 65.3452C7.43197 65.3276 7.42025 65.2807 7.40268 65.2339C7.37125 65.1007 7.34778 64.9657 7.3324 64.8298C7.3324 64.4256 7.47297 64.2851 7.85952 64.1562C8.24607 64.0274 8.55063 63.9454 10.3604 63.4593L12.4454 62.897Z" fill="#1D1D1B"/>
<path fill-rule="evenodd" clip-rule="evenodd" d="M9.95673 53.1452C11.7138 53.1745 12.5572 52.7353 13.1311 52.1554C13.7312 51.4792 14.0607 50.6054 14.0565 49.7014C14.1079 48.7938 13.8056 47.9016 13.2131 47.2122C12.3756 46.2341 10.9407 46.0409 9.64632 46.0409H8.35781C6.48947 46.0057 6.14977 45.9999 5.76908 45.9706C5.38838 45.9413 5.18339 45.8417 5.08968 45.5137C5.07394 45.4149 5.06416 45.3151 5.0604 45.215C5.0604 45.1682 5.0604 45.1155 4.99012 45.1155C4.91983 45.1155 4.89055 45.174 4.89055 45.3088C4.89055 45.666 4.89055 46.2341 4.89055 46.3161C4.89055 46.3981 4.84369 47.0482 4.83198 47.5871C4.83198 47.7218 4.83198 47.7804 4.92569 47.7804C4.94795 47.7774 4.96825 47.7661 4.98241 47.7486C4.99657 47.7312 5.00352 47.709 5.00183 47.6866C5.00358 47.549 5.0173 47.4119 5.04283 47.2767C5.13654 46.8843 5.32981 46.7905 5.73394 46.773C6.13806 46.7554 6.45433 46.773 8.32853 46.773H9.82788C11.0637 46.773 12.0828 46.9604 12.7563 47.5226C13.0219 47.7616 13.2334 48.0545 13.3768 48.3817C13.5203 48.709 13.5922 49.063 13.588 49.4203C13.6104 49.7585 13.5592 50.0975 13.4379 50.414C13.3165 50.7305 13.128 51.0169 12.8852 51.2535C12.3815 51.763 11.6318 52.132 9.90402 52.1027H8.2231C6.35476 52.0676 6.01507 52.0617 5.63437 52.0324C5.25367 52.0031 5.00183 51.8684 4.96083 51.5405C4.94535 51.4415 4.93558 51.3418 4.93155 51.2418C4.93155 51.189 4.93155 51.1422 4.86127 51.1422C4.79098 51.1422 4.7617 51.2008 4.7617 51.3355C4.7617 51.6927 4.7617 52.4131 4.7617 52.5068C4.7617 52.6005 4.72656 53.3678 4.71484 53.8832C4.71484 54.0179 4.71484 54.0765 4.80855 54.0765C4.83082 54.0735 4.85111 54.0622 4.86527 54.0448C4.87943 54.0273 4.88638 54.0052 4.88469 53.9828C4.88644 53.8452 4.90016 53.708 4.92569 53.5728C5.0194 53.1804 5.21268 53.0867 5.6168 53.0691C6.02092 53.0515 6.33719 53.0691 8.21139 53.0691L9.95673 53.1452Z" fill="#1D1D1B"/>
<path fill-rule="evenodd" clip-rule="evenodd" d="M6.8644 38.5324C6.83337 38.5258 6.80549 38.5089 6.78528 38.4844C6.76508 38.46 6.75374 38.4294 6.75312 38.3977C6.77772 38.1288 6.83274 37.8635 6.91711 37.607C7.29195 36.3829 8.38718 35.8851 9.84554 36.3244C10.1838 36.3943 10.5008 36.5432 10.7705 36.759C11.0402 36.9748 11.2551 37.2513 11.3976 37.566C11.4788 37.8714 11.4645 38.1944 11.3566 38.4914C11.2412 38.9169 11.0421 39.3152 10.7709 39.6628C10.7505 39.6829 10.7249 39.6969 10.6969 39.7031C10.6689 39.7093 10.6398 39.7075 10.6128 39.6979L6.8644 38.5324ZM11.3566 40.9103C12.4577 41.25 13.3655 41.5253 13.8282 41.7303C14.1503 41.8767 14.3846 42.0114 14.3612 42.2574C14.3507 42.3778 14.3311 42.4972 14.3026 42.6146C14.3026 42.6849 14.3026 42.7201 14.3436 42.7259C14.3846 42.7318 14.449 42.7259 14.49 42.5736C14.5954 42.2281 14.7829 41.496 14.7829 41.4843C14.7829 41.4725 15.0581 40.7112 15.2514 40.0786C15.2924 39.9556 15.2514 39.8853 15.2163 39.8678C15.1811 39.8502 15.1401 39.8678 15.1167 39.9381C15.0605 40.1106 14.992 40.2789 14.9117 40.4417C14.7653 40.7756 14.49 40.7639 14.1445 40.6994C13.6466 40.6057 12.7388 40.3305 11.6377 39.9908L11.3625 39.9088C11.3039 39.9088 11.2746 39.8561 11.2922 39.8033L11.749 38.3977C11.7567 38.3683 11.7713 38.3413 11.7917 38.3188C11.8121 38.2964 11.8377 38.2792 11.8662 38.2688C12.2351 38.1283 13.1664 37.8237 13.9453 37.5367C15.0054 37.1443 15.7024 36.9159 16.1065 36.5001C16.4073 36.172 16.6102 35.7662 16.6922 35.3287L16.9499 34.5556C17.0143 34.3506 17.0085 34.2745 16.9499 34.251C16.8913 34.2276 16.8621 34.251 16.8503 34.333C16.801 34.483 16.7423 34.6297 16.6746 34.7723C16.4076 35.298 15.9638 35.7128 15.4213 35.9437C14.5076 36.3888 13.2484 36.8573 11.7549 37.4313C11.1165 36.1077 10.3727 35.4927 9.52341 35.2291C9.21925 35.1429 8.89952 35.1265 8.58815 35.1813C8.27678 35.2361 7.98183 35.3605 7.72535 35.5454C7.13776 36.0523 6.72738 36.7335 6.55398 37.4899C6.4427 37.8472 6.20843 38.7315 6.17329 38.8604C6.13815 38.9892 5.89801 39.6276 5.73988 40.143C5.70474 40.2719 5.70474 40.3363 5.77502 40.3539C5.8453 40.3715 5.85702 40.3539 5.87459 40.2836C5.9131 40.1521 5.96409 40.0247 6.02687 39.9029C6.226 39.5515 6.43685 39.5164 6.83511 39.6101C7.23338 39.7038 7.52622 39.7975 9.31842 40.348L11.3566 40.9103Z" fill="#1D1D1B"/>
<path fill-rule="evenodd" clip-rule="evenodd" d="M13.7874 30.3621C11.5852 28.9272 11.2924 26.9534 12.3876 25.2725C13.4184 23.6794 15.6733 23.0527 18.0863 24.6224C21.0148 26.5258 20.3237 28.7222 19.738 29.6417C18.5607 31.4573 16.136 31.8849 13.7874 30.3621ZM13.4711 31.4983C15.2868 32.6697 18.1566 32.9215 19.9664 30.163C20.3289 29.6315 20.5781 29.0312 20.6985 28.3993C20.8189 27.7673 20.8079 27.1174 20.6661 26.4899C20.5243 25.8624 20.2549 25.2709 19.8745 24.7521C19.4942 24.2333 19.0111 23.7984 18.4553 23.4744C16.1126 21.9516 13.5824 22.713 12.1123 24.9796C11.765 25.4942 11.5244 26.0731 11.4046 26.6822C11.2849 27.2913 11.2884 27.9182 11.4151 28.5259C11.5418 29.1336 11.789 29.7098 12.1421 30.2203C12.4953 30.7308 12.9472 31.1654 13.4711 31.4983Z" fill="#1D1D1B"/>
<path fill-rule="evenodd" clip-rule="evenodd" d="M20.5338 17.6233C20.2179 17.4705 19.9194 17.284 19.6436 17.0669C19.609 17.0285 19.587 16.9803 19.5807 16.929C19.5744 16.8776 19.5841 16.8256 19.6084 16.78C19.6942 16.6517 19.7988 16.5372 19.9189 16.4403C19.9833 16.3875 20.0009 16.3465 19.9599 16.2997C19.9189 16.2528 19.8252 16.2997 19.6553 16.4461C19.3097 16.739 18.9173 17.1138 18.8236 17.1899C18.7299 17.2661 18.1677 17.6936 17.7284 18.0626C17.582 18.1856 17.4941 18.2735 17.541 18.332C17.5878 18.3906 17.6113 18.3789 17.6698 18.332C17.7856 18.2307 17.9135 18.1442 18.0505 18.0743C18.4488 17.8986 18.6713 17.881 19.3039 18.2266L26.2853 21.975C26.8358 22.2678 26.9881 22.3615 27.0994 22.2678C27.2106 22.1741 27.0994 22.0101 26.8944 21.2429C26.7304 20.6162 26.3087 19.275 25.723 17.4652C25.2427 15.9366 24.7742 14.4489 24.6629 14.1092C24.3818 13.2717 24.3935 13.0023 24.4404 12.8207C24.5118 12.6301 24.6332 12.4622 24.7918 12.3346C24.862 12.276 24.8855 12.2292 24.8445 12.1823C24.8035 12.1355 24.7391 12.1823 24.6336 12.2467C24.3701 12.4693 23.9952 12.8324 23.9425 12.8793C23.8898 12.9261 23.3568 13.2951 23.0171 13.6055C22.8707 13.7285 22.8297 13.793 22.8766 13.8515C22.9234 13.9101 22.9703 13.8515 23.023 13.8164C23.1371 13.7146 23.2654 13.6298 23.4037 13.5645C23.4589 13.5515 23.5167 13.5551 23.5699 13.5749C23.6231 13.5947 23.6692 13.6298 23.7024 13.6758C23.7916 13.804 23.8625 13.944 23.9132 14.0917C24.2647 14.9233 25.7289 19.1696 26.256 20.8446L20.5338 17.6233Z" fill="#1D1D1B"/>
<path fill-rule="evenodd" clip-rule="evenodd" d="M31.8555 14.1795C31.8204 14.1795 31.7911 14.1795 31.7852 14.1151L31.3752 10.7357C31.3752 10.5424 31.3752 10.519 31.5334 10.6595L33.9698 13.1135C33.9698 13.1487 34.0167 13.1838 33.9698 13.2073L31.8555 14.1795ZM31.4514 17.2895C31.51 17.9279 31.4865 18.4609 31.0121 18.742C30.9137 18.804 30.8121 18.8607 30.7076 18.9118C30.6549 18.9118 30.6197 18.9763 30.6431 19.0231C30.6666 19.07 30.7486 19.0758 30.8891 19.0231C31.3987 18.783 31.9844 18.4726 32.1015 18.4374C32.2186 18.4023 32.6872 18.1914 32.9683 18.0743C33.062 18.0274 33.1206 17.9747 33.0913 17.9103C33.062 17.8459 33.0269 17.8576 32.9507 17.9103L32.8395 17.963C32.7938 17.9961 32.7418 18.0192 32.6866 18.031C32.6315 18.0427 32.5745 18.0428 32.5194 18.0312C32.4642 18.0196 32.4121 17.9966 32.3664 17.9637C32.3206 17.9308 32.2823 17.8887 32.2538 17.84C32.1506 17.5667 32.097 17.2771 32.0956 16.9849L31.8497 14.7593C31.8437 14.7321 31.8468 14.7036 31.8584 14.6783C31.8701 14.653 31.8896 14.6321 31.9141 14.6188L34.2568 13.5294C34.3095 13.5001 34.3388 13.5294 34.3857 13.5294L36.6406 15.7374C36.787 15.878 36.7694 16.0068 36.7167 16.0595C36.664 16.1123 36.6523 16.1298 36.6757 16.1708C36.6991 16.2118 36.8221 16.1708 37.0388 16.0947C37.7944 15.7667 38.5909 15.3977 38.7549 15.3216C38.9189 15.2454 38.9599 15.1986 38.9306 15.1342C38.9013 15.0697 38.8545 15.0873 38.79 15.1342C38.6445 15.2058 38.4882 15.2533 38.3273 15.2747C38.0696 15.3157 37.6714 15.2747 36.828 14.5016C35.3931 13.1545 31.592 9.45886 31.2347 9.12502C30.8774 8.79118 30.8774 8.81461 30.813 8.84389C30.7486 8.87318 30.731 8.96103 30.772 9.37687L31.4514 17.2895Z" fill="#1D1D1B"/>
<path fill-rule="evenodd" clip-rule="evenodd" d="M46.9838 3.93579C47.0569 3.93481 47.1289 3.91832 47.195 3.88741C47.2612 3.8565 47.3201 3.81188 47.3677 3.75649C47.4153 3.70111 47.4506 3.63624 47.4713 3.56618C47.492 3.49612 47.4975 3.42246 47.4875 3.3501C47.481 3.28709 47.4619 3.22603 47.4314 3.17051C47.401 3.11498 47.3597 3.06613 47.31 3.02683C47.2603 2.98752 47.2033 2.95857 47.1422 2.94166C47.0812 2.92476 47.0174 2.92025 46.9545 2.92841C46.8863 2.92909 46.819 2.9436 46.7566 2.97108C46.6942 2.99856 46.638 3.03842 46.5915 3.08825C46.5449 3.13809 46.509 3.19685 46.4858 3.26099C46.4626 3.32513 46.4527 3.39331 46.4567 3.46138C46.4597 3.5273 46.4758 3.59197 46.504 3.65163C46.5322 3.71129 46.5719 3.76474 46.621 3.80888C46.67 3.85303 46.7274 3.88698 46.7897 3.90877C46.852 3.93055 46.918 3.93974 46.9838 3.93579ZM49.391 3.85379C49.4645 3.85364 49.5372 3.83776 49.6041 3.80721C49.6709 3.77667 49.7305 3.73216 49.7788 3.67668C49.8271 3.62121 49.8629 3.55604 49.8839 3.48557C49.9049 3.4151 49.9106 3.34095 49.9005 3.26811C49.8986 3.20205 49.8829 3.13712 49.8544 3.07749C49.8259 3.01786 49.7853 2.96484 49.7351 2.92183C49.6849 2.87882 49.6263 2.84677 49.563 2.82773C49.4997 2.80869 49.4331 2.80308 49.3676 2.81127C49.2994 2.81195 49.232 2.82647 49.1696 2.85394C49.1072 2.88142 49.051 2.92128 49.0045 2.97112C48.9579 3.02095 48.922 3.07972 48.8988 3.14386C48.8757 3.208 48.8658 3.27617 48.8697 3.34425C48.868 3.41262 48.8805 3.48061 48.9062 3.54397C48.932 3.60733 48.9705 3.66471 49.0194 3.71252C49.0683 3.76033 49.1266 3.79755 49.1905 3.82185C49.2544 3.84616 49.3227 3.85703 49.391 3.85379ZM44.6411 10.1792C44.6996 11.9363 45.1858 12.7562 45.8125 13.3009C46.5201 13.8476 47.4035 14.1164 48.2958 14.0564C49.205 14.0605 50.0804 13.712 50.7381 13.0842C51.6635 12.1998 51.7572 10.7415 51.7162 9.45881L51.6693 8.19958C51.6049 6.32539 51.5932 5.99155 51.6049 5.60499C51.6166 5.21844 51.7045 5.01931 52.0207 4.90803C52.1185 4.8828 52.2186 4.86711 52.3194 4.86117C52.3721 4.86117 52.419 4.86117 52.4131 4.78503C52.4073 4.70889 52.3546 4.68547 52.2199 4.68547C51.8626 4.68547 51.3003 4.74989 51.2125 4.75575C51.1246 4.76161 50.4804 4.75575 49.9415 4.75575C49.8068 4.75575 49.7483 4.79089 49.7541 4.86117C49.76 4.93145 49.801 4.93145 49.8478 4.93145C49.9842 4.91947 50.1214 4.91947 50.2578 4.93145C50.6561 5.00174 50.7615 5.19501 50.7966 5.59914C50.8318 6.00326 50.8493 6.31953 50.9138 8.18787L50.9548 9.70479C50.9958 10.9406 50.8903 11.9655 50.3691 12.6684C50.1436 12.9467 49.8614 13.1737 49.5412 13.3343C49.2211 13.4949 48.8704 13.5853 48.5125 13.5996C48.1829 13.6373 47.849 13.6047 47.5329 13.5037C47.2169 13.4027 46.9259 13.2358 46.6793 13.0139C46.1463 12.5395 45.7363 11.8133 45.6777 10.0855L45.6192 8.40457C45.5547 6.53038 45.543 6.19654 45.5489 5.80998C45.5547 5.42343 45.6485 5.17159 45.9706 5.11302C46.068 5.08383 46.1681 5.06421 46.2693 5.05445C46.2917 5.05614 46.3139 5.04919 46.3313 5.03503C46.3487 5.02087 46.3601 5.00057 46.363 4.97831C46.363 4.90803 46.2986 4.8846 46.1697 4.89046C45.8066 4.89046 45.0921 4.96074 44.9983 4.9666C44.9046 4.97245 44.1608 4.9666 43.6161 4.9666C43.4873 4.9666 43.4287 4.99588 43.4287 5.07202C43.4287 5.14816 43.4814 5.1423 43.5283 5.13644C43.6648 5.12753 43.8017 5.12753 43.9383 5.13644C44.3365 5.20673 44.4361 5.39415 44.4771 5.80413C44.5181 6.21411 44.5239 6.52452 44.5942 8.39286L44.6411 10.1792Z" fill="#1D1D1B"/>
<path fill-rule="evenodd" clip-rule="evenodd" d="M58.2231 7.10454C58.4808 7.61994 59.3945 9.44728 60.3491 11.2453C61.2218 12.8911 62.4342 15.0464 62.5279 15.1929C62.9789 15.9718 63.1136 16.1417 63.178 16.1651C63.2424 16.1885 63.301 16.1358 63.506 15.3686L65.3509 8.58047C65.5383 7.8835 65.6496 7.64337 66.0537 7.6668C66.1505 7.66591 66.247 7.67773 66.3407 7.70194C66.4227 7.70194 66.4813 7.70194 66.493 7.65508C66.5047 7.60823 66.4344 7.55552 66.3056 7.52038C65.8312 7.39152 65.4388 7.3271 65.3099 7.29196C65.181 7.25682 64.6305 7.0694 64.1092 6.93469C63.9745 6.89369 63.875 6.88198 63.8574 6.93469C63.8398 6.9874 63.8574 7.01669 63.9277 7.04011C64.1182 7.09061 64.3027 7.1613 64.4782 7.25096C64.8121 7.43838 64.8296 7.71365 64.6364 8.46919L63.1839 14.3963C62.9203 13.9161 62.0125 12.159 61.216 10.6245C59.9509 8.23491 58.7268 5.90388 58.6038 5.66375C58.5159 5.51733 58.3871 5.20692 58.2934 5.18349C58.1997 5.16006 58.1294 5.2772 58.0064 5.72818L56.2259 12.3874C55.9389 13.4417 55.7925 13.7638 55.4821 13.7638C55.3142 13.7682 55.1465 13.7484 54.9843 13.7052C54.9315 13.7052 54.8905 13.7052 54.873 13.7521C54.8554 13.7989 54.9198 13.8634 55.037 13.8926C55.5582 14.0332 56.0561 14.1328 56.1615 14.1562C56.2669 14.1796 56.7472 14.3436 57.3797 14.5252C57.5203 14.5603 57.5964 14.5545 57.614 14.4842C57.6316 14.4139 57.614 14.408 57.5378 14.3905C57.3348 14.3388 57.1383 14.2641 56.9522 14.1679C56.6652 13.9922 56.63 13.6584 56.8585 12.6978L58.2231 7.10454Z" fill="#1D1D1B"/>
<path fill-rule="evenodd" clip-rule="evenodd" d="M70.9503 13.8633C71.8581 12.2234 72.0221 11.9306 72.2329 11.6084C72.4438 11.2863 72.637 11.1165 72.9475 11.2219C73.0442 11.2532 73.1382 11.2923 73.2286 11.339C73.245 11.3551 73.2671 11.3641 73.2901 11.3641C73.3131 11.3641 73.3352 11.3551 73.3516 11.339C73.3867 11.2746 73.3516 11.2277 73.2286 11.1633C72.9123 10.9876 72.2329 10.6538 72.1802 10.6245C72.1275 10.5952 71.4832 10.1969 71.1377 10.0037C71.0205 9.93924 70.9561 9.93338 70.921 10.0037C70.8858 10.0739 70.921 10.0915 70.9737 10.1149C71.0815 10.1774 71.1817 10.2521 71.2724 10.3375C71.4774 10.5191 71.4832 10.7533 71.3075 11.1223C71.1318 11.4913 70.9795 11.7666 70.0717 13.4006L69.0468 15.228C68.4611 16.2354 68.0277 17.067 67.729 17.477C67.5181 17.7581 67.3366 17.9573 67.1082 17.887C66.9913 17.8518 66.8777 17.8067 66.7685 17.7523C66.704 17.7171 66.6689 17.7523 66.6513 17.7523C66.6338 17.7523 66.6513 17.8636 66.7685 17.928C67.0847 18.1037 67.7641 18.4375 67.8168 18.4668C67.8696 18.4961 68.5138 18.8944 69.0878 19.2165C69.2049 19.2809 69.2752 19.2751 69.3045 19.2165C69.3338 19.1579 69.3045 19.1462 69.2576 19.1111C69.2108 19.0759 68.9414 18.9061 68.8067 18.8065C68.5138 18.5898 68.5782 18.3204 68.7188 17.9983C68.9121 17.5297 69.3689 16.6981 69.9253 15.6907L70.9503 13.8633Z" fill="#1D1D1B"/>
<path fill-rule="evenodd" clip-rule="evenodd" d="M77.5451 15.9541C77.6486 15.6208 77.7901 15.3005 77.9668 14.9995C78 14.9592 78.0449 14.9303 78.0952 14.9166C78.1456 14.903 78.199 14.9053 78.2479 14.9233C78.3884 14.9867 78.5156 15.0761 78.6228 15.1869C78.6872 15.2396 78.7282 15.2455 78.7692 15.1869C78.8102 15.1283 78.7692 15.0522 78.5876 14.9058C78.2479 14.6012 77.8204 14.2674 77.7325 14.1854C77.6447 14.1034 77.1468 13.5997 76.7134 13.219C76.5729 13.0901 76.4733 13.0199 76.4264 13.0726C76.3796 13.1253 76.3854 13.1487 76.4264 13.2014C76.5434 13.3016 76.6476 13.4156 76.7369 13.5411C76.9653 13.9101 77.0121 14.1268 76.7369 14.8062L74.031 22.2561C73.8143 22.8418 73.7499 23.0058 73.8553 23.0995C73.9607 23.1932 74.1071 23.0995 74.8392 22.7598C75.4249 22.508 76.7076 21.9047 78.4236 21.0906C79.8703 20.4054 81.2759 19.7377 81.5981 19.5737C82.3887 19.1871 82.6581 19.152 82.8456 19.1813C83.0435 19.2221 83.2261 19.3174 83.3727 19.4565C83.443 19.521 83.4957 19.5385 83.5367 19.4917C83.5777 19.4448 83.5367 19.3804 83.4371 19.2926C83.1794 19.0583 82.7753 18.742 82.7167 18.7069C82.6581 18.6717 82.2247 18.209 81.8675 17.8928C81.7269 17.7639 81.6566 17.7288 81.6098 17.7873C81.5629 17.8459 81.6098 17.881 81.6566 17.9279C81.7775 18.0239 81.8823 18.1386 81.967 18.2676C81.9851 18.3208 81.9881 18.3779 81.9757 18.4327C81.9633 18.4875 81.9359 18.5378 81.8967 18.578C81.7809 18.6836 81.6508 18.7723 81.5102 18.8416C80.7371 19.3101 76.7369 21.3483 75.1438 22.0746L77.5451 15.9541Z" fill="#1D1D1B"/>
<path fill-rule="evenodd" clip-rule="evenodd" d="M81.7033 26.1334C80.7603 26.7952 79.9814 27.3399 79.5363 27.58C79.2258 27.7381 78.9506 27.8436 78.7983 27.6737C78.7072 27.5927 78.6247 27.5024 78.5523 27.4043C78.5113 27.3457 78.4645 27.3457 78.4352 27.3692C78.4059 27.3926 78.3883 27.4746 78.4645 27.58C78.5406 27.6854 78.7456 27.9431 78.8862 28.1364C79.0267 28.3297 79.1556 28.5054 79.1731 28.523C79.2727 28.6694 79.4308 28.9154 79.6768 29.3136C79.9228 29.7119 80.2977 30.2566 80.8131 30.9946C81.0825 31.3752 81.1352 31.4572 81.4397 31.346C81.796 31.1839 82.144 31.004 82.4823 30.8071C82.5525 30.7544 82.6287 30.7017 82.5877 30.6431C82.5467 30.5846 82.4998 30.6021 82.3827 30.6431C82.2341 30.7449 82.0604 30.8036 81.8806 30.8129C81.7008 30.8222 81.5219 30.7817 81.3636 30.6959C81.0635 30.4654 80.8042 30.1863 80.5964 29.87C79.917 28.9095 79.9404 28.6694 80.5964 28.1657C80.7955 28.0134 81.9434 27.2227 82.2773 26.9943L83.1675 26.3559C83.1747 26.3473 83.1836 26.3404 83.1937 26.3356C83.2039 26.3309 83.2149 26.3284 83.2261 26.3284C83.2373 26.3284 83.2483 26.3309 83.2584 26.3356C83.2686 26.3404 83.2775 26.3473 83.2846 26.3559C83.4018 26.5258 84.0636 27.5273 84.2159 27.7967C84.4443 28.2067 84.3447 28.4175 84.2159 28.5522C84.1316 28.656 84.0307 28.7451 83.9172 28.8158C83.8703 28.8509 83.8411 28.8978 83.8762 28.9505C83.9113 29.0032 84.0343 28.9505 84.1105 28.8861C84.1866 28.8217 84.5556 28.605 84.7664 28.482C85.112 28.2887 85.317 28.2184 85.3521 28.1774C85.3873 28.1364 85.4165 28.1013 85.3931 28.072C85.3697 28.0427 85.2936 28.031 85.1647 28.0134C85.0359 27.9958 84.8894 27.8728 84.702 27.6503C84.5146 27.4277 83.6771 26.2271 83.5892 26.0982C83.5014 25.9694 83.5892 26.0221 83.6478 25.9752L86.3595 24.0717C86.4298 24.0249 86.4708 24.0249 86.5001 24.0717C86.5294 24.1186 87.3142 25.2431 87.4137 25.4423C87.7241 26.0279 87.6773 26.1919 87.566 26.3735C87.4825 26.4935 87.3772 26.5968 87.2556 26.678C87.1736 26.7366 87.1385 26.7893 87.1795 26.8479C87.2205 26.9065 87.2849 26.8479 87.3376 26.8479C87.3903 26.8479 87.9233 26.5023 88.0228 26.4438C88.3157 26.2798 88.468 26.2446 88.5383 26.1978C88.6085 26.1509 88.6202 26.1275 88.6027 26.0982C88.5851 26.0689 88.4973 26.0338 88.4563 25.9928C88.3312 25.8731 88.2156 25.7439 88.1107 25.6062C87.9409 25.3837 86.5703 23.4275 86.5235 23.3572L86.2599 22.9414C86.1194 22.7188 85.9319 22.4553 85.7738 22.2268C85.6977 22.1214 85.645 22.0863 85.5864 22.1273C85.5778 22.1344 85.5709 22.1434 85.5661 22.1535C85.5614 22.1636 85.5589 22.1747 85.5589 22.1858C85.5589 22.197 85.5614 22.2081 85.5661 22.2182C85.5709 22.2283 85.5778 22.2373 85.5864 22.2444C85.6668 22.3561 85.7355 22.4759 85.7914 22.6017C85.9495 22.9707 85.85 23.1874 85.5278 23.4158C85.2057 23.6442 84.9421 23.8492 83.4194 24.921L81.7033 26.1334Z" fill="#1D1D1B"/>
<path fill-rule="evenodd" clip-rule="evenodd" d="M91.203 32.7398C91.2329 32.7297 91.2654 32.73 91.2951 32.7406C91.3249 32.7513 91.3502 32.7716 91.3669 32.7984C91.5121 33.0267 91.6319 33.2703 91.7242 33.5246C92.181 34.696 91.6246 35.7854 90.2249 36.3242C89.9179 36.4824 89.5775 36.565 89.2321 36.565C88.8867 36.565 88.5464 36.4824 88.2394 36.3242C87.9864 36.1337 87.7982 35.8699 87.7006 35.5687C87.5286 35.1749 87.437 34.7508 87.4311 34.3212C87.4345 34.2927 87.4455 34.2656 87.4631 34.2429C87.4806 34.2202 87.504 34.2027 87.5307 34.1923L91.203 32.7398ZM86.1953 33.6301C85.1235 34.0459 84.2392 34.3856 83.7472 34.5086C83.4016 34.5906 83.1322 34.6257 83.0034 34.4207C82.9369 34.3199 82.8782 34.2141 82.8276 34.1045C82.8276 34.0342 82.7632 34.0225 82.7281 34.04C82.6929 34.0576 82.6578 34.1279 82.7281 34.2509C82.8569 34.5906 83.1615 35.2817 83.1673 35.2934C83.1732 35.3051 83.425 36.0665 83.6652 36.6815C83.712 36.8045 83.7647 36.8513 83.8233 36.8279C83.8819 36.8045 83.8819 36.781 83.8233 36.7108C83.7653 36.5397 83.7164 36.3657 83.6769 36.1895C83.5949 35.8381 83.8116 35.6741 84.1279 35.516C84.573 35.2817 85.4574 34.9303 86.535 34.5262L86.8045 34.4266C86.863 34.4266 86.904 34.4266 86.9274 34.4676L87.4311 35.8557C87.4441 35.8821 87.4508 35.9111 87.4508 35.9406C87.4508 35.97 87.4441 35.9991 87.4311 36.0255C87.2261 36.3652 86.6756 37.1969 86.2598 37.888C85.6741 38.8485 85.2641 39.4518 85.1938 40.0316C85.1573 40.4736 85.2423 40.9171 85.4398 41.3143L85.7444 42.1049C85.8205 42.3099 85.8732 42.3685 85.9376 42.3451C85.9574 42.3309 85.9713 42.3099 85.9767 42.2862C85.9821 42.2625 85.9786 42.2376 85.9669 42.2162C85.9104 42.0696 85.8654 41.9188 85.8322 41.7652C85.7256 41.1912 85.8252 40.598 86.1133 40.0902C86.5585 39.1706 87.2847 38.0286 88.0871 36.658C89.4049 37.3082 90.3713 37.3374 91.1971 37.0212C91.4911 36.9018 91.7545 36.7177 91.9674 36.4824C92.1804 36.2471 92.3375 35.9668 92.427 35.6624C92.5655 34.9024 92.4631 34.1182 92.1342 33.4192C91.9995 33.0737 91.6364 32.2478 91.5895 32.1131C91.5427 31.9784 91.3318 31.3342 91.1385 30.8305C91.0917 30.7075 91.0448 30.6606 90.9804 30.6841C90.9605 30.6952 90.9456 30.7136 90.9391 30.7355C90.9325 30.7574 90.9347 30.7809 90.9452 30.8012C90.995 30.9281 91.0323 31.0595 91.0565 31.1936C91.121 31.5977 90.9804 31.7793 90.6055 31.9257C90.2307 32.0721 89.9437 32.201 88.1925 32.8745L86.1953 33.6301Z" fill="#1D1D1B"/>
<path fill-rule="evenodd" clip-rule="evenodd" d="M85.6336 44.9338C85.7026 45.5707 85.9641 46.1713 86.3832 46.6558C86.6535 46.9351 86.9857 47.1469 87.353 47.2741C87.7203 47.4013 88.1124 47.4403 88.4976 47.3879C89.4522 47.2532 90.1433 46.8022 91.0512 45.2618L91.262 44.8928C91.9941 43.6219 92.3807 43.2529 93.0542 43.1358C93.2435 43.1042 93.4373 43.1129 93.6229 43.1613C93.8086 43.2097 93.982 43.2967 94.1318 43.4166C94.2816 43.5365 94.4044 43.6867 94.4922 43.8573C94.58 44.0279 94.6308 44.2151 94.6414 44.4067C94.7937 45.4961 94.3427 45.8885 94.2197 45.9822C94.0373 46.0892 93.8399 46.1681 93.634 46.2165C93.5403 46.2165 93.4818 46.2634 93.4935 46.3336C93.5052 46.4039 93.5872 46.4039 93.7804 46.3805C94.2038 46.3215 94.63 46.2843 95.0572 46.2692C95.1158 46.2692 95.1392 46.2341 95.1275 46.1345C95.1088 45.9946 95.1088 45.8527 95.1275 45.7128C95.1614 45.3377 95.1476 44.9599 95.0865 44.5883C94.8757 43.0831 93.8742 42.2455 92.6032 42.433C91.795 42.5442 91.098 42.9308 90.2605 44.3364L89.8915 44.9221C89.1945 46.0935 88.767 46.4742 87.947 46.5913C87.7286 46.6251 87.5055 46.6134 87.2918 46.5572C87.078 46.501 86.8781 46.4014 86.7045 46.2646C86.5309 46.1278 86.3873 45.9568 86.2827 45.7621C86.178 45.5674 86.1146 45.3532 86.0963 45.133C85.9957 44.7484 86.0383 44.3404 86.2161 43.9849C86.3939 43.6294 86.6947 43.3506 87.0626 43.2002C87.2038 43.1539 87.3488 43.1205 87.496 43.1006C87.5956 43.1006 87.6249 43.1006 87.619 43.0011C87.6132 42.9015 87.5429 42.9249 87.414 42.9308C87.2852 42.9367 86.7405 42.9659 86.1431 43.0538C85.821 43.0948 85.78 43.1124 85.7156 43.2939C85.5648 43.8274 85.5368 44.388 85.6336 44.9338Z" fill="#1D1D1B"/>
<path fill-rule="evenodd" clip-rule="evenodd" d="M91.6714 52.5068C93.5456 52.5712 93.8795 52.5829 94.266 52.6181C94.6526 52.6532 94.8868 52.7586 94.9337 53.0866C94.943 53.186 94.943 53.286 94.9337 53.3853C94.9337 53.438 94.9337 53.4849 95.004 53.4849C95.0743 53.4849 95.1035 53.4322 95.1035 53.2975C95.1035 52.9402 95.1035 52.1788 95.1035 52.1261C95.1035 52.0734 95.168 51.312 95.1855 50.9196C95.1855 50.7849 95.1855 50.7205 95.0918 50.7205C94.9981 50.7205 95.0215 50.7673 95.0215 50.8142C95.0133 50.9391 94.9917 51.0628 94.9571 51.1831C94.8868 51.4467 94.6818 51.558 94.2719 51.5697C93.8619 51.5814 93.5515 51.5697 91.6773 51.5053L89.6098 51.4233C88.4384 51.3823 87.5131 51.3471 87.0094 51.271C86.6638 51.2124 86.4237 51.1422 86.3592 50.902C86.3389 50.782 86.3271 50.6606 86.3241 50.5389C86.3241 50.4686 86.2948 50.4452 86.2597 50.4393C86.2245 50.4335 86.1601 50.4979 86.1543 50.6326C86.1543 50.9899 86.1543 51.7454 86.1543 51.804C86.1543 51.8625 86.0898 52.6181 86.0664 53.2799C86.0664 53.4146 86.0957 53.4732 86.1543 53.4732C86.2128 53.4732 86.2304 53.4732 86.2304 53.3853C86.2304 53.2975 86.2714 53.0105 86.3007 52.8465C86.3593 52.4892 86.6287 52.4248 86.9742 52.4014C87.4838 52.3545 88.4267 52.4014 89.5805 52.4014L91.6714 52.5068Z" fill="#1D1D1B"/>
<path fill-rule="evenodd" clip-rule="evenodd" d="M93.177 61.5731L92.7904 63.0315C92.4917 64.1443 92.152 64.3551 91.7948 64.3024H91.6659C91.4961 64.3024 91.4551 64.3024 91.4434 64.3493C91.4316 64.3961 91.4434 64.4488 91.5722 64.4723C91.7011 64.4957 92.4976 64.7417 92.8431 64.8295C92.9134 64.8295 92.9837 64.8647 93.0013 64.8002C93.0188 64.7358 93.0013 64.6363 93.0013 64.4606C93.0242 64.1755 93.0733 63.8932 93.1477 63.6172L94.2371 59.2538C94.2722 59.1132 94.4011 58.6681 94.5241 58.3518C94.5928 58.182 94.6813 58.0208 94.7876 57.8716C94.7876 57.8247 94.6646 57.7427 94.6002 57.7017C94.5358 57.6607 93.5694 57.1688 93.4288 57.116C93.2883 57.0633 93.3175 57.1161 93.3058 57.1512C93.2941 57.1863 93.3058 57.239 93.3937 57.2976C93.508 57.3809 93.6122 57.4772 93.7041 57.5846C93.9384 57.8423 93.9501 58.1703 93.7861 58.8673L93.3761 60.595L88.4505 59.3651C87.3318 59.084 86.4123 58.8555 85.9379 58.6798C85.6099 58.5451 85.3522 58.4221 85.3815 58.182C85.3803 58.0597 85.3941 57.9378 85.4225 57.8189C85.4225 57.7486 85.4225 57.7193 85.3756 57.7076C85.3288 57.6959 85.2644 57.7427 85.2351 57.8716C85.1472 58.223 85.0008 58.961 84.9832 59.043C84.9657 59.125 84.7548 59.8278 84.5908 60.4662C84.5908 60.595 84.5908 60.6594 84.6377 60.677C84.6845 60.6946 84.7138 60.677 84.7314 60.6009C84.749 60.5247 84.8485 60.2436 84.9129 60.0913C85.0418 59.7516 85.3171 59.7458 85.6626 59.7926C86.1663 59.8571 87.0858 60.0913 88.2045 60.3783L93.177 61.5731Z" fill="#1D1D1B"/>
<path fill-rule="evenodd" clip-rule="evenodd" d="M85.7913 67.0728C84.7781 66.5281 83.9406 66.0889 83.5247 65.796C83.2377 65.591 83.0327 65.4153 83.103 65.2104C83.1327 65.0925 83.1759 64.9785 83.2319 64.8707C83.2319 64.8062 83.2319 64.7652 83.2319 64.7477C83.2319 64.7301 83.1206 64.7477 83.062 64.8765C83.0035 65.0054 82.8688 65.2865 82.7516 65.4973C82.6345 65.7082 82.5525 65.9073 82.5408 65.9307C82.4529 66.0889 82.3065 66.3349 82.0664 66.739C81.8262 67.1431 81.4807 67.7171 81.0824 68.496C80.8657 68.9119 80.8189 68.9939 81.0531 69.2164C81.2874 69.439 81.9258 69.8548 82.0078 69.9017C82.0898 69.9486 82.1659 69.9837 82.2011 69.9017C82.2362 69.8197 82.2011 69.808 82.0957 69.7201C81.6974 69.4156 81.5568 69.1754 81.5861 68.8416C81.6649 68.4593 81.8075 68.093 82.0078 67.7581C82.5583 66.7214 82.7809 66.6336 83.5306 66.9908C83.759 67.1021 84.9831 67.7639 85.3462 67.9572L86.2774 68.4551C86.2885 68.4583 86.2986 68.4642 86.3068 68.4723C86.3151 68.4804 86.3212 68.4903 86.3247 68.5013C86.3282 68.5123 86.3289 68.524 86.3268 68.5353C86.3246 68.5467 86.3198 68.5573 86.3126 68.5663C86.213 68.7479 85.639 69.7846 85.4516 70.054C85.1881 70.4464 84.9597 70.4464 84.7898 70.4054C84.6574 70.3816 84.5304 70.334 84.415 70.2648C84.3623 70.2648 84.3095 70.2648 84.2803 70.2648C84.251 70.2648 84.3564 70.3995 84.4442 70.4464C84.5321 70.4932 84.9011 70.7158 85.1002 70.8505C85.4341 71.0672 85.5863 71.2136 85.6449 71.2488C85.7035 71.2839 85.7445 71.2488 85.762 71.2488C85.7796 71.2488 85.762 71.1316 85.7093 71.0145C85.6566 70.8974 85.7093 70.7041 85.8265 70.4288C85.9436 70.1535 86.623 68.8709 86.6991 68.7362C86.7753 68.6015 86.7636 68.6893 86.8397 68.7362L89.7681 70.2883C89.8443 70.3292 89.8618 70.3644 89.8443 70.4112C89.8267 70.4581 89.1532 71.6763 89.036 71.8462C88.667 72.385 88.4855 72.4319 88.2746 72.4319C88.1314 72.4103 87.9928 72.3648 87.8647 72.2972C87.7768 72.2503 87.7124 72.2444 87.6772 72.2972C87.6421 72.3499 87.6772 72.3909 87.7534 72.4319C87.8295 72.4729 88.3391 72.7891 88.4269 72.8536C88.708 73.0468 88.8076 73.164 88.8779 73.205C88.9482 73.246 88.9833 73.246 89.0009 73.205C89.0185 73.164 89.0009 73.082 89.0009 73.0234C89.0512 72.8588 89.1138 72.6983 89.1883 72.5431C89.3113 72.2913 90.43 70.2004 90.471 70.1067L90.7228 69.685C90.8575 69.4566 91.0098 69.1696 91.1386 68.9295C91.2031 68.8123 91.2089 68.7479 91.1386 68.7128C91.0684 68.6776 91.0508 68.7128 91.0274 68.7655C90.967 68.8872 90.8923 69.0012 90.8048 69.1052C90.5471 69.4156 90.3304 69.4156 89.9614 69.2457C89.5924 69.0759 89.3113 68.9236 87.6597 68.0451L85.7913 67.0728Z" fill="#1D1D1B"/>
<path fill-rule="evenodd" clip-rule="evenodd" d="M77.9724 72.625C77.5388 73.117 77.2668 73.7304 77.1935 74.3821C77.1664 74.7702 77.2314 75.1591 77.383 75.5174C77.5347 75.8756 77.7687 76.193 78.0661 76.4437C78.7983 77.0587 79.5889 77.2812 81.3518 76.9123L81.7735 76.8244C83.2026 76.5198 83.7356 76.5608 84.2569 77.0001C84.4064 77.1196 84.5291 77.2693 84.617 77.4394C84.7049 77.6095 84.756 77.7961 84.7671 77.9872C84.7781 78.1784 84.7488 78.3697 84.6811 78.5487C84.6134 78.7278 84.5087 78.8906 84.374 79.0266C83.6653 79.87 83.0679 79.7938 82.9215 79.7645C82.7139 79.7071 82.5164 79.6182 82.3358 79.501C82.2538 79.4483 82.2011 79.419 82.1542 79.4717C82.1074 79.5244 82.1542 79.5947 82.3124 79.7177C82.9332 80.2389 83.2085 80.5318 83.2553 80.5728C83.3022 80.6138 83.3315 80.6079 83.3959 80.5318C83.5011 80.4184 83.6213 80.3198 83.7532 80.2389C84.0518 80.0114 84.323 79.75 84.5614 79.46C85.5395 78.2886 85.4868 76.9942 84.5028 76.1684C83.8762 75.6413 83.1206 75.3836 81.5041 75.6882L80.8189 75.817C79.5011 76.0571 78.9095 76.0162 78.277 75.4832C78.1078 75.3422 77.9695 75.1677 77.8709 74.9708C77.7723 74.7738 77.7154 74.5586 77.7039 74.3387C77.6923 74.1187 77.7263 73.8987 77.8038 73.6925C77.8813 73.4863 78.0005 73.2984 78.154 73.1404C78.3691 72.8056 78.6994 72.5611 79.0825 72.4532C79.4656 72.3452 79.8749 72.3814 80.2332 72.5547C80.3643 72.6255 80.4862 72.7121 80.5963 72.8124C80.6725 72.871 80.7076 72.8886 80.7545 72.8124C80.8013 72.7363 80.7544 72.7129 80.6666 72.6133C80.5787 72.5138 80.1922 72.1389 79.7295 71.7524C79.4835 71.5415 79.4367 71.5239 79.2668 71.5942C78.7648 71.8384 78.3228 72.1904 77.9724 72.625Z" fill="#1D1D1B"/>
<path fill-rule="evenodd" clip-rule="evenodd" d="M76.4559 82.2656C77.6566 83.7005 77.8733 83.9582 78.1017 84.2628C78.3301 84.5674 78.4121 84.8192 78.2013 85.0769C78.1402 85.1556 78.0715 85.2282 77.9963 85.2936C77.9612 85.3288 77.9377 85.3756 77.9963 85.4107C78.0549 85.4459 78.1076 85.4459 78.2071 85.3639C78.4824 85.1296 79.0388 84.6142 79.0857 84.5791C79.1325 84.5439 79.7358 84.0812 80.0345 83.8294C80.1399 83.7415 80.1692 83.683 80.1223 83.6303C80.1147 83.6225 80.1056 83.6163 80.0955 83.6121C80.0855 83.6078 80.0747 83.6057 80.0638 83.6057C80.0529 83.6057 80.0421 83.6078 80.032 83.6121C80.022 83.6163 80.0128 83.6225 80.0052 83.6303C79.9074 83.7097 79.8014 83.7785 79.6889 83.8353C79.4429 83.9582 79.2204 83.8763 78.9393 83.5834C78.6581 83.2906 78.459 83.0446 77.2583 81.6096L75.8995 79.9932C75.1557 79.1088 74.5466 78.3825 74.2713 77.955C74.0839 77.6621 73.9609 77.4161 74.1132 77.2287C74.1858 77.1308 74.2682 77.0405 74.3592 76.9593C74.4119 76.9124 74.406 76.8714 74.3592 76.8422C74.3123 76.8129 74.2538 76.807 74.1542 76.8949C73.8789 77.1233 73.3225 77.6387 73.2757 77.6738C73.2288 77.709 72.6256 78.1717 72.1043 78.5992C71.9989 78.6812 71.9813 78.7515 72.0164 78.7925C72.0516 78.8335 72.0809 78.8335 72.1394 78.7925C72.198 78.7515 72.4381 78.5758 72.5846 78.4821C72.8891 78.2888 73.1117 78.4469 73.3635 78.6871C73.7325 79.0385 74.3475 79.7647 75.0854 80.6433L76.4559 82.2656Z" fill="#1D1D1B"/>
<path fill-rule="evenodd" clip-rule="evenodd" d="M40.26 88.8368C40.7461 87.0797 41.1034 85.9084 41.1268 85.8381C41.1503 85.7678 41.1268 85.5863 41.0624 85.5628C40.953 85.5543 40.8434 85.5766 40.7461 85.6273L38.1047 86.5175C38.0584 86.5358 38.0193 86.5687 37.9934 86.6112C37.9882 86.6355 37.9904 86.6608 37.9998 86.6838C38.0092 86.7068 38.0253 86.7264 38.0461 86.7401C38.0959 86.7544 38.1487 86.7544 38.1984 86.7401C38.6796 86.619 39.1725 86.5503 39.6685 86.5351C39.8559 86.5819 39.8442 86.7166 39.7798 86.9509C39.6099 87.5893 39.4752 88.0871 39.3112 88.708L38.7665 90.7344C38.4561 91.9058 38.1808 92.8898 38.0168 93.3935C37.8997 93.7449 37.7709 93.8971 37.3667 93.8679C37.0478 93.8275 36.7311 93.7708 36.4179 93.698C36.3932 93.6939 36.3679 93.6987 36.3464 93.7116C36.325 93.7245 36.3088 93.7446 36.3008 93.7683C36.3008 93.8269 36.3476 93.8679 36.4765 93.8971C37.2203 94.0963 38.2335 94.3247 38.2335 94.3423C38.2335 94.3598 39.0242 94.5941 39.8969 94.8225C40.0375 94.8635 40.1019 94.8225 40.1136 94.7932C40.1174 94.7678 40.1117 94.7418 40.0977 94.7202C40.0837 94.6987 40.0623 94.683 40.0375 94.6761C39.7827 94.5982 39.5324 94.5063 39.2878 94.4008C38.9422 94.2193 38.9422 94.0318 38.9891 93.6629C39.0711 93.1357 39.3229 92.1342 39.645 90.9804L40.26 88.8368Z" fill="#878787"/>
<path fill-rule="evenodd" clip-rule="evenodd" d="M47.3238 86.5704C46.9501 86.523 46.5706 86.5539 46.2094 86.6609C45.8483 86.768 45.5133 86.949 45.2258 87.1925C44.9384 87.4359 44.7046 87.7364 44.5395 88.075C44.3743 88.4135 44.2814 88.7827 44.2665 89.1591C44.2425 89.4722 44.2827 89.7869 44.3846 90.084C44.4865 90.381 44.6479 90.6541 44.859 90.8866C45.0701 91.119 45.3264 91.306 45.6122 91.436C45.8981 91.5659 46.2074 91.6362 46.5214 91.6425C47.0624 91.6911 47.6014 91.5296 48.0266 91.1915C48.0617 91.1563 48.0793 91.1329 48.0793 91.0978C48.0793 91.0626 48.0793 91.0099 48.0266 91.0099C47.9699 91.0163 47.9156 91.0364 47.8685 91.0685C47.5653 91.217 47.2243 91.2701 46.8904 91.2208C46.5682 91.2208 45.1333 90.6995 45.2622 88.714C45.2563 88.4833 45.298 88.2538 45.3847 88.0399C45.4714 87.826 45.6012 87.6323 45.766 87.4707C45.9309 87.3092 46.1272 87.1833 46.3428 87.101C46.5584 87.0186 46.7887 86.9816 47.0192 86.9921C48.0735 87.0682 48.9227 88.1986 48.7763 90.2954C48.6808 91.4295 48.2913 92.5191 47.6463 93.4568C47.0014 94.3945 46.1231 95.1479 45.0982 95.6427C45.0629 95.6542 45.0318 95.6759 45.0088 95.7051C44.9859 95.7343 44.9721 95.7697 44.9693 95.8067C44.9693 95.877 45.0045 95.9297 45.0572 95.9297C45.1236 95.9356 45.1904 95.9235 45.2505 95.8945C46.7615 95.2678 49.5904 93.3819 49.8247 90.0377C49.9652 88.1986 49.0106 86.6817 47.3238 86.5704Z" fill="#878787"/>
<path fill-rule="evenodd" clip-rule="evenodd" d="M53.2447 86.6816C52.8558 86.7306 52.4623 86.7306 52.0733 86.6816C51.9972 86.6816 51.9562 86.746 51.9738 86.8631C51.9913 86.9803 51.9738 88.3976 52.0265 88.7783C52.0265 88.9072 52.0616 88.9658 52.1202 88.9599C52.1788 88.954 52.208 88.8896 52.208 88.7783C52.2003 88.4239 52.321 88.0786 52.5477 87.8061C52.8487 87.5494 53.2248 87.3974 53.6195 87.3727L56.548 87.0154C55.4073 89.6869 54.5419 92.4676 53.9651 95.3146C53.9474 95.4507 53.9474 95.5885 53.9651 95.7246C53.9651 95.8124 54.0178 95.8417 54.0881 95.83C54.3282 95.8007 55.195 95.2033 55.1658 94.9632C55.1375 94.8261 55.1199 94.6871 55.113 94.5473C55.113 92.9718 56.4953 88.0638 57.2859 86.5176C57.3225 86.4431 57.3387 86.3602 57.3328 86.2775C57.3328 86.2072 57.2566 86.1662 57.0985 86.1837L53.2447 86.6816Z" fill="#878787"/>
<path fill-rule="evenodd" clip-rule="evenodd" d="M64.63 90.8867C64.7371 91.1547 64.7848 91.4427 64.7699 91.7309C64.755 92.0191 64.6778 92.3006 64.5436 92.5561C64.4095 92.8116 64.2216 93.035 63.9928 93.2109C63.7641 93.3868 63.4999 93.511 63.2185 93.575C63.0108 93.6743 62.7839 93.7274 62.5537 93.7305C62.3234 93.7337 62.0952 93.6869 61.8848 93.5934C61.6744 93.4998 61.4867 93.3618 61.3348 93.1888C61.1828 93.0158 61.0702 92.8118 61.0046 92.5911C60.9519 92.4681 60.9285 92.4388 60.8699 92.4564C60.8114 92.474 60.8114 92.5442 60.8348 92.6614C60.937 93.1522 61.066 93.6371 61.2213 94.1139C61.2366 94.1812 61.2724 94.2422 61.3239 94.2884C61.3753 94.3345 61.4397 94.3636 61.5083 94.3716C62.0089 94.4076 62.5118 94.348 62.9901 94.1959C65.0224 93.534 65.9713 91.7477 65.45 90.1488C65.2518 89.6368 64.8899 89.2047 64.4206 88.9198C63.9514 88.6348 63.4011 88.513 62.8554 88.5733V88.5147C63.16 88.2394 64.0912 87.1032 63.7222 85.9611C63.5348 85.3754 62.7617 84.3798 60.9051 84.983C60.2647 85.1809 59.6764 85.519 59.1832 85.9728C59.0719 86.1075 59.0777 86.1603 59.107 86.2598C59.1949 86.5234 59.394 87.0271 59.558 87.3785C59.6048 87.4781 59.6458 87.4898 59.681 87.4781C59.7161 87.4663 59.7513 87.4253 59.7161 87.3141C59.6469 87.1296 59.6185 86.9323 59.6328 86.7358C59.6471 86.5393 59.7038 86.3482 59.799 86.1757C59.8941 86.0032 60.0255 85.8533 60.1841 85.7364C60.3427 85.6195 60.5247 85.5383 60.7176 85.4984C60.9236 85.4126 61.1452 85.3709 61.3682 85.3759C61.5912 85.3808 61.8107 85.4324 62.0126 85.5273C62.2145 85.6222 62.3943 85.7583 62.5405 85.9268C62.6866 86.0953 62.7959 86.2925 62.8613 86.5058C63.2947 87.8412 62.217 88.7959 61.6899 89.0828C61.5493 89.1531 61.4498 89.2234 61.4732 89.3054C61.4966 89.3874 61.5903 89.3815 61.8187 89.3581C62.586 89.2644 64.1322 89.3581 64.63 90.8867Z" fill="#878787"/>
<path d="M69.6201 86.3712C69.619 86.2135 69.6647 86.0589 69.7515 85.9271C69.8383 85.7954 69.9623 85.6924 70.1078 85.6312C70.2532 85.57 70.4136 85.5534 70.5684 85.5834C70.7233 85.6135 70.8658 85.6889 70.9778 85.8001C71.0898 85.9112 71.1662 86.0531 71.1974 86.2078C71.2287 86.3625 71.2132 86.5229 71.1531 86.6688C71.093 86.8147 70.9909 86.9395 70.8598 87.0273C70.7287 87.115 70.5745 87.1619 70.4167 87.1619C70.2064 87.1619 70.0047 87.0788 69.8555 86.9307C69.7063 86.7826 69.6217 86.5815 69.6201 86.3712Z" fill="#878787"/>
<path d="M69.6201 86.3712C69.619 86.2135 69.6647 86.0589 69.7515 85.9271C69.8383 85.7954 69.9623 85.6924 70.1078 85.6312C70.2532 85.57 70.4136 85.5534 70.5684 85.5834C70.7233 85.6135 70.8658 85.6889 70.9778 85.8001C71.0898 85.9112 71.1662 86.0531 71.1974 86.2078C71.2287 86.3625 71.2132 86.5229 71.1531 86.6688C71.093 86.8147 70.9909 86.9395 70.8598 87.0273C70.7287 87.115 70.5745 87.1619 70.4167 87.1619C70.2064 87.1619 70.0047 87.0788 69.8555 86.9307C69.7063 86.7826 69.6217 86.5815 69.6201 86.3712Z" stroke="#878787" stroke-width="1.52" stroke-miterlimit="3.86"/>
<path d="M31.041 86.3712C31.041 86.2149 31.0874 86.062 31.1743 85.932C31.2611 85.8019 31.3846 85.7006 31.5291 85.6408C31.6736 85.5809 31.8326 85.5653 31.9859 85.5958C32.1393 85.6263 32.2802 85.7016 32.3908 85.8122C32.5014 85.9227 32.5767 86.0636 32.6072 86.217C32.6377 86.3704 32.622 86.5293 32.5622 86.6738C32.5023 86.8183 32.401 86.9418 32.271 87.0287C32.1409 87.1155 31.9881 87.1619 31.8317 87.1619C31.622 87.1619 31.4209 87.0786 31.2726 86.9303C31.1243 86.7821 31.041 86.5809 31.041 86.3712Z" fill="#878787"/>
<path d="M31.041 86.3712C31.041 86.2149 31.0874 86.062 31.1743 85.932C31.2611 85.8019 31.3846 85.7006 31.5291 85.6408C31.6736 85.5809 31.8326 85.5653 31.9859 85.5958C32.1393 85.6263 32.2802 85.7016 32.3908 85.8122C32.5014 85.9227 32.5767 86.0636 32.6072 86.217C32.6377 86.3704 32.622 86.5293 32.5622 86.6738C32.5023 86.8183 32.401 86.9418 32.271 87.0287C32.1409 87.1155 31.9881 87.1619 31.8317 87.1619C31.622 87.1619 31.4209 87.0786 31.2726 86.9303C31.1243 86.7821 31.041 86.5809 31.041 86.3712Z" stroke="#878787" stroke-width="1.52" stroke-miterlimit="3.86"/>
<path fill-rule="evenodd" clip-rule="evenodd" d="M72.9828 9.52924C73.0507 9.53011 73.1181 9.51709 73.1807 9.49097C73.2434 9.46486 73.3001 9.4262 73.3472 9.37738C73.3944 9.32856 73.4311 9.2706 73.4551 9.20707C73.479 9.14355 73.4897 9.07579 73.4865 9.00798C73.4875 8.94365 73.4751 8.87982 73.45 8.82057C73.425 8.76131 73.3878 8.70794 73.341 8.66385C73.2941 8.61975 73.2386 8.58592 73.1779 8.56449C73.1173 8.54307 73.0528 8.53453 72.9887 8.53943C72.9233 8.53862 72.8585 8.55099 72.7981 8.5758C72.7376 8.60061 72.6828 8.63734 72.6369 8.68381C72.591 8.73028 72.5549 8.78553 72.5308 8.84626C72.5067 8.90699 72.4951 8.97195 72.4967 9.03726C72.4934 9.10224 72.5037 9.1672 72.5268 9.22799C72.55 9.28878 72.5856 9.34408 72.6313 9.39036C72.6771 9.43665 72.732 9.4729 72.7925 9.49681C72.853 9.52071 72.9178 9.53176 72.9828 9.52924Z" fill="#1D1D1B"/>
<path fill-rule="evenodd" clip-rule="evenodd" d="M96.6384 52.3838C96.7065 52.3855 96.7743 52.3731 96.8374 52.3473C96.9004 52.3214 96.9574 52.2828 97.0048 52.2338C97.0522 52.1848 97.0888 52.1265 97.1125 52.0626C97.1361 51.9987 97.1462 51.9305 97.1421 51.8625C97.1439 51.7985 97.1323 51.7347 97.1079 51.6755C97.0835 51.6162 97.0469 51.5628 97.0005 51.5186C96.9541 51.4744 96.899 51.4405 96.8386 51.419C96.7782 51.3975 96.714 51.389 96.6501 51.3939C96.5851 51.3923 96.5204 51.404 96.46 51.4281C96.3996 51.4523 96.3447 51.4885 96.2987 51.5345C96.2527 51.5805 96.2165 51.6354 96.1923 51.6958C96.1682 51.7562 96.1565 51.8209 96.1582 51.8859C96.1541 51.9509 96.1635 52.016 96.186 52.077C96.2085 52.1381 96.2434 52.1939 96.2886 52.2407C96.3338 52.2875 96.3882 52.3244 96.4484 52.3491C96.5087 52.3737 96.5734 52.3855 96.6384 52.3838Z" fill="#1D1D1B"/>
<path fill-rule="evenodd" clip-rule="evenodd" d="M80.0102 86.0959C80.078 86.0968 80.1454 86.0837 80.2081 86.0576C80.2707 86.0315 80.3274 85.9929 80.3746 85.944C80.4217 85.8952 80.4584 85.8372 80.4824 85.7737C80.5063 85.7102 80.5171 85.6424 80.5139 85.5746C80.5149 85.5103 80.5024 85.4465 80.4774 85.3872C80.4523 85.328 80.4152 85.2746 80.3683 85.2305C80.3215 85.1864 80.266 85.1526 80.2053 85.1311C80.1446 85.1097 80.0802 85.1012 80.016 85.1061C79.9505 85.1044 79.8853 85.1162 79.8244 85.1407C79.7636 85.1653 79.7085 85.202 79.6624 85.2486C79.6163 85.2953 79.5802 85.3508 79.5564 85.4119C79.5326 85.473 79.5216 85.5384 79.524 85.6039C79.5207 85.6689 79.531 85.7339 79.5542 85.7946C79.5774 85.8554 79.613 85.9107 79.6587 85.957C79.7044 86.0033 79.7593 86.0395 79.8198 86.0635C79.8803 86.0874 79.9451 86.0984 80.0102 86.0959Z" fill="#1D1D1B"/>
</g>
<defs>
<clipPath id="clip0_2330_9745">
<rect width="100" height="100" fill="white"/>
</clipPath>
</defs>
</svg>
