<svg width="100" height="16" viewBox="0 0 100 16" fill="none" xmlns="http://www.w3.org/2000/svg">
<path d="M0 1.00745e-05H32.176L30.2764 0.988374L30.2728 7.64656L27.0837 13.6058L28.2997 15.6582L0 1.00745e-05Z" fill="#ED1C24"/>
<path d="M77.3376 2.38756H77.2998L75.563 5.6072H79.0125L77.3376 2.38756ZM74.5485 7.47411L73.787 9.19629H69.8809L74.5907 0.0282821H79.8474L84.6831 9.19629H80.7565L80.0081 7.47411H74.5485Z" fill="#231F20"/>
<path d="M52.6232 2.3878H52.5854L50.8487 5.60744H54.2981L52.6232 2.3878ZM49.8341 7.47435L49.0727 9.19653H45.165L49.8749 0.0285263H55.1323L59.968 9.19653H56.0414L55.2931 7.47435H49.8341Z" fill="#231F20"/>
<path d="M91.7059 0.0292594H95.2514L91.5648 3.80017L96.1634 9.19727H92.3626L87.5706 3.81035L87.5415 5.22126V9.19727H84.6826V0.0292594H87.5415V3.81035H87.5706L91.7059 0.0292594Z" fill="#231F20"/>
<path d="M97.0967 9.19705H99.9999V0.0283203H97.0967V9.19705Z" fill="#231F20"/>
<path d="M69.6873 2.1369V0.0292594H59.9971V1.96162H65.3556L60.048 7.01472V9.19727H69.7578V7.35145H64.4851L69.6873 2.1369Z" fill="#231F20"/>
<path d="M47.4996 -7.56623e-05H43.7876L41.3513 3.23047L38.9164 -7.56623e-05H35.2051L39.8793 6.19193V9.19702H42.7549V6.19193L47.4996 -7.56623e-05Z" fill="#231F20"/>
</svg>
