<svg width="316" height="384" viewBox="0 0 316 384" fill="none" xmlns="http://www.w3.org/2000/svg">
<circle cx="157.751" cy="225.979" r="157.751" fill="#76C49A"/>
<mask id="mask0_2390_10803" style="mask-type:alpha" maskUnits="userSpaceOnUse" x="0" y="0" width="316" height="384">
<path d="M315.503 225.979C315.503 313.102 244.875 383.73 157.751 383.73C70.6277 383.73 0 313.102 0 225.979C0 138.855 70.6277 0 157.751 0C244.875 0 315.503 138.855 315.503 225.979Z" fill="#D9D9D9"/>
</mask>
<g mask="url(#mask0_2390_10803)">
<path d="M245.73 159.801C247.783 169.298 240.088 191.608 235.445 202.947C235.217 203.503 234.418 203.496 234.159 202.953C230.144 194.511 216.448 175.576 187.813 156.276C157.514 135.854 115.972 178.302 98.6538 202.5C98.4651 202.764 98.1046 202.837 97.8113 202.699C38.1048 174.543 72.7899 140.482 62.5794 135.795C52.3391 131.095 46.1278 121.358 51.6676 112.125C56.0995 104.739 62.2437 103.564 64.7618 103.899C50.6243 100.154 50.5567 86.7046 52.7231 78.5431C52.9017 77.8706 53.8173 77.9661 53.9439 78.6503C57.2286 96.4055 64.6269 91.1781 68.9587 66.6314C72.2864 47.7742 88.8762 48.9656 98.72 52.5331C92.8751 49.567 91.9847 44.1803 92.5542 40.1927C92.6559 39.4808 93.6318 39.5527 93.8379 40.2417C98.1734 54.7365 125.919 57.1075 134.429 47.4937C141.44 39.5741 153.618 40.6389 159.375 42.2858C159.703 42.3795 160.058 42.2116 160.191 41.8981C166.13 27.9247 154.96 22.936 146.552 21.8662C145.846 21.7764 145.703 20.7215 146.355 20.4352C205.174 -5.40603 219.866 22.0313 219.883 39.8148C219.883 40.1712 220.154 40.4626 220.508 40.5026C227.612 41.3054 243.197 47.3284 253.62 65.9599C267.05 89.9659 252.109 109.607 253.62 124.884C255.131 140.16 243.044 147.379 245.73 159.801Z" fill="#707070"/>
<path d="M77.8563 275.466C101.493 267.14 113.781 262.037 116.971 260.526L220.381 257.168C226.257 267.744 240.19 270.934 249.088 271.773C257.985 272.613 269.736 282.349 284.005 290.743C295.421 297.458 316.069 306.523 324.967 310.216V383.577H1.47363V306.691C17.0859 299.752 54.2196 283.793 77.8563 275.466Z" fill="#525252"/>
<path d="M110.76 277.985C107.94 265.092 116.971 257.616 121.839 255.49L149.874 286.378L182.946 294.604L215.513 245.249L237.337 268.08C243.548 272.781 244.891 281.846 229.279 304.173C213.667 326.5 178.245 337.076 149.874 326.836C121.504 316.596 114.285 294.101 110.76 277.985Z" fill="#D0CBCB"/>
<mask id="mask1_2390_10803" style="mask-type:alpha" maskUnits="userSpaceOnUse" x="110" y="245" width="132" height="86">
<path d="M110.76 277.985C107.94 265.092 116.971 257.616 121.839 255.49L149.874 286.378L182.946 294.604L215.513 245.249L237.337 268.08C243.548 272.781 244.891 281.846 229.279 304.173C213.667 326.5 178.245 337.076 149.874 326.836C121.504 316.596 114.285 294.101 110.76 277.985Z" fill="#D9C0AA"/>
</mask>
<g mask="url(#mask1_2390_10803)">
<path d="M225.548 265.876C234.75 263.603 244.718 272.759 248.552 277.621L252.949 254.51L134.212 245.417C123.782 246.364 103.259 254.131 104.613 277.621C105.966 301.111 128.856 321.002 140.132 328.011C133.773 317.1 135.565 310.583 137.257 308.689C185.564 341.12 211.961 296.312 219.121 269.854C223.722 285.918 211.228 300.29 204.406 305.468C228.356 298.042 228.48 275.979 225.548 265.876Z" fill="#9F9E9E"/>
<path d="M225.548 265.876C234.75 263.603 244.718 272.759 248.552 277.621L252.949 254.51L134.212 245.417C123.782 246.364 103.259 254.131 104.613 277.621C105.966 301.111 128.856 321.002 140.132 328.011C133.773 317.1 135.565 310.583 137.257 308.689C185.564 341.12 211.961 296.312 219.121 269.854C223.722 285.918 211.228 300.29 204.406 305.468C228.356 298.042 228.48 275.979 225.548 265.876Z" fill="black" fill-opacity="0.25"/>
</g>
<path d="M239.182 183.404C230.522 244.764 203.429 323.516 166.157 315.521C148.745 311.786 112.605 271.102 98.5041 208.921C82.8917 153.355 121.934 106.854 169.682 106.854C217.43 106.854 239.182 124.531 239.182 183.404Z" fill="#D0CBCB"/>
<path d="M194.865 257C186.538 258.075 183.673 252.524 183.281 249.614L190.164 254.65L194.865 257Z" fill="#9F9E9E"/>
<path d="M138.626 261.869C141.816 260.526 147.59 256.295 145.173 250.117C144.558 252.412 142.386 257.974 138.626 261.869Z" fill="#9F9E9E"/>
<mask id="mask2_2390_10803" style="mask-type:alpha" maskUnits="userSpaceOnUse" x="95" y="106" width="145" height="211">
<path d="M239.182 183.404C230.522 244.764 203.429 323.516 166.157 315.521C148.745 311.786 112.605 271.102 98.5041 208.921C82.8917 153.355 121.934 106.854 169.682 106.854C217.43 106.854 239.182 124.531 239.182 183.404Z" fill="#D9C0AA"/>
</mask>
<g mask="url(#mask2_2390_10803)">
<path d="M207.286 263.883C194.796 285.237 194.36 306.915 195.703 315.085C206.615 304.453 231.594 275.634 244.218 245.417C256.842 215.2 247.016 171.832 240.525 153.926C237.895 143.238 228.438 118.538 211.651 105.242C190.667 88.6228 138.29 101.717 113.612 121.862C88.935 142.007 92.7961 169.202 94.307 175.246C95.5157 180.08 102.981 182.632 106.562 183.304C102.421 179.834 98.974 172.157 118.313 169.202C142.487 165.509 128.889 145.364 161.792 132.438C188.115 122.097 205.999 135.963 211.651 144.189C196.072 137.608 187.029 149.057 184.455 155.604C210.812 150.736 221.723 164.166 228.438 177.932C235.153 191.697 222.898 237.191 207.286 263.883Z" fill="#9F9E9E"/>
</g>
<mask id="mask3_2390_10803" style="mask-type:alpha" maskUnits="userSpaceOnUse" x="95" y="106" width="145" height="211">
<path d="M239.182 183.404C230.522 244.764 203.429 323.516 166.157 315.521C148.745 311.786 112.605 271.102 98.5041 208.921C82.8917 153.355 121.934 106.854 169.682 106.854C217.43 106.854 239.182 124.531 239.182 183.404Z" fill="#D9C0AA"/>
</mask>
<g mask="url(#mask3_2390_10803)">
<path d="M103.037 190.019C113.915 204.254 127.938 199.755 133.59 195.726C125.42 195.167 110.356 192.436 115.459 185.99C120.563 179.543 128.554 179.275 131.911 179.946C130.176 178.827 124.558 177.092 115.963 179.107C107.368 181.121 106.45 176.701 107.066 174.238C104.492 175.581 98.3699 178.435 94.4752 179.107C89.6069 179.946 81.8847 220.068 100.015 261.365C114.519 294.403 151.496 312.734 168.172 317.771C153.13 307.295 151.049 295.499 151.888 290.911C177.405 296.283 185.911 282.965 186.974 275.634C179.856 290.273 160.058 280.838 151.049 274.291C140.808 284.028 134.933 279.999 119.992 248.774C108.039 223.795 103.708 199.196 103.037 190.019Z" fill="#9F9E9E"/>
</g>
<path d="M195.705 198.077C189.93 198.077 187.926 194.048 187.647 192.033C187.982 192.033 191.743 192.369 204.098 193.712C219.543 195.391 221.389 183.472 217.192 178.1C212.996 172.728 189.997 165.677 175.392 178.1C163.708 188.038 169.908 196.902 175.392 199.923C170.826 192 178.358 188.228 181.771 187.501C174.653 197.976 188.094 198.916 195.705 198.077Z" fill="#9F9E9E"/>
<path d="M153.231 191.362C141.547 177.26 127.994 178.435 122.678 180.786C133.825 179.308 137.73 181.401 138.29 182.632H129.896C135.671 183.707 142.935 189.571 145.844 192.369L144.333 186.493C146.068 187.612 150.008 191.16 151.888 196.398C154.238 202.945 148.53 205.631 149.538 218.893C150.545 232.155 145.844 233.162 144.837 237.863C143.83 242.563 145.844 245.585 148.53 246.592C151.216 247.599 153.567 248.775 160.114 251.46C166.661 254.146 170.69 250.621 172.704 248.775C174.719 246.928 179.587 246.424 183.616 245.081C187.645 243.738 187.141 238.534 185.966 235.009C185.212 232.745 183.397 228.816 182.103 226.138C181.94 225.8 181.409 225.949 181.434 226.324C181.805 231.99 181.242 240.597 176.565 240.717C170.018 240.884 170.354 245.921 164.478 247.264C158.603 248.607 148.362 241.388 155.245 231.316C162.128 221.243 153.231 214.864 155.917 201.77C157.685 193.151 154.27 188.638 151.322 186.811C151 186.612 150.749 187.024 151.003 187.304C152.397 188.841 153.059 190.544 153.231 191.362Z" fill="#9F9E9E"/>
<path d="M112.774 187.165C118.37 181.793 133.221 174.809 147.86 189.851C142.376 182.408 127.044 172.056 112.774 187.165Z" fill="black"/>
<path d="M118.416 197.191C125.237 200.639 131.263 197.564 133.423 195.595C112.959 194.957 117.051 187.348 121.656 183.304C111.594 183.463 109.889 192.881 118.416 197.191Z" fill="#9F9E9E"/>
<path d="M214.169 186.661C213.229 192.033 207.622 193.712 204.936 193.88C216.083 187.031 207.007 181.513 201.075 179.61C205.832 179.722 215.109 181.289 214.169 186.661Z" fill="#9F9E9E"/>
<path d="M148.532 249.278C145.577 247.667 144.95 244.578 145.006 243.235C145.51 244.578 147.222 247.163 150.042 246.76C153.568 246.256 156.422 248.103 160.954 250.789C165.487 253.475 169.348 250.118 170.859 248.775C172.37 247.432 174.72 245.249 177.07 245.753C178.95 246.156 180.763 245.585 181.435 245.249C179.42 249.782 175.224 248.103 171.362 250.957C167.501 253.811 167.333 255.657 160.283 252.636C153.232 249.614 152.225 251.293 148.532 249.278Z" fill="#9F9E9E"/>
<path d="M117.977 194.215C115.774 191.736 116.187 189.067 117.138 188.676C121.033 198.211 137.786 195.055 145.844 192.201C132.415 200.091 120.663 197.237 117.977 194.215Z" fill="#B9B6B6"/>
<path d="M135.773 183.472C131.633 182.632 121.001 183.438 111.6 193.376C114.509 187.724 123.418 177.831 135.773 183.472Z" fill="#353434"/>
<path d="M117.231 188.592C129.945 176.471 141.214 185.119 145.854 191.494C146.112 191.849 145.934 192.348 145.519 192.49C125.088 199.502 118.104 193.585 117.042 189.189C116.99 188.974 117.071 188.745 117.231 188.592Z" fill="#D9D9D9"/>
<mask id="mask4_2390_10803" style="mask-type:alpha" maskUnits="userSpaceOnUse" x="117" y="182" width="29" height="14">
<path d="M117.231 188.592C129.945 176.471 141.214 185.119 145.854 191.494C146.112 191.849 145.934 192.348 145.519 192.49C125.088 199.502 118.104 193.585 117.042 189.189C116.99 188.974 117.071 188.745 117.231 188.592Z" fill="#D9D9D9"/>
</mask>
<g mask="url(#mask4_2390_10803)">
<path d="M136.78 187.165C136.78 190.781 133.848 193.712 130.233 193.712C126.617 193.712 123.686 190.781 123.686 187.165C123.686 183.549 126.617 180.618 130.233 180.618C133.848 180.618 136.78 183.549 136.78 187.165Z" fill="#4D5E55"/>
</g>
<path d="M170.858 259.015C171.798 262.507 169.235 263.827 167.836 264.051C163.471 264.051 162.632 261.197 163.471 258.175C164.311 255.154 169.683 254.65 170.858 259.015Z" fill="#9F9E9E"/>
<path d="M185.967 185.15C186.715 184.192 187.762 183.186 189.082 182.312C200.735 173.471 213.568 182.279 214.337 187.668C202.97 177.576 194.075 179.004 189.082 182.312C188.03 183.11 186.989 184.051 185.967 185.15Z" fill="#353637"/>
<path d="M201.579 194.719C192.178 196.196 184.792 192.201 182.273 190.187C201.478 194.35 209.301 188.788 210.812 185.318C211.651 187.836 210.98 193.242 201.579 194.719Z" fill="#B9B6B6"/>
<path d="M210.597 184.697C196.99 173.588 186.419 183.076 182.282 189.789C182.052 190.162 182.268 190.646 182.692 190.756C203.601 196.179 210.111 189.743 210.832 185.279C210.867 185.06 210.769 184.838 210.597 184.697Z" fill="#D9D9D9"/>
<mask id="mask5_2390_10803" style="mask-type:alpha" maskUnits="userSpaceOnUse" x="182" y="179" width="29" height="14">
<path d="M210.597 184.697C196.989 173.588 186.418 183.076 182.281 189.789C182.051 190.162 182.267 190.646 182.691 190.756C203.6 196.179 210.11 189.743 210.831 185.279C210.866 185.06 210.768 184.838 210.597 184.697Z" fill="#D9D9D9"/>
</mask>
<g mask="url(#mask5_2390_10803)">
<path d="M190.997 184.775C191.275 188.381 194.422 191.078 198.027 190.801C201.633 190.523 204.33 187.375 204.052 183.77C203.775 180.165 200.627 177.467 197.022 177.745C193.417 178.023 190.719 181.17 190.997 184.775Z" fill="#4D5E55"/>
</g>
<path d="M133.086 187.333C133.086 189.001 131.734 190.354 130.065 190.354C128.396 190.354 127.043 189.001 127.043 187.333C127.043 185.664 128.396 184.311 130.065 184.311C131.734 184.311 133.086 185.664 133.086 187.333Z" fill="black"/>
<path d="M194.692 184.66C194.82 186.324 196.273 187.569 197.937 187.44C199.6 187.312 200.845 185.86 200.717 184.196C200.589 182.532 199.136 181.287 197.473 181.415C195.809 181.543 194.564 182.996 194.692 184.66Z" fill="black"/>
<path d="M196.543 268.416C195.066 269.356 194.137 268.584 193.857 268.08C193.353 268.08 192.782 267.711 194.528 266.233C196.711 264.387 198.389 267.241 196.543 268.416Z" fill="#9F9E9E"/>
<path d="M148.196 270.598C146.797 269.927 143.73 269.087 142.656 271.102C141.313 273.62 143.999 276.642 148.196 270.598Z" fill="#9F9E9E"/>
<path fill-rule="evenodd" clip-rule="evenodd" d="M184.383 232.216C184.627 232.083 184.933 232.174 185.066 232.418C187.991 237.791 187.8 241.326 186.073 243.517C184.39 245.652 181.409 246.284 179.249 246.256C179.083 246.256 178.925 246.256 178.772 246.256C177.109 246.253 176.158 246.252 175.151 246.587C174.051 246.954 172.856 247.737 170.671 249.502C168.432 251.311 166.386 252.137 164.336 252.069C162.298 252.001 160.351 251.05 158.301 249.513C156.136 247.889 152.991 247.319 150.538 247.21C148.89 247.137 146.951 246.785 145.851 245.249C144.909 243.934 144.141 242.139 144.092 239.949C144.044 237.755 144.718 235.204 146.601 232.379C146.755 232.148 147.068 232.085 147.299 232.24C147.531 232.394 147.593 232.707 147.439 232.938C145.653 235.617 145.056 237.969 145.099 239.926C145.143 241.886 145.829 243.488 146.67 244.663C147.474 245.785 148.965 246.132 150.583 246.204C153.1 246.316 156.495 246.899 158.906 248.707C160.885 250.192 162.631 251.004 164.37 251.062C166.097 251.12 167.913 250.435 170.038 248.718C172.218 246.958 173.541 246.062 174.833 245.632C176.003 245.241 177.126 245.244 178.733 245.248C178.9 245.249 179.073 245.249 179.252 245.249H179.255L179.259 245.249C181.295 245.276 183.885 244.666 185.282 242.894C186.635 241.176 187.032 238.136 184.182 232.899C184.049 232.655 184.139 232.349 184.383 232.216Z" fill="black"/>
<path d="M162.969 266.066C158.724 263.943 150.852 268.636 147.317 271.339C147.234 271.402 147.188 271.495 147.192 271.599C147.379 277.682 158.072 288.867 173.713 285.539C185.91 282.944 192.09 272.931 193.856 267.765C193.938 267.527 193.728 267.295 193.479 267.334C183.801 268.855 175.33 262.758 172.034 265.394C168.677 268.08 168.341 268.752 162.969 266.066Z" fill="#9F9E9E"/>
<path d="M162.969 266.066C158.724 263.943 150.852 268.636 147.317 271.339C147.234 271.402 147.188 271.495 147.192 271.599C147.379 277.682 158.072 288.867 173.713 285.539C185.91 282.944 192.09 272.931 193.856 267.765C193.938 267.527 193.728 267.295 193.479 267.334C183.801 268.855 175.33 262.758 172.034 265.394C168.677 268.08 168.341 268.752 162.969 266.066Z" fill="black" fill-opacity="0.25"/>
<mask id="mask6_2390_10803" style="mask-type:alpha" maskUnits="userSpaceOnUse" x="147" y="264" width="47" height="23">
<path d="M162.969 266.066C158.724 263.943 150.852 268.636 147.317 271.339C147.234 271.402 147.188 271.495 147.192 271.599C147.379 277.682 158.072 288.867 173.713 285.539C185.91 282.944 192.09 272.931 193.856 267.765C193.938 267.527 193.728 267.295 193.479 267.334C183.801 268.855 175.33 262.758 172.034 265.394C168.677 268.08 168.341 268.752 162.969 266.066Z" fill="#B87567"/>
</mask>
<g mask="url(#mask6_2390_10803)">
<path d="M146.686 268.584L148.029 271.438L149.539 271.27L153.568 271.773L157.765 271.438L163.305 272.948L168.173 273.956L178.414 269.759L187.815 268.416L193.354 267.241L192.851 262.54L182.275 261.533L168.845 264.219L158.101 262.54L146.686 268.584Z" fill="#9F9E9E"/>
</g>
<path d="M162.296 274.627C158.332 272.74 154.35 272.221 152.896 272.109C159.778 270.43 161.121 271.605 163.639 273.116C165.654 274.325 168.732 273.844 170.019 273.452L176.901 270.095L182.609 269.087C170.396 277.03 167.372 277.043 162.296 274.627Z" fill="#525252"/>
<path fill-rule="evenodd" clip-rule="evenodd" d="M195.498 266.211C195.603 266.468 195.48 266.762 195.223 266.867C194.58 267.13 192.929 267.691 190.953 268.202C188.979 268.714 186.643 269.186 184.641 269.255C179.871 269.419 176.588 270.563 172.097 272.892C169.757 274.105 167.853 274.427 166.08 274.225C164.331 274.026 162.749 273.318 161.083 272.568C159.527 271.868 158 271.899 156.462 272.023C156.269 272.039 156.075 272.056 155.879 272.074C154.556 272.193 153.179 272.316 151.906 271.918C150.944 271.617 149.416 271.658 147.975 271.833C146.54 272.006 145.323 272.294 145.019 272.411C144.759 272.511 144.468 272.382 144.368 272.122C144.268 271.862 144.397 271.571 144.657 271.471C145.08 271.308 146.398 271.009 147.854 270.833C149.302 270.657 151.02 270.586 152.207 270.957C153.274 271.29 154.429 271.189 155.774 271.071C155.972 271.054 156.174 271.036 156.38 271.019C157.947 270.892 159.694 270.839 161.496 271.65C163.187 272.411 164.627 273.046 166.194 273.224C167.736 273.4 169.441 273.135 171.634 271.998C176.208 269.626 179.64 268.419 184.606 268.248C186.499 268.183 188.752 267.732 190.701 267.227C192.648 266.723 194.253 266.176 194.841 265.935C195.099 265.83 195.393 265.953 195.498 266.211Z" fill="black"/>
<path d="M211.821 168.867C203.557 168.743 184.845 175.784 174.433 179.405C173.771 179.635 173.325 178.895 173.864 178.446C180.64 172.811 195.444 164.966 209.302 163.159C222.064 161.494 224.969 166.401 225.308 170.777C225.362 171.47 224.039 171.91 223.459 171.526C221.477 170.215 217.809 168.956 211.821 168.867Z" fill="#707070"/>
<path d="M114.139 174.143C121.773 173.135 139.795 177.61 149.91 179.867C150.595 180.019 150.952 179.238 150.363 178.858C143.388 174.355 128.866 168.725 115.861 168.547C103.919 168.385 101.27 173.591 101.237 177.832C101.231 178.527 102.582 178.833 103.107 178.377C104.979 176.749 108.536 174.883 114.139 174.143Z" fill="#707070"/>
<path fill-rule="evenodd" clip-rule="evenodd" d="M144.933 248.948C145.208 248.907 145.464 249.097 145.505 249.372C145.638 250.27 145.373 251.923 144.338 254.137C143.293 256.372 141.442 259.227 138.323 262.549C138.133 262.752 137.814 262.762 137.611 262.572C137.408 262.381 137.398 262.063 137.589 261.86C140.648 258.601 142.433 255.832 143.426 253.711C144.427 251.569 144.599 250.132 144.508 249.52C144.468 249.245 144.658 248.989 144.933 248.948Z" fill="black"/>
<path fill-rule="evenodd" clip-rule="evenodd" d="M182.968 248.252C182.705 248.345 182.569 248.633 182.662 248.895C182.966 249.751 183.975 251.086 185.929 252.555C187.9 254.038 190.875 255.69 195.188 257.159C195.451 257.249 195.737 257.108 195.827 256.845C195.917 256.582 195.776 256.296 195.513 256.206C191.282 254.764 188.406 253.158 186.534 251.75C184.645 250.329 183.818 249.141 183.611 248.558C183.518 248.296 183.23 248.159 182.968 248.252Z" fill="black"/>
<path d="M182.273 186.326C182.301 186.28 182.328 186.235 182.356 186.189C191.771 170.783 208.147 176.939 215.177 181.961C196.798 172.505 185.705 180.758 182.356 186.189C182.329 186.234 182.301 186.28 182.273 186.326Z" fill="black"/>
</g>
</svg>
