<?xml version="1.0" encoding="UTF-8"?>
<svg id="Layer_1" data-name="Layer 1" xmlns="http://www.w3.org/2000/svg" viewBox="0 0 327.48 382.87">
  <defs>
    <style>
      .cls-1, .cls-2, .cls-3, .cls-4, .cls-5, .cls-6, .cls-7, .cls-8, .cls-9, .cls-10, .cls-11, .cls-12 {
        stroke-width: 0px;
      }

      .cls-1, .cls-9 {
        fill: #000;
      }

      .cls-2, .cls-11 {
        fill: #c18c74;
      }

      .cls-3 {
        fill: #d0cbcb;
      }

      .cls-4 {
        fill: #d9a892;
      }

      .cls-5 {
        fill: #705e46;
      }

      .cls-6 {
        fill: #5053b1;
      }

      .cls-7 {
        fill: #c77272;
      }

      .cls-8 {
        fill: #922f2f;
      }

      .cls-9, .cls-11, .cls-12 {
        fill-rule: evenodd;
      }

      .cls-10 {
        fill: #413e3e;
      }

      .cls-12 {
        fill: #2d2c2d;
      }
    </style>
  </defs>
  <path class="cls-6" d="M327.48,221.55c0,26.23-6.25,51.01-17.33,72.92-22.31,44.09-64.23,76.58-114.29,86-.52.1-1.03.2-1.54.28-2.13.39-4.28.72-6.44,1.02h-.01c-.33.04-.64.09-.97.13-3.21.42-6.45.75-9.72.97h-22.83c-14.3-.99-28.08-3.85-41.11-8.33h-.01c-1.98-.67-3.94-1.39-5.88-2.14-17.78-6.89-34.04-16.83-48.14-29.19-33.81-29.64-55.16-73.16-55.16-121.66,0-23.7,5.1-46.2,14.25-66.48,1.39-3.07,2.87-6.09,4.43-9.05,1.13-2.13,2.31-4.22,3.54-6.3,0,0-.01-.01,0-.02,1.4-2.39,2.86-4.7,4.39-7.01-.01,0-.01-.02,0-.03,11.86-18,27.22-33.49,45.12-45.49,5.84-3.93,11.95-7.47,18.3-10.61h.01c8.37-4.15,17.14-7.6,26.26-10.26h.01c7.17-2.1,14.56-3.71,22.1-4.79h.02c7.3-1.06,14.75-1.62,22.33-1.67h.95c3.44,0,6.85.11,10.23.32,1.48.09,2.97.2,4.44.34,6.71.6,13.3,1.61,19.75,3.01,72.78,15.78,127.3,80.54,127.3,158.04Z"/>
  <path class="cls-5" d="M310.15,294.47c-22.31,44.09-64.23,76.58-114.29,86-.52.1-1.03.2-1.54.28,5.68-7.35,15.72-19.39,21.52-22.9,8.1-4.91,25.52-19.39,26.01-37.79.27-10.22-1.57-36.95-3.4-59.92v-.03c-.78-9.63-1.55-18.6-2.17-25.41.01-.01.01-.02,0-.03-.02-.32-.05-.63-.08-.94v-.02h.01s.07.06.11.09c4.7,3.49,14.01,12.49,14.6,21.25.74,11.04,7.12,21.34,11.78,21.59,4.66.25,14.47-1.23,29.19,7.61,5.65,3.39,11.84,7.1,18.26,10.22Z"/>
  <path class="cls-10" d="M250.68,322.52c-7.12,13.49-17.42,24.78-33.12,36.55-10.4,7.8-17.93,16.37-21.7,21.4-.52.1-1.03.2-1.54.28-2.13.39-4.28.72-6.44,1.02h0c-.33.04-.64.09-.97.13l7.11-34.85,7.07-13.88h0s20.9-41.07,20.9-41.07l5.02-20.61,9.17-37.69s.02-.05.03-.07v-.02h.01s.01.03.01.04c.03.06.06.13.09.2,1.78,3.78,5.71,13.73,7.25,24.29,1.97,13.49,6.38,13.25,3.19,26.01-3.19,12.75-1.96,24.04,0,25.02,1.97.98,11.04-.25,3.93,13.25Z"/>
  <path class="cls-10" d="M119.43,369.38l-6.19,5.16h-.01c-1.98-.67-3.94-1.39-5.88-2.14-17.78-6.89-34.04-16.83-48.14-29.19,2.41-5.42,4.84-10.63,7.23-15.05,7.41-13.68,20.02-25.09,25.93-29.52.19-.14.38-.28.56-.41l6.63-2.7,13.49,9.81.41,4.16.44,4.38.33,3.33.07.71,5.13,51.46Z"/>
  <path class="cls-2" d="M243.56,202.55c-.79,9.81-13.41,13.9-19.63,14.72l-25.76-51.27c1.64-3.35,8.1-13.05,20.85-25.02,15.95-14.96,18.15,19.38,15.95,34.59-2.21,15.21,9.57,14.72,8.59,26.99Z"/>
  <path class="cls-10" d="M50.48,213.83C20.14,166.32-27.88,70.8,20.8,66.88c.33-3.11-2.94-6.58-20.61-.49.33-15.62,6.53-48.13,32.63-46.37-2.62-.65-9.37-1.57-15.46,0,6.62-4.66,26.35-14.52,52.26-16.68l-7.12-1.47c36.64-4.09,109.91-4.12,109.91,28.46l1.72-8.1c3.27,5.23,8.34,17.17,2.45,23.06,4.01,0,12.9-.88,16.44-4.42-.66,2.33-2.53,6.37-5.64,8.37,3.69.18,8.76,3.59,13.25,15.42,8.1,21.34,37.78,86.11,0,123.89l-150.14,25.27Z"/>
  <path class="cls-4" d="M238.52,257.12c0,.17,0,.34,0,.52,0,.32-.01.64-.02.97-.01.25-.01.49-.03.74,0,.22-.01.43-.02.65v.14c-.02.38-.04.76-.06,1.15-.04.65-.08,1.31-.12,1.97-.09,1.19-.2,2.37-.35,3.56-.06.53-.13,1.08-.21,1.62-.02.15-.04.29-.06.44-.05.38-.11.75-.17,1.13-.02.18-.05.35-.09.52,0,.13-.04.25-.06.37-.06.38-.13.77-.21,1.14-.03.16-.06.33-.09.49-.11.56-.23,1.12-.35,1.67-.12.54-.25,1.08-.38,1.62-.35,1.38-.74,2.75-1.18,4.09-.1.32-.21.64-.32.95-.05.14-.09.27-.15.4-.05.15-.1.3-.16.45-.04.12-.08.24-.14.35.01.01,0,.01,0,.01-.15.41-.3.81-.47,1.21,0,.01-.01.02-.01.03-.2.48-.4.95-.61,1.42h0c-.22.51-.44,1.02-.65,1.54-.11.24-.21.49-.3.75-.23.57-.45,1.16-.66,1.77-.17.48-.34.97-.49,1.46-.18.54-.34,1.1-.51,1.66,0,.03-.02.07-.03.1-.02.04-.03.09-.04.14-.06.22-.14.42-.2.64-.06.21-.12.42-.17.63-.28.99-.55,2.01-.8,3.04,0,.01,0,.03,0,.04-.27,1.09-.52,2.19-.76,3.32-.12.56-.24,1.14-.36,1.71-.17.86-.34,1.73-.49,2.61-.27,1.46-.51,2.94-.74,4.44-.09.6-.17,1.2-.26,1.8-2.15,15.18-2.56,31.34-2.36,40.35-7.02,0-26.69,20.03-36.55,31.04h-.01c-.33.04-.64.09-.97.13-3.21.42-6.45.75-9.72.97h-22.83c-14.3-.99-28.08-3.85-41.11-8.33h-.01c-1.98-.67-3.94-1.39-5.88-2.14.21-2.49.1-5.21-.43-7.93-1.72-8.83-1.97-15.46,1.71-24.53,2.93-7.22-5.37-26.25-9.96-34.67,0-.01-.01-.01-.01-.02-.03-.05-.05-.1-.08-.15,3.46,1.22,8.6,2.82,14.88,4.4,13.6,3.45,32.56,6.83,51.4,6.17,1.62-.06,3.24-.15,4.86-.27.49-.04.99-.09,1.48-.16.4-.05.79-.11,1.19-.18.03-.01.06-.01.09-.02.44-.08.87-.17,1.31-.27.36-.09.72-.18,1.08-.28.2-.05.4-.11.59-.17.23-.06.46-.13.68-.21.22-.07.44-.14.66-.22t.02-.01c.79-.27,1.57-.58,2.35-.92.42-.18.84-.37,1.26-.58,1.36-.65,2.71-1.39,4.04-2.22.44-.27.87-.55,1.31-.84s.87-.59,1.3-.9c.43-.3.87-.62,1.3-.95.43-.32.86-.66,1.29-1,.41-.32.81-.65,1.21-.98,1.3-1.09,2.59-2.25,3.86-3.47.42-.4.83-.8,1.24-1.22.42-.41.83-.83,1.24-1.26.42-.43.83-.86,1.23-1.3.82-.87,1.62-1.77,2.42-2.69.8-.93,1.59-1.87,2.37-2.83.78-.94,1.55-1.91,2.3-2.9.01-.01.02-.02.03-.04.38-.48.75-.97,1.12-1.46.39-.52.78-1.05,1.16-1.58.39-.51.76-1.03,1.12-1.55.38-.52.75-1.04,1.11-1.57.73-1.03,1.44-2.08,2.14-3.14.1-.15.19-.29.28-.43.36-.53.7-1.06,1.04-1.59.31-.47.6-.93.9-1.4.32-.51.64-1.02.96-1.53,2.08-3.34,4.07-6.74,5.94-10.11.2-.35.39-.71.59-1.06.09-.16.17-.31.25-.47.59-1.09,1.17-2.17,1.73-3.24.29-.55.58-1.1.86-1.64.87-1.68,1.71-3.34,2.51-4.98.8-1.61,1.56-3.2,2.28-4.76.25-.52.49-1.04.72-1.55.71-1.54,1.39-3.04,2.03-4.51.38-.87.75-1.74,1.11-2.58.04-.1.09-.2.12-.3.59-1.41,1.15-2.77,1.67-4.08.34-.83.65-1.63.95-2.41.01-.04.03-.07.04-.11,0,0,0-.01.01-.01,0,.01.01.02.01.03.02.09.04.18.06.28,0,.03.01.06.02.1,0,0,.01,0,0,.01t0,.02c.02.08.04.16.06.24s.04.16.06.25c.03.16.07.32.1.49.18.89.37,1.86.55,2.91.09.49.17,1.01.25,1.54,0,.05.01.11.02.16.04.21.07.43.1.65.04.22.07.44.09.67.03.24.06.49.1.74.06.43.11.88.16,1.33.13,1.02.24,2.08.33,3.18.02.18.03.35.04.53.02.26.04.52.06.78.01.06.02.13.02.19.01.13.02.27.03.4.06.85.11,1.71.15,2.59.01.28.02.56.03.84.01.28.02.55.03.83.02.55.04,1.12.04,1.68.02.98.01,1.97,0,2.96Z"/>
  <path class="cls-11" d="M112.48,315.91c10.69,7.9,28.45,21.02,48.9,25.26,25.26,5.23,54.38-13.89,65.41-30.78,1.36-9.63,3.42-18.87,6.47-25.64,7.85-17.47,5.23-41.3,2.94-51.03-10.06,26.33-37.44,79.54-66.48,81.7-4.02.3-8.07.41-12.1.37-15.64,1.21-30.5-.43-40.6-1.55-3.13-.35-5.81-.64-7.9-.79,1.03.74,2.15,1.57,3.36,2.47Z"/>
  <path class="cls-4" d="M233.44,208.86c.29.72.52,1.44.69,2.2,13.23,58.94-34.45,113.91-87.36,113.91-52.75,13.76-121.25-113.78-121.93-208.53,0-75.59,48.82-3.19,117.79-66.7,2.66-2.45,6.21-4.09,9.78-3.49,48.36,8.07,63.71,119.5,81.03,162.62Z"/>
  <path class="cls-2" d="M36.75,189.55c-.41.12-1.02-1.04-1.72-4.44-38.44-100.62-2.31-119.37,40.73-114.05,43.67,5.4,50.78-28.21,76.54-27.97,20.61.2,31.16,20.2,33.86,30.18-7.61-9.57-29.29-24.04-55.2-5.4-32.38,23.31-50.05,20.36-69.92,17.66-19.87-2.7-32.63.49-30.18,52.75,1.27,26.99,2.88,40.64,4.16,46.83.56,1.46,1.13,2.94,1.72,4.44Z"/>
  <path class="cls-2" d="M97.1,166.24c-8.75-3.35-28.36-4.37-36.8,18.4,1.64-10.71,11.29-29.39,36.8-18.4Z"/>
  <path class="cls-2" d="M177.81,197.4c6.07-.56,16.5,2.3,15.21,11.78l-15.21-11.78Z"/>
  <path class="cls-2" d="M71.58,270.26c-7.52-2.29-20.17-9.27-10.55-18.89l10.55,18.89Z"/>
  <path class="cls-2" d="M53.67,236.65c-10.06-9.4-26.99-30.22-14.23-38.27l14.23,38.27Z"/>
  <path class="cls-12" d="M158.34,126.69c-11.15,3.4-22.06,10.34-28.66,15.72-1.47,1.2-3.63.98-4.83-.49-1.2-1.47-.98-3.63.49-4.83,7.05-5.74,18.74-13.23,30.99-16.96,12.18-3.71,25.98-3.98,35.75,6.48,1.3,1.39,1.22,3.56-.16,4.86-1.39,1.29-3.56,1.22-4.86-.16-7.1-7.6-17.51-8.02-28.73-4.6Z"/>
  <path class="cls-12" d="M67.62,156.44c10.96-3.31,23.61-3.5,32.01-2.5,1.88.23,3.59-1.12,3.82-3,.23-1.88-1.12-3.59-3-3.82-9.08-1.08-22.72-.91-34.81,2.74-12.05,3.64-23.48,11.06-26.13,25.05-.35,1.86.87,3.66,2.74,4.01,1.86.35,3.66-.87,4.01-2.74,1.95-10.3,10.36-16.43,21.37-19.75Z"/>
  <path class="cls-3" d="M96.66,165.36c-20.71-4.68-32.19,9.39-35.91,18.24-.26.62.2,1.27.86,1.25,13.36-.37,28.39-11.34,35.48-17.9.56-.52.31-1.43-.43-1.59Z"/>
  <path class="cls-9" d="M98.12,166.09c-.08-.67-.55-1.28-1.3-1.45-2.32-.53-4.54-.82-6.64-.9h-.03c-.2-.02-.4-.02-.6-.03-7.16-.19-13.02,1.94-17.63,5.09-.11.07-.2.15-.31.23-.06.04-.13.09-.19.14-.3.2-.59.42-.88.64-4.46,3.4-7.6,7.71-9.52,11.48-.36.7-.68,1.38-.95,2.03-.47,1.11.37,2.31,1.57,2.27,5.83-.16,11.94-2.29,17.55-5.16,0-.01.03-.01.04-.02.81-.41,1.62-.85,2.41-1.3h.01l.03-.03c.13-.06.26-.13.39-.21,6.37-3.64,11.94-8.06,15.52-11.37.42-.39.59-.92.53-1.41ZM75.61,180.52h-.01c-4.63,2.07-9.43,3.47-14.01,3.6-.07,0-.12-.03-.15-.07-.03-.04-.04-.09-.01-.16,1.59-3.81,4.67-8.62,9.35-12.4.63-.51,1.28-1,1.97-1.47,1.68-1.14,3.53-2.15,5.57-2.94h.01s.01-.01.02-.01c4.86-1.9,10.75-2.59,17.76-1.07h.02c.12.02.25.05.37.08.1.02.15.09.16.18,0,.06-.02.11-.07.16-3.07,2.84-7.63,6.51-12.91,9.78-.77.47-1.55.94-2.34,1.39-1.87,1.06-3.77,2.06-5.72,2.92h-.01Z"/>
  <path class="cls-1" d="M84.09,173.84c0,3.79-3.08,6.87-6.87,6.87s-6.87-3.08-6.87-6.87,3.07-6.87,6.87-6.87,6.87,3.08,6.87,6.87Z"/>
  <path class="cls-3" d="M143.25,149.59c14.1-15.88,31.63-11.15,39.81-6.13.57.35.58,1.15.03,1.52-11.07,7.49-29.67,7.35-39.26,6.15-.75-.09-1.08-.98-.58-1.55Z"/>
  <path class="cls-9" d="M183.45,142.84c-1.62-1-3.59-1.98-5.84-2.79,0,0,0-.01-.01-.01-.1-.04-.19-.08-.3-.11h-.01c-3.48-1.24-7.57-2.08-11.93-1.98-2.22.05-4.49.35-6.8.96-.09.02-.18.05-.27.07-4.55,1.26-9.18,3.74-13.54,7.98-.06.05-.1.1-.15.15-.64.62-1.27,1.28-1.9,1.98-.02.03-.04.06-.06.1-.11.12-.18.24-.23.38-.01.01,0,.01,0,.01-.05.09-.08.18-.09.28-.2.9.38,1.88,1.42,2.01,4.84.6,11.94.94,19.24.18.2-.02.41-.05.61-.08h.05s.03,0,.05-.01c.7-.07,1.42-.16,2.13-.27.01.01.02.01.03,0h.03c6.35-.92,12.69-2.76,17.62-6.09.4-.27.63-.67.7-1.09.12-.62-.14-1.29-.75-1.67ZM160.09,150.82c-6.19.42-12.03.1-16.17-.41-.16-.02-.23-.2-.12-.33,4.84-5.45,10.07-8.41,15.17-9.75h.01c2.17-.58,4.32-.85,6.41-.9.83-.02,1.65-.01,2.46.05h.01c6,.34,11.29,2.45,14.82,4.61.06.04.08.09.08.14s-.02.11-.08.15c-3.82,2.58-8.59,4.25-13.61,5.26-2.05.42-4.15.73-6.24.95-.92.09-1.82.17-2.73.23h-.01Z"/>
  <path class="cls-1" d="M158.48,149.32c2.33,3,6.64,3.54,9.64,1.21,3-2.33,3.54-6.64,1.21-9.64-2.33-3-6.64-3.54-9.64-1.21-3,2.33-3.54,6.64-1.21,9.64Z"/>
  <path class="cls-2" d="M131.93,225.61c-2.95-4.44-18.59-7.12-19.63-10.79,0-2.78,2.75-10.55,6.87-8.59,5.15,2.45,11.53,6.13,17.66,4.91,6.13-1.23,5.89-10.79,12.02-14.23,4.91-2.75,11.45.49,12.02,2.45-6.38,2.45-10.35,14.67-12.02,24.78-2.2,13.31-11.39,9.81-16.93,1.47Z"/>
  <path class="cls-2" d="M61.28,188.32c10.9-1.89,30.62-10.98,38.08-19.22,1.03-1.52,1.92-2.91,2.64-4.09-.46,1.31-1.37,2.69-2.64,4.09-6.81,9.99-20.2,25.35-38.08,19.22Z"/>
  <path class="cls-2" d="M181.49,151.03c-12.02,4.42-29.85,4.66-37.29,4.42,4.25,1.14,14.62,3.34,22.08,2.94,7.46-.39,13.25-5.07,15.21-7.36Z"/>
  <path class="cls-9" d="M182.56,150.82c.25.32.2.78-.12,1.03-11.82,9.31-28.17,7.42-37.71,4.54-.39-.12-.61-.53-.49-.92.12-.39.53-.61.92-.49,9.41,2.83,25.14,4.56,36.38-4.29.32-.25.78-.2,1.03.12Z"/>
  <path class="cls-2" d="M195.97,224.24c0,4.46-7.35,9.53-11.02,11.51-1.84,1.74-5.03,3.84-3.1-1.74,2.41-6.98,14.12-15.35,14.12-9.77Z"/>
  <path class="cls-2" d="M99.12,260.79c3.1,2.45,12.8,1.44,17.27.62.12-.81-.34-2.68-3.16-3.7-3.53-1.28-17.98.02-14.11,3.08Z"/>
  <path class="cls-7" d="M119.18,263.65l-7.11-4.66s3.05-2.78,4.91-4.66c2.95-3,3.85-5.53,7.12-8.1,2.9-2.28,4.85-3.24,8.34-4.42,5.64-1.91,15.21-.98,15.21-.98,0,0,5.03-5.69,9.32-7.61,3.74-1.67,6.21-1.82,10.3-1.96,5.04-.18,12.76,1.96,12.76,1.96h5.64s-.2,4.71-.98,7.61c-.67,2.49-1.19,3.88-2.45,6.13-2.33,4.13-8.34,8.83-8.34,8.83l-14.23,7.85s-8.9,3.86-14.97,4.42c-5.55.51-14.23-1.23-14.23-1.23l-11.29-3.19Z"/>
  <path class="cls-8" d="M112.8,259.47s.09,0,.14,0c1.02-.26,7.56-3.63,14.34-4.66,8.16-1.24,46.94-12.87,52.99-18.89,3.73-3.72,3.19-2.94,3.92-2.7-6.07,5.21-22.74,17.98-40.48,22.08-12,2.77-25.68,4.07-30.78,4.17-.08.02-.12.02-.14,0Z"/>
  <path class="cls-9" d="M150.53,201.2c-2,1.35-3.96,3.9-5.89,8.74-1.02,2.56-2.42,4.37-4.06,5.55-1.65,1.18-3.5,1.7-5.37,1.75-3.72.1-7.56-1.65-10.34-3.8-2.01-1.55-3.85-1.84-5.33-1.63-1.51.22-2.68.97-3.27,1.57-.29.29-.75.29-1.04,0-.29-.29-.29-.75,0-1.04.79-.8,2.25-1.71,4.1-1.98,1.88-.27,4.12.13,6.44,1.92,2.62,2.02,6.13,3.58,9.41,3.5,1.62-.04,3.18-.49,4.55-1.48,1.38-.99,2.62-2.55,3.56-4.9,1.99-4.97,4.08-7.82,6.43-9.41,2.37-1.6,4.88-1.84,7.5-1.84.41,0,.74.33.74.74s-.33.74-.74.74c-2.54,0-4.68.25-6.67,1.59Z"/>
  <path class="cls-9" d="M109.32,203.07c.39.11.61.52.5.91-.93,3.19-1.65,7.68-.91,10.91.36,1.6,1.06,2.77,2.13,3.4,1.08.62,2.72.8,5.21,0,.39-.12.8.09.93.48.12.39-.09.8-.48.93-2.71.87-4.82.78-6.4-.12-1.57-.91-2.42-2.53-2.83-4.35-.82-3.6-.01-8.38.94-11.65.11-.39.52-.62.91-.5Z"/>
  <path class="cls-9" d="M156.37,185.67c.24-.33.7-.39,1.03-.15,1.65,1.23,3.51,2.86,5.05,4.73,1.54,1.86,2.81,4.01,3.2,6.27.4,2.3-.14,4.67-2.1,6.86-1.93,2.16-5.23,4.11-10.29,5.75-.39.12-.8-.09-.93-.47-.12-.39.09-.8.47-.93,4.95-1.6,7.96-3.45,9.65-5.33,1.66-1.85,2.07-3.76,1.75-5.62-.33-1.91-1.42-3.82-2.88-5.59-1.45-1.76-3.22-3.31-4.8-4.49-.32-.24-.39-.7-.15-1.03Z"/>
  <path class="cls-9" d="M192.04,226.53c.3.27.33.73.06,1.04-3.87,4.37-9.79,8.37-16.79,11.97-7.01,3.61-15.14,6.83-23.48,9.64-16.67,5.62-34.22,9.58-45.29,11.5-.4.07-.78-.2-.85-.6-.07-.4.2-.78.6-.85,11.01-1.92,28.48-5.86,45.07-11.45,8.3-2.79,16.36-6,23.28-9.56,6.93-3.57,12.67-7.46,16.36-11.63.27-.3.73-.33,1.04-.06Z"/>
  <path class="cls-2" d="M91.94,231.99c0,6.87,4.46,12.84,6.13,14.96-2.12-4.91.54-20.36,2.7-27.48-2.94,1.31-8.83,5.64-8.83,12.51Z"/>
  <path class="cls-9" d="M102.4,217.14c.34.22.44.68.22,1.02-.83,1.28-2.08,4.29-2.97,9.07-.89,4.76-1.42,11.24-.84,19.43.03.4-.28.76-.68.79-.4.03-.76-.28-.79-.68-.59-8.3-.06-14.91.86-19.8.91-4.88,2.21-8.1,3.18-9.6.22-.34.68-.44,1.02-.22Z"/>
  <path class="cls-2" d="M160.64,283.66c-4.51.89-15.7-6.77-15.7-6.77,0,0,21.51-4,27.97-8.83-2.21,4.83-7.75,14.71-12.27,15.6Z"/>
  <path class="cls-9" d="M174.11,265.03c.32.26.36.72.11,1.04-4.46,5.48-10.98,8.32-17.24,9.66-6.26,1.34-12.35,1.21-16.07.66-.4-.06-.68-.43-.62-.83.06-.4.43-.68.83-.62,3.56.52,9.47.65,15.54-.65,6.08-1.3,12.23-4.03,16.41-9.15.26-.32.72-.36,1.03-.11Z"/>
  <path class="cls-9" d="M71.43,166.17c-6.07,3.94-9.84,10.5-11.43,15.34-.17.51-.72.8-1.24.63s-.8-.72-.63-1.24c1.68-5.13,5.67-12.12,12.22-16.38,6.63-4.31,15.75-5.73,27.42.1.49.24.68.83.44,1.32-.24.49-.83.68-1.32.44-11.1-5.55-19.48-4.11-25.47-.21Z"/>
  <path class="cls-2" d="M179.28,141.46c-7.52-3.84-25.51-7.46-37.29,8.83,4.99-9.08,19.43-23.55,37.29-8.83Z"/>
  <path class="cls-9" d="M158.65,136.83c-7.3,1.89-13.33,6.87-16.63,10.89-.34.42-.96.48-1.38.14-.42-.35-.48-.96-.13-1.38,3.49-4.24,9.85-9.52,17.65-11.54,7.88-2.05,17.15-.75,26.23,8.03.39.38.4,1,.02,1.39-.38.39-1,.4-1.39.02-8.59-8.3-17.15-9.41-24.37-7.54Z"/>
  <path class="cls-9" d="M176.2,197.02c.21-.35.66-.46,1.01-.26,3.45,2.06,11.58,7.52,16.37,12.9.27.3.24.77-.06,1.04-.3.27-.77.24-1.04-.06-4.63-5.21-12.6-10.58-16.02-12.61-.35-.21-.46-.66-.26-1.01Z"/>
  <path class="cls-9" d="M93.17,176.97c.31.27.33.73.07,1.04-10.4,11.8-23.37,12.79-28.66,11.77-.4-.08-.66-.46-.58-.86.08-.4.46-.66.86-.58,4.85.94,17.26.06,27.28-11.3.27-.3.73-.33,1.04-.06Z"/>
</svg>