<?xml version="1.0" encoding="UTF-8"?>
<svg id="Layer_1" data-name="Layer 1" xmlns="http://www.w3.org/2000/svg" viewBox="0 0 327.47 382.87">
  <defs>
    <style>
      .cls-1 {
        fill: #525252;
      }

      .cls-1, .cls-2, .cls-3, .cls-4, .cls-5, .cls-6, .cls-7, .cls-8, .cls-9 {
        stroke-width: 0px;
      }

      .cls-2, .cls-5 {
        fill: #000;
      }

      .cls-3 {
        fill: #d0cbcb;
      }

      .cls-4, .cls-8 {
        fill: #9f9e9e;
      }

      .cls-5, .cls-8, .cls-9 {
        fill-rule: evenodd;
      }

      .cls-6, .cls-9 {
        fill: #707070;
      }

      .cls-7 {
        fill: #a2a2a2;
      }
    </style>
  </defs>
  <path class="cls-1" d="M327.47,221.56c0,26.22-6.24,50.99-17.33,72.9-22.3,44.1-64.22,76.59-114.28,86.01-.51.1-1.02.19-1.53.28-2.14.39-4.3.73-6.47,1.02-.33.05-.65.09-.97.13-3.21.42-6.45.75-9.71.97h-22.83c-14.3-.99-28.08-3.85-41.12-8.33h-.01c-1.98-.67-3.94-1.39-5.88-2.14-17.79-6.89-34.05-16.84-48.15-29.2-33.81-29.64-55.15-73.15-55.15-121.64,0-23.7,5.1-46.21,14.25-66.49,1.39-3.07,2.87-6.09,4.44-9.05,1.13-2.14,2.31-4.25,3.53-6.33h0c1.4-2.39,2.86-4.72,4.38-7.02,11.86-18,27.22-33.49,45.12-45.49,5.82-3.92,11.92-7.45,18.25-10.6t.02,0c8.4-4.16,17.21-7.61,26.35-10.28.01,0,.01-.01.02,0,7.16-2.09,14.52-3.7,22.06-4.78h.02c7.3-1.06,14.75-1.62,22.33-1.67h.95c3.43,0,6.84.11,10.22.32,1.48.09,2.97.2,4.44.34,6.71.6,13.3,1.61,19.75,3.01,72.78,15.77,127.3,80.54,127.3,158.05Z"/>
  <path class="cls-4" d="M310.14,294.46c-22.3,44.1-64.22,76.59-114.28,86.01-.51.1-1.02.19-1.53.28,5.67-7.35,15.71-19.39,21.5-22.9,8.1-4.91,25.52-19.38,26.01-37.78.27-10.22-1.57-36.95-3.4-59.93h0c-.77-9.65-1.54-18.62-2.16-25.44.01,0,.01-.02,0-.03-.02-.33-.05-.65-.08-.96.04.03.08.06.12.09,4.7,3.49,14.01,12.49,14.6,21.25.73,11.04,7.11,21.35,11.77,21.59,4.66.25,14.48-1.22,29.2,7.61,5.65,3.39,11.84,7.1,18.25,10.21Z"/>
  <path class="cls-6" d="M250.67,322.52c-7.11,13.49-17.42,24.78-33.12,36.56-10.4,7.8-17.92,16.36-21.69,21.39-.51.1-1.02.19-1.53.28-2.14.39-4.3.73-6.47,1.02-.33.05-.65.09-.97.13l7.11-34.85,7.07-13.88h0s20.9-41.07,20.9-41.07l5.02-20.58v-.02l9.21-37.79c.04.08.07.16.11.24,1.78,3.79,5.71,13.73,7.25,24.29,1.96,13.5,6.38,13.25,3.19,26.01-3.19,12.76-1.97,24.04,0,25.02,1.96.98,11.04-.24,3.92,13.25Z"/>
  <path class="cls-6" d="M119.42,369.38l-6.19,5.16h-.01c-1.98-.67-3.94-1.39-5.88-2.14-17.79-6.89-34.05-16.84-48.15-29.2,2.42-5.42,4.84-10.62,7.24-15.04,7.41-13.68,20.02-25.09,25.93-29.52.19-.14.38-.28.56-.41l6.63-2.7,13.49,9.82.41,4.16.44,4.38.33,3.31.07.71,5.13,51.47Z"/>
  <path class="cls-4" d="M243.56,202.55c-.79,9.81-13.41,13.9-19.63,14.72l-25.76-51.27c1.64-3.35,8.1-13.05,20.85-25.02,15.95-14.96,18.15,19.38,15.95,34.59-2.21,15.21,9.57,14.72,8.59,26.99Z"/>
  <path class="cls-6" d="M50.48,213.83C20.14,166.32-27.88,70.8,20.8,66.88c.33-3.11-2.94-6.58-20.61-.49.33-15.62,6.53-48.13,32.63-46.37-2.62-.65-9.37-1.57-15.46,0,6.62-4.66,26.35-14.52,52.26-16.68l-7.12-1.47c36.64-4.09,109.91-4.12,109.91,28.46l1.72-8.1c3.27,5.23,8.34,17.17,2.45,23.06,4.01,0,12.9-.88,16.44-4.42-.66,2.33-2.53,6.37-5.64,8.37,3.69.18,8.76,3.59,13.25,15.42,8.1,21.34,37.78,86.11,0,123.89l-150.14,25.27Z"/>
  <path class="cls-3" d="M238.48,259.11c-.01.33-.02.68-.04,1.02v.02c-.02.52-.05,1.03-.08,1.55-.03.54-.07,1.09-.11,1.63-.04.55-.09,1.1-.14,1.65-.06.62-.12,1.24-.2,1.85-.05.49-.11.97-.18,1.45-.06.43-.13.86-.19,1.29-.07.52-.16,1.05-.26,1.57-.09.53-.19,1.05-.29,1.57-.1.52-.21,1.04-.33,1.56-.04.21-.09.42-.14.63-.08.38-.18.75-.27,1.12-.28,1.12-.6,2.23-.95,3.33-.05.19-.11.37-.18.56-.16.5-.33,1-.52,1.5-.06.19-.13.37-.2.55-.01.04-.02.08-.05.11-.15.42-.31.83-.48,1.24-.19.48-.4.96-.61,1.43-.37.81-.72,1.66-1.05,2.54-.07.16-.13.32-.18.48-.65,1.73-1.25,3.59-1.8,5.53-.15.55-.3,1.11-.45,1.68-.17.63-.33,1.27-.48,1.91-.16.64-.31,1.29-.45,1.95-.13.56-.24,1.12-.36,1.68-.16.78-.32,1.56-.47,2.36-.13.68-.25,1.36-.37,2.05-.01.03-.01.07-.02.1-.11.66-.22,1.32-.33,1.99-.18,1.12-.35,2.24-.51,3.37-2.15,15.19-2.57,31.34-2.37,40.35-7.02,0-26.69,20.03-36.56,31.04-.33.05-.65.09-.97.13-3.21.42-6.45.75-9.71.97h-22.83c-14.3-.99-28.08-3.85-41.12-8.33h-.01c-1.98-.67-3.94-1.39-5.88-2.14.21-2.48.1-5.21-.43-7.93-1.72-8.83-1.96-15.45,1.72-24.53,2.92-7.21-5.38-26.26-9.97-34.68-.03-.06-.06-.11-.09-.16,3.46,1.22,8.6,2.82,14.88,4.41,13.82,3.49,33.17,6.93,52.29,6.12.52-.01,1.04-.04,1.56-.07.8-.04,1.61-.09,2.41-.15,29.05-2.16,56.43-55.37,66.49-81.7.04.15.07.3.1.46,0,0,.01,0,0,.01.01.01.01.02,0,.03.02.06.03.12.05.18.19.85.38,1.79.56,2.81.07.37.14.76.2,1.15.07.39.13.79.19,1.2.11.65.2,1.32.29,2.02.03.17.05.34.07.52.09.67.17,1.37.24,2.08.04.36.08.72.11,1.08.04.36.07.73.1,1.11.05.49.09.99.12,1.5.08.97.14,1.96.18,2.98.03.51.05,1.03.07,1.56.01.34.02.69.02,1.05.02.46.03.92.02,1.39.02,1.4.01,2.82-.04,4.27Z"/>
  <path class="cls-8" d="M112.48,315.91c10.69,7.9,28.45,21.02,48.9,25.26,25.26,5.23,54.38-13.89,65.41-30.78,1.36-9.63,3.42-18.87,6.47-25.64,7.85-17.47,5.23-41.3,2.94-51.03-10.06,26.33-37.44,79.54-66.48,81.7-4.02.3-8.07.41-12.1.37-15.64,1.21-30.5-.43-40.6-1.55-3.13-.35-5.81-.64-7.9-.79,1.03.74,2.15,1.57,3.36,2.47Z"/>
  <path class="cls-3" d="M233.44,208.86c.29.72.52,1.44.69,2.2,13.23,58.94-34.45,113.91-87.36,113.91-52.75,13.76-121.25-113.78-121.93-208.53,0-75.59,48.82-3.19,117.79-66.7,2.66-2.45,6.21-4.09,9.78-3.49,48.36,8.07,63.71,119.5,81.03,162.62Z"/>
  <path class="cls-4" d="M36.75,189.55c-.41.12-1.02-1.04-1.72-4.44-38.44-100.62-2.31-119.37,40.73-114.05,43.67,5.4,50.78-28.21,76.54-27.97,20.61.2,31.16,20.2,33.86,30.18-7.61-9.57-29.29-24.04-55.2-5.4-32.38,23.31-50.05,20.36-69.92,17.66-19.87-2.7-32.63.49-30.18,52.75,1.27,26.99,2.88,40.64,4.16,46.83.56,1.46,1.13,2.94,1.72,4.44Z"/>
  <path class="cls-4" d="M97.1,166.24c-8.75-3.35-28.36-4.37-36.8,18.4,1.64-10.71,11.29-29.39,36.8-18.4Z"/>
  <path class="cls-4" d="M177.81,197.4c6.07-.56,16.5,2.3,15.21,11.78l-15.21-11.78Z"/>
  <path class="cls-4" d="M71.58,270.26c-7.52-2.29-20.17-9.27-10.55-18.89l10.55,18.89Z"/>
  <path class="cls-4" d="M53.67,236.65c-10.06-9.4-26.99-30.22-14.23-38.27l14.23,38.27Z"/>
  <path class="cls-9" d="M158.34,126.69c-11.15,3.4-22.06,10.34-28.66,15.72-1.47,1.2-3.63.98-4.83-.49-1.2-1.47-.98-3.63.49-4.83,7.05-5.74,18.74-13.23,30.99-16.96,12.18-3.71,25.98-3.98,35.75,6.48,1.3,1.39,1.22,3.56-.16,4.86-1.39,1.29-3.56,1.22-4.86-.16-7.1-7.6-17.51-8.02-28.73-4.6Z"/>
  <path class="cls-9" d="M67.62,156.44c10.96-3.31,23.61-3.5,32.01-2.5,1.88.23,3.59-1.12,3.82-3,.23-1.88-1.12-3.59-3-3.82-9.08-1.08-22.72-.91-34.81,2.74-12.05,3.64-23.48,11.06-26.13,25.05-.35,1.86.87,3.66,2.74,4.01,1.86.35,3.66-.87,4.01-2.74,1.95-10.3,10.36-16.43,21.37-19.75Z"/>
  <path class="cls-3" d="M96.66,165.36c-20.71-4.68-32.19,9.39-35.91,18.24-.26.62.2,1.27.86,1.25,13.36-.37,28.39-11.34,35.48-17.9.56-.52.31-1.43-.43-1.59Z"/>
  <path class="cls-5" d="M96.82,164.65c-2.36-.53-4.6-.83-6.73-.92-.01,0-.01-.01-.02,0-.17-.01-.35-.01-.53-.02-7.16-.19-13.02,1.95-17.63,5.09-.17.12-.33.25-.5.37-.02.02-.05.03-.07.05-.25.18-.49.36-.73.55-.11.08-.22.17-.32.25-.21.16-.41.32-.61.49-4,3.29-6.87,7.27-8.67,10.78h0s0,.02-.01.02c-.35.7-.67,1.36-.94,2.01-.46,1.12.37,2.31,1.57,2.28,5.83-.16,11.94-2.3,17.54-5.16h.01c.83-.43,1.65-.88,2.46-1.34t.01,0s.02-.01.03-.03c.13-.05.25-.12.38-.2,6.37-3.64,11.95-8.06,15.53-11.37.42-.39.58-.91.53-1.4-.08-.67-.55-1.29-1.3-1.45ZM61.43,184.05s-.04-.09-.01-.16c1.6-3.81,4.69-8.62,9.36-12.4.62-.52,1.28-1,1.96-1.47,1.68-1.14,3.53-2.15,5.57-2.94.01,0,.01,0,.01,0,4.86-1.9,10.75-2.6,17.75-1.09h.01c.13.03.27.06.41.09.11.02.16.11.16.19,0,.06-.02.11-.06.15-3.07,2.84-7.64,6.52-12.92,9.78-.77.48-1.55.94-2.34,1.39-1.86,1.07-3.78,2.06-5.73,2.93-4.63,2.07-9.44,3.48-14.01,3.61-.08,0-.13-.03-.16-.08Z"/>
  <path class="cls-2" d="M84.09,173.84c0,3.79-3.08,6.87-6.87,6.87s-6.87-3.08-6.87-6.87,3.07-6.87,6.87-6.87,6.87,3.08,6.87,6.87Z"/>
  <path class="cls-3" d="M143.25,149.59c14.1-15.88,31.63-11.15,39.81-6.13.57.35.58,1.15.03,1.52-11.07,7.49-29.67,7.35-39.26,6.15-.75-.09-1.08-.98-.58-1.55Z"/>
  <path class="cls-5" d="M183.44,142.84c-1.63-1-3.62-1.99-5.88-2.81-.09-.03-.17-.07-.27-.1h-.01c-3.48-1.24-7.56-2.08-11.93-1.97-2.25.05-4.57.36-6.91.99-.19.04-.37.09-.56.14-4.39,1.31-8.86,3.73-13.07,7.8-.07.07-.14.15-.22.23-.64.61-1.27,1.28-1.9,1.98-.11.18-.22.36-.32.54-.03.08-.06.16-.07.24-.19.9.4,1.86,1.43,1.99,4.84.61,11.95.94,19.24.19.21-.03.43-.05.64-.09h.04s0,.01.02,0t.02,0s0,.01.01,0c.69-.07,1.39-.16,2.08-.26h.03c6.37-.93,12.74-2.77,17.69-6.11.41-.27.64-.67.7-1.09h0c.11-.63-.15-1.3-.76-1.67ZM143.91,150.41c-.15-.02-.23-.2-.11-.33,4.84-5.45,10.07-8.41,15.17-9.75,2.18-.58,4.33-.85,6.42-.9.82-.02,1.64,0,2.44.05h.01c6,.34,11.31,2.45,14.83,4.61.06.04.08.09.08.14s-.02.11-.08.15c-3.82,2.59-8.6,4.26-13.62,5.27-2.05.42-4.14.73-6.23.94-.91.1-1.82.17-2.72.23-6.19.43-12.04.11-16.19-.41Z"/>
  <path class="cls-2" d="M158.48,149.32c2.33,3,6.64,3.54,9.64,1.21,3-2.33,3.54-6.64,1.21-9.64-2.33-3-6.64-3.54-9.64-1.21-3,2.33-3.54,6.64-1.21,9.64Z"/>
  <path class="cls-4" d="M131.93,225.61c-2.95-4.44-18.59-7.12-19.63-10.79,0-2.78,2.75-10.55,6.87-8.59,5.15,2.45,11.53,6.13,17.66,4.91,6.13-1.23,5.89-10.79,12.02-14.23,4.91-2.75,11.45.49,12.02,2.45-6.38,2.45-10.35,14.67-12.02,24.78-2.2,13.31-11.39,9.81-16.93,1.47Z"/>
  <path class="cls-4" d="M61.28,188.32c10.9-1.89,30.62-10.98,38.08-19.22,1.03-1.52,1.92-2.91,2.64-4.09-.46,1.31-1.37,2.69-2.64,4.09-6.81,9.99-20.2,25.35-38.08,19.22Z"/>
  <path class="cls-4" d="M181.49,151.03c-12.02,4.42-29.85,4.66-37.29,4.42,4.25,1.14,14.62,3.34,22.08,2.94,7.46-.39,13.25-5.07,15.21-7.36Z"/>
  <path class="cls-5" d="M182.56,150.82c.25.32.2.78-.12,1.03-11.82,9.31-28.17,7.42-37.71,4.54-.39-.12-.61-.53-.49-.92.12-.39.53-.61.92-.49,9.41,2.83,25.14,4.56,36.38-4.29.32-.25.78-.2,1.03.12Z"/>
  <path class="cls-6" d="M195.97,224.24c0,4.46-7.35,9.53-11.02,11.51-1.84,1.74-5.03,3.84-3.1-1.74,2.41-6.98,14.12-15.35,14.12-9.77Z"/>
  <path class="cls-6" d="M99.12,260.79c3.1,2.45,12.8,1.44,17.27.62.12-.81-.34-2.68-3.16-3.7-3.53-1.28-17.98.02-14.11,3.08Z"/>
  <path class="cls-7" d="M119.18,263.65l-7.11-4.66s3.05-2.78,4.91-4.66c2.95-3,3.85-5.53,7.12-8.1,2.9-2.28,4.85-3.24,8.34-4.42,5.64-1.91,15.21-.98,15.21-.98,0,0,5.03-5.69,9.32-7.61,3.74-1.67,6.21-1.82,10.3-1.96,5.04-.18,12.76,1.96,12.76,1.96h5.64s-.2,4.71-.98,7.61c-.67,2.49-1.19,3.88-2.45,6.13-2.33,4.13-8.34,8.83-8.34,8.83l-14.23,7.85s-8.9,3.86-14.97,4.42c-5.55.51-14.23-1.23-14.23-1.23l-11.29-3.19Z"/>
  <path class="cls-6" d="M112.8,259.47s.09,0,.14,0c1.02-.26,7.56-3.63,14.34-4.66,8.16-1.24,46.94-12.87,52.99-18.89,3.73-3.72,3.19-2.94,3.92-2.7-6.07,5.21-22.74,17.98-40.48,22.08-12,2.77-25.68,4.07-30.78,4.17-.08.02-.12.02-.14,0Z"/>
  <path class="cls-5" d="M150.53,201.2c-2,1.35-3.96,3.9-5.89,8.74-1.02,2.56-2.42,4.37-4.06,5.55-1.65,1.18-3.5,1.7-5.37,1.75-3.72.1-7.56-1.65-10.34-3.8-2.01-1.55-3.85-1.84-5.33-1.63-1.51.22-2.68.97-3.27,1.57-.29.29-.75.29-1.04,0-.29-.29-.29-.75,0-1.04.79-.8,2.25-1.71,4.1-1.98,1.88-.27,4.12.13,6.44,1.92,2.62,2.02,6.13,3.58,9.41,3.5,1.62-.04,3.18-.49,4.55-1.48,1.38-.99,2.62-2.55,3.56-4.9,1.99-4.97,4.08-7.82,6.43-9.41,2.37-1.6,4.88-1.84,7.5-1.84.41,0,.74.33.74.74s-.33.74-.74.74c-2.54,0-4.68.25-6.67,1.59Z"/>
  <path class="cls-5" d="M109.32,203.07c.39.11.61.52.5.91-.93,3.19-1.65,7.68-.91,10.91.36,1.6,1.06,2.77,2.13,3.4,1.08.62,2.72.8,5.21,0,.39-.12.8.09.93.48.12.39-.09.8-.48.93-2.71.87-4.82.78-6.4-.12-1.57-.91-2.42-2.53-2.83-4.35-.82-3.6-.01-8.38.94-11.65.11-.39.52-.62.91-.5Z"/>
  <path class="cls-5" d="M156.37,185.67c.24-.33.7-.39,1.03-.15,1.65,1.23,3.51,2.86,5.05,4.73,1.54,1.86,2.81,4.01,3.2,6.27.4,2.3-.14,4.67-2.1,6.86-1.93,2.16-5.23,4.11-10.29,5.75-.39.12-.8-.09-.93-.47-.12-.39.09-.8.47-.93,4.95-1.6,7.96-3.45,9.65-5.33,1.66-1.85,2.07-3.76,1.75-5.62-.33-1.91-1.42-3.82-2.88-5.59-1.45-1.76-3.22-3.31-4.8-4.49-.32-.24-.39-.7-.15-1.03Z"/>
  <path class="cls-5" d="M192.04,226.53c.3.27.33.73.06,1.04-3.87,4.37-9.79,8.37-16.79,11.97-7.01,3.61-15.14,6.83-23.48,9.64-16.67,5.62-34.22,9.58-45.29,11.5-.4.07-.78-.2-.85-.6-.07-.4.2-.78.6-.85,11.01-1.92,28.48-5.86,45.07-11.45,8.3-2.79,16.36-6,23.28-9.56,6.93-3.57,12.67-7.46,16.36-11.63.27-.3.73-.33,1.04-.06Z"/>
  <path class="cls-4" d="M91.94,231.99c0,6.87,4.46,12.84,6.13,14.96-2.12-4.91.54-20.36,2.7-27.48-2.94,1.31-8.83,5.64-8.83,12.51Z"/>
  <path class="cls-5" d="M102.4,217.14c.34.22.44.68.22,1.02-.83,1.28-2.08,4.29-2.97,9.07-.89,4.76-1.42,11.24-.84,19.43.03.4-.28.76-.68.79-.4.03-.76-.28-.79-.68-.59-8.3-.06-14.91.86-19.8.91-4.88,2.21-8.1,3.18-9.6.22-.34.68-.44,1.02-.22Z"/>
  <path class="cls-4" d="M160.64,283.66c-4.51.89-15.7-6.77-15.7-6.77,0,0,21.51-4,27.97-8.83-2.21,4.83-7.75,14.71-12.27,15.6Z"/>
  <path class="cls-5" d="M174.11,265.03c.32.26.36.72.11,1.04-4.46,5.48-10.98,8.32-17.24,9.66-6.26,1.34-12.35,1.21-16.07.66-.4-.06-.68-.43-.62-.83.06-.4.43-.68.83-.62,3.56.52,9.47.65,15.54-.65,6.08-1.3,12.23-4.03,16.41-9.15.26-.32.72-.36,1.03-.11Z"/>
  <path class="cls-5" d="M71.43,166.17c-6.07,3.94-9.84,10.5-11.43,15.34-.17.51-.72.8-1.24.63s-.8-.72-.63-1.24c1.68-5.13,5.67-12.12,12.22-16.38,6.63-4.31,15.75-5.73,27.42.1.49.24.68.83.44,1.32-.24.49-.83.68-1.32.44-11.1-5.55-19.48-4.11-25.47-.21Z"/>
  <path class="cls-4" d="M179.28,141.46c-7.52-3.84-25.51-7.46-37.29,8.83,4.99-9.08,19.43-23.55,37.29-8.83Z"/>
  <path class="cls-5" d="M158.65,136.83c-7.3,1.89-13.33,6.87-16.63,10.89-.34.42-.96.48-1.38.14-.42-.35-.48-.96-.13-1.38,3.49-4.24,9.85-9.52,17.65-11.54,7.88-2.05,17.15-.75,26.23,8.03.39.38.4,1,.02,1.39-.38.39-1,.4-1.39.02-8.59-8.3-17.15-9.41-24.37-7.54Z"/>
  <path class="cls-5" d="M176.2,197.02c.21-.35.66-.46,1.01-.26,3.45,2.06,11.58,7.52,16.37,12.9.27.3.24.77-.06,1.04-.3.27-.77.24-1.04-.06-4.63-5.21-12.6-10.58-16.02-12.61-.35-.21-.46-.66-.26-1.01Z"/>
  <path class="cls-5" d="M93.17,176.97c.31.27.33.73.07,1.04-10.4,11.8-23.37,12.79-28.66,11.77-.4-.08-.66-.46-.58-.86.08-.4.46-.66.86-.58,4.85.94,17.26.06,27.28-11.3.27-.3.73-.33,1.04-.06Z"/>
</svg>