<svg width="100" height="12" viewBox="0 0 100 12" fill="none" xmlns="http://www.w3.org/2000/svg">
<g clip-path="url(#clip0_2330_9925)">
<path fill-rule="evenodd" clip-rule="evenodd" d="M58.3952 11.5322H56.5512L52.915 3.65051L49.3636 11.5322H47.5195L52.9574 0.158691L58.3952 11.5322Z" fill="white"/>
<path fill-rule="evenodd" clip-rule="evenodd" d="M10.8741 11.5322H9.03165L5.39543 3.65051L1.84403 11.5322H0L5.43784 0.158691L10.8741 11.5322Z" fill="white"/>
<path fill-rule="evenodd" clip-rule="evenodd" d="M10.8757 11.5322H9.03165L5.47239 3.76199L1.84246 11.5322H0L5.43784 0.158691L10.8757 11.5322Z" fill="white"/>
<path fill-rule="evenodd" clip-rule="evenodd" d="M15.732 6.19713C15.7339 6.72754 15.8404 7.25238 16.0455 7.74156C16.2506 8.23075 16.5503 8.67468 16.9273 9.04791C17.3043 9.42114 17.7513 9.71634 18.2427 9.9166C18.7341 10.1169 19.2601 10.2182 19.7907 10.2149C20.8044 10.2135 21.784 9.84924 22.5521 9.18811L22.8458 8.9369V10.9497C21.9247 11.465 20.8887 11.7403 19.8332 11.7505C16.6666 11.7505 14.0215 9.33569 14.0215 6.23796C14.0215 3.07114 16.6744 0.613986 19.9415 0.613986C20.9284 0.601289 21.9009 0.851088 22.7594 1.33779L22.8552 3.37887L22.5536 3.12295C21.7827 2.49238 20.8167 2.14887 19.8206 2.15108C19.2862 2.14715 18.7564 2.24885 18.2615 2.45035C17.7666 2.65184 17.3164 2.94915 16.9369 3.32517C16.5573 3.70119 16.2559 4.1485 16.0499 4.64138C15.844 5.13426 15.7375 5.66298 15.7367 6.19713" fill="white"/>
<path d="M30.3404 0.83374H28.6377V11.5322H30.3404V0.83374Z" fill="white"/>
<path fill-rule="evenodd" clip-rule="evenodd" d="M78.2925 2.36926V4.90806H82.6167V6.44358H78.2925V9.99506H82.7455V11.5322H76.5898V0.83374H82.7455V2.36926H78.2925Z" fill="white"/>
<path fill-rule="evenodd" clip-rule="evenodd" d="M89.4914 11.5321H87.7354L90.0946 0L93.8674 8.28994L97.6419 0L99.9995 11.5321H98.2435L97.0513 5.06503L93.8674 12L90.6852 5.06503L89.4914 11.5321Z" fill="white"/>
<path fill-rule="evenodd" clip-rule="evenodd" d="M65.056 2.36926H64.7622V9.99506H65.056C67.7812 9.99506 70.0053 9.0279 70.0053 6.18295C70.0053 3.33799 67.7812 2.36926 65.056 2.36926ZM65.4298 11.5322H63.0596V0.83374H65.4722C68.832 0.83374 71.7064 2.54668 71.7064 6.128C71.7064 9.78939 68.8932 11.5322 65.4235 11.5322" fill="white"/>
<path fill-rule="evenodd" clip-rule="evenodd" d="M39.1631 2.34257H38.9699V5.41519H39.1348C40.4055 5.41519 41.2772 5.17654 41.2772 3.86553C41.2772 2.58436 40.4196 2.34414 39.1631 2.34414M39.6217 6.80155H38.9699V10.0233H39.8228C41.0699 10.0233 42.193 9.66849 42.193 8.3779C42.193 7.12185 40.8563 6.80783 39.6217 6.80783M37.2656 11.54V0.83374H38.761C40.7919 0.83374 42.8904 1.34401 42.8904 3.8514C42.8886 4.21768 42.8059 4.57905 42.6482 4.90965C42.4904 5.24024 42.2615 5.5319 41.9778 5.76374C42.5345 5.96358 43.0166 6.32907 43.3592 6.81104C43.7018 7.29301 43.8884 7.86832 43.8941 8.45954C43.8941 10.689 41.893 11.5322 39.9673 11.5322L37.2656 11.54Z" fill="white"/>
</g>
<defs>
<clipPath id="clip0_2330_9925">
<rect width="100" height="12" fill="white"/>
</clipPath>
</defs>
</svg>
