<svg width="100" height="100" viewBox="0 0 100 100" fill="none" xmlns="http://www.w3.org/2000/svg">
<path d="M11.9995 47.5015C12.315 47.4938 12.592 47.5476 12.8305 47.6707C13.0729 47.79 13.2768 47.9593 13.4423 48.1748C13.6077 48.3902 13.7385 48.6442 13.8309 48.9366C13.9232 49.2251 13.9732 49.5368 13.9848 49.8677L14.0925 53.4843L6.66301 53.6844L6.54374 49.6791C6.53604 49.4175 6.58606 49.1828 6.68994 48.9673C6.79383 48.7519 6.93618 48.5711 7.10932 48.4172C7.28246 48.2633 7.48253 48.144 7.70568 48.0593C7.92883 47.9708 8.15584 47.9247 8.38668 47.9208C8.74835 47.9093 9.09077 47.9939 9.41396 48.1671C9.73715 48.3402 9.97954 48.6018 10.145 48.9481C10.2566 48.5172 10.472 48.1709 10.7914 47.9131C11.1069 47.6554 11.5108 47.5207 11.9995 47.5053V47.5015ZM7.85573 52.1915L9.72946 52.1415L9.67174 50.2024C9.66405 49.9561 9.57556 49.7484 9.40242 49.5829C9.22928 49.4137 8.99844 49.3367 8.70218 49.3444C8.41746 49.3521 8.19046 49.4367 8.02887 49.5983C7.86727 49.7599 7.78648 49.96 7.79417 50.1908L7.85188 52.1954L7.85573 52.1915ZM11.7725 48.975C11.6417 48.975 11.5147 49.0058 11.3916 49.052C11.2723 49.102 11.1646 49.1636 11.0761 49.2444C10.9876 49.3252 10.9183 49.4175 10.8683 49.5252C10.8183 49.633 10.7952 49.7484 10.7991 49.8753L10.8645 52.1107L12.8228 52.0569L12.7574 49.8946C12.7536 49.7599 12.7266 49.6368 12.6728 49.5214C12.6189 49.406 12.5497 49.3098 12.4612 49.2251C12.3727 49.1443 12.2649 49.0789 12.1457 49.0328C12.0264 48.9866 11.8994 48.9673 11.7686 48.9673L11.7725 48.975Z" fill="white"/>
<path d="M5.96537 45.0663L4.65723 44.9047L4.80728 43.6389L6.11542 43.8005L5.96537 45.0663ZM14.1567 46.159L6.77719 45.251L6.95033 43.8044L14.3298 44.7124L14.1567 46.159Z" fill="white"/>
<path d="M14.6709 42.3913L7.51074 40.3637L7.90319 38.9632L13.8437 40.6446L14.871 36.9702L16.0906 37.3165L14.6748 42.3913H14.6709Z" fill="white"/>
<path d="M17.4334 31.558L18.5723 32.1159L16.31 36.7906L9.62305 33.5164L11.843 28.9302L12.9819 29.4881L11.3929 32.7661L13.005 33.5548L14.3785 30.7193L15.4328 31.2348L14.0592 34.0704L15.8021 34.9246L17.4334 31.558Z" fill="white"/>
<path d="M15.8964 29.0952C15.5309 28.8259 15.2193 28.4911 14.9576 28.0949C14.6998 27.6986 14.5229 27.2676 14.4267 26.8059C14.3343 26.3442 14.3343 25.8633 14.4267 25.367C14.5229 24.8707 14.7422 24.3859 15.0884 23.9165C15.4963 23.3624 15.9695 22.9739 16.5082 22.7469C17.0468 22.5237 17.5816 22.4544 18.1164 22.5429L18.0702 23.8972C17.8432 23.8511 17.6316 23.8434 17.4316 23.8703C17.2315 23.8973 17.0507 23.9511 16.8891 24.0319C16.7275 24.1127 16.5774 24.2127 16.4428 24.3282C16.3081 24.4474 16.1888 24.5744 16.0926 24.7091C15.8772 25.0015 15.7464 25.3016 15.704 25.6094C15.6617 25.9133 15.681 26.2096 15.7656 26.4943C15.8464 26.779 15.9811 27.0445 16.1657 27.2946C16.3504 27.5447 16.562 27.7563 16.7967 27.9333C17.0622 28.1295 17.3469 28.2757 17.6547 28.3719C17.9625 28.4681 18.2665 28.5065 18.5666 28.4911C18.8667 28.4719 19.1514 28.3988 19.4246 28.2641C19.6977 28.1295 19.9286 27.9333 20.121 27.6716C20.221 27.537 20.3095 27.3831 20.3826 27.2099C20.4557 27.0368 20.5057 26.8598 20.5326 26.6713C20.5557 26.4828 20.5519 26.2904 20.5211 26.0942C20.4903 25.8941 20.4172 25.7017 20.3018 25.5132L21.5561 24.963C21.71 25.2246 21.8062 25.5093 21.8485 25.8133C21.8908 26.1173 21.887 26.425 21.8408 26.7367C21.7946 27.0483 21.71 27.3523 21.583 27.6524C21.456 27.9525 21.306 28.2257 21.129 28.4681C20.8135 28.899 20.4326 29.2222 19.994 29.4453C19.5515 29.6685 19.0937 29.7993 18.6127 29.8455C18.1357 29.8878 17.6586 29.8455 17.1853 29.7146C16.7121 29.5877 16.2812 29.3799 15.9003 29.0952H15.8964Z" fill="white"/>
<path d="M18.1684 19.1172L17.2373 18.1745L18.1415 17.2781L19.0726 18.2207L18.1684 19.1172ZM23.9319 25.0692L18.6917 19.7674L19.7228 18.744L24.9631 24.0458L23.9319 25.0692Z" fill="white"/>
<path d="M26.4784 22.5551L22.123 16.5145L23.2965 15.6642L25.3665 18.5345L25.8282 13.8174L27.1209 12.8787L26.74 17.2417L31.6263 18.823L30.3066 19.7811L26.54 18.5268L26.3476 19.8965L27.6519 21.7009L26.4784 22.5512V22.5551Z" fill="white"/>
<path d="M36.8551 17.9295C36.9513 17.9449 37.0898 17.9411 37.2668 17.918C37.4438 17.8949 37.6246 17.8487 37.7977 17.7795C37.967 17.7141 38.094 17.6371 38.1709 17.5525C38.2517 17.464 38.2671 17.3639 38.2209 17.2447C38.1748 17.1254 38.0978 17.06 37.9824 17.0484C37.867 17.0369 37.7362 17.06 37.5861 17.1177C37.4476 17.1716 37.3091 17.2408 37.1667 17.3293C37.0244 17.4178 36.9167 17.4871 36.8474 17.5371L36.9474 16.5406C36.455 16.7022 35.9432 16.7945 35.4238 16.8214C34.9006 16.8484 34.4042 16.8022 33.9272 16.6752L34.0772 15.2786C34.158 15.3132 34.2927 15.3517 34.485 15.3863C34.6736 15.421 34.8929 15.4479 35.1391 15.4633C35.3854 15.4787 35.647 15.4671 35.9278 15.4363C36.2087 15.4056 36.4819 15.3363 36.7512 15.2324C37.4976 14.9477 37.7785 14.563 37.5938 14.0859C37.5361 13.9358 37.4438 13.8242 37.3206 13.7511C37.1937 13.678 37.0398 13.6357 36.8512 13.6165C36.6627 13.5972 36.4473 13.6011 36.201 13.6165C35.9548 13.6357 35.6778 13.6588 35.3738 13.6857C35.0045 13.7242 34.6774 13.7319 34.3889 13.7204C34.1003 13.705 33.8502 13.6588 33.6271 13.5742C33.4077 13.4895 33.2192 13.3664 33.0615 13.2048C32.9037 13.0432 32.7768 12.8278 32.6729 12.5623C32.5382 12.2083 32.4805 11.8697 32.5074 11.5465C32.5344 11.2234 32.6267 10.9232 32.7883 10.6501C32.9499 10.3769 33.1654 10.1345 33.4385 9.9229C33.7078 9.71129 34.0233 9.5343 34.3735 9.39964C34.8659 9.21111 35.343 9.11493 35.8163 9.11108C36.2857 9.10723 36.7166 9.14955 37.1052 9.24189L36.9282 10.5693C36.8666 10.5423 36.7589 10.5116 36.605 10.4808C36.455 10.45 36.278 10.4269 36.0741 10.4192C35.8701 10.4115 35.6585 10.4192 35.4354 10.4462C35.2122 10.4731 34.9968 10.5231 34.7851 10.6039C34.4119 10.7463 34.1619 10.9232 34.031 11.131C33.9002 11.3388 33.8848 11.5658 33.9772 11.8159C34.031 11.9582 34.1118 12.0659 34.2196 12.1352C34.3234 12.2045 34.4581 12.2506 34.6159 12.2699C34.7736 12.2929 34.966 12.2929 35.1853 12.2776C35.4084 12.2583 35.6624 12.2352 35.9471 12.1968C36.3241 12.1583 36.6704 12.1391 36.9859 12.1352C37.3052 12.1352 37.59 12.1737 37.8439 12.2545C38.0978 12.3391 38.3171 12.4699 38.5057 12.6469C38.6942 12.8278 38.8519 13.074 38.9751 13.3972C39.1097 13.7435 39.1636 14.0628 39.1366 14.3591C39.1097 14.6553 39.0289 14.9246 38.8866 15.1709C38.7442 15.4171 38.5557 15.6364 38.3171 15.8288C38.0786 16.0212 37.8093 16.1866 37.5092 16.3251L37.4168 16.756C37.4591 16.7253 37.5053 16.6945 37.5592 16.6675C37.613 16.6406 37.6631 16.6175 37.7169 16.5944C37.9439 16.5059 38.1632 16.4867 38.3672 16.529C38.5711 16.5752 38.7211 16.7176 38.8135 16.9599C38.9096 17.21 38.8866 17.4524 38.7404 17.6948C38.598 17.9372 38.3133 18.1411 37.8862 18.3027C37.6708 18.3874 37.4668 18.4412 37.2745 18.4682C37.0821 18.4951 36.9128 18.5105 36.7589 18.5066L36.8397 17.9257L36.8551 17.9295Z" fill="white"/>
<path d="M45.9799 12.8469L46.2146 14.0973L41.1205 15.0515L39.7393 7.72205L44.741 6.78711L44.9757 8.03754L41.4014 8.70701L41.7361 10.473L44.8256 9.89588L45.0449 11.054L41.9554 11.6311L42.3171 13.5394L45.9837 12.8507L45.9799 12.8469Z" fill="white"/>
<path d="M48.2678 6.53363L50.1185 10.1233L51.9768 6.52979H53.5427L50.8457 11.3815L50.8534 13.9862H49.4144L49.4067 11.3622L46.6865 6.53363H48.264H48.2678Z" fill="white"/>
<path d="M62.101 8.09066L60.6004 15.3893L59.1884 15.0931L59.8309 11.9766L56.5144 11.2802L55.8719 14.3967L54.4521 14.1004L55.9527 6.80176L57.3724 7.09801L56.7645 10.049L60.081 10.7454L60.6889 7.79441L62.101 8.09066Z" fill="white"/>
<path d="M69.9297 18.2985L69.3449 19.422L64.751 17.0019L68.1945 10.3997L72.7037 12.7774L72.1151 13.9009L68.8909 12.2041L68.0598 13.7931L70.8454 15.2629L70.3029 16.3056L67.5173 14.8358L66.6209 16.5556L69.9297 18.2985Z" fill="white"/>
<path d="M70.71 20.3068L75.4347 14.5625L77.5277 16.2977C77.9971 16.6863 78.3472 17.1057 78.5781 17.552C78.8089 17.9983 78.9359 18.4485 78.9628 18.9025C78.9897 19.3603 78.9166 19.8105 78.7512 20.2568C78.5858 20.7031 78.3395 21.1225 78.0163 21.5188C77.6585 21.9574 77.2661 22.2959 76.8429 22.5383C76.4196 22.7807 75.981 22.9269 75.5232 22.9693C75.0692 23.0154 74.6075 22.9616 74.1458 22.8077C73.6841 22.6576 73.2378 22.3998 72.803 22.042L70.71 20.3068ZM76.8852 20.5838C77.1122 20.3106 77.2815 20.0221 77.3969 19.7297C77.5123 19.4334 77.5662 19.1449 77.5585 18.8563C77.5508 18.5677 77.4777 18.2907 77.3392 18.0214C77.2007 17.7521 76.9968 17.5058 76.7274 17.2827L75.754 16.4747L72.6375 20.2606L73.611 21.0686C73.888 21.2956 74.1727 21.4533 74.4651 21.5303C74.7575 21.6111 75.0461 21.6265 75.3308 21.5726C75.6155 21.5226 75.8887 21.411 76.1542 21.2417C76.4196 21.0724 76.6659 20.8531 76.8852 20.5838Z" fill="white"/>
<path d="M80.6908 28.5749L79.7097 29.3751L76.4316 25.3391L82.1913 20.6414L85.4078 24.6043L84.4267 25.4045L82.1259 22.5689L80.737 23.7001L82.7261 26.1471L81.8181 26.8897L79.829 24.4427L78.3285 25.6662L80.687 28.5749H80.6908Z" fill="white"/>
<path d="M85.0955 35.2086C84.8185 35.3548 84.5454 35.424 84.276 35.424C84.0067 35.424 83.7489 35.3586 83.5065 35.2355C83.2603 35.1124 83.0333 34.9431 82.8255 34.7238C82.6178 34.5045 82.4369 34.2467 82.283 33.9543L80.6094 30.7455L87.1963 27.302L89.0508 30.8571C89.17 31.0879 89.2316 31.3226 89.2277 31.5612C89.2277 31.7997 89.1816 32.0267 89.0931 32.2383C89.0046 32.4499 88.8776 32.6462 88.7122 32.8231C88.5467 33.0001 88.3659 33.1425 88.162 33.2502C87.8388 33.4195 87.4964 33.4965 87.1309 33.4811C86.7654 33.4657 86.4306 33.3387 86.1344 33.0963C86.2229 33.5349 86.1805 33.9389 86.0074 34.3121C85.8343 34.6853 85.5342 34.9816 85.0994 35.2086H85.0955ZM84.6608 33.785C84.78 33.7235 84.8801 33.6427 84.9686 33.5465C85.0571 33.4503 85.1225 33.3464 85.1648 33.2348C85.211 33.1232 85.2302 33.0117 85.2264 32.8924C85.2225 32.7731 85.1917 32.6577 85.134 32.5461L84.099 30.5608L82.3638 31.4688L83.3642 33.3887C83.4257 33.508 83.5065 33.608 83.6027 33.685C83.6989 33.7658 83.8066 33.8235 83.9221 33.8581C84.0375 33.8927 84.1606 33.9043 84.2876 33.8927C84.4145 33.8812 84.5377 33.8466 84.6569 33.785H84.6608ZM86.773 29.1642L85.1109 30.0337L86.0074 31.7535C86.1228 31.9729 86.2921 32.1191 86.5191 32.1922C86.7461 32.2691 86.9924 32.2383 87.2501 32.0998C87.5041 31.969 87.6695 31.792 87.7426 31.5727C87.8157 31.3534 87.8003 31.1418 87.6926 30.9379L86.7654 29.1603L86.773 29.1642Z" fill="white"/>
<path d="M91.6954 37.7513L92.0378 38.9941L85.6356 43.7188L85.2354 42.276L86.836 41.1102L86.1396 38.5862L84.1697 38.4169L83.7695 36.9741L91.6954 37.7513ZM87.744 40.5831L90.2833 38.8094L87.1823 38.5478L87.744 40.5831Z" fill="white"/>
<path d="M85.75 45.0424L93.1641 44.5076L93.2718 45.9581L87.1197 46.4005L87.4006 50.2095L86.1386 50.3019L85.75 45.0424Z" fill="white"/>
<path d="M86.0126 50.9795L93.4383 51.3527L93.369 52.807L85.9434 52.4338L86.0126 50.9795ZM94.2578 51.4758L95.5775 51.5412L95.5159 52.8147L94.1962 52.7493L94.2578 51.4758Z" fill="white"/>
<path d="M79.2449 70.3351L78.1445 69.6002L78.8486 68.5383L79.949 69.2732L79.2449 70.3351ZM86.078 75.0137L79.8874 70.8661L80.6916 69.6541L86.8822 73.8017L86.078 75.0137Z" fill="white"/>
<path d="M79.7909 74.3247C79.7217 74.3247 79.614 74.3516 79.4639 74.3901C79.3139 74.4286 79.1484 74.4902 78.9637 74.5748C78.7791 74.6594 78.5944 74.7633 78.4058 74.8864C78.2173 75.0096 78.048 75.1558 77.898 75.3212C77.6287 75.6175 77.4863 75.8868 77.4632 76.133C77.4401 76.3793 77.5286 76.5909 77.7248 76.7679C77.8403 76.8718 77.9595 76.9295 78.0827 76.9449C78.2058 76.9602 78.3443 76.941 78.4943 76.8871C78.6444 76.8333 78.8175 76.7525 79.0061 76.6332C79.1946 76.5178 79.41 76.3793 79.6524 76.2177C79.9679 76.0138 80.268 75.8368 80.5527 75.6906C80.8336 75.5444 81.1068 75.452 81.3723 75.4097C81.6339 75.3674 81.8917 75.3866 82.1379 75.4597C82.388 75.5328 82.6381 75.6867 82.892 75.9176C83.1883 76.1869 83.3883 76.4716 83.4961 76.7756C83.6038 77.0795 83.6384 77.3835 83.5961 77.6913C83.5538 77.9991 83.4499 78.303 83.2883 78.6031C83.1229 78.9032 82.919 79.1918 82.6766 79.4611C82.2995 79.8766 81.8686 80.2306 81.3761 80.5269C80.8836 80.8193 80.3796 81.0232 79.8602 81.1386L79.3677 79.8228C79.4562 79.8189 79.5947 79.7881 79.7794 79.7343C79.9641 79.6804 80.1718 79.6035 80.395 79.5073C80.622 79.4072 80.849 79.2803 81.0875 79.1264C81.3222 78.9686 81.5377 78.784 81.7301 78.5723C82.2649 77.9798 82.3457 77.5104 81.9648 77.168C81.8455 77.0603 81.7147 77.0026 81.5685 76.9949C81.4261 76.9872 81.2645 77.018 81.0914 77.0872C80.9183 77.1565 80.722 77.2565 80.5104 77.3835C80.2988 77.5143 80.0641 77.6605 79.8025 77.8221C79.4908 78.0222 79.2023 78.1799 78.9406 78.2992C78.679 78.4184 78.4328 78.4877 78.1981 78.5108C77.9634 78.5339 77.7402 78.5108 77.5286 78.4377C77.317 78.3646 77.1054 78.2299 76.8938 78.0375C76.6129 77.7836 76.4129 77.5066 76.2897 77.2026C76.1666 76.9025 76.1166 76.5909 76.1358 76.2754C76.1589 75.9599 76.2397 75.6444 76.3859 75.3328C76.5321 75.0211 76.7322 74.721 76.9861 74.4401C77.3401 74.0515 77.7248 73.7476 78.1404 73.5283C78.5597 73.3128 78.9599 73.1551 79.3485 73.0627L79.7871 74.3286L79.7909 74.3247Z" fill="white"/>
<path d="M77.9923 82.3054L78.758 83.3211L74.6296 86.4568L70.1357 80.5047L74.191 77.4268L74.9566 78.4425L72.0595 80.6433L73.1406 82.0784L75.6453 80.1777L76.3533 81.1165L73.8486 83.0172L75.0182 84.5677L77.9923 82.3092V82.3054Z" fill="white"/>
<path d="M69.803 82.2786L67.6715 83.3559L70.4571 88.8848L69.172 89.535L66.3864 84.0062L64.2549 85.0834L63.6816 83.9484L69.2259 81.1475L69.7991 82.2825L69.803 82.2786Z" fill="white"/>
<path d="M60.9915 83.9025L60.5605 82.6483L61.7648 82.2366L62.1957 83.4909L60.9915 83.9025ZM63.6039 91.7706L61.1838 84.7144L62.5574 84.245L64.9775 91.3012L63.6039 91.7706Z" fill="white"/>
<path d="M59.4282 87.2948C59.3705 87.2564 59.2705 87.2063 59.1281 87.1486C58.9858 87.0909 58.8126 87.0409 58.6164 86.9986C58.4202 86.9563 58.2086 86.9255 57.9854 86.9139C57.7623 86.9024 57.5391 86.9139 57.3198 86.9601C56.9274 87.037 56.6503 87.1679 56.4849 87.3487C56.3195 87.5295 56.2656 87.7527 56.3156 88.0143C56.3464 88.1644 56.408 88.2836 56.4964 88.3683C56.5888 88.4529 56.7119 88.5222 56.862 88.5683C57.0159 88.6184 57.2005 88.653 57.4237 88.6722C57.6468 88.6915 57.9008 88.7107 58.1893 88.7261C58.5664 88.753 58.9127 88.7915 59.2243 88.8454C59.5398 88.8992 59.813 88.9877 60.0477 89.1108C60.2824 89.2378 60.4786 89.4032 60.6325 89.611C60.7864 89.8188 60.898 90.0919 60.9672 90.4305C61.0442 90.823 61.0365 91.1731 60.9441 91.4809C60.8518 91.7887 60.6979 92.0542 60.4786 92.2735C60.2631 92.4928 59.9977 92.6775 59.686 92.8198C59.3744 92.9622 59.0396 93.0699 58.6818 93.1392C58.1316 93.2469 57.5737 93.27 57.0043 93.2123C56.4349 93.1507 55.9078 93.0122 55.423 92.7929L55.8116 91.4424C55.8847 91.4924 56.0117 91.5501 56.1963 91.6194C56.3772 91.6887 56.5888 91.7502 56.8273 91.8079C57.0659 91.8656 57.3275 91.9003 57.6084 91.9157C57.8892 91.9311 58.1701 91.9157 58.4548 91.858C59.2397 91.7041 59.5821 91.377 59.4821 90.873C59.4513 90.7153 59.3782 90.5883 59.2705 90.4959C59.1589 90.4036 59.0127 90.3305 58.8319 90.2805C58.651 90.2305 58.4356 90.1958 58.1893 90.1728C57.9431 90.1497 57.6661 90.1266 57.3621 90.0996C56.9928 90.0727 56.6657 90.0265 56.3887 89.965C56.1079 89.9034 55.8655 89.8111 55.6654 89.688C55.4615 89.5687 55.2999 89.4148 55.1729 89.2263C55.0459 89.0416 54.9575 88.8069 54.8997 88.526C54.8266 88.1567 54.8305 87.8104 54.9113 87.4949C54.9921 87.1794 55.1344 86.9024 55.3422 86.66C55.55 86.4215 55.8039 86.2175 56.1079 86.0559C56.4118 85.8943 56.7504 85.7751 57.1197 85.702C57.6353 85.6019 58.1278 85.5904 58.5895 85.6635C59.055 85.7404 59.4706 85.8559 59.8361 86.0136L59.4359 87.291L59.4282 87.2948Z" fill="white"/>
<path d="M47.6205 93.8973L47.582 86.4409L50.8832 86.4332C51.2256 86.4332 51.5449 86.5025 51.8373 86.6448C52.1298 86.7872 52.3798 86.9757 52.5915 87.2104C52.8031 87.4451 52.9685 87.7106 53.0916 88.0068C53.2109 88.3031 53.2725 88.6032 53.2763 88.9033C53.2763 89.3881 53.1609 89.8267 52.9185 90.223C52.6799 90.6193 52.3529 90.904 51.9412 91.081L53.6611 93.882H52.0297L50.4907 91.3888H49.0595L49.071 93.8935H47.6205V93.8973ZM49.0518 90.123H50.8716C51.0063 90.1191 51.1294 90.0845 51.2448 90.0229C51.3603 89.9614 51.4603 89.8729 51.5449 89.7652C51.6296 89.6574 51.695 89.5266 51.7412 89.3804C51.7912 89.2342 51.8143 89.0764 51.8143 88.9072C51.8143 88.734 51.7835 88.5724 51.7258 88.4224C51.6681 88.2762 51.5911 88.1492 51.4988 88.0415C51.4026 87.9337 51.2949 87.8491 51.1717 87.7914C51.0486 87.7337 50.9255 87.7029 50.7985 87.7029H49.0441L49.0556 90.123H49.0518Z" fill="white"/>
<path d="M44.861 92.3776L44.6225 93.6242L39.5322 92.6238L40.9404 85.3059L45.9383 86.287L45.6997 87.5336L42.1254 86.8334L41.7869 88.5955L44.8725 89.1996L44.6494 90.3538L41.5637 89.7497L41.1982 91.6581L44.8648 92.3776H44.861Z" fill="white"/>
<path d="M34.8342 83.051L34.6149 89.0377L38.5624 84.5592L39.9783 85.1325L34.5071 90.9499L33.376 90.492L33.4221 82.4739L34.838 83.0471L34.8342 83.051Z" fill="white"/>
<path d="M27.6064 87.553L31.3308 81.1085L32.5851 81.8395L28.8607 88.2841L27.6064 87.553ZM31.8156 80.4352L32.4774 79.2925L33.5777 79.935L32.916 81.0777L31.8156 80.4352Z" fill="white"/>
<path d="M24.0178 79.02L21.0014 82.7097L19.8779 81.7863L24.5873 76.0266L25.4568 76.7422L25.3798 83.0021L28.4617 79.2316L29.5851 80.155L24.8835 85.907L23.9717 85.1567L24.0178 79.02Z" fill="white"/>
<path d="M16.5624 76.131C16.7741 76.4042 17.0088 76.5888 17.2627 76.6889C17.5166 76.7889 17.7782 76.8274 18.0399 76.8004C18.3054 76.7774 18.567 76.6966 18.8325 76.5657C19.0979 76.4349 19.3519 76.2733 19.5904 76.0848L22.5722 73.7455L23.461 74.8844L20.4792 77.2237C20.079 77.5392 19.6635 77.7854 19.2364 77.9624C18.8094 78.1432 18.3823 78.2317 17.9552 78.2279C17.5282 78.2279 17.1126 78.124 16.701 77.9162C16.2931 77.7084 15.9084 77.3776 15.5544 76.9236C15.185 76.4542 14.9542 75.9886 14.858 75.5308C14.7618 75.0729 14.7657 74.6381 14.8734 74.2226C14.9811 73.8071 15.1735 73.4185 15.4505 73.0491C15.7314 72.6836 16.0584 72.3489 16.4393 72.0526L19.4211 69.7134L20.3176 70.8599L17.3358 73.1992C17.0895 73.3916 16.8702 73.6032 16.6779 73.8302C16.4855 74.0572 16.347 74.2957 16.2623 74.5458C16.1738 74.7959 16.1508 75.0575 16.1854 75.323C16.22 75.5885 16.3431 75.8578 16.5509 76.1233L16.5624 76.131ZM21.1256 70.5213L22.1067 69.7518L22.8262 70.6753L21.845 71.4447L21.1256 70.5213ZM22.3721 72.1181L23.3533 71.3486L24.0727 72.272L23.0916 73.0415L22.3721 72.1181Z" fill="white"/>
<path d="M50.002 100C49.9789 100 49.9596 100 49.9365 100C43.1881 99.9923 36.6396 98.6611 30.4798 96.0448C24.5278 93.517 19.1874 89.908 14.6012 85.3103C10.015 80.7126 6.41764 75.3607 3.90523 69.4048C1.30433 63.2334 -0.00766132 56.685 3.36522e-05 49.9365C0.00772862 43.188 1.33896 36.6396 3.95525 30.4798C6.48305 24.5277 10.092 19.1874 14.6897 14.6012C19.2875 10.015 24.6393 6.41762 30.5952 3.90521C36.7628 1.30431 43.3112 -0.00383902 50.0635 8.46225e-06C56.812 0.00770343 63.3604 1.33893 69.5203 3.95522C75.4723 6.47917 80.8126 10.092 85.3988 14.6897C89.985 19.2875 93.5824 24.6393 96.0948 30.5952C98.6957 36.7627 100.008 43.3112 100 50.0635C99.9923 56.812 98.6611 63.3604 96.0448 69.5202C93.5209 75.4723 89.9081 80.8126 85.3103 85.3988C80.7126 89.985 75.3607 93.5824 69.4048 96.0948C63.2565 98.6842 56.7312 100 50.0058 100H50.002ZM49.9981 1.73138C43.5036 1.73138 37.2014 3.00105 31.2685 5.50191C25.5166 7.92583 20.3494 11.4001 15.9132 15.8286C11.4732 20.257 7.98741 25.4126 5.54811 31.1569C3.02416 37.1052 1.7391 43.4227 1.7314 49.9404C1.72371 56.458 2.98953 62.7794 5.50194 68.7315C7.92585 74.4835 11.4001 79.6507 15.8286 84.0868C20.257 88.5268 25.4127 92.0126 31.157 94.4519C37.1052 96.9759 43.4228 98.2609 49.9404 98.2686C49.9596 98.2686 49.9827 98.2686 50.0058 98.2686C56.5004 98.2686 62.8025 96.999 68.7354 94.4981C74.4874 92.0742 79.6507 88.5999 84.0907 84.1714C88.5307 79.743 92.0165 74.5874 94.4558 68.8431C96.9798 62.8949 98.2648 56.5773 98.2725 50.0596C98.2802 43.542 97.0144 37.2206 94.502 31.2685C92.0781 25.5165 88.6038 20.3494 84.1753 15.9132C79.7469 11.4732 74.5912 7.98739 68.8469 5.54808C62.8987 3.02413 56.5812 1.73907 50.0635 1.73138C50.0443 1.73138 50.0212 1.73138 50.002 1.73138H49.9981Z" fill="white"/>
<path d="M49.9959 81.2739C45.7752 81.2739 41.6777 80.4466 37.8225 78.8153C34.0981 77.2417 30.7547 74.9871 27.8806 72.113C25.0065 69.2389 22.7557 65.8955 21.1783 62.1711C19.5469 58.3159 18.7197 54.2183 18.7197 49.9976C18.7197 45.777 19.5469 41.6794 21.1783 37.8242C22.7519 34.0998 25.0065 30.7564 27.8806 27.8823C30.7508 25.0121 34.0981 22.7574 37.8225 21.18C41.6777 19.5486 45.7752 18.7214 49.9959 18.7214C54.2166 18.7214 58.3142 19.5486 62.1694 21.18C65.8937 22.7536 69.2372 25.0082 72.1113 27.8823C74.9815 30.7525 77.2361 34.0998 78.8136 37.8242C80.4449 41.6794 81.2721 45.777 81.2721 49.9976C81.2721 54.2183 80.4449 58.3159 78.8136 62.1711C77.24 65.8955 74.9853 69.2389 72.1113 72.113C69.2411 74.9832 65.8937 77.2378 62.1694 78.8153C58.3142 80.4466 54.2166 81.2739 49.9959 81.2739ZM49.9959 19.7564C45.9138 19.7564 41.9508 20.5567 38.2226 22.1342C34.6214 23.6578 31.3856 25.8393 28.6078 28.6172C25.8299 31.395 23.6484 34.6308 22.1248 38.232C20.5473 41.9603 19.747 45.9193 19.747 50.0053C19.747 54.0914 20.5473 58.0504 22.1248 61.7786C23.6484 65.3799 25.8299 68.6156 28.6078 71.3935C31.3856 74.1714 34.6214 76.3529 38.2226 77.8765C41.9508 79.454 45.9099 80.2543 49.9959 80.2543C54.082 80.2543 58.041 79.454 61.7692 77.8765C65.3705 76.3529 68.6062 74.1714 71.3841 71.3935C74.162 68.6156 76.3435 65.3799 77.8671 61.7786C79.4446 58.0504 80.2449 54.0914 80.2449 50.0053C80.2449 45.9193 79.4446 41.9603 77.8671 38.232C76.3435 34.6308 74.162 31.395 71.3841 28.6172C68.6062 25.8393 65.3705 23.6578 61.7692 22.1342C58.041 20.5567 54.082 19.7564 49.9959 19.7564Z" fill="white"/>
<path d="M58.1991 61.064L58.1846 61.0737L58.204 61.0688L58.1991 61.064Z" fill="white"/>
<path d="M57.9777 61.571L57.9648 61.5904L57.9842 61.5839L57.9777 61.571Z" fill="white"/>
<path d="M45.6007 75.4231C45.7815 75.2654 45.9316 75.0999 46.0547 74.9306C46.1778 74.7613 46.2394 74.5997 46.2394 74.4459C46.2394 74.3535 46.2201 74.2804 46.1778 74.2304C46.1355 74.1765 46.0739 74.1534 45.9931 74.1534C45.9123 74.1534 45.8431 74.1881 45.7969 74.2612C45.7507 74.3343 45.7277 74.4343 45.7315 74.5728H44.9043C44.912 74.315 44.9697 74.1034 45.0736 73.9341C45.1775 73.7648 45.316 73.6417 45.4814 73.5609C45.6507 73.4801 45.8354 73.4417 46.0432 73.4417C46.401 73.4417 46.6664 73.5301 46.8396 73.7071C47.0127 73.8841 47.1012 74.1111 47.1012 74.392C47.1012 74.6921 47.0012 74.9768 46.7973 75.2384C46.5972 75.5001 46.3433 75.7386 46.0432 75.9464H47.132V76.6351H44.912V75.9964C45.1929 75.7771 45.4237 75.5885 45.6045 75.427L45.6007 75.4231Z" fill="white"/>
<path d="M47.7082 73.8643C47.9122 73.5796 48.2315 73.4333 48.6663 73.4333C49.101 73.4333 49.4204 73.5757 49.6243 73.8643C49.8282 74.149 49.9321 74.5414 49.9321 75.0416C49.9321 75.5418 49.8321 75.9419 49.6281 76.2266C49.4242 76.5113 49.1049 76.6575 48.6663 76.6575C48.2277 76.6575 47.9083 76.5152 47.7082 76.2266C47.5082 75.9419 47.4043 75.5456 47.4043 75.0416C47.4043 74.5376 47.5043 74.1528 47.7082 73.8643ZM49.0049 74.4452C48.951 74.3067 48.8356 74.2375 48.6663 74.2375C48.497 74.2375 48.3816 74.3067 48.3277 74.4452C48.2738 74.5837 48.2469 74.78 48.2469 75.0416C48.2469 75.3032 48.2738 75.511 48.3277 75.6457C48.3816 75.7842 48.497 75.8534 48.6701 75.8534C48.8433 75.8534 48.9587 75.7842 49.0125 75.6457C49.0664 75.5071 49.0933 75.3071 49.0933 75.0416C49.0933 74.7761 49.0664 74.5837 49.0125 74.4452H49.0049Z" fill="white"/>
<path d="M50.5627 73.8643C50.7667 73.5796 51.086 73.4333 51.5208 73.4333C51.9555 73.4333 52.2749 73.5757 52.4788 73.8643C52.6827 74.149 52.7866 74.5414 52.7866 75.0416C52.7866 75.5418 52.6866 75.9419 52.4826 76.2266C52.2787 76.5113 51.9594 76.6575 51.5208 76.6575C51.0822 76.6575 50.7628 76.5152 50.5627 76.2266C50.3627 75.9419 50.2588 75.5456 50.2588 75.0416C50.2588 74.5376 50.3588 74.1528 50.5627 73.8643ZM51.8593 74.4452C51.8055 74.3067 51.6901 74.2375 51.5208 74.2375C51.3515 74.2375 51.236 74.3067 51.1822 74.4452C51.1283 74.5837 51.1014 74.78 51.1014 75.0416C51.1014 75.3032 51.1283 75.511 51.1822 75.6457C51.236 75.7842 51.3515 75.8534 51.5246 75.8534C51.6977 75.8534 51.8132 75.7842 51.867 75.6457C51.9209 75.5071 51.9478 75.3071 51.9478 75.0416C51.9478 74.7761 51.9209 74.5837 51.867 74.4452H51.8593Z" fill="white"/>
<path d="M55.1515 74.1342L54.1088 76.6735H53.2355L54.2897 74.2342H53.0508V73.5032H55.1554V74.1342H55.1515Z" fill="white"/>
<path d="M37.1641 59.9445V40.9302C54.8048 45.9627 54.6778 58.0246 37.1641 59.9445Z" fill="white"/>
<path d="M63.8964 28.4255V29.7799L37.1641 29.4413V28.4255H63.8964Z" fill="white"/>
<path d="M37.1641 29.4866L63.8964 30.9024V70.874H37.1641V67.6113C69.4252 67.0996 69.3714 39.794 37.1641 38.355V29.4866Z" fill="white"/>
<path d="M65.5454 28.4255H64.3643V70.8787H65.5454V28.4255Z" fill="white"/>
<g opacity="0.9">
<path d="M66.8344 28.4253H65.9648V70.8785H66.8344V28.4253Z" fill="white"/>
<mask id="mask0_2330_9801" style="mask-type:luminance" maskUnits="userSpaceOnUse" x="65" y="28" width="2" height="43">
<path d="M66.8344 28.4253H65.9648V70.8785H66.8344V28.4253Z" fill="white"/>
</mask>
<g mask="url(#mask0_2330_9801)">
<path d="M66.8344 28.4253H65.9648V70.8785H66.8344V28.4253Z" fill="white"/>
</g>
</g>
<g opacity="0.8">
<path d="M67.8513 28.426H67.1934V70.8792H67.8513V28.426Z" fill="white"/>
<mask id="mask1_2330_9801" style="mask-type:luminance" maskUnits="userSpaceOnUse" x="67" y="28" width="1" height="43">
<path d="M67.8503 28.4265H67.1924V70.8797H67.8503V28.4265Z" fill="white"/>
</mask>
<g mask="url(#mask1_2330_9801)">
<path d="M67.1924 28.4252H67.554C67.7156 28.4252 67.8465 28.556 67.8465 28.7176V70.5821C67.8465 70.7437 67.7156 70.8745 67.554 70.8745H67.1924V28.4214V28.4252Z" fill="white"/>
</g>
</g>
<path fill-rule="evenodd" clip-rule="evenodd" d="M35.8851 28.4258V38.3138C34.5808 38.2792 33.2226 38.2907 31.8145 38.3485V29.3992C31.8145 28.8605 32.2531 28.4258 32.7917 28.4258H35.8851Z" fill="white"/>
<path fill-rule="evenodd" clip-rule="evenodd" d="M31.8145 39.7263C33.2573 39.9764 34.6116 40.2611 35.8851 40.5843V60.0641C34.6116 60.1642 33.2534 60.2103 31.8145 60.2026V39.7263Z" fill="white"/>
<path fill-rule="evenodd" clip-rule="evenodd" d="M31.8145 67.4614C33.2226 67.5615 34.5808 67.6115 35.8851 67.6153V70.8741H32.7956C32.2531 70.8741 31.8145 70.4394 31.8145 69.8969V67.4614Z" fill="white"/>
</svg>
