<svg width="100" height="100" viewBox="0 0 100 100" fill="none" xmlns="http://www.w3.org/2000/svg">
<g clip-path="url(#clip0_2330_9868)">
<path d="M50.1934 100C77.8076 100 100.193 77.6142 100.193 50C100.193 22.3858 77.8076 0 50.1934 0C22.5791 0 0.193359 22.3858 0.193359 50C0.193359 77.6142 22.5791 100 50.1934 100Z" stroke="white" stroke-width="0.66" stroke-miterlimit="3.86"/>
<path fill-rule="evenodd" clip-rule="evenodd" d="M39.4925 49.0594C39.4925 49.371 39.4513 49.6826 39.4513 50.0001C39.4513 52.8491 40.5831 55.5814 42.5976 57.5959C44.6121 59.6104 47.3444 60.7421 50.1934 60.7421C53.0423 60.7421 55.7746 59.6104 57.7891 57.5959C59.8036 55.5814 60.9354 52.8491 60.9354 50.0001C60.9354 49.6826 60.9354 49.371 60.8942 49.0594H70.3427C70.3427 49.371 70.3427 49.6826 70.3427 50.0001C70.3446 54.3813 68.9206 58.6441 66.2858 62.1445C63.651 65.6448 59.9485 68.1926 55.7378 69.4028C55.3268 68.2568 54.5719 67.2658 53.5764 66.5652C52.5808 65.8646 51.3931 65.4886 50.1757 65.4886C48.9583 65.4886 47.7707 65.8646 46.7751 66.5652C45.7795 67.2658 45.0246 68.2568 44.6136 69.4028C40.4018 68.1936 36.698 65.6464 34.0621 62.1459C31.4261 58.6454 30.0013 54.3821 30.0029 50.0001C30.0029 49.6826 30.0029 49.371 30.0029 49.0594H39.4925ZM50.1934 27.3402C44.6996 27.3457 39.3948 29.3463 35.2656 32.97C31.1364 36.5937 28.4639 41.5938 27.7451 47.0403C27.0263 52.4868 28.3101 58.0091 31.3578 62.58C34.4054 67.1508 39.0095 70.4592 44.3138 71.8898C44.3138 73.4492 44.9332 74.9447 46.0359 76.0473C47.1385 77.15 48.634 77.7694 50.1934 77.7694C51.7527 77.7694 53.2482 77.15 54.3509 76.0473C55.4535 74.9447 56.0729 73.4492 56.0729 71.8898C60.8878 70.5942 65.1412 67.7474 68.1747 63.7902C71.2082 59.8331 72.8526 54.9862 72.8533 50.0001C72.8533 49.6826 72.8533 49.371 72.8533 49.0594H82.2606C82.2606 49.371 82.2606 49.6885 82.2606 50.0001C82.2719 58.1316 79.1942 65.9639 73.65 71.9124C68.1059 77.8608 60.5093 81.4814 52.3972 82.0416C44.285 82.6018 36.2628 80.0598 29.9536 74.9299C23.6445 69.8 19.5193 62.4652 18.4127 54.4093C17.3062 46.3535 19.3008 38.178 23.993 31.5369C28.6853 24.8958 35.7249 20.2849 43.6877 18.637C51.6505 16.9891 59.942 18.4273 66.8847 22.6605C73.8274 26.8938 78.903 33.6061 81.0847 41.4394H71.1776C69.4765 37.2704 66.5719 33.7026 62.8345 31.1915C59.097 28.6803 54.6961 27.3395 50.1934 27.3402ZM39.4866 32.9082H48.9528V49.0594H39.4866V32.9082ZM51.4398 32.9082H60.906V49.0594H51.4398V32.9082Z" fill="white"/>
<path fill-rule="evenodd" clip-rule="evenodd" d="M25.1286 82.6552C24.3055 83.5724 23.4353 84.2309 22.1888 84.2662C21.6009 84.2662 20.7307 84.1368 19.5371 83.0903C18.8806 82.5346 18.4208 81.782 18.226 80.9442C18.2089 80.7159 18.2399 80.4864 18.3168 80.2707C18.3938 80.0551 18.515 79.8579 18.6728 79.6919C18.7845 79.5684 18.8316 79.4979 18.7669 79.4391C18.7022 79.3803 18.6493 79.4391 18.52 79.5566C18.3906 79.6742 17.932 80.174 17.6615 80.4503C17.3911 80.7267 17.2323 80.8443 17.1676 80.9148C17.103 80.9854 17.103 81.0207 17.1676 81.1206C17.4531 81.4201 17.7183 81.7383 17.9614 82.0731C18.3148 82.5323 18.7084 82.9593 19.1373 83.349C20.5131 84.5955 21.7067 84.9071 22.7297 84.8542C23.98 84.7775 25.1518 84.219 25.9988 83.2961C26.4641 82.8221 26.8213 82.2529 27.0456 81.6276C27.2699 81.0024 27.3561 80.336 27.2982 79.6742C27.162 78.4861 26.6101 77.3844 25.7401 76.5639L26.6632 76.5992C26.7984 76.5992 26.869 76.5992 26.8925 76.5992C26.916 76.5992 26.8925 76.511 26.8278 76.3934C26.4398 75.7702 26.5397 75.4233 26.7749 75.1587C27.0101 74.8941 27.5804 74.9647 27.9508 75.2116C28.0566 75.2939 28.1448 75.3527 28.2213 75.2763C28.2977 75.1999 28.2213 75.1528 28.1684 75.0999C27.9177 74.892 27.6306 74.7325 27.3217 74.6296C27.113 74.53 26.8801 74.4927 26.6508 74.5219C26.4214 74.551 26.2053 74.6456 26.0282 74.7942C25.693 75.1587 25.84 75.682 26.3516 76.2347C26.2281 76.2347 25.693 76.2347 25.4285 76.2347C25.3701 76.1696 25.3072 76.1087 25.2403 76.0524C24.7105 75.5442 24.1032 75.1234 23.4412 74.8059C23.3681 74.7658 23.2846 74.7488 23.2016 74.7572C23.1187 74.7656 23.0402 74.799 22.9767 74.853C22.5476 75.1505 22.139 75.4765 21.7537 75.829C21.689 75.8995 21.6479 75.9819 21.6949 76.023C21.742 76.0642 21.8008 76.023 21.9066 75.9642C22.2004 75.7346 22.5453 75.5793 22.912 75.5115C23.5999 75.4703 24.2055 75.8643 24.8758 76.4699C25.3023 76.857 25.6476 77.3252 25.8915 77.847C26.1355 78.3689 26.2732 78.934 26.2968 79.5096C26.3203 80.0852 26.2291 80.6597 26.0286 81.1997C25.828 81.7397 25.5221 82.2345 25.1286 82.6552Z" fill="white"/>
<path fill-rule="evenodd" clip-rule="evenodd" d="M17.9497 74.1357C19.4432 73.2067 19.9135 72.3718 20.084 71.5663C20.2067 70.6706 19.9976 69.7609 19.4961 69.0087C19.0435 68.2168 18.3017 67.631 17.4265 67.3742C16.1918 67.0096 14.8865 67.6564 13.7811 68.3443L12.6875 69.0263C11.0942 70.0259 10.8119 70.2023 10.4709 70.3904C10.1299 70.5785 9.88296 70.6138 9.64777 70.3904C9.5807 70.3156 9.51789 70.2371 9.45963 70.1552C9.45963 70.1141 9.38907 70.0847 9.34791 70.1141C9.30676 70.1435 9.295 70.214 9.34791 70.3257C9.54194 70.6315 9.8712 71.096 9.93587 71.1665C10.0005 71.2371 10.2945 71.8074 10.5826 72.266C10.6532 72.3777 10.7061 72.4189 10.7649 72.3777C10.8237 72.3365 10.8002 72.3013 10.7649 72.2601C10.6907 72.1449 10.6277 72.0228 10.5767 71.8956C10.4356 71.5134 10.5767 71.3076 10.8884 71.0901C11.2 70.8725 11.4763 70.6844 13.0815 69.6907L14.3573 68.8911C15.4098 68.2326 16.3564 67.8151 17.2324 67.921C17.5904 67.9754 17.9328 68.1052 18.2369 68.3019C18.541 68.4985 18.7998 68.7575 18.9963 69.0616C19.1916 69.3306 19.3286 69.6374 19.3985 69.9624C19.4683 70.2874 19.4695 70.6235 19.402 70.949C19.255 71.6486 18.814 72.3718 17.3559 73.3008L15.9272 74.1945C14.3338 75.194 14.0457 75.3704 13.7047 75.5527C13.3637 75.7349 13.1167 75.7937 12.8874 75.5527C12.817 75.4792 12.7522 75.4006 12.6934 75.3175C12.6843 75.2969 12.6677 75.2805 12.6469 75.2717C12.6261 75.263 12.6028 75.2625 12.5817 75.2705C12.5229 75.3116 12.5347 75.3763 12.5817 75.488C12.7698 75.7937 13.1696 76.3876 13.2461 76.4817C13.3225 76.5757 13.6577 77.2166 13.9458 77.6576C14.0163 77.7693 14.0692 77.8104 14.1339 77.7693C14.1986 77.7281 14.1692 77.6928 14.1339 77.6517C14.0638 77.5331 14.0028 77.4092 13.9516 77.2813C13.8105 76.8991 13.9516 76.6933 14.2574 76.4817C14.5631 76.27 14.8453 76.076 16.4505 75.0823L17.9497 74.1357Z" fill="white"/>
<path fill-rule="evenodd" clip-rule="evenodd" d="M12.4925 62.947C13.6096 62.6471 14.5327 62.4002 15.0384 62.359C15.3853 62.312 15.6557 62.3002 15.7674 62.5237C15.8254 62.6305 15.8726 62.7427 15.9085 62.8588C15.9085 62.9293 15.9673 62.9411 16.0026 62.9352C16.0379 62.9293 16.079 62.8529 16.0438 62.7236C15.9497 62.3767 15.738 61.7064 15.7086 61.6123C15.6792 61.5182 15.5381 60.8362 15.3853 60.2659C15.35 60.1365 15.3029 60.0895 15.2441 60.1071C15.1854 60.1248 15.1795 60.1483 15.1971 60.2189C15.2336 60.3717 15.2591 60.5269 15.2735 60.6833C15.3206 61.0479 15.0854 61.1831 14.7561 61.3066C14.2799 61.5006 13.3627 61.7475 12.2456 62.0415L11.1049 62.3473V62.2944C11.6458 61.5476 13.6508 58.3668 13.9389 57.7259C14.2255 57.2472 14.3415 56.6856 14.2681 56.1325C14.2214 55.8586 14.1586 55.5877 14.08 55.3212L13.9212 54.7332C13.8683 54.5333 13.8154 54.4863 13.7566 54.5039C13.6978 54.5215 13.7096 54.5921 13.7272 54.6744C13.7858 54.9228 13.7997 55.1796 13.7684 55.4329C13.6861 56.0561 13.5567 56.3031 12.91 57.526C12.5925 58.114 10.7404 61.2125 10.4817 61.6064C10.1289 61.4359 7.60656 59.9425 7.24791 59.725C6.72833 59.4775 6.26277 59.1298 5.87797 58.7019C5.72725 58.5299 5.61143 58.3302 5.53695 58.114C5.53695 58.0199 5.48403 58.0023 5.42524 58.014C5.36644 58.0258 5.35468 58.0846 5.38996 58.2139C5.4664 58.502 5.70746 59.2605 5.7251 59.3193C5.80153 59.6015 5.86033 59.9719 5.925 60.2012C5.925 60.2835 5.9838 60.3364 6.04259 60.3188C6.10139 60.3012 6.10139 60.2541 6.10727 60.1895C6.11301 60.1357 6.13625 60.0852 6.17343 60.0459C6.2106 60.0066 6.25966 59.9806 6.31306 59.9719C6.50708 59.9249 6.90101 60.1424 7.31846 60.3776C7.90642 60.6775 10.5934 62.212 10.8462 62.3473V62.3943L10.1524 62.5824C8.33563 63.0705 8.00638 63.1704 7.63008 63.2292C7.25379 63.288 6.99509 63.2762 6.8481 62.9764C6.80478 62.8868 6.76746 62.7945 6.73639 62.7C6.73639 62.653 6.68935 62.6118 6.64231 62.6236C6.59528 62.6354 6.56588 62.7059 6.60116 62.8353C6.69523 63.1822 6.90689 63.8466 6.93629 63.9524C6.96569 64.0582 7.1068 64.7226 7.24203 65.2459C7.27731 65.3694 7.31846 65.4223 7.38902 65.4047C7.45957 65.387 7.44782 65.34 7.43018 65.2929C7.39862 65.1592 7.37506 65.0238 7.35962 64.8873C7.35962 64.4816 7.50073 64.3404 7.88879 64.2111C8.27684 64.0817 8.58258 63.9994 10.3994 63.5114L12.4925 62.947Z" fill="white"/>
<path fill-rule="evenodd" clip-rule="evenodd" d="M9.99465 53.1573C11.7585 53.1867 12.6052 52.7458 13.1814 52.1637C13.7837 51.4849 14.1145 50.6077 14.1104 49.7002C14.162 48.7891 13.8585 47.8934 13.2637 47.2013C12.4229 46.2194 10.9824 46.0254 9.68303 46.0254H8.38952C6.51394 45.9901 6.17292 45.9843 5.79075 45.9549C5.40857 45.9255 5.20279 45.8255 5.10872 45.4962C5.09291 45.397 5.08309 45.2968 5.07932 45.1964C5.07932 45.1494 5.07932 45.0964 5.00876 45.0964C4.93821 45.0964 4.90881 45.1552 4.90881 45.2905C4.90881 45.6491 4.90881 46.2194 4.90881 46.3018C4.90881 46.3841 4.86177 47.0367 4.85001 47.5776C4.85001 47.7129 4.85001 47.7716 4.94409 47.7716C4.96644 47.7687 4.98681 47.7573 5.00103 47.7398C5.01524 47.7223 5.02222 47.7001 5.02052 47.6776C5.02228 47.5394 5.03605 47.4017 5.06168 47.266C5.15575 46.8721 5.34978 46.778 5.75547 46.7604C6.16116 46.7427 6.47866 46.7604 8.36013 46.7604H9.8653C11.1059 46.7604 12.1289 46.9485 12.8051 47.5129C13.0717 47.7529 13.2841 48.0469 13.428 48.3754C13.572 48.7039 13.6443 49.0593 13.64 49.4179C13.6625 49.7575 13.6111 50.0978 13.4893 50.4156C13.3675 50.7333 13.1782 51.0208 12.9344 51.2582C12.4288 51.7698 11.6762 52.1402 9.94174 52.1108H8.25429C6.37871 52.0755 6.03769 52.0696 5.65552 52.0402C5.27334 52.0108 5.02052 51.8756 4.97936 51.5463C4.96383 51.447 4.95401 51.3469 4.94997 51.2465C4.94997 51.1936 4.94997 51.1465 4.87941 51.1465C4.80886 51.1465 4.77946 51.2053 4.77946 51.3406C4.77946 51.6992 4.77946 52.4224 4.77946 52.5165C4.77946 52.6105 4.74418 53.3808 4.73242 53.8982C4.73242 54.0334 4.73242 54.0922 4.8265 54.0922C4.84884 54.0893 4.86922 54.0779 4.88343 54.0604C4.89765 54.0429 4.90463 54.0206 4.90293 53.9981C4.90469 53.86 4.91846 53.7223 4.94409 53.5866C5.03816 53.1926 5.23219 53.0986 5.63788 53.0809C6.04357 53.0633 6.36107 53.0809 8.24254 53.0809L9.99465 53.1573Z" fill="white"/>
<path fill-rule="evenodd" clip-rule="evenodd" d="M6.89033 38.4878C6.85919 38.4811 6.8312 38.4642 6.81091 38.4396C6.79063 38.4151 6.77925 38.3844 6.77862 38.3525C6.80332 38.0826 6.85855 37.8163 6.94325 37.5588C7.31954 36.33 8.41903 35.8302 9.88304 36.2712C10.2226 36.3414 10.5408 36.4909 10.8116 36.7075C11.0824 36.9241 11.2981 37.2017 11.4411 37.5176C11.5227 37.8242 11.5083 38.1484 11.4 38.4466C11.2841 38.8738 11.0843 39.2736 10.812 39.6225C10.7916 39.6428 10.7658 39.6568 10.7377 39.663C10.7096 39.6693 10.6804 39.6675 10.6533 39.6578L6.89033 38.4878ZM11.4 40.8749C12.5053 41.2159 13.4167 41.4922 13.8812 41.698C14.2045 41.845 14.4397 41.9802 14.4162 42.2272C14.4057 42.3481 14.386 42.4679 14.3574 42.5858C14.3574 42.6564 14.3574 42.6917 14.3986 42.6976C14.4397 42.7034 14.5044 42.6976 14.5456 42.5447C14.6514 42.1978 14.8395 41.4628 14.8395 41.4511C14.8395 41.4393 15.1159 40.675 15.3099 40.04C15.3511 39.9165 15.3099 39.846 15.2746 39.8283C15.2393 39.8107 15.1982 39.8283 15.1747 39.8989C15.1182 40.0721 15.0494 40.2411 14.9689 40.4045C14.8219 40.7397 14.5456 40.7279 14.1987 40.6632C13.6989 40.5691 12.7876 40.2928 11.6822 39.9518L11.4059 39.8695C11.3471 39.8695 11.3177 39.8166 11.3353 39.7636L11.7939 38.3525C11.8016 38.3231 11.8163 38.2959 11.8368 38.2734C11.8573 38.2509 11.8829 38.2336 11.9115 38.2232C12.2819 38.0821 13.2168 37.7763 13.9988 37.4882C15.063 37.0943 15.7626 36.865 16.1683 36.4476C16.4702 36.1182 16.6739 35.7108 16.7563 35.2716L17.015 34.4955C17.0797 34.2897 17.0738 34.2133 17.015 34.1898C16.9562 34.1663 16.9268 34.1898 16.915 34.2721C16.8655 34.4226 16.8066 34.5699 16.7386 34.7131C16.4706 35.2408 16.0251 35.6572 15.4804 35.889C14.5632 36.3358 13.2991 36.8062 11.7998 37.3824C11.1589 36.0536 10.4122 35.4363 9.55967 35.1717C9.25433 35.0851 8.93336 35.0687 8.62078 35.1237C8.3082 35.1786 8.0121 35.3036 7.75463 35.4892C7.16476 35.998 6.75278 36.6819 6.57872 37.4412C6.467 37.7999 6.23182 38.6877 6.19654 38.817C6.16127 38.9464 5.9202 39.5873 5.76145 40.1047C5.72618 40.234 5.72618 40.2987 5.79673 40.3163C5.86729 40.334 5.87904 40.3163 5.89668 40.2458C5.93535 40.1138 5.98654 39.9858 6.04955 39.8636C6.24946 39.5108 6.46112 39.4755 6.86094 39.5696C7.26075 39.6637 7.55473 39.7578 9.35388 40.3104L11.4 40.8749Z" fill="white"/>
<path fill-rule="evenodd" clip-rule="evenodd" d="M13.84 30.2857C11.6292 28.8452 11.3353 26.8638 12.4347 25.1763C13.4695 23.5771 15.7332 22.948 18.1556 24.5237C21.0954 26.4346 20.4016 28.6394 19.8136 29.5625C18.6318 31.3852 16.1977 31.8144 13.84 30.2857ZM13.5225 31.4263C15.3451 32.6022 18.2261 32.8551 20.0429 30.0858C20.4069 29.5523 20.657 28.9496 20.7779 28.3152C20.8987 27.6809 20.8877 27.0284 20.7454 26.3985C20.603 25.7686 20.3325 25.1747 19.9507 24.6539C19.5689 24.1331 19.0839 23.6965 18.526 23.3713C16.1742 21.8426 13.6342 22.607 12.1584 24.8824C11.8097 25.3989 11.5682 25.98 11.4479 26.5915C11.3277 27.203 11.3313 27.8323 11.4585 28.4424C11.5856 29.0525 11.8338 29.6309 12.1883 30.1434C12.5428 30.6559 12.9965 31.0921 13.5225 31.4263Z" fill="white"/>
<path fill-rule="evenodd" clip-rule="evenodd" d="M20.6129 17.4976C20.2957 17.3441 19.9961 17.1569 19.7192 16.939C19.6844 16.9004 19.6624 16.8521 19.6561 16.8005C19.6498 16.749 19.6595 16.6967 19.6839 16.6509C19.77 16.5222 19.875 16.4072 19.9955 16.3099C20.0602 16.257 20.0778 16.2158 20.0367 16.1688C19.9955 16.1217 19.9014 16.1688 19.7309 16.3158C19.384 16.6097 18.9901 16.986 18.896 17.0625C18.802 17.1389 18.2375 17.5681 17.7966 17.9385C17.6496 18.062 17.5614 18.1502 17.6084 18.209C17.6554 18.2678 17.679 18.256 17.7378 18.209C17.854 18.1073 17.9823 18.0204 18.1199 17.9503C18.5197 17.7739 18.7432 17.7563 19.3782 18.1032L26.3866 21.8661C26.9393 22.1601 27.0922 22.2541 27.2039 22.1601C27.3156 22.066 27.2039 21.9014 26.9981 21.1311C26.8335 20.502 26.4101 19.1556 25.8222 17.3388C25.3401 15.8042 24.8697 14.3108 24.758 13.9698C24.4758 13.129 24.4875 12.8586 24.5346 12.6763C24.6063 12.485 24.7282 12.3164 24.8873 12.1883C24.9579 12.1295 24.9814 12.0825 24.9403 12.0354C24.8991 11.9884 24.8344 12.0354 24.7286 12.1001C24.464 12.3235 24.0877 12.6881 24.0348 12.7351C23.9819 12.7821 23.4468 13.1525 23.1058 13.4642C22.9588 13.5876 22.9177 13.6523 22.9647 13.7111C23.0117 13.7699 23.0588 13.7111 23.1117 13.6758C23.2263 13.5736 23.355 13.4885 23.4939 13.423C23.5493 13.4099 23.6074 13.4135 23.6607 13.4334C23.7141 13.4533 23.7604 13.4885 23.7937 13.5347C23.8833 13.6634 23.9545 13.8039 24.0054 13.9522C24.3582 14.7871 25.8281 19.0498 26.3572 20.7313L20.6129 17.4976Z" fill="white"/>
<path fill-rule="evenodd" clip-rule="evenodd" d="M31.9784 14.0403C31.9431 14.0403 31.9137 14.0403 31.9079 13.9757L31.4963 10.5831C31.4963 10.3891 31.4963 10.3656 31.655 10.5067L34.1009 12.9703C34.1009 13.0055 34.148 13.0408 34.1009 13.0643L31.9784 14.0403ZM31.5727 17.1624C31.6315 17.8033 31.608 18.3383 31.1317 18.6205C31.033 18.6828 30.9309 18.7397 30.826 18.791C30.7731 18.791 30.7378 18.8557 30.7613 18.9028C30.7848 18.9498 30.8672 18.9557 31.0083 18.9028C31.5198 18.6617 32.1078 18.3501 32.2253 18.3148C32.3429 18.2795 32.8133 18.0679 33.0955 17.9503C33.1896 17.9032 33.2484 17.8503 33.219 17.7856C33.1896 17.721 33.1543 17.7327 33.0779 17.7856L32.9662 17.8386C32.9204 17.8717 32.8681 17.895 32.8128 17.9068C32.7574 17.9185 32.7002 17.9186 32.6449 17.907C32.5895 17.8954 32.5372 17.8723 32.4912 17.8392C32.4453 17.8062 32.4068 17.7639 32.3782 17.7151C32.2746 17.4407 32.2209 17.15 32.2195 16.8567L31.9725 14.6224C31.9666 14.5951 31.9697 14.5665 31.9813 14.5411C31.993 14.5156 32.0126 14.4947 32.0372 14.4813L34.389 13.3877C34.442 13.3583 34.4713 13.3877 34.5184 13.3877L36.782 15.6043C36.929 15.7454 36.9114 15.8748 36.8585 15.9277C36.8055 15.9806 36.7938 15.9982 36.8173 16.0394C36.8408 16.0806 36.9643 16.0394 37.1818 15.963C37.9403 15.6337 38.7399 15.2633 38.9046 15.1869C39.0692 15.1104 39.1103 15.0634 39.0809 14.9987C39.0515 14.934 39.0045 14.9517 38.9398 14.9987C38.7937 15.0707 38.6368 15.1183 38.4754 15.1398C38.2166 15.181 37.8168 15.1398 36.9702 14.3637C35.5297 13.0114 31.7138 9.3014 31.3552 8.96626C30.9965 8.63113 30.9965 8.65464 30.9318 8.68404C30.8672 8.71344 30.8495 8.80163 30.8907 9.21908L31.5727 17.1624Z" fill="white"/>
<path fill-rule="evenodd" clip-rule="evenodd" d="M47.1656 3.75706C47.2389 3.75608 47.3112 3.73953 47.3776 3.7085C47.4441 3.67746 47.5031 3.63267 47.551 3.57707C47.5988 3.52148 47.6342 3.45635 47.655 3.38602C47.6757 3.31568 47.6812 3.24174 47.6712 3.1691C47.6647 3.10585 47.6456 3.04455 47.6149 2.98881C47.5843 2.93307 47.5429 2.88403 47.493 2.84457C47.4431 2.80512 47.3859 2.77605 47.3246 2.75908C47.2633 2.74211 47.1992 2.73758 47.1362 2.74577C47.0677 2.74645 47.0001 2.76103 46.9375 2.78861C46.8748 2.81619 46.8184 2.85621 46.7717 2.90624C46.725 2.95626 46.6889 3.01526 46.6656 3.07965C46.6424 3.14403 46.6324 3.21247 46.6364 3.28081C46.6394 3.34699 46.6555 3.41191 46.6839 3.4718C46.7122 3.53169 46.7521 3.58535 46.8014 3.62966C46.8506 3.67398 46.9081 3.70806 46.9707 3.72993C47.0332 3.7518 47.0995 3.76103 47.1656 3.75706ZM49.5821 3.67475C49.6559 3.6746 49.7288 3.65865 49.796 3.62799C49.8631 3.59732 49.923 3.55264 49.9714 3.49695C50.0199 3.44126 50.0558 3.37584 50.0769 3.3051C50.098 3.23435 50.1037 3.15992 50.0936 3.08679C50.0917 3.02047 50.0759 2.95529 50.0473 2.89543C50.0187 2.83557 49.9779 2.78234 49.9275 2.73916C49.8771 2.69599 49.8183 2.66381 49.7548 2.6447C49.6912 2.62559 49.6244 2.61996 49.5586 2.62818C49.4901 2.62886 49.4225 2.64343 49.3599 2.67102C49.2972 2.6986 49.2408 2.73862 49.1941 2.78864C49.1474 2.83867 49.1113 2.89767 49.088 2.96206C49.0648 3.02644 49.0548 3.09488 49.0588 3.16322C49.0571 3.23186 49.0696 3.30011 49.0954 3.36372C49.1213 3.42733 49.16 3.48493 49.2091 3.53292C49.2582 3.58092 49.3166 3.61828 49.3808 3.64268C49.445 3.66708 49.5135 3.678 49.5821 3.67475ZM44.8138 10.0247C44.8725 11.7886 45.3606 12.6117 45.9897 13.1585C46.7001 13.7074 47.5869 13.9772 48.4826 13.917C49.3954 13.9211 50.2742 13.5712 50.9344 12.941C51.8634 12.0532 51.9575 10.5891 51.9163 9.30151L51.8693 8.0374C51.8046 6.15593 51.7928 5.8208 51.8046 5.43274C51.8163 5.04469 51.9045 4.84478 52.222 4.73307C52.3202 4.70774 52.4207 4.69199 52.5219 4.68604C52.5748 4.68604 52.6218 4.68604 52.616 4.6096C52.6101 4.53317 52.5572 4.50965 52.4219 4.50965C52.0633 4.50965 51.4988 4.57432 51.4106 4.5802C51.3225 4.58608 50.6757 4.5802 50.1348 4.5802C49.9995 4.5802 49.9408 4.61548 49.9466 4.68604C49.9525 4.75659 49.9937 4.75659 50.0407 4.75659C50.1776 4.74456 50.3153 4.74456 50.4523 4.75659C50.8521 4.82715 50.9579 5.02117 50.9932 5.42686C51.0285 5.83256 51.0461 6.15005 51.1108 8.02564L51.1519 9.54845C51.1931 10.789 51.0873 11.818 50.564 12.5235C50.3377 12.8029 50.0543 13.0308 49.7329 13.192C49.4115 13.3533 49.0594 13.4441 48.7002 13.4584C48.3693 13.4963 48.0341 13.4635 47.7168 13.3621C47.3996 13.2607 47.1075 13.0931 46.8598 12.8704C46.3248 12.3942 45.9132 11.6651 45.8544 9.93063L45.7956 8.24319C45.731 6.36172 45.7192 6.02658 45.7251 5.63853C45.731 5.25048 45.825 4.99765 46.1484 4.93886C46.2462 4.90955 46.3467 4.88986 46.4483 4.88006C46.4708 4.88176 46.493 4.87478 46.5105 4.86057C46.528 4.84635 46.5394 4.82598 46.5424 4.80363C46.5424 4.73307 46.4777 4.70955 46.3483 4.71543C45.9838 4.71543 45.2665 4.78599 45.1724 4.79187C45.0783 4.79775 44.3316 4.79187 43.7848 4.79187C43.6555 4.79187 43.5967 4.82127 43.5967 4.8977C43.5967 4.97414 43.6496 4.96826 43.6966 4.96238C43.8337 4.95343 43.9712 4.95343 44.1082 4.96238C44.508 5.03293 44.608 5.22108 44.6491 5.63265C44.6903 6.04422 44.6962 6.35584 44.7667 8.23143L44.8138 10.0247Z" fill="white"/>
<path fill-rule="evenodd" clip-rule="evenodd" d="M58.448 6.93793C58.7067 7.45534 59.6239 9.28977 60.5823 11.0948C61.4584 12.747 62.6754 14.9107 62.7695 15.0576C63.2223 15.8396 63.3575 16.0101 63.4222 16.0337C63.4868 16.0572 63.5456 16.0043 63.7514 15.234L65.6035 8.41959C65.7916 7.71992 65.9033 7.47885 66.309 7.50237C66.4062 7.50149 66.5031 7.51335 66.5971 7.53765C66.6794 7.53765 66.7382 7.53765 66.75 7.49061C66.7618 7.44358 66.6912 7.39066 66.5619 7.35538C66.0856 7.22603 65.6917 7.16136 65.5623 7.12608C65.433 7.0908 64.8803 6.90265 64.357 6.76742C64.2218 6.72627 64.1218 6.71451 64.1042 6.76742C64.0865 6.82034 64.1042 6.84974 64.1747 6.87326C64.366 6.92395 64.5512 6.99491 64.7274 7.08492C65.0626 7.27307 65.0802 7.54941 64.8862 8.30788L63.428 14.258C63.1635 13.7759 62.2521 12.012 61.4525 10.4716C60.1825 8.07269 58.9537 5.73262 58.8302 5.49155C58.742 5.34456 58.6127 5.03295 58.5186 5.00943C58.4245 4.98591 58.354 5.1035 58.2305 5.55623L56.4431 12.2413C56.155 13.2996 56.008 13.623 55.6964 13.623C55.5278 13.6274 55.3595 13.6076 55.1966 13.5642C55.1437 13.5642 55.1025 13.5642 55.0849 13.6113C55.0673 13.6583 55.1319 13.723 55.2495 13.7524C55.7728 13.8935 56.2726 13.9934 56.3784 14.017C56.4842 14.0405 56.9664 14.2051 57.6014 14.3874C57.7425 14.4226 57.8189 14.4168 57.8365 14.3462C57.8542 14.2757 57.8365 14.2698 57.7601 14.2521C57.5563 14.2003 57.359 14.1253 57.1722 14.0287C56.8841 13.8523 56.8488 13.5172 57.0781 12.5529L58.448 6.93793Z" fill="white"/>
<path fill-rule="evenodd" clip-rule="evenodd" d="M71.2248 13.723C72.1361 12.0767 72.3007 11.7827 72.5124 11.4593C72.7241 11.136 72.9181 10.9655 73.2297 11.0713C73.3269 11.1027 73.4212 11.142 73.5119 11.1889C73.5284 11.205 73.5506 11.2141 73.5737 11.2141C73.5968 11.2141 73.6189 11.205 73.6354 11.1889C73.6707 11.1242 73.6354 11.0772 73.5119 11.0125C73.1944 10.8361 72.5124 10.501 72.4595 10.4716C72.4066 10.4422 71.7598 10.0424 71.4129 9.84834C71.2953 9.78367 71.2307 9.77779 71.1954 9.84834C71.1601 9.9189 71.1954 9.93654 71.2483 9.96006C71.3565 10.0228 71.4571 10.0977 71.5482 10.1835C71.7539 10.3657 71.7598 10.6009 71.5834 10.9713C71.407 11.3418 71.2542 11.6181 70.3428 13.2585L69.3139 15.0929C68.726 16.1042 68.2909 16.9391 67.991 17.3507C67.7793 17.6329 67.5971 17.8328 67.3678 17.7623C67.2505 17.7269 67.1364 17.6817 67.0268 17.627C66.9621 17.5918 66.9268 17.627 66.9092 17.627C66.8915 17.627 66.9092 17.7387 67.0268 17.8034C67.3443 17.9798 68.0263 18.3149 68.0792 18.3443C68.1321 18.3737 68.7789 18.7736 69.3551 19.0969C69.4727 19.1616 69.5432 19.1557 69.5726 19.0969C69.602 19.0381 69.5726 19.0264 69.5256 18.9911C69.4785 18.9558 69.2081 18.7853 69.0729 18.6854C68.7789 18.4678 68.8436 18.1974 68.9847 17.874C69.1787 17.4036 69.6373 16.5687 70.1959 15.5574L71.2248 13.723Z" fill="white"/>
<path fill-rule="evenodd" clip-rule="evenodd" d="M77.8457 15.8218C77.9497 15.4872 78.0917 15.1657 78.2691 14.8635C78.3024 14.8231 78.3475 14.794 78.398 14.7803C78.4486 14.7666 78.5021 14.769 78.5513 14.787C78.6923 14.8506 78.82 14.9404 78.9276 15.0516C78.9923 15.1045 79.0334 15.1104 79.0746 15.0516C79.1157 14.9928 79.0746 14.9164 78.8923 14.7694C78.5513 14.4637 78.1221 14.1285 78.0339 14.0462C77.9457 13.9639 77.4459 13.4582 77.0108 13.0761C76.8697 12.9467 76.7698 12.8762 76.7227 12.9291C76.6757 12.982 76.6816 13.0055 76.7227 13.0584C76.8401 13.159 76.9448 13.2735 77.0344 13.3995C77.2637 13.7699 77.3107 13.9874 77.0344 14.6694L74.318 22.1483C74.1004 22.7362 74.0358 22.9009 74.1416 22.9949C74.2474 23.089 74.3944 22.9949 75.1294 22.6539C75.7173 22.4011 77.005 21.7955 78.7277 20.9782C80.1799 20.2903 81.591 19.6201 81.9144 19.4554C82.7082 19.0674 82.9786 19.0321 83.1668 19.0615C83.3655 19.1025 83.5488 19.1982 83.6959 19.3378C83.7665 19.4025 83.8194 19.4201 83.8606 19.3731C83.9017 19.3261 83.8606 19.2614 83.7606 19.1732C83.5019 18.938 83.0962 18.6205 83.0374 18.5852C82.9786 18.55 82.5435 18.0855 82.1849 17.768C82.0438 17.6386 81.9732 17.6034 81.9262 17.6622C81.8791 17.7209 81.9262 17.7562 81.9732 17.8033C82.0945 17.8997 82.1997 18.0148 82.2848 18.1443C82.3029 18.1977 82.3059 18.255 82.2935 18.31C82.281 18.365 82.2536 18.4155 82.2143 18.4559C82.098 18.5619 81.9674 18.6509 81.8262 18.7205C81.0501 19.1908 77.0344 21.2369 75.4351 21.966L77.8457 15.8218Z" fill="white"/>
<path fill-rule="evenodd" clip-rule="evenodd" d="M82.0198 26.0406C81.0732 26.705 80.2912 27.2518 79.8443 27.4928C79.5327 27.6516 79.2564 27.7574 79.1035 27.5869C79.012 27.5056 78.9293 27.4149 78.8566 27.3164C78.8154 27.2576 78.7684 27.2576 78.739 27.2812C78.7096 27.3047 78.6919 27.387 78.7684 27.4928C78.8448 27.5987 79.0506 27.8574 79.1917 28.0514C79.3328 28.2454 79.4622 28.4218 79.4798 28.4394C79.5798 28.5864 79.7385 28.8334 79.9854 29.2332C80.2324 29.633 80.6087 30.1798 81.1261 30.9206C81.3966 31.3028 81.4495 31.3851 81.7552 31.2734C82.1129 31.1107 82.4622 30.9302 82.8018 30.7325C82.8723 30.6796 82.9488 30.6266 82.9076 30.5679C82.8664 30.5091 82.8194 30.5267 82.7018 30.5679C82.5527 30.67 82.3783 30.729 82.1977 30.7383C82.0172 30.7476 81.8376 30.707 81.6788 30.6208C81.3775 30.3894 81.1172 30.1092 80.9085 29.7917C80.2265 28.8275 80.25 28.5864 80.9085 28.0808C81.1085 27.9279 82.2608 27.1342 82.596 26.9049L83.4897 26.264C83.4969 26.2554 83.5058 26.2484 83.516 26.2436C83.5262 26.2389 83.5373 26.2364 83.5485 26.2364C83.5597 26.2364 83.5708 26.2389 83.581 26.2436C83.5911 26.2484 83.6001 26.2554 83.6073 26.264C83.7249 26.4345 84.3893 27.4399 84.5421 27.7104C84.7714 28.1219 84.6715 28.3336 84.5421 28.4688C84.4575 28.573 84.3562 28.6625 84.2423 28.7334C84.1952 28.7687 84.1658 28.8157 84.2011 28.8687C84.2364 28.9216 84.3599 28.8687 84.4363 28.804C84.5127 28.7393 84.8831 28.5218 85.0948 28.3983C85.4417 28.2043 85.6475 28.1337 85.6828 28.0925C85.718 28.0514 85.7474 28.0161 85.7239 27.9867C85.7004 27.9573 85.624 27.9456 85.4946 27.9279C85.3653 27.9103 85.2183 27.7868 85.0301 27.5634C84.842 27.34 84.0012 26.1346 83.913 26.0053C83.8248 25.8759 83.913 25.9289 83.9718 25.8818L86.6941 23.971C86.7646 23.9239 86.8058 23.9239 86.8352 23.971C86.8646 24.018 87.6524 25.1469 87.7524 25.3468C88.064 25.9347 88.017 26.0994 87.9053 26.2816C87.8214 26.4021 87.7157 26.5058 87.5936 26.5874C87.5113 26.6462 87.476 26.6991 87.5172 26.7579C87.5584 26.8167 87.623 26.7579 87.6759 26.7579C87.7289 26.7579 88.2639 26.411 88.3639 26.3522C88.6578 26.1876 88.8107 26.1523 88.8813 26.1052C88.9518 26.0582 88.9636 26.0347 88.9459 26.0053C88.9283 25.9759 88.8401 25.9406 88.799 25.8995C88.6734 25.7794 88.5574 25.6496 88.4521 25.5114C88.2815 25.288 86.9057 23.3242 86.8587 23.2536L86.5941 22.8362C86.453 22.6128 86.2648 22.3482 86.1061 22.1189C86.0297 22.0131 85.9768 21.9778 85.918 22.0189C85.9093 22.0261 85.9024 22.0351 85.8976 22.0453C85.8928 22.0554 85.8904 22.0665 85.8904 22.0777C85.8904 22.089 85.8928 22.1 85.8976 22.1102C85.9024 22.1204 85.9093 22.1294 85.918 22.1365C85.9987 22.2487 86.0676 22.3689 86.1237 22.4952C86.2825 22.8656 86.1825 23.0831 85.8592 23.3124C85.5358 23.5417 85.2712 23.7475 83.7425 24.8235L82.0198 26.0406Z" fill="white"/>
<path fill-rule="evenodd" clip-rule="evenodd" d="M91.5563 32.6729C91.5864 32.6627 91.619 32.663 91.6488 32.6737C91.6787 32.6844 91.7041 32.7048 91.7209 32.7317C91.8667 32.9609 91.9869 33.2054 92.0796 33.4607C92.5382 34.6366 91.9796 35.7302 90.5744 36.2712C90.2662 36.43 89.9245 36.5129 89.5778 36.5129C89.2311 36.5129 88.8894 36.43 88.5812 36.2712C88.3273 36.08 88.1384 35.8151 88.0403 35.5127C87.8677 35.1174 87.7757 34.6916 87.7699 34.2603C87.7732 34.2317 87.7843 34.2046 87.8019 34.1818C87.8195 34.159 87.843 34.1415 87.8698 34.131L91.5563 32.6729ZM86.5293 33.5666C85.4533 33.984 84.5655 34.325 84.0716 34.4485C83.7247 34.5308 83.4542 34.5661 83.3249 34.3603C83.2582 34.2591 83.1992 34.1529 83.1485 34.0428C83.1485 33.9722 83.0838 33.9605 83.0485 33.9781C83.0133 33.9958 82.978 34.0663 83.0485 34.1898C83.1779 34.5308 83.4836 35.2246 83.4895 35.2364C83.4954 35.2481 83.7482 36.0125 83.9893 36.6298C84.0363 36.7533 84.0892 36.8003 84.148 36.7768C84.2068 36.7533 84.2068 36.7298 84.148 36.6592C84.0898 36.4875 84.0407 36.3128 84.001 36.1359C83.9187 35.7832 84.1363 35.6185 84.4538 35.4598C84.9006 35.2246 85.7884 34.8718 86.8703 34.4661L87.1407 34.3662C87.1995 34.3662 87.2407 34.3662 87.2642 34.4073L87.7699 35.8008C87.7828 35.8273 87.7896 35.8565 87.7896 35.8861C87.7896 35.9156 87.7828 35.9448 87.7699 35.9713C87.5641 36.3123 87.0114 37.1472 86.5939 37.841C86.006 38.8053 85.5944 39.4109 85.5239 39.9929C85.4872 40.4366 85.5726 40.8819 85.7708 41.2806L86.0765 42.0743C86.153 42.2801 86.2059 42.3389 86.2706 42.3154C86.2904 42.3011 86.3044 42.2801 86.3098 42.2563C86.3152 42.2325 86.3117 42.2075 86.3 42.186C86.2432 42.0389 86.198 41.8875 86.1647 41.7333C86.0577 41.157 86.1577 40.5615 86.4469 40.0517C86.8938 39.1286 87.6229 37.9821 88.4284 36.6063C89.7513 37.2589 90.7214 37.2883 91.5504 36.9708C91.8456 36.851 92.11 36.6662 92.3238 36.43C92.5375 36.1938 92.6953 35.9124 92.7851 35.6068C92.9241 34.8438 92.8214 34.0566 92.4912 33.3549C92.3559 33.008 91.9914 32.179 91.9444 32.0437C91.8973 31.9085 91.6857 31.2618 91.4916 30.7561C91.4446 30.6326 91.3976 30.5856 91.3329 30.6091C91.3129 30.6203 91.298 30.6388 91.2914 30.6608C91.2848 30.6827 91.2871 30.7064 91.2976 30.7267C91.3476 30.8541 91.385 30.986 91.4093 31.1206C91.474 31.5263 91.3329 31.7086 90.9566 31.8556C90.5803 32.0026 90.2922 32.1319 88.5342 32.8081L86.5293 33.5666Z" fill="white"/>
<path fill-rule="evenodd" clip-rule="evenodd" d="M85.9648 44.9141C86.0342 45.5534 86.2967 46.1564 86.7174 46.6427C86.9888 46.9231 87.3223 47.1358 87.691 47.2634C88.0597 47.3911 88.4533 47.4302 88.84 47.3777C89.7983 47.2424 90.4921 46.7897 91.4035 45.2434L91.6151 44.873C92.3501 43.5971 92.7381 43.2267 93.4143 43.1091C93.6043 43.0774 93.7988 43.0861 93.9852 43.1347C94.1716 43.1832 94.3457 43.2706 94.4961 43.391C94.6464 43.5114 94.7697 43.6621 94.8578 43.8334C94.946 44.0047 94.997 44.1926 95.0076 44.3849C95.1605 45.4786 94.7078 45.8725 94.5843 45.9666C94.4012 46.0739 94.203 46.1532 93.9963 46.2017C93.9023 46.2017 93.8435 46.2488 93.8552 46.3193C93.867 46.3899 93.9493 46.3899 94.1433 46.3664C94.5684 46.3071 94.9962 46.2698 95.4251 46.2547C95.4839 46.2547 95.5074 46.2194 95.4956 46.1194C95.4768 45.9789 95.4768 45.8366 95.4956 45.6961C95.5296 45.3196 95.5158 44.9403 95.4545 44.5672C95.2428 43.0562 94.2374 42.2154 92.9615 42.4035C92.1502 42.5152 91.4505 42.9033 90.6097 44.3144L90.2393 44.9023C89.5396 46.0783 89.1104 46.4604 88.2873 46.578C88.068 46.6119 87.8441 46.6002 87.6295 46.5438C87.4149 46.4874 87.2142 46.3874 87.0399 46.2501C86.8656 46.1127 86.7215 45.941 86.6164 45.7456C86.5114 45.5501 86.4477 45.3351 86.4293 45.114C86.3284 44.728 86.3712 44.3184 86.5496 43.9615C86.7281 43.6046 87.0301 43.3247 87.3994 43.1738C87.5411 43.1272 87.6868 43.0938 87.8345 43.0738C87.9345 43.0738 87.9639 43.0738 87.958 42.9738C87.9521 42.8739 87.8816 42.8974 87.7522 42.9033C87.6229 42.9092 87.0761 42.9386 86.4764 43.0268C86.153 43.0679 86.1118 43.0856 86.0472 43.2678C85.8958 43.8033 85.8677 44.3662 85.9648 44.9141Z" fill="white"/>
<path fill-rule="evenodd" clip-rule="evenodd" d="M92.0262 52.5165C93.9077 52.5812 94.2428 52.593 94.6308 52.6282C95.0189 52.6635 95.2541 52.7694 95.3011 53.0986C95.3105 53.1983 95.3105 53.2987 95.3011 53.3985C95.3011 53.4514 95.3011 53.4984 95.3717 53.4984C95.4422 53.4984 95.4716 53.4455 95.4716 53.3103C95.4716 52.9516 95.4716 52.1873 95.4716 52.1344C95.4716 52.0814 95.5363 51.3171 95.5539 50.9232C95.5539 50.7879 95.5539 50.7233 95.4599 50.7233C95.3658 50.7233 95.3893 50.7703 95.3893 50.8173C95.381 50.9428 95.3593 51.0669 95.3246 51.1877C95.2541 51.4523 95.0483 51.564 94.6367 51.5758C94.2251 51.5876 93.9135 51.5758 92.0321 51.5111L89.9566 51.4288C88.7806 51.3877 87.8517 51.3524 87.346 51.2759C86.9991 51.2171 86.7581 51.1466 86.6934 50.9055C86.6729 50.785 86.6611 50.6632 86.6581 50.541C86.6581 50.4704 86.6287 50.4469 86.5934 50.441C86.5582 50.4352 86.4935 50.4998 86.4876 50.6351C86.4876 50.9937 86.4876 51.7522 86.4876 51.811C86.4876 51.8698 86.4229 52.6282 86.3994 53.2926C86.3994 53.4279 86.4288 53.4867 86.4876 53.4867C86.5464 53.4867 86.564 53.4867 86.564 53.3985C86.564 53.3103 86.6052 53.0222 86.6346 52.8576C86.6934 52.4989 86.9639 52.4342 87.3108 52.4107C87.8223 52.3637 88.7689 52.4107 89.9272 52.4107L92.0262 52.5165Z" fill="white"/>
<path fill-rule="evenodd" clip-rule="evenodd" d="M93.5374 61.6178L93.1494 63.0819C92.8495 64.199 92.5085 64.4107 92.1499 64.3577H92.0205C91.85 64.3577 91.8089 64.3577 91.7971 64.4048C91.7853 64.4518 91.7971 64.5047 91.9264 64.5282C92.0558 64.5518 92.8554 64.7987 93.2023 64.8869C93.2729 64.8869 93.3434 64.9222 93.3611 64.8575C93.3787 64.7928 93.3611 64.6929 93.3611 64.5165C93.3841 64.2304 93.4333 63.947 93.508 63.6698L94.6016 59.2895C94.6369 59.1484 94.7663 58.7016 94.8898 58.3841C94.9588 58.2136 95.0476 58.0518 95.1543 57.9019C95.1543 57.8549 95.0309 57.7726 94.9662 57.7314C94.9015 57.6903 93.9314 57.1964 93.7903 57.1435C93.6492 57.0906 93.6786 57.1435 93.6668 57.1788C93.655 57.214 93.6668 57.267 93.755 57.3257C93.8697 57.4093 93.9743 57.506 94.0666 57.6138C94.3018 57.8726 94.3136 58.2018 94.1489 58.9015L93.7373 60.636L88.7926 59.4012C87.6696 59.119 86.7465 58.8897 86.2703 58.7133C85.941 58.5781 85.6823 58.4546 85.7117 58.2136C85.7105 58.0908 85.7243 57.9684 85.7529 57.849C85.7529 57.7785 85.7529 57.7491 85.7058 57.7373C85.6588 57.7256 85.5941 57.7726 85.5647 57.9019C85.4765 58.2547 85.3295 58.9955 85.3119 59.0779C85.2943 59.1602 85.0826 59.8657 84.918 60.5066C84.918 60.636 84.918 60.7006 84.965 60.7183C85.012 60.7359 85.0414 60.7183 85.0591 60.6418C85.0767 60.5654 85.1767 60.2832 85.2413 60.1303C85.3707 59.7893 85.647 59.7834 85.9939 59.8305C86.4996 59.8951 87.4227 60.1303 88.5457 60.4184L93.5374 61.6178Z" fill="white"/>
<path fill-rule="evenodd" clip-rule="evenodd" d="M86.1238 67.139C85.1066 66.5922 84.2658 66.1512 83.8484 65.8573C83.5603 65.6515 83.3545 65.4751 83.4251 65.2693C83.4548 65.151 83.4982 65.0366 83.5544 64.9283C83.5544 64.8636 83.5544 64.8225 83.5544 64.8048C83.5544 64.7872 83.4427 64.8048 83.3839 64.9342C83.3251 65.0635 83.1899 65.3457 83.0723 65.5574C82.9547 65.7691 82.8724 65.969 82.8606 65.9925C82.7724 66.1512 82.6254 66.3982 82.3844 66.8039C82.1433 67.2096 81.7964 67.7858 81.3966 68.5677C81.1791 68.9852 81.132 69.0675 81.3672 69.2909C81.6024 69.5144 82.2433 69.9318 82.3256 69.9788C82.4079 70.0259 82.4843 70.0612 82.5196 69.9788C82.5549 69.8965 82.5196 69.8848 82.4138 69.7966C82.014 69.4908 81.8729 69.2498 81.9023 68.9146C81.9814 68.5309 82.1245 68.1632 82.3256 67.8269C82.8783 66.7862 83.1017 66.698 83.8543 67.0567C84.0836 67.1684 85.3124 67.8328 85.677 68.0268L86.6118 68.5266C86.6229 68.5298 86.633 68.5358 86.6413 68.5439C86.6496 68.552 86.6557 68.562 86.6592 68.573C86.6627 68.5841 86.6634 68.5958 86.6613 68.6072C86.6592 68.6186 86.6543 68.6293 86.6471 68.6383C86.5471 68.8206 85.9709 69.8613 85.7828 70.1317C85.5182 70.5257 85.2889 70.5256 85.1184 70.4845C84.9855 70.4606 84.858 70.4128 84.7421 70.3434C84.6892 70.3434 84.6363 70.3434 84.6069 70.3434C84.5775 70.3434 84.6833 70.4786 84.7715 70.5256C84.8597 70.5727 85.2301 70.7961 85.43 70.9313C85.7651 71.1489 85.918 71.2959 85.9768 71.3312C86.0356 71.3664 86.0768 71.3312 86.0944 71.3312C86.112 71.3312 86.0944 71.2136 86.0415 71.096C85.9886 70.9784 86.0415 70.7844 86.1591 70.508C86.2767 70.2317 86.9587 68.944 87.0351 68.8088C87.1116 68.6736 87.0998 68.7618 87.1762 68.8088L90.116 70.3669C90.1925 70.4081 90.2101 70.4433 90.1925 70.4904C90.1748 70.5374 89.4987 71.7604 89.3811 71.9309C89.0107 72.4718 88.8284 72.5188 88.6167 72.5188C88.4729 72.4972 88.3338 72.4515 88.2052 72.3836C88.117 72.3366 88.0523 72.3307 88.017 72.3836C87.9817 72.4365 88.017 72.4777 88.0935 72.5188C88.1699 72.56 88.6814 72.8775 88.7696 72.9422C89.0518 73.1362 89.1518 73.2538 89.2223 73.2949C89.2929 73.3361 89.3282 73.3361 89.3458 73.2949C89.3635 73.2538 89.3458 73.1715 89.3458 73.1127C89.3963 72.9475 89.4592 72.7863 89.534 72.6305C89.6574 72.3777 90.7804 70.2787 90.8216 70.1846L91.0744 69.7613C91.2096 69.532 91.3625 69.2439 91.4919 69.0028C91.5565 68.8852 91.5624 68.8206 91.4919 68.7853C91.4213 68.75 91.4037 68.7853 91.3801 68.8382C91.3196 68.9604 91.2446 69.0749 91.1567 69.1792C90.898 69.4908 90.6805 69.4908 90.3101 69.3203C89.9397 69.1498 89.6574 68.997 87.9994 68.115L86.1238 67.139Z" fill="white"/>
<path fill-rule="evenodd" clip-rule="evenodd" d="M78.2743 72.7127C77.839 73.2065 77.566 73.8223 77.4923 74.4765C77.4652 74.8661 77.5304 75.2566 77.6826 75.6162C77.8348 75.9759 78.0698 76.2945 78.3684 76.5462C79.1033 77.1635 79.8971 77.3869 81.6668 77.0165L82.0902 76.9283C83.5248 76.6226 84.0598 76.6638 84.5831 77.1047C84.7332 77.2247 84.8564 77.375 84.9446 77.5457C85.0329 77.7164 85.0842 77.9038 85.0953 78.0957C85.1064 78.2875 85.077 78.4796 85.009 78.6594C84.941 78.8391 84.836 79.0025 84.7007 79.1391C83.9893 79.9857 83.3896 79.9093 83.2426 79.8799C83.0342 79.8222 82.8359 79.733 82.6546 79.6153C82.5723 79.5624 82.5194 79.533 82.4723 79.5859C82.4253 79.6388 82.4723 79.7094 82.6311 79.8328C83.2543 80.3561 83.5307 80.6501 83.5777 80.6913C83.6247 80.7324 83.6541 80.7265 83.7188 80.6501C83.8244 80.5362 83.9451 80.4373 84.0775 80.3561C84.3772 80.1277 84.6495 79.8653 84.8889 79.5741C85.8707 78.3982 85.8178 77.0988 84.8301 76.2698C84.2009 75.7407 83.4425 75.482 81.8197 75.7877L81.1318 75.917C79.8089 76.1581 79.215 76.117 78.58 75.5819C78.4102 75.4404 78.2714 75.2652 78.1724 75.0675C78.0734 74.8698 78.0163 74.6538 78.0047 74.433C77.9931 74.2121 78.0273 73.9913 78.105 73.7843C78.1828 73.5773 78.3025 73.3886 78.4566 73.2301C78.6725 72.8939 79.0041 72.6485 79.3887 72.5401C79.7733 72.4318 80.1842 72.4681 80.5438 72.6421C80.6754 72.7132 80.7979 72.8 80.9084 72.9008C80.9848 72.9596 81.0201 72.9773 81.0671 72.9008C81.1142 72.8244 81.0671 72.8009 80.9789 72.7009C80.8907 72.601 80.5027 72.2247 80.0382 71.8366C79.7913 71.6249 79.7442 71.6073 79.5737 71.6779C79.0697 71.923 78.6261 72.2764 78.2743 72.7127Z" fill="white"/>
<path fill-rule="evenodd" clip-rule="evenodd" d="M76.7516 82.3907C77.9569 83.8312 78.1744 84.0899 78.4037 84.3957C78.633 84.7014 78.7153 84.9542 78.5037 85.2129C78.4423 85.292 78.3734 85.3649 78.2979 85.4305C78.2626 85.4658 78.2391 85.5128 78.2979 85.5481C78.3567 85.5834 78.4096 85.5834 78.5096 85.501C78.7859 85.2659 79.3445 84.7485 79.3915 84.7132C79.4385 84.6779 80.0441 84.2134 80.344 83.9606C80.4498 83.8724 80.4792 83.8136 80.4322 83.7607C80.4245 83.7529 80.4154 83.7466 80.4053 83.7424C80.3952 83.7382 80.3843 83.736 80.3734 83.736C80.3624 83.736 80.3516 83.7382 80.3415 83.7424C80.3314 83.7466 80.3223 83.7529 80.3146 83.7607C80.2164 83.8405 80.11 83.9095 79.9971 83.9665C79.7501 84.0899 79.5267 84.0076 79.2445 83.7136C78.9623 83.4197 78.7624 83.1727 77.5571 81.7322L76.193 80.1095C75.4463 79.2216 74.8348 78.4926 74.5585 78.0634C74.3703 77.7694 74.2469 77.5224 74.3997 77.3343C74.4726 77.236 74.5554 77.1453 74.6467 77.0638C74.6996 77.0168 74.6937 76.9756 74.6467 76.9462C74.5996 76.9168 74.5408 76.911 74.4409 76.9992C74.1645 77.2285 73.606 77.7459 73.5589 77.7811C73.5119 77.8164 72.9063 78.2809 72.383 78.7101C72.2772 78.7924 72.2596 78.863 72.2948 78.9041C72.3301 78.9453 72.3595 78.9453 72.4183 78.9041C72.4771 78.863 72.7182 78.6866 72.8652 78.5925C73.1709 78.3985 73.3943 78.5573 73.6471 78.7983C74.0176 79.1511 74.6349 79.8802 75.3757 80.7621L76.7516 82.3907Z" fill="white"/>
<path fill-rule="evenodd" clip-rule="evenodd" d="M40.415 88.9875C40.903 87.2236 41.2617 86.0477 41.2852 85.9771C41.3087 85.9066 41.2852 85.7243 41.2205 85.7008C41.1107 85.6922 41.0007 85.7146 40.903 85.7654L38.2513 86.6591C38.2048 86.6775 38.1656 86.7105 38.1396 86.7532C38.1344 86.7776 38.1366 86.803 38.146 86.8261C38.1555 86.8492 38.1717 86.8689 38.1925 86.8826C38.2425 86.8969 38.2955 86.8969 38.3454 86.8826C38.8285 86.7611 39.3233 86.6921 39.8212 86.6768C40.0093 86.7238 39.9976 86.8591 39.9329 87.0942C39.7624 87.7351 39.6272 88.2349 39.4625 88.8581L38.9157 90.8924C38.6041 92.0684 38.3278 93.0561 38.1632 93.5618C38.0456 93.9146 37.9162 94.0674 37.5105 94.038C37.1903 93.9975 36.8724 93.9406 36.558 93.8675C36.5332 93.8634 36.5078 93.8682 36.4863 93.8812C36.4647 93.8941 36.4485 93.9143 36.4404 93.9381C36.4404 93.9969 36.4875 94.038 36.6168 94.0674C37.3635 94.2673 38.3807 94.4966 38.3807 94.5143C38.3807 94.5319 39.1744 94.7671 40.0505 94.9964C40.1916 95.0376 40.2563 94.9964 40.268 94.967C40.2718 94.9415 40.2662 94.9154 40.2521 94.8937C40.238 94.8721 40.2165 94.8563 40.1916 94.8494C39.9358 94.7712 39.6846 94.679 39.439 94.5731C39.0921 94.3908 39.0921 94.2027 39.1392 93.8322C39.2215 93.3031 39.4743 92.2977 39.7977 91.1394L40.415 88.9875Z" fill="white"/>
<path fill-rule="evenodd" clip-rule="evenodd" d="M47.5066 86.7122C47.1314 86.6647 46.7505 86.6956 46.3879 86.8031C46.0253 86.9106 45.6891 87.0923 45.4005 87.3367C45.1119 87.581 44.8773 87.8827 44.7115 88.2226C44.5457 88.5625 44.4524 88.9331 44.4374 89.311C44.4134 89.6253 44.4537 89.9412 44.556 90.2394C44.6582 90.5376 44.8203 90.8117 45.0322 91.0451C45.2441 91.2785 45.5014 91.4662 45.7884 91.5966C46.0753 91.7271 46.3859 91.7977 46.7011 91.8039C47.2442 91.8527 47.7853 91.6906 48.2121 91.3512C48.2474 91.3159 48.265 91.2924 48.265 91.2571C48.265 91.2219 48.265 91.1689 48.2121 91.1689C48.1552 91.1754 48.1007 91.1956 48.0534 91.2277C47.7491 91.3768 47.4067 91.4301 47.0715 91.3806C46.7481 91.3806 45.3076 90.8573 45.437 88.8641C45.4311 88.6325 45.4729 88.4022 45.56 88.1875C45.647 87.9727 45.7773 87.7782 45.9428 87.616C46.1082 87.4539 46.3053 87.3275 46.5218 87.2448C46.7382 87.1622 46.9694 87.125 47.2008 87.1355C48.2592 87.212 49.1117 88.3467 48.9647 90.4516C48.8688 91.5901 48.4779 92.684 47.8304 93.6253C47.1829 94.5667 46.3012 95.323 45.2723 95.8197C45.2369 95.8312 45.2057 95.853 45.1826 95.8824C45.1596 95.9117 45.1458 95.9472 45.143 95.9843C45.143 96.0549 45.1783 96.1078 45.2312 96.1078C45.2978 96.1138 45.3649 96.1016 45.4252 96.0725C46.9421 95.4434 49.782 93.5502 50.0172 90.1929C50.1583 88.3467 49.1999 86.8239 47.5066 86.7122Z" fill="white"/>
<path fill-rule="evenodd" clip-rule="evenodd" d="M53.4508 86.8239C53.0604 86.8731 52.6653 86.8731 52.2749 86.8239C52.1985 86.8239 52.1573 86.8886 52.175 87.0062C52.1926 87.1238 52.175 88.5466 52.2279 88.9288C52.2279 89.0582 52.2631 89.1169 52.3219 89.1111C52.3807 89.1052 52.4101 89.0405 52.4101 88.9288C52.4024 88.573 52.5235 88.2264 52.7512 87.9528C53.0533 87.6951 53.4308 87.5425 53.8271 87.5177L56.7669 87.1591C55.6218 89.8409 54.753 92.6324 54.174 95.4904C54.1563 95.627 54.1563 95.7654 54.174 95.902C54.174 95.9902 54.2269 96.0196 54.2975 96.0078C54.5385 95.9784 55.4087 95.3787 55.3793 95.1376C55.351 95.0001 55.3333 94.8605 55.3264 94.7202C55.3264 93.1386 56.714 88.2115 57.5077 86.6593C57.5445 86.5845 57.5607 86.5013 57.5548 86.4182C57.5548 86.3477 57.4783 86.3065 57.3196 86.3241L53.4508 86.8239Z" fill="white"/>
<path fill-rule="evenodd" clip-rule="evenodd" d="M64.88 91.0454C64.9875 91.3144 65.0354 91.6035 65.0204 91.8928C65.0055 92.1821 64.928 92.4647 64.7933 92.7212C64.6586 92.9777 64.47 93.2019 64.2404 93.3785C64.0107 93.5551 63.7455 93.6798 63.4631 93.7441C63.2545 93.8438 63.0268 93.897 62.7956 93.9002C62.5645 93.9034 62.3354 93.8564 62.1242 93.7625C61.9129 93.6686 61.7245 93.5301 61.572 93.3564C61.4195 93.1827 61.3064 92.978 61.2406 92.7564C61.1877 92.6329 61.1642 92.6035 61.1054 92.6211C61.0466 92.6388 61.0466 92.7093 61.0701 92.8269C61.1727 93.3197 61.3022 93.8065 61.4581 94.285C61.4735 94.3527 61.5094 94.4139 61.561 94.4602C61.6126 94.5066 61.6773 94.5357 61.7462 94.5437C62.2488 94.5799 62.7536 94.52 63.2338 94.3674C65.274 93.703 66.2265 91.9097 65.7032 90.3046C65.5042 89.7906 65.1409 89.3568 64.6698 89.0708C64.1988 88.7847 63.6463 88.6624 63.0985 88.723V88.6642C63.4043 88.3878 64.3391 87.2472 63.9687 86.1007C63.7806 85.5127 63.0045 84.5132 61.1406 85.1188C60.4978 85.3174 59.9072 85.6569 59.412 86.1124C59.3003 86.2476 59.3062 86.3006 59.3356 86.4005C59.4238 86.6651 59.6237 87.1707 59.7883 87.5235C59.8354 87.6235 59.8765 87.6352 59.9118 87.6235C59.9471 87.6117 59.9824 87.5706 59.9471 87.4588C59.8776 87.2737 59.8491 87.0756 59.8634 86.8784C59.8778 86.6811 59.9347 86.4893 60.0302 86.3161C60.1258 86.1429 60.2577 85.9924 60.4169 85.8751C60.5761 85.7577 60.7588 85.6762 60.9525 85.6362C61.1592 85.5501 61.3817 85.5081 61.6055 85.5131C61.8294 85.5181 62.0498 85.5699 62.2525 85.6652C62.4551 85.7604 62.6356 85.897 62.7824 86.0662C62.9291 86.2354 63.0388 86.4334 63.1044 86.6475C63.5395 87.988 62.4577 88.9464 61.9285 89.2345C61.7874 89.305 61.6874 89.3756 61.711 89.4579C61.7345 89.5402 61.8285 89.5343 62.0579 89.5108C62.8281 89.4168 64.3803 89.5108 64.88 91.0454Z" fill="white"/>
<path d="M69.8897 86.5123C69.8885 86.3539 69.9344 86.1987 70.0216 86.0665C70.1087 85.9342 70.2332 85.8308 70.3792 85.7694C70.5252 85.7079 70.6862 85.6913 70.8417 85.7214C70.9972 85.7516 71.1402 85.8273 71.2526 85.9389C71.365 86.0505 71.4418 86.193 71.4731 86.3482C71.5044 86.5035 71.4889 86.6646 71.4286 86.811C71.3682 86.9575 71.2658 87.0827 71.1341 87.1709C71.0025 87.259 70.8477 87.306 70.6893 87.306C70.4782 87.306 70.2757 87.2226 70.1259 87.0739C69.9761 86.9252 69.8912 86.7233 69.8897 86.5123Z" fill="white"/>
<path d="M69.8897 86.5123C69.8885 86.3539 69.9344 86.1987 70.0216 86.0665C70.1087 85.9342 70.2332 85.8308 70.3792 85.7694C70.5252 85.7079 70.6862 85.6913 70.8417 85.7214C70.9972 85.7516 71.1402 85.8273 71.2526 85.9389C71.365 86.0505 71.4418 86.193 71.4731 86.3482C71.5044 86.5035 71.4889 86.6646 71.4286 86.811C71.3682 86.9575 71.2658 87.0827 71.1341 87.1709C71.0025 87.259 70.8477 87.306 70.6893 87.306C70.4782 87.306 70.2757 87.2226 70.1259 87.0739C69.9761 86.9252 69.8912 86.7233 69.8897 86.5123Z" stroke="white" stroke-width="1.52" stroke-miterlimit="3.86"/>
<path d="M31.1611 86.5123C31.1611 86.3553 31.2077 86.2018 31.2949 86.0713C31.3821 85.9407 31.5061 85.839 31.6511 85.7789C31.7962 85.7189 31.9558 85.7031 32.1097 85.7338C32.2637 85.7644 32.4051 85.84 32.5161 85.951C32.6271 86.062 32.7027 86.2034 32.7334 86.3574C32.764 86.5114 32.7483 86.671 32.6882 86.816C32.6281 86.961 32.5264 87.085 32.3959 87.1722C32.2653 87.2594 32.1119 87.306 31.9549 87.306C31.7444 87.306 31.5425 87.2224 31.3936 87.0735C31.2448 86.9247 31.1611 86.7228 31.1611 86.5123Z" fill="white"/>
<path d="M31.1611 86.5123C31.1611 86.3553 31.2077 86.2018 31.2949 86.0713C31.3821 85.9407 31.5061 85.839 31.6511 85.7789C31.7962 85.7189 31.9558 85.7031 32.1097 85.7338C32.2637 85.7644 32.4051 85.84 32.5161 85.951C32.6271 86.062 32.7027 86.2034 32.7334 86.3574C32.764 86.5114 32.7483 86.671 32.6882 86.816C32.6281 86.961 32.5264 87.085 32.3959 87.1722C32.2653 87.2594 32.1119 87.306 31.9549 87.306C31.7444 87.306 31.5425 87.2224 31.3936 87.0735C31.2448 86.9247 31.1611 86.7228 31.1611 86.5123Z" stroke="white" stroke-width="1.52" stroke-miterlimit="3.86"/>
<path fill-rule="evenodd" clip-rule="evenodd" d="M73.265 9.37219C73.3331 9.37307 73.4007 9.36 73.4637 9.33378C73.5266 9.30757 73.5834 9.26876 73.6308 9.21975C73.6782 9.17074 73.715 9.11255 73.739 9.04878C73.7631 8.98501 73.7738 8.91699 73.7706 8.84891C73.7716 8.78433 73.7592 8.72026 73.734 8.66078C73.7088 8.60129 73.6716 8.54771 73.6245 8.50344C73.5775 8.45918 73.5218 8.42521 73.4609 8.40371C73.4 8.3822 73.3353 8.37363 73.2709 8.37854C73.2053 8.37773 73.1402 8.39015 73.0795 8.41506C73.0189 8.43996 72.9638 8.47684 72.9177 8.52349C72.8716 8.57014 72.8354 8.6256 72.8112 8.68656C72.787 8.74753 72.7754 8.81274 72.777 8.87831C72.7737 8.94354 72.784 9.00875 72.8072 9.06978C72.8305 9.13081 72.8662 9.18632 72.9121 9.23278C72.9581 9.27924 73.0131 9.31563 73.0739 9.33964C73.1346 9.36364 73.1997 9.37473 73.265 9.37219Z" fill="white"/>
<path fill-rule="evenodd" clip-rule="evenodd" d="M97.0124 52.393C97.0807 52.3947 97.1488 52.3822 97.2121 52.3563C97.2754 52.3304 97.3326 52.2916 97.3802 52.2424C97.4277 52.1932 97.4645 52.1347 97.4882 52.0705C97.512 52.0064 97.5221 51.938 97.518 51.8697C97.5198 51.8054 97.5081 51.7414 97.4837 51.682C97.4592 51.6225 97.4224 51.5688 97.3759 51.5245C97.3293 51.4801 97.2739 51.446 97.2133 51.4245C97.1527 51.4029 97.0882 51.3943 97.0241 51.3993C96.9588 51.3977 96.8939 51.4094 96.8332 51.4336C96.7726 51.4579 96.7175 51.4942 96.6713 51.5404C96.6251 51.5866 96.5888 51.6417 96.5645 51.7023C96.5403 51.763 96.5286 51.8279 96.5302 51.8932C96.5261 51.9584 96.5356 52.0237 96.5582 52.0851C96.5807 52.1464 96.6158 52.2023 96.6611 52.2493C96.7065 52.2964 96.7612 52.3334 96.8216 52.3581C96.8821 52.3829 96.9471 52.3947 97.0124 52.393Z" fill="white"/>
<path fill-rule="evenodd" clip-rule="evenodd" d="M80.3197 86.2358C80.3878 86.2367 80.4554 86.2237 80.5183 86.1974C80.5813 86.1712 80.6381 86.1324 80.6855 86.0834C80.7329 86.0344 80.7697 85.9762 80.7937 85.9124C80.8178 85.8487 80.8285 85.7806 80.8253 85.7126C80.8263 85.648 80.8138 85.5839 80.7887 85.5244C80.7635 85.4649 80.7262 85.4114 80.6792 85.3671C80.6322 85.3228 80.5764 85.2889 80.5156 85.2674C80.4547 85.2458 80.3899 85.2373 80.3255 85.2422C80.2597 85.2405 80.1943 85.2524 80.1332 85.277C80.0722 85.3016 80.0168 85.3385 79.9705 85.3853C79.9243 85.4321 79.8881 85.4879 79.8642 85.5492C79.8403 85.6106 79.8292 85.6762 79.8317 85.742C79.8283 85.8072 79.8387 85.8724 79.8619 85.9334C79.8852 85.9945 79.9209 86.05 79.9668 86.0964C80.0127 86.1429 80.0678 86.1793 80.1286 86.2033C80.1893 86.2273 80.2544 86.2384 80.3197 86.2358Z" fill="white"/>
</g>
<defs>
<clipPath id="clip0_2330_9868">
<rect width="100" height="100" fill="white"/>
</clipPath>
</defs>
</svg>
