<svg width="100" height="16" viewBox="0 0 100 16" fill="none" xmlns="http://www.w3.org/2000/svg">
<path d="M0 -1.47511e-06H32.176L30.2764 0.988363L30.2728 7.64655L27.0837 13.6058L28.2997 15.6582L0 -1.47511e-06Z" fill="white"/>
<path d="M77.3376 2.38755H77.2998L75.563 5.60719H79.0125L77.3376 2.38755ZM74.5485 7.4741L73.787 9.19629H69.8809L74.5907 0.0282761H79.8474L84.6831 9.19629H80.7565L80.0081 7.4741H74.5485Z" fill="white"/>
<path d="M52.6232 2.3878H52.5854L50.8487 5.60744H54.2981L52.6232 2.3878ZM49.8341 7.47435L49.0727 9.19653H45.165L49.8749 0.0285203H55.1323L59.968 9.19653H56.0414L55.2931 7.47435H49.8341Z" fill="white"/>
<path d="M91.7059 0.0292534H95.2514L91.5648 3.80017L96.1634 9.19727H92.3626L87.5706 3.81035L87.5415 5.22126V9.19727H84.6826V0.0292534H87.5415V3.81035H87.5706L91.7059 0.0292534Z" fill="white"/>
<path d="M97.0967 9.19706H99.9999V0.0283203H97.0967V9.19706Z" fill="white"/>
<path d="M69.6863 2.13689V0.0292534H59.9961V1.96162H65.3546L60.047 7.01472V9.19727H69.7568V7.35144H64.4841L69.6863 2.13689Z" fill="white"/>
<path d="M47.5006 -8.16924e-05H43.7886L41.3522 3.23047L38.9173 -8.16924e-05H35.2061L39.8802 6.19193V9.19702H42.7559V6.19193L47.5006 -8.16924e-05Z" fill="white"/>
</svg>
