<?xml version="1.0" encoding="UTF-8"?>
<svg id="Layer_1" data-name="Layer 1" xmlns="http://www.w3.org/2000/svg" viewBox="0 0 318.11 376.82">
  <defs>
    <style>
      .cls-1 {
        fill: #525252;
      }

      .cls-1, .cls-2, .cls-3, .cls-4, .cls-5, .cls-6, .cls-7, .cls-8, .cls-9, .cls-10, .cls-11, .cls-12 {
        stroke-width: 0px;
      }

      .cls-2, .cls-8 {
        fill: #000;
      }

      .cls-3 {
        fill: #dca188;
      }

      .cls-4 {
        fill: rgba(217, 217, 217, .25);
      }

      .cls-5 {
        fill: #d0cbcb;
      }

      .cls-6 {
        fill: #d9d9d9;
      }

      .cls-7, .cls-10 {
        fill: #9f9e9e;
      }

      .cls-8, .cls-10, .cls-12 {
        fill-rule: evenodd;
      }

      .cls-9, .cls-12 {
        fill: #707070;
      }

      .cls-11 {
        fill: #a1a1a1;
      }
    </style>
  </defs>
  <path class="cls-1" d="M318.11,217.91c0,38.32-13.55,73.48-36.13,100.94-17.75,21.59-41.07,38.42-67.76,48.29-.02.01-.03.01-.05.02l-5.96,2.07s-.08.03-.12.03c-14.66,3.65-27.33,5.91-39.29,6.92h-.01c-.36.04-.71.07-1.07.09-.57.05-1.15.09-1.72.13-.58.04-1.15.07-1.72.11-.86.06-1.72.1-2.57.13-.85.04-1.7.07-2.54.09-.56.02-1.13.04-1.69.05-.57.01-1.13.02-1.69.02-.54.01-1.08.01-1.62.01-.7.01-1.39.01-2.08,0-.11-.01-.22-.01-.33-.01-.08,0-.15,0-.22-.01h-.02c-20.96-.97-40.83-6-58.9-14.32-2.53-1.16-5.02-2.39-7.47-3.68h0c-18.26-9.6-34.41-22.64-47.61-38.26C14.11,292.83,0,257.02,0,217.91s13.01-72.05,34.77-99.26c16.75-20.96,38.69-37.58,63.88-47.93,18.62-7.65,39.02-11.87,60.4-11.87,12.78,0,25.21,1.51,37.12,4.36,15.83,3.78,30.74,9.93,44.34,18.06h.01c1.57.93,3.12,1.9,4.65,2.89,22.39,14.44,40.88,34.32,53.69,57.81.01.01.01.03.01.04,12.27,22.56,19.24,48.42,19.24,75.9Z"/>
  <path class="cls-9" d="M281.98,318.85c-17.75,21.59-41.07,38.42-67.76,48.29v-.12s4.7-61.03,4.7-61.03l2.11-7.12c2.56-.97,9.45-1.85,16.63,2.37,6.41,3.77,28.96,12.65,44.32,17.61Z"/>
  <path class="cls-9" d="M92.62,362.47c-2.53-1.16-5.02-2.39-7.47-3.68h0c-18.26-9.6-34.41-22.64-47.61-38.26,3.64-2.22,7.3-4.68,10.59-7.14,9.51-7.13,13.73-8.19,17.96-6.6,3.37,1.26,10.73,1.05,13.99.79l.08.23,3.61,10.59,8.86,44.07Z"/>
  <path class="cls-3" d="M177.21,97.45c-13.73,8.87-56.23,5.63-75.76,2.9-4.05-7.74-5.6-21.44,20.59-14.26,26.19,7.18,54.73-8.8,65.73-17.69,2.2,5.98,3.17,20.17-10.56,29.04Z"/>
  <path class="cls-3" d="M195.95,186.94c-2.29,5.63-2.74,16.89,13.73,16.89l-13.73-16.89Z"/>
  <path class="cls-5" d="M234.01,320.18l-19.78,46.83h0s-.06.15-.06.15l-5.96,2.07s-.08.03-.12.03c-14.66,3.65-27.33,5.91-39.29,6.92-.36.03-.72.06-1.08.09-.57.05-1.15.09-1.72.13-.58.04-1.15.07-1.72.11-.86.06-1.72.1-2.57.13-.85.04-1.7.07-2.54.09-.56.02-1.13.04-1.69.05-.57.01-1.13.02-1.69.02-.54.01-1.08.01-1.62.01-.88,0-1.75-.01-2.63-.02h-.02c-20.96-.97-40.83-6-58.9-14.32-2.53-1.16-5.02-2.39-7.47-3.68h0c-.36-.48-.71-.96-1.05-1.43-.67-.91-1.31-1.8-1.94-2.67-.24-.33-.48-.67-.71-1-2.45-3.43-4.59-6.61-6.48-9.63-.16-.25-.32-.51-.47-.76-.51-.82-.99-1.63-1.46-2.43-.25-.42-.49-.85-.73-1.27-.38-.67-.75-1.33-1.1-1.99-.2-.37-.4-.74-.59-1.11-.2-.37-.39-.74-.57-1.1-.18-.37-.37-.73-.55-1.1-.36-.74-.7-1.47-1.03-2.19-.33-.72-.65-1.45-.96-2.18-.31-.73-.61-1.46-.89-2.19-.15-.37-.29-.74-.42-1.11-.14-.37-.27-.74-.41-1.11-.53-1.48-1.02-2.98-1.47-4.52-.72-2.42.51-4.95,2.77-6.05,1.31-.64,2.57-1.26,3.77-1.88.5-.26.99-.51,1.48-.77,1.52-.79,2.97-1.59,4.38-2.41.5-.28.99-.57,1.47-.87.66-.4,1.32-.8,1.97-1.21.46-.3.92-.6,1.38-.9.33-.22.67-.44,1-.67,1.05-.72,2.1-1.46,3.18-2.26.41-.3.82-.6,1.23-.92,1.51-1.14,3.06-2.38,4.7-3.74,1.54-1.28,2.42-3.19,2.42-5.19v-26.41l2.14.08,40.27,1.42h.01l84.55,2.98v27.36c0,1.22.61,2.35,1.59,3.07,4.8,3.54,7.63,7,11.27,14.04.56,1.09.6,2.38.12,3.51Z"/>
  <path class="cls-10" d="M174.42,310.76c-.04,1.12-.85,5.44-3.81,17.14-2.48,9.81-1.57,21.07-.82,30.36.68,8.43,1.24,15.25-.99,17.92h-.01c-.36.04-.71.07-1.07.09-.57.05-1.15.09-1.72.13-.58.04-1.15.07-1.72.11-.86.06-1.72.1-2.57.13-.85.04-1.7.07-2.54.09-.56.02-1.13.04-1.69.05-.57.01-1.13.02-1.69.02-.54.01-1.08.01-1.62.01-.7.01-1.39.01-2.08,0-.11-.01-.22-.01-.33-.01-.08,0-.15,0-.22-.01h-.02c-20.96-.97-40.83-6-58.9-14.32-2.53-1.16-5.02-2.39-7.47-3.68h0c-.36-.48-.71-.96-1.05-1.43-.67-.91-1.31-1.8-1.94-2.67-.24-.33-.48-.67-.71-1-2.45-3.43-4.59-6.61-6.48-9.63-.16-.25-.32-.51-.47-.76-.51-.82-.99-1.63-1.46-2.43-.25-.42-.49-.85-.73-1.27-.38-.67-.75-1.33-1.1-1.99-.2-.37-.4-.74-.59-1.11-.2-.37-.39-.74-.57-1.1-.18-.37-.37-.73-.55-1.1-.36-.74-.7-1.47-1.03-2.19-.33-.72-.65-1.45-.96-2.18-.31-.73-.61-1.46-.89-2.19-.15-.37-.29-.74-.42-1.11-.14-.37-.27-.74-.41-1.11-.53-1.48-1.02-2.98-1.47-4.52-.72-2.42.51-4.95,2.77-6.05,1.31-.64,2.57-1.26,3.77-1.88.5-.26.99-.51,1.48-.77,1.52-.79,2.97-1.59,4.38-2.41.5-.28.99-.57,1.47-.87.66-.4,1.32-.8,1.97-1.21.46-.3.92-.6,1.38-.9.33-.22.67-.44,1-.67,1.05-.72,2.1-1.46,3.18-2.26.41-.3.82-.6,1.23-.92,1.51-1.14,3.06-2.38,4.7-3.74,1.54-1.28,2.42-3.19,2.42-5.19v-37.89l42.39,12.97h.02s.01.01.01.01l42.32,16.71-4.49,24.55c.08-.1.12-.03.11.28Z"/>
  <path class="cls-5" d="M252.18,167.39c-.36,11.42.76,25.88-5.15,40.92-.31,1.4-.9,2.81-1.25,4.22-9.7,41.45-35.31,98.99-67.25,97.94-66.75,6.33-110.5-66.59-107.44-133.05,0-74.02,28.4-134.69,79.77-138.17,3.11-.21,6.27-.6,9.3-1.31,72.69-17.16,95.09,31.85,92.02,129.45Z"/>
  <path class="cls-11" d="M136.82,224.91c-1.9,2.11-8.54,5.1-11.62,6.34l4.22,3.96,16.37,7.39,14.52,2.9,12.41-1.85,15.05-6.34,6.6-6.07-1.85-1.58c-1.14-.88-4.07-3.06-6.6-5.81-3.17-3.43-12.67-5.81-17.42-1.58-4.75,4.22-11.09,1.06-16.1-1.32-5.01-2.38-13.2,1.32-15.57,3.96Z"/>
  <path class="cls-7" d="M152.4,252.67c4.58,6.25,16.05,14.68,25.34-1.58-3.08,1.76-12.46,4.54-25.34,1.58Z"/>
  <path class="cls-7" d="M116.23,203.84c-1.94-5.54-1.9-16.89,13.73-17.95l-13.73,17.95Z"/>
  <path class="cls-7" d="M145.8,175.59c-7.6-7.6-6.86-13.73-5.54-15.84-6.07,8.45-7.39,23.23-6.86,28.77.53,5.54,5.02,7.13,8.71,1.32,3.7-5.81,5.28-5.81,13.99,3.7,6.97,7.6,12.23,2.82,13.99-.53,1.58-17.69-14.78-7.92-24.29-17.42Z"/>
  <path class="cls-7" d="M208.36,155.53c33.16-5.91,19.62-21.65,8.71-28.77,5.28-2.11,22.44,1.58,21.12,18.48-1.06,13.52-20.33,12.49-29.83,10.29Z"/>
  <path class="cls-7" d="M193.84,138.37c.85-12.04,11.62-13.99,16.9-13.46-11.35-1.85-33.58-1.74-31.68,13.46,1.9,15.21,19.97,17.77,28.77,17.16-5.02-.7-14.84-5.12-13.99-17.16Z"/>
  <path class="cls-7" d="M208.1,228.65c-2.19-2.02-7.82-.93-12.24.48-.98.31-.94,1.81-.05,2.31,6.33,3.52,9.47,11.76,13.61,11.99,4.75.26,2.11-11.62-1.32-14.78Z"/>
  <path class="cls-7" d="M116.5,229.18c2.24-1.03,5.8-.03,8.13.95.68.28.8,1.17.27,1.68-2.85,2.76-6.64,6.66-9.2,5.03-2.9-1.85-2.64-6.07.79-7.66Z"/>
  <path class="cls-7" d="M152.4,203.04c-1.15-5.94-6.73-9.14-10.12-10.27-.54-.18-.88-.72-.72-1.26.79-2.71,2.88-6.48,6.62-5.36,5.15,1.54,9.54,18.89,23.45,7.29.55-.46,1.4-.29,1.68.37,3.67,8.93,3.7,19.04-5.86,25.07-10.03,6.34-13.46-7.65-15.05-15.84Z"/>
  <path class="cls-7" d="M124.15,146.02c-4.22,11.62-18.13,14.17-24.55,13.99,35.11,4.75,36.96-12.41,35.37-21.12-1.58-8.71-25.08-22.44-41.45-6.86-13.09,12.46-5.46,20.68,0,23.23,3.43-36.69,35.9-23.76,30.62-9.24Z"/>
  <path class="cls-6" d="M133.47,142.17c-15.21-10.18-33.17-2.15-41.67,4.14-.65.48-.49,1.47.28,1.73,17.39,5.82,33.94.1,41.35-4.21.63-.37.65-1.26.04-1.66Z"/>
  <path class="cls-8" d="M133.91,141.5c-3.63-2.42-7.4-3.84-11.17-4.5-4.35-.78-8.7-.55-12.78.28-4.94,1.01-9.52,2.91-13.3,5-2.03,1.1-3.82,2.27-5.33,3.39-1.18.87-.86,2.66.5,3.12.85.28,1.7.54,2.54.77,10.48,2.87,20.5,1.8,28.29-.43h.01c4.64-1.32,8.48-3.06,11.16-4.62,1.15-.67,1.17-2.28.08-3.01ZM133.03,143.14c-2.3,1.34-5.51,2.82-9.35,4.03-1.04.33-2.12.64-3.25.92h-.01c-3.64.91-7.73,1.54-12.07,1.61h-.01c-4.34.08-8.93-.4-13.62-1.7-.8-.21-1.59-.45-2.39-.72-.09-.03-.13-.09-.14-.16-.01-.03,0-.06.01-.09.01-.03.03-.06.07-.09,1.02-.75,2.17-1.53,3.45-2.3,2.68-1.62,5.86-3.2,9.37-4.39h.01c1.66-.58,3.4-1.06,5.18-1.42,2.99-.61,6.1-.88,9.25-.65h.01c1.42.11,2.85.31,4.28.65h.01c3.12.7,6.21,1.98,9.2,3.99.14.09.12.25,0,.32Z"/>
  <path class="cls-6" d="M225.98,143.7c-13.26-12.62-32.32-7.75-41.77-2.99-.73.37-.73,1.37-.01,1.75,16.15,8.68,33.43,5.86,41.46,2.87.69-.26.86-1.13.33-1.63Z"/>
  <path class="cls-8" d="M226.53,143.12c-6.83-6.49-15.13-8.47-22.89-8.23-3.32.1-6.55.61-9.53,1.35-3.97.98-7.52,2.38-10.26,3.76-1.31.66-1.3,2.48-.03,3.16,3.98,2.14,8.02,3.59,11.97,4.51,12.38,2.91,23.95.7,30.14-1.6,1.25-.46,1.54-2.05.6-2.95ZM225.38,144.59c-3.79,1.41-9.68,2.78-16.53,2.88-.01-.01-.01,0-.01,0-4.21.07-8.8-.35-13.49-1.54-.15-.03-.31-.07-.46-.12h-.01c-3.42-.89-6.89-2.21-10.31-4.05-.09-.04-.12-.11-.12-.18,0-.03.01-.07.03-.09.01-.02.04-.05.08-.08,2.51-1.27,5.72-2.54,9.32-3.48.52-.14,1.06-.27,1.61-.39,2.59-.58,5.36-.98,8.2-1.06,1.93-.06,3.89.02,5.84.29h.02c5.58.75,11.11,2.96,15.88,7.5.12.11.07.27-.05.32Z"/>
  <path class="cls-2" d="M123.73,142.79c.32,3.56-4.06,6.87-9.8,7.39-5.73.52-10.64-1.94-10.97-5.5-.32-3.56,4.06-6.87,9.8-7.39,5.73-.52,10.64,1.94,10.97,5.5Z"/>
  <path class="cls-2" d="M213.77,142.13c-.08,3.57-4.81,6.37-10.56,6.24-5.76-.13-10.36-3.12-10.28-6.7.08-3.57,4.81-6.37,10.56-6.24,5.76.13,10.36,3.12,10.28,6.7Z"/>
  <path class="cls-8" d="M107.73,126.59c-6.94,1.72-12.97,5.95-16.55,9.44-.31.31-.81.3-1.12-.01-.31-.31-.3-.82.01-1.12,3.72-3.63,9.99-8.04,17.28-9.85,7.33-1.81,15.68-.99,23.4,5.86.33.29.36.79.07,1.12-.29.33-.79.36-1.12.07-7.27-6.45-15.07-7.21-21.97-5.51Z"/>
  <path class="cls-8" d="M191.09,178.06c-1.35-3.83-3.58-7.14-4.52-8.47-.67-.96-1.5-2.89-2.27-5-.62-1.68-1.18-3.41-1.58-4.72-.1-.32-.18-.61-.26-.87-.12-.42-.56-.66-.98-.54h-.01c-.41.13-.65.56-.53.98.4,1.38,1.09,3.57,1.87,5.69.77,2.1,1.66,4.21,2.47,5.37.91,1.3,3.04,4.47,4.32,8.09,1.29,3.65,1.65,7.53-.61,10.51-1.23,1.62-2.15,2.37-2.79,2.64-.31.13-.52.14-.67.11-.15-.03-.31-.11-.47-.27-.37-.35-.69-1-.96-1.86-.26-.85-.43-1.79-.56-2.64-.15-.99-.6-1.9-1.57-2.26-.9-.33-1.97-.07-3.09.48-2.08,1.03-4.96,3.38-8.76,7.29-.37.38-.75.78-1.14,1.2-2.08,2.2-3.92,2.99-5.52,3.03-1.61.04-3.14-.67-4.6-1.8s-2.78-2.62-3.95-4.02c-.17-.21-.34-.41-.51-.61-.4-.48-.77-.93-1.13-1.33-.49-.57-.99-1.09-1.45-1.44-1.62-1.21-3.55-2.23-5.51-2.03-2.04.2-3.81,1.68-5.19,4.72-.6,1.31-1.4,2.06-2.17,2.38-.76.31-1.59.25-2.38-.23-1.62-.97-3.17-3.77-2.92-8.65.42-7.92,2.61-14.76,3.64-17.15.14-.34.03-.72-.25-.93-.05-.05-.11-.08-.17-.11-.4-.17-.87.01-1.04.41-1.09,2.54-3.33,9.57-3.76,17.7-.27,5.15,1.34,8.68,3.69,10.09,1.19.71,2.54.85,3.79.33.83-.33,1.57-.93,2.18-1.77.31-.41.59-.89.83-1.42.51-1.13,1.04-1.94,1.58-2.52.79-.85,1.59-1.2,2.33-1.28,1.34-.13,2.85.57,4.4,1.73.29.22.64.57,1.07,1.05h0c.05.06.1.11.14.16.34.39.7.82,1.09,1.28.17.21.34.42.52.64,1.18,1.4,2.59,3.01,4.2,4.25,1.61,1.25,3.49,2.19,5.61,2.13,2.14-.05,4.36-1.12,6.63-3.53.3-.31.59-.62.86-.91.03-.01.04-.03.05-.04,1.55-1.61,2.93-2.94,4.15-4,1.82-1.61,3.27-2.65,4.39-3.2,1.02-.5,1.58-.51,1.84-.41.2.07.44.29.55,1.01.1.62.23,1.33.4,2.03.06.28.14.56.22.83.29.93.7,1.9,1.37,2.54.34.33.76.59,1.28.69.51.1,1.04.02,1.58-.21,1.03-.44,2.15-1.46,3.43-3.14,2.76-3.63,2.19-8.19.84-12ZM225.56,130.95c-1.95-1.98-4-3.52-6.11-4.69h-.02c-8.15-4.54-17.01-3.63-23.02-2.03-1.5.4-2.82.84-3.9,1.25-.41.15-.62.61-.46,1.02.15.41.61.62,1.02.46,3.68-1.39,9.9-3.06,16.55-2.23.07.01.15.02.22.03.05.01.09.01.14.02.01,0,.02,0,.04.01.24.03.48.07.72.11,2.25.38,4.54,1.06,6.78,2.15,0,.01.03.01.04.02,2.38,1.16,4.7,2.78,6.87,4.99.31.31.81.31,1.12.01.31-.31.32-.81.01-1.12Z"/>
  <path class="cls-8" d="M129.81,151.37c.25.36.17.85-.19,1.1-5.26,3.72-12.6,5.05-19.48,5.28-6.9.23-13.47-.65-17.31-1.46-.43-.09-.7-.51-.61-.94.09-.43.51-.7.94-.61,3.73.78,10.18,1.64,16.93,1.42,6.78-.22,13.74-1.53,18.61-4.99.36-.25.85-.17,1.1.19Z"/>
  <path class="cls-8" d="M186.28,150.15c.2-.39.68-.54,1.07-.34,2.81,1.45,8.05,3.14,14.16,4.08,6.1.94,12.98,1.1,19.07-.45.42-.11.85.15.96.57s-.15.85-.57.96c-6.37,1.62-13.48,1.43-19.7.48-6.22-.96-11.64-2.69-14.64-4.24-.39-.2-.54-.68-.34-1.07Z"/>
  <path class="cls-2" d="M151.77,190.64c-3.03,4.12-6.08.88-7.51-1.78-.2-.36-.14-.81.16-1.1,2.97-2.94,5.95-.33,7.38,1.8.22.33.21.76-.02,1.07Z"/>
  <path class="cls-2" d="M182.92,188.48c-1.48,3.11-5.09,2.59-7.4,1.68-.64-.25-.76-1.06-.27-1.54,5.42-5.28,7.53-2.72,7.75-.59.02.15-.01.31-.08.45Z"/>
  <path class="cls-9" d="M247.32,139.96c-9.96-32.73-50.01-28.14-71.45-20.9-.89.3-1.69-.58-1.22-1.39,5.59-9.76,21.29-23.48,48.49-15.46,26.45,7.8,28.74,26.62,26.1,37.8-.24,1.02-1.62.96-1.92-.04Z"/>
  <path class="cls-9" d="M137.17,120.64c-22.05-19.17-52.69-3.47-70.39,10.02-.74.57-1.76-.01-1.56-.92,2.5-11.03,15.25-29.12,43.62-30.18,28.39-1.06,30.34,9.94,30.16,20.32-.01.92-1.14,1.36-1.83.76Z"/>
  <path class="cls-8" d="M148.47,232.05c-13.5-4.15-23.72-.49-27.04,1.75-.36.25-.85.15-1.1-.21-.25-.36-.15-.85.21-1.1,3.72-2.51,14.44-6.24,28.4-1.95,8.5,2.61,14.66,3.06,19.4,2.64,4.07-.36,7.1-1.36,9.74-2.22.43-.14.86-.28,1.28-.41,2.46-.78,6.06-.93,9.46-.82,3.44.11,6.79.48,8.85.79.43.07.73.47.66.9-.07.43-.47.73-.9.66-2-.3-5.29-.67-8.66-.78-3.39-.11-6.75.05-8.93.75-.4.13-.81.26-1.24.41-2.64.87-5.85,1.92-10.11,2.3-4.97.44-11.34-.04-20-2.7Z"/>
  <path class="cls-8" d="M125.14,231.29c.29-.33.79-.36,1.12-.07,5.62,4.97,15.78,10.97,27.9,12.71,12.09,1.74,26.15-.73,39.69-12.71.33-.29.83-.26,1.12.07.29.33.26.83-.07,1.12-13.91,12.31-28.45,14.89-40.96,13.09-12.47-1.8-22.91-7.95-28.72-13.09-.33-.29-.36-.79-.07-1.12Z"/>
  <path class="cls-8" d="M178.22,221.55c-2.6-.25-4.85.2-6.2.9-.32.16-.64.35-.98.54-1.17.66-2.49,1.39-4.05,1.77-2.08.51-4.59.41-8.01-.96-6.52-2.6-11.99-3.29-17.18-.06-4.43,2.76-11.8,6.63-14.92,8.21-.39.2-.87.04-1.06-.35-.2-.39-.04-.87.35-1.06,3.12-1.58,10.43-5.42,14.8-8.14,5.82-3.63,11.91-2.73,18.6-.06,3.18,1.27,5.35,1.3,7.05.89,1.34-.33,2.4-.92,3.54-1.55.37-.21.74-.41,1.13-.62,1.68-.88,4.25-1.35,7.08-1.08,2.85.28,6.02,1.31,8.9,3.52,1.41,1.08,2.5,2.07,3.41,2.95.3.28.57.55.83.8.55.54,1.03,1,1.51,1.42.69.6,1.32,1.03,2.04,1.32.72.29,1.58.46,2.74.46.44,0,.79.35.79.79s-.35.79-.79.79c-1.32,0-2.39-.19-3.33-.58-.94-.38-1.72-.94-2.48-1.6-.51-.45-1.05-.97-1.62-1.52-.25-.25-.51-.5-.78-.76-.89-.85-1.93-1.8-3.28-2.84-2.62-2.01-5.51-2.95-8.09-3.2Z"/>
  <path class="cls-8" d="M178.49,251.09c.14.41-.07.87-.49,1.01-9.28,3.24-21.22,2.06-26.03,1.08-.43-.09-.71-.51-.62-.93.09-.43.51-.7.93-.62,4.7.96,16.3,2.07,25.19-1.03.41-.14.87.07,1.01.49Z"/>
  <path class="cls-8" d="M195.19,185.27c.34-.28.84-.23,1.11.11,1.94,2.38,4.95,6.15,7.7,9.72,2.72,3.54,5.23,6.97,6.12,8.62.21.39.06.86-.33,1.07-.39.21-.87.06-1.07-.33-.81-1.51-3.22-4.82-5.98-8.4-2.73-3.56-5.74-7.31-7.67-9.68-.28-.34-.23-.84.11-1.11Z"/>
  <path class="cls-8" d="M129.93,185.27c-.34-.28-.84-.23-1.11.11-1.94,2.38-4.95,6.15-7.7,9.72-2.72,3.54-5.23,6.97-6.12,8.62-.21.39-.06.86.33,1.07.39.21.86.06,1.07-.33.81-1.51,3.22-4.82,5.98-8.4,2.73-3.56,5.74-7.31,7.67-9.68.28-.34.22-.84-.11-1.11Z"/>
  <path class="cls-7" d="M148.7,134.41c0,3.34-2.89,9.82-4.64,13.26.82-3.98-.11-11.91-.82-16.17-.05-.33.05-.67.29-.9,8.28-8.19,21.81-5.91,28.49-3.43.54.2.79.81.63,1.37-1.69,5.76.7,14.46,2.19,18.28-1.76-4.4-6.12-14.04-9.5-17.42-4.22-4.22-16.63.53-16.63,5.01Z"/>
  <path class="cls-8" d="M171.87,128.53c-14.01-6.39-24.13-.85-27.9,2.76-.32.3-.82.29-1.12-.02-.3-.32-.29-.82.03-1.12,4.15-3.96,14.94-9.76,29.65-3.05.4.18.57.65.39,1.05-.18.4-.65.57-1.05.39Z"/>
  <path class="cls-9" d="M74.52,230.5c2.49,6.15,5.91,11.5,8.2,14.61.56.76,1.65.41,1.62-.53-.22-7.49-3.1-21.34-8.23-36.52-6.07-17.95-6.53-36.11-2.38-53.33,4.13-17.1-2.15-28.24,10.56-43.82,14.42-17.69,26.4-16.1,77.08-17.95,39.16-1.43,37.81-35.14,31.81-53.53-.26-.81.49-1.6,1.31-1.36,54.63,16,58.72,90.09,56.11,97.66-2.64,7.66-4.22,18.21-1.85,24.02,2.38,5.81,6.33,21.91-2.38,36.43-6.33,10.56-4.06,20.03-3.13,23.64.13.52.63.87,1.15.78,7.22-1.22,17.75-7.75,20.99-18.88,4.22-14.52,7.39-15.31,25.87-34.32,18.48-19.01-2.11-60.98-2.9-79.19-.29-6.61-1.71-11.15-3.46-14.19-.62-1.08.87-4.57,2.1-4.75,4.5-.68,8.95-2.49,11.39-3.76-20.98,8.76-57.72-21.23-75.22-39-.67-.68-.14-1.82.82-1.76l7.27.42c1.3.07,1.41-.5.17-.89-14.93-4.62-31.46-17.1-45.49-22.39-14.42-5.44-26.76,2.13-31.28,6.72-.09.09-.19.17-.32.21-1.46.45-6.81.2-18.3-4.03-10.09-3.72-17.54-.15-21.25,3.17-.7.63-.13,1.69.8,1.81,2.76.38,3.87,2.15,4.08,3.2C68.19,28.02,29.38,113.29,27.8,152.36c-1.58,39.07,42.77,68.37,46.73,78.14Z"/>
  <path class="cls-4" d="M143.69,140.22c.2,19.54-15.09,39.07-36.96,39.07s-37.49-19.27-37.49-38.81,23.01-27.72,44.88-27.72c21.72.53,29.43,13.69,29.57,27.45Z"/>
  <path class="cls-12" d="M143.56,131.49c-.06-.23-.12-.44-.2-.66h0c-.08-.3-.17-.59-.27-.88-1.11-3.3-2.82-6.38-5.24-9.04h0s-.05-.07-.08-.1c-4.89-5.33-12.55-8.84-23.62-9.11h-.03c-.91,0-1.82.01-2.73.05-10.17.31-20.43,2.39-28.4,6.61-1.78.94-3.45,2-4.98,3.17h-.01c-.37.28-.72.56-1.07.85-1.34,1.11-2.56,2.32-3.63,3.63h-.01c-3.2,3.93-5.1,8.72-5.1,14.47s1.28,11.32,3.64,16.51h0c.3.68.62,1.35.97,2,6.3,12.17,18.6,21.35,33.93,21.35,19.77,0,34.23-15.46,37.37-32.75.45-2.44.66-4.92.64-7.39-.03-2.95-.4-5.9-1.18-8.71ZM106.73,179.28c-.48,0-.95-.01-1.42-.03-.31-.01-.61-.02-.91-.05-.24,0-.47-.03-.7-.05-.04,0-.07,0-.1-.01-.19,0-.37-.03-.55-.05-.19-.02-.38-.04-.56-.06-.42-.04-.84-.1-1.25-.16-.06-.01-.13-.02-.19-.03-.3-.05-.6-.1-.89-.16-.12-.02-.25-.04-.37-.07-.18-.03-.37-.07-.55-.12-.13-.02-.27-.05-.4-.08-.21-.04-.42-.09-.63-.15h-.01c-.36-.08-.72-.18-1.08-.28-1.3-.36-2.56-.79-3.79-1.29-.2-.08-.41-.16-.61-.25-.21-.09-.41-.18-.61-.27-.4-.18-.8-.36-1.2-.56-.32-.16-.65-.32-.97-.5-.16-.08-.32-.17-.47-.26-.16-.08-.32-.18-.48-.27-.22-.11-.44-.24-.65-.37-.52-.31-1.03-.63-1.53-.97-.01-.01-.03-.01-.04-.02-.49-.33-.96-.66-1.43-1.01-.35-.25-.69-.52-1.03-.79-.74-.58-1.45-1.19-2.13-1.82l-.02-.02c-.23-.21-.46-.42-.68-.64-.36-.35-.72-.71-1.07-1.07-.28-.29-.55-.59-.82-.89-.18-.19-.35-.39-.52-.58-.17-.19-.33-.39-.5-.59-.01-.01-.02-.02-.02-.03-.22-.26-.43-.52-.63-.78-.27-.34-.53-.68-.79-1.03-.27-.36-.53-.72-.78-1.09-.24-.34-.47-.69-.69-1.04-.17-.27-.35-.55-.52-.83-.17-.27-.33-.55-.49-.83-.15-.25-.3-.51-.44-.77-.17-.3-.33-.61-.49-.92-.2-.39-.39-.77-.58-1.16-.41-.84-.78-1.7-1.13-2.56-.11-.28-.22-.57-.33-.86-.1-.28-.2-.56-.29-.85-.11-.29-.2-.58-.29-.87-.1-.29-.19-.58-.27-.87t-.01-.02c-.17-.58-.33-1.16-.47-1.75-.16-.65-.31-1.3-.43-1.96v-.02c-.1-.49-.18-.99-.26-1.48-.05-.37-.11-.75-.15-1.12-.03-.22-.05-.45-.07-.67-.04-.36-.07-.72-.1-1.08-.04-.59-.07-1.19-.09-1.79-.01-.31-.01-.63-.01-.95s.01-.64.02-.96c.01-.22.02-.45.04-.67.06-.98.19-1.93.37-2.84.04-.23.09-.46.15-.68,0-.02.01-.03.01-.05.13-.56.29-1.11.46-1.64.07-.23.14-.46.23-.68.19-.54.4-1.06.64-1.56.09-.21.19-.42.3-.62.02-.06.05-.11.08-.16.01-.03.02-.05.04-.08,0-.01,0-.02,0-.03.06-.14.14-.28.22-.41.01-.02.02-.03.03-.05,0-.01.01-.03.02-.04.19-.36.41-.72.63-1.07.11-.18.22-.35.34-.52.11-.17.23-.34.35-.51.14-.2.28-.4.43-.59.43-.57.89-1.12,1.37-1.65.03-.03.07-.07.1-.1.21-.23.42-.44.64-.66.23-.23.46-.46.7-.68.04-.04.08-.07.12-.11h.01c.19-.19.39-.37.59-.54t.02,0l.02-.02c.06-.07.13-.12.19-.17h.01c.29-.25.58-.49.88-.73.33-.26.67-.51,1.01-.76,0,0,0,0,.02,0,.27-.2.55-.39.83-.58.32-.22.65-.43.99-.64.02-.01.04-.02.06-.04.31-.19.63-.38.95-.57.35-.2.7-.4,1.05-.59.27-.14.54-.28.81-.42.18-.1.36-.19.55-.27.27-.14.54-.27.82-.4.37-.17.75-.34,1.13-.51.09-.04.19-.08.28-.12.09-.04.19-.08.29-.12.19-.08.38-.16.57-.24.01,0,.01-.01.02,0,.39-.16.78-.31,1.17-.46.4-.15.8-.29,1.2-.43.36-.13.72-.25,1.09-.36.21-.07.42-.14.63-.2.18-.07.36-.12.54-.17.09-.03.17-.05.26-.08.49-.15.99-.28,1.49-.42.33-.09.67-.18,1-.26,0,0,.03-.01.04-.01h.01s.1-.03.15-.04c.06-.02.13-.03.19-.05.07-.02.13-.03.2-.05.39-.09.77-.18,1.16-.26.02,0,.03-.01.05-.01.06,0,.12-.03.18-.04.19-.05.38-.09.57-.12.64-.14,1.29-.27,1.94-.38.27-.05.54-.1.81-.15.1-.02.2-.03.3-.05.46-.08.92-.15,1.39-.22h.01c.52-.08,1.04-.15,1.57-.21.23-.03.46-.06.69-.08.15-.02.31-.04.47-.05.5-.06,1.01-.12,1.52-.16.07-.01.13-.01.2-.02h.04c.23-.03.46-.04.68-.06.26-.02.51-.04.77-.06.21-.02.43-.03.64-.04.09,0,.17-.01.26-.01.04,0,.07-.01.11-.01.2-.02.41-.03.61-.04.45-.03.9-.05,1.35-.06.31-.01.62-.02.94-.03.75-.02,1.5-.03,2.25-.03,21.72.53,29.43,13.69,29.57,27.45.19,19.54-15.09,39.07-36.96,39.07Z"/>
  <path class="cls-4" d="M172.73,132.56c-.2,19.54,16.94,39.33,38.81,39.33s36.69-18.48,36.69-38.01-23.01-27.72-44.88-27.72c-21.72.54-30.48,12.64-30.62,26.4Z"/>
  <path class="cls-12" d="M234.48,111.76c-8.68-4.6-20.09-6.66-31.13-6.66h-.02c-11.06.27-18.96,3.5-24.12,8.54-1.66,1.63-3.03,3.43-4.12,5.37-1.39,2.46-2.33,5.14-2.87,7.94-.02.09-.04.19-.05.28h-.01c-.07.44-.14.88-.2,1.32-.18,1.31-.27,2.65-.29,4-.03,3.31.42,6.65,1.3,9.88v.02s.01.02.01.03c1.58,5.78,4.52,11.28,8.49,15.98.4.48.82.95,1.25,1.41,7.19,7.82,17.36,13.08,28.81,13.08,19.97,0,34.19-14.96,37.16-32.29.39-2.23.59-4.5.59-6.78,0-10.28-6.08-17.51-14.8-22.12ZM247.37,142.01c-.02.06-.03.12-.04.19-.09.41-.19.82-.29,1.23-.03.11-.06.23-.09.34-.12.47-.25.93-.39,1.39-.07.25-.15.51-.24.76-.08.26-.17.51-.25.76-.16.46-.33.92-.5,1.38-.02.04-.04.08-.05.12-.19.5-.39.99-.61,1.47-.01.03-.02.05-.03.07-.21.47-.42.93-.64,1.38-.23.48-.47.95-.73,1.42-.12.23-.25.46-.38.69-.13.24-.26.46-.4.69-.27.46-.55.91-.83,1.35-.29.45-.59.88-.89,1.32-.31.43-.63.85-.95,1.27-.15.21-.31.41-.48.61-.16.2-.33.4-.49.6-.16.2-.33.39-.5.58-.16.2-.34.39-.51.58-.03.02-.05.04-.06.06-.3.33-.6.65-.92.96-.02.03-.05.06-.08.09-.02.02-.04.04-.06.06-.04.04-.08.08-.12.12-.35.35-.71.69-1.07,1.02-.2.18-.39.36-.59.53-.21.19-.42.38-.64.55-.19.16-.39.32-.58.48-.29.23-.58.46-.88.68-.11.09-.22.17-.33.25-.31.23-.63.46-.96.68-.37.26-.75.51-1.13.75-.38.24-.77.47-1.16.7-.19.11-.37.22-.56.32-.46.25-.91.5-1.38.73-.12.06-.25.12-.37.18-.39.19-.79.37-1.2.55-.32.14-.65.28-.98.41-.53.21-1.07.42-1.61.6-.26.09-.53.18-.79.26-.4.13-.8.25-1.2.36-.4.12-.81.22-1.22.32-.55.14-1.1.26-1.66.36-.03.01-.05.01-.08.02-.23.04-.46.08-.69.12-.23.04-.47.08-.7.11-.39.06-.79.12-1.19.16-.26.03-.51.06-.77.08-.19.02-.39.04-.58.05-.25.02-.5.04-.75.06-.07,0-.14.01-.21.01-.67.03-1.34.05-2.03.05-21.87,0-39-19.8-38.8-39.33,0-.43.02-.86.04-1.28.02-.43.05-.86.09-1.28.03-.37.07-.73.12-1.09.02-.16.04-.32.07-.49.04-.31.09-.61.15-.92.05-.3.11-.59.17-.89.01-.03.01-.06.02-.09,0-.01,0-.02,0-.03.04-.2.08-.38.13-.57.01-.04.02-.09.03-.13.01-.01.01-.02.01-.03.06-.27.13-.53.21-.79.09-.33.19-.66.3-.99.12-.38.25-.76.39-1.13.06-.14.11-.27.16-.41.06-.14.11-.27.17-.41.09-.2.17-.41.26-.61.09-.2.19-.4.29-.6.19-.39.4-.79.61-1.17.15-.26.29-.52.45-.77.28-.45.57-.9.87-1.34.21-.3.44-.6.67-.9.23-.28.46-.56.7-.84,0-.01.01-.02.02-.03.05-.06.11-.12.17-.19.14-.16.3-.34.45-.5t.02-.02c.2-.21.39-.41.6-.61.18-.18.36-.35.55-.52.03-.03.05-.05.08-.08.18-.17.37-.33.56-.5.27-.23.55-.46.84-.68.04-.03.08-.06.12-.09.03-.02.06-.05.09-.07.28-.22.56-.43.86-.63.3-.21.6-.41.91-.61.02-.01.04-.02.06-.04.13-.07.25-.15.38-.23.25-.16.51-.31.78-.46.02-.01.05-.03.07-.04.25-.14.5-.27.76-.4.01-.01.02-.02.03-.02.05-.03.11-.06.17-.08t.02-.01c.22-.12.44-.23.67-.33.05-.03.11-.05.16-.08.32-.16.65-.3.98-.44h.01c.46-.2.93-.39,1.41-.56.45-.17.92-.33,1.39-.48.04-.01.07-.02.1-.03.51-.16,1.03-.32,1.56-.45.38-.12.78-.21,1.18-.29.02,0,.03,0,.05,0,.09-.03.17-.04.26-.06.04,0,.07-.02.11-.03.03-.01.05-.02.08-.02.54-.12,1.09-.23,1.65-.32.51-.1,1.03-.18,1.56-.25.06,0,.12,0,.18-.02.06-.02.12-.02.18-.03.37-.06.76-.09,1.14-.13.03,0,.05-.01.08-.01.3-.04.61-.07.91-.09.36-.04.72-.06,1.08-.09h.1c.31-.02.61-.04.93-.05.46-.03.92-.05,1.39-.06,21.87,0,44.88,8.18,44.88,27.72,0,.49-.01.99-.03,1.48v.12c-.02.39-.04.76-.07,1.14-.01.24-.03.48-.06.72-.03.36-.07.73-.11,1.09-.02.15-.04.3-.06.46-.07.53-.15,1.06-.24,1.59-.09.51-.19,1.02-.29,1.53Z"/>
</svg>