<?xml version="1.0" encoding="UTF-8"?>
<svg id="Layer_1" data-name="Layer 1" xmlns="http://www.w3.org/2000/svg" viewBox="0 0 318.11 376.83">
  <defs>
    <style>
      .cls-1 {
        fill: #413e3e;
      }

      .cls-1, .cls-2, .cls-3, .cls-4, .cls-5, .cls-6, .cls-7, .cls-8, .cls-9, .cls-10, .cls-11 {
        stroke-width: 0px;
      }

      .cls-1, .cls-7, .cls-9 {
        fill-rule: evenodd;
      }

      .cls-2, .cls-7 {
        fill: #000;
      }

      .cls-3, .cls-9 {
        fill: #dca188;
      }

      .cls-4 {
        fill: rgba(217, 217, 217, .25);
      }

      .cls-5 {
        fill: #d9d9d9;
      }

      .cls-6 {
        fill: #ce7979;
      }

      .cls-8 {
        fill: #9e9d9d;
      }

      .cls-10 {
        fill: #787879;
      }

      .cls-11 {
        fill: #e9bca9;
      }
    </style>
  </defs>
  <path class="cls-8" d="M318.11,217.91c0,38.33-13.55,73.49-36.13,100.95-17.75,21.59-41.07,38.41-67.76,48.29-.02,0-.04.01-.05.01l-5.95,2.07s-.04.01-.05.02c-14.69,3.66-27.39,5.93-39.37,6.94h-.01c-.36.04-.72.07-1.08.09-.57.05-1.15.1-1.72.13-.58.04-1.15.07-1.72.11-.57.04-1.14.07-1.71.09-.51.03-1.03.05-1.54.07-.63.03-1.24.05-1.86.06-.56.02-1.13.04-1.69.05-.57.02-1.13.03-1.69.02-.49.01-.98.01-1.47.01-.71.01-1.43.01-2.14,0h-.05c-.06,0-.12-.01-.18-.02-.02.01-.05.01-.07,0-21.08-.93-41.09-5.97-59.25-14.34-2.54-1.16-5.03-2.39-7.49-3.68-18.25-9.59-34.4-22.63-47.59-38.24C14.12,292.84,0,257.03,0,217.91s13.01-72.05,34.77-99.26c16.74-20.95,38.68-37.57,63.87-47.92,18.63-7.66,39.03-11.88,60.42-11.88,12.78,0,25.2,1.51,37.11,4.35,15.83,3.79,30.75,9.94,44.34,18.07h.01c1.57.94,3.11,1.9,4.64,2.89h.01c22.39,14.44,40.89,34.33,53.69,57.81.01.02.01.03.01.04,12.27,22.56,19.24,48.42,19.24,75.9Z"/>
  <path class="cls-10" d="M281.98,318.86c-17.75,21.59-41.07,38.41-67.76,48.29v-.13s4.7-61.02,4.7-61.02l2.11-7.13c2.56-.97,9.46-1.85,16.64,2.38,6.4,3.77,28.95,12.65,44.31,17.61Z"/>
  <path class="cls-10" d="M92.62,362.46c-2.54-1.16-5.03-2.39-7.49-3.68-18.25-9.59-34.4-22.63-47.59-38.24,3.64-2.22,7.3-4.68,10.59-7.15,9.5-7.13,13.72-8.18,17.95-6.6,3.38,1.27,10.73,1.06,13.99.79l.08.23,3.61,10.6,8.86,44.05Z"/>
  <path class="cls-3" d="M177.21,97.45c-13.73,8.87-56.23,5.63-75.76,2.9-4.05-7.74-5.6-21.44,20.59-14.26,26.19,7.18,54.73-8.8,65.73-17.69,2.2,5.98,3.17,20.17-10.56,29.04Z"/>
  <path class="cls-3" d="M195.96,186.94c-2.29,5.63-2.74,16.89,13.73,16.89l-13.73-16.89Z"/>
  <path class="cls-11" d="M234.01,320.19l-19.78,46.82h0s-.06.15-.06.15l-5.95,2.07s-.04.01-.05.02c-14.69,3.66-27.39,5.93-39.37,6.94-.37.03-.73.06-1.09.09-.57.05-1.15.1-1.72.13-.58.04-1.15.07-1.72.11-.57.04-1.14.07-1.71.09-.51.03-1.03.05-1.54.07-.63.03-1.24.05-1.86.06-.56.02-1.13.04-1.69.05-.57.02-1.13.03-1.69.02-.49.01-.98.01-1.47.01-.79,0-1.58-.01-2.37-.02-.02.01-.05.01-.07,0-21.08-.93-41.09-5.97-59.25-14.34-2.54-1.16-5.03-2.39-7.49-3.68-11.42-15.41-17.17-25.47-20.82-37.78-.72-2.41.51-4.95,2.77-6.05,4.95-2.41,9.04-4.58,13.07-7.14,3.69-2.35,7.32-5.01,11.5-8.48,1.54-1.28,2.41-3.19,2.41-5.19v-26.42l2.14.08,40.25,1.42,84.58,2.99v27.35c0,1.22.61,2.36,1.6,3.08,4.79,3.53,7.62,6.99,11.26,14.04.56,1.09.6,2.38.12,3.51Z"/>
  <path class="cls-9" d="M174.42,310.76c-.04,1.11-.84,5.42-3.81,17.15-2.48,9.81-1.57,21.07-.82,30.36.68,8.43,1.24,15.25-.99,17.92h-.01c-.36.04-.72.07-1.08.09-.57.05-1.15.1-1.72.13-.58.04-1.15.07-1.72.11-.57.04-1.14.07-1.71.09-.51.03-1.03.05-1.54.07-.63.03-1.24.05-1.86.06-.56.02-1.13.04-1.69.05-.57.02-1.13.03-1.69.02-.49.01-.98.01-1.47.01-.71.01-1.43.01-2.14,0h-.05c-.06,0-.12-.01-.18-.02-.02.01-.05.01-.07,0-21.08-.93-41.09-5.97-59.25-14.34-2.54-1.16-5.03-2.39-7.49-3.68-11.42-15.41-17.17-25.47-20.82-37.78-.72-2.41.51-4.95,2.77-6.05,4.95-2.41,9.04-4.58,13.07-7.14,3.69-2.35,7.32-5.01,11.5-8.48,1.54-1.28,2.41-3.19,2.41-5.19v-39.4l42.39,14.48,42.35,16.72-4.49,24.55c.08-.1.12-.04.11.27Z"/>
  <path class="cls-11" d="M252.18,167.39c-.36,11.42.76,25.88-5.15,40.92-.31,1.4-.9,2.81-1.25,4.22-9.7,41.45-35.31,98.99-67.25,97.94-66.75,6.33-110.5-66.59-107.44-133.05,0-74.02,28.4-134.69,79.77-138.17,3.11-.21,6.27-.6,9.3-1.31,72.69-17.16,95.09,31.85,92.02,129.45Z"/>
  <path class="cls-6" d="M136.82,224.91c-1.9,2.11-8.54,5.1-11.62,6.34l4.22,3.96,16.37,7.39,14.52,2.9,12.41-1.85,15.05-6.34,6.6-6.07-1.85-1.58c-1.14-.88-4.07-3.06-6.6-5.81-3.17-3.43-12.67-5.81-17.42-1.58-4.75,4.22-11.09,1.06-16.1-1.32-5.01-2.38-13.2,1.32-15.57,3.96Z"/>
  <path class="cls-3" d="M152.4,252.67c4.58,6.25,16.05,14.68,25.34-1.58-3.08,1.76-12.46,4.54-25.34,1.58Z"/>
  <path class="cls-3" d="M116.23,203.84c-1.94-5.54-1.9-16.89,13.73-17.95l-13.73,17.95Z"/>
  <path class="cls-3" d="M145.8,175.59c-7.6-7.6-6.86-13.73-5.54-15.84-6.07,8.45-7.39,23.23-6.86,28.77.53,5.54,5.02,7.13,8.71,1.32,3.7-5.81,5.28-5.81,13.99,3.7,6.97,7.6,12.23,2.82,13.99-.53,1.58-17.69-14.78-7.92-24.29-17.42Z"/>
  <path class="cls-3" d="M208.36,155.53c33.16-5.91,19.62-21.65,8.71-28.77,5.28-2.11,22.44,1.58,21.12,18.48-1.06,13.52-20.33,12.49-29.83,10.29Z"/>
  <path class="cls-3" d="M193.85,138.37c.85-12.04,11.62-13.99,16.9-13.46-11.35-1.85-33.58-1.74-31.68,13.46,1.9,15.21,19.97,17.77,28.77,17.16-5.02-.7-14.84-5.12-13.99-17.16Z"/>
  <path class="cls-3" d="M208.1,228.65c-2.19-2.02-7.82-.93-12.24.48-.98.31-.94,1.81-.05,2.31,6.33,3.52,9.47,11.76,13.61,11.99,4.75.26,2.11-11.62-1.32-14.78Z"/>
  <path class="cls-3" d="M116.5,229.18c2.24-1.03,5.8-.03,8.13.95.68.28.8,1.17.27,1.68-2.85,2.76-6.64,6.66-9.2,5.03-2.9-1.85-2.64-6.07.79-7.66Z"/>
  <path class="cls-3" d="M152.4,203.04c-1.15-5.94-6.73-9.14-10.12-10.27-.54-.18-.88-.72-.72-1.26.79-2.71,2.88-6.48,6.62-5.36,5.15,1.54,9.54,18.89,23.45,7.29.55-.46,1.4-.29,1.68.37,3.67,8.93,3.7,19.04-5.86,25.07-10.03,6.34-13.46-7.65-15.05-15.84Z"/>
  <path class="cls-3" d="M124.15,146.02c-4.22,11.62-18.13,14.17-24.55,13.99,35.11,4.75,36.96-12.41,35.37-21.12-1.58-8.71-25.08-22.44-41.45-6.86-13.09,12.46-5.46,20.68,0,23.23,3.43-36.69,35.9-23.76,30.62-9.24Z"/>
  <path class="cls-5" d="M133.47,142.17c-15.21-10.18-33.17-2.15-41.67,4.14-.65.48-.49,1.47.28,1.73,17.39,5.82,33.94.1,41.35-4.21.63-.37.65-1.26.04-1.66Z"/>
  <path class="cls-7" d="M133.91,141.51c-3.63-2.43-7.41-3.85-11.18-4.52h-.01c-4.36-.77-8.68-.54-12.76.3-4.94,1.01-9.52,2.91-13.3,4.99-2.03,1.11-3.82,2.28-5.33,3.39-1.18.88-.86,2.67.5,3.12.85.28,1.7.54,2.54.77,10.49,2.88,20.51,1.81,28.3-.42,4.64-1.33,8.48-3.06,11.16-4.62,1.15-.67,1.17-2.28.08-3.01ZM133.03,143.15c-2.3,1.34-5.5,2.82-9.35,4.03-1.04.33-2.13.64-3.27.93h-.02c-3.62.9-7.69,1.53-12.01,1.6h-.01c-4.34.08-8.95-.4-13.65-1.7-.8-.21-1.59-.45-2.39-.72-.09-.03-.13-.09-.14-.16-.01-.03,0-.07,0-.09.01-.03.03-.06.07-.09,1.02-.75,2.17-1.54,3.45-2.31,2.67-1.61,5.86-3.18,9.36-4.38,1.67-.57,3.41-1.06,5.2-1.42,2.99-.61,6.1-.88,9.26-.65h.01c1.42.11,2.85.32,4.27.65h0c3.12.7,6.21,1.98,9.2,3.99.14.09.12.25,0,.32Z"/>
  <path class="cls-5" d="M225.98,143.7c-13.26-12.62-32.32-7.75-41.77-2.99-.73.37-.73,1.37-.01,1.75,16.15,8.68,33.43,5.86,41.46,2.87.69-.26.86-1.13.33-1.63Z"/>
  <path class="cls-7" d="M226.53,143.13c-6.83-6.49-15.13-8.47-22.89-8.23-3.32.1-6.54.61-9.52,1.35-3.98.98-7.52,2.38-10.27,3.76-1.31.66-1.3,2.47-.03,3.15,3.97,2.14,8.01,3.59,11.97,4.51,12.39,2.92,23.96.71,30.14-1.59,1.25-.47,1.54-2.05.6-2.95ZM225.38,144.59c-3.79,1.41-9.68,2.79-16.53,2.89-.01,0-.01,0-.01,0-4.21.06-8.79-.35-13.47-1.54h-.01c-.16-.03-.31-.07-.47-.12-3.42-.89-6.9-2.21-10.32-4.05-.09-.05-.12-.12-.12-.18,0-.04.01-.07.03-.09.01-.03.04-.06.08-.08,2.52-1.27,5.73-2.54,9.33-3.48.53-.14,1.06-.27,1.6-.39,2.6-.59,5.37-.98,8.2-1.07,1.92-.06,3.86.02,5.8.28h.01c5.59.75,11.15,2.97,15.93,7.52.12.11.08.27-.05.31Z"/>
  <path class="cls-2" d="M123.73,142.79c.32,3.56-4.06,6.87-9.8,7.39-5.73.52-10.64-1.94-10.97-5.5-.32-3.56,4.06-6.87,9.8-7.39,5.73-.52,10.64,1.94,10.97,5.5Z"/>
  <path class="cls-2" d="M213.77,142.13c-.08,3.57-4.81,6.37-10.56,6.24-5.76-.13-10.36-3.12-10.28-6.7.08-3.57,4.81-6.37,10.56-6.24,5.76.13,10.36,3.12,10.28,6.7Z"/>
  <path class="cls-7" d="M107.73,126.59c-6.94,1.72-12.97,5.95-16.55,9.44-.31.31-.81.3-1.12-.01-.31-.31-.3-.82.01-1.12,3.72-3.63,9.99-8.04,17.28-9.85,7.33-1.81,15.68-.99,23.4,5.86.33.29.36.79.07,1.12-.29.33-.79.36-1.12.07-7.27-6.45-15.07-7.21-21.97-5.51Z"/>
  <path class="cls-7" d="M225.56,130.95c-1.95-1.98-4-3.52-6.11-4.68h-.02c-8.15-4.54-17.01-3.63-23.02-2.03-1.5.4-2.82.84-3.9,1.25-.41.15-.62.61-.46,1.02.15.41.61.61,1.02.46,3.65-1.38,9.79-3.03,16.37-2.25.08,0,.16,0,.24.03.04.01.08.01.12.02.04,0,.07.01.11.01.27.04.56.08.83.13,2.25.37,4.53,1.05,6.76,2.13,0,0,0,.01.02.01,2.39,1.16,4.73,2.79,6.91,5.01.31.31.81.32,1.12.01.31-.3.32-.8.01-1.12ZM191.09,178.07c-1.35-3.84-3.58-7.14-4.52-8.48-.67-.95-1.49-2.88-2.27-4.99-.61-1.68-1.17-3.4-1.57-4.71-.1-.32-.19-.62-.27-.89-.12-.42-.56-.66-.98-.53-.42.12-.66.56-.54.98.4,1.37,1.09,3.57,1.87,5.69.77,2.09,1.66,4.21,2.47,5.36.91,1.31,3.04,4.47,4.32,8.1,1.29,3.65,1.65,7.53-.61,10.5-1.23,1.63-2.15,2.38-2.79,2.65-.31.13-.52.14-.67.11-.15-.03-.3-.11-.47-.27-.37-.35-.69-1-.96-1.87-.25-.84-.43-1.79-.56-2.63-.15-.99-.6-1.9-1.57-2.26-.9-.33-1.97-.07-3.09.48-2.09,1.02-4.97,3.38-8.76,7.29-.37.38-.75.78-1.14,1.19-2.08,2.21-3.92,2.99-5.52,3.04-1.61.04-3.14-.67-4.6-1.8s-2.78-2.62-3.95-4.02c-.17-.21-.34-.41-.51-.61-.39-.48-.77-.93-1.13-1.34-.49-.56-.98-1.08-1.45-1.43-1.62-1.21-3.54-2.23-5.5-2.03-2.05.2-3.82,1.68-5.2,4.71-.6,1.32-1.4,2.07-2.17,2.39-.76.31-1.59.24-2.38-.23-1.61-.97-3.17-3.77-2.91-8.65.41-7.92,2.61-14.77,3.63-17.15.14-.34.03-.72-.24-.93-.05-.04-.11-.08-.18-.11-.4-.18-.86.01-1.04.41-1.09,2.54-3.33,9.57-3.76,17.69-.27,5.15,1.34,8.69,3.69,10.1,1.19.71,2.54.84,3.79.33.83-.34,1.57-.95,2.18-1.78.32-.41.59-.89.83-1.41.51-1.13,1.05-1.94,1.59-2.52.78-.85,1.58-1.2,2.32-1.28,1.34-.13,2.85.57,4.4,1.73.29.22.64.57,1.07,1.05h0c.05.06.1.11.14.16.34.38.7.81,1.09,1.28.17.2.34.42.52.63,1.18,1.41,2.59,3.02,4.2,4.26,1.61,1.25,3.49,2.19,5.61,2.13,2.15-.06,4.36-1.12,6.63-3.53.3-.31.59-.62.86-.91.02-.01.03-.02.04-.03h.01c1.56-1.63,2.93-2.95,4.15-4.02,1.82-1.61,3.27-2.64,4.39-3.19,1.02-.5,1.58-.51,1.84-.41.2.07.44.28.56,1.01.09.62.22,1.33.39,2.03.06.28.14.56.22.83.29.93.71,1.9,1.37,2.54.34.33.76.59,1.28.69.51.09,1.04.01,1.58-.21,1.03-.44,2.16-1.47,3.43-3.15,2.76-3.62,2.19-8.19.84-11.99Z"/>
  <path class="cls-7" d="M129.82,151.37c.25.36.17.85-.19,1.1-5.26,3.72-12.6,5.05-19.48,5.28-6.9.23-13.47-.65-17.31-1.46-.43-.09-.7-.51-.61-.94.09-.43.51-.7.94-.61,3.73.78,10.18,1.64,16.93,1.42,6.78-.22,13.74-1.53,18.61-4.99.36-.25.85-.17,1.1.19Z"/>
  <path class="cls-7" d="M186.28,150.15c.2-.39.68-.54,1.07-.34,2.81,1.45,8.05,3.14,14.16,4.08,6.1.94,12.98,1.1,19.07-.45.42-.11.85.15.96.57s-.15.85-.57.96c-6.37,1.62-13.48,1.43-19.7.48-6.22-.96-11.64-2.69-14.64-4.24-.39-.2-.54-.68-.34-1.07Z"/>
  <path class="cls-2" d="M151.77,190.64c-3.03,4.12-6.08.88-7.51-1.78-.2-.36-.14-.81.16-1.1,2.97-2.94,5.95-.33,7.38,1.8.22.33.21.76-.02,1.07Z"/>
  <path class="cls-2" d="M182.92,188.48c-1.48,3.11-5.09,2.59-7.4,1.68-.64-.25-.76-1.06-.27-1.54,5.42-5.28,7.53-2.72,7.75-.59.02.15-.01.31-.08.45Z"/>
  <path class="cls-10" d="M247.33,139.96c-9.96-32.73-50.01-28.14-71.45-20.9-.89.3-1.69-.58-1.22-1.39,5.59-9.76,21.29-23.48,48.49-15.46,26.45,7.8,28.74,26.62,26.1,37.8-.24,1.02-1.62.96-1.92-.04Z"/>
  <path class="cls-10" d="M137.18,120.64c-22.05-19.17-52.69-3.47-70.39,10.02-.74.57-1.76-.01-1.56-.92,2.5-11.03,15.25-29.12,43.62-30.18,28.39-1.06,30.34,9.94,30.16,20.32-.01.92-1.14,1.36-1.83.76Z"/>
  <path class="cls-7" d="M148.47,232.05c-13.5-4.15-23.72-.49-27.04,1.75-.36.25-.85.15-1.1-.21-.25-.36-.15-.85.21-1.1,3.72-2.51,14.44-6.24,28.4-1.95,8.5,2.61,14.66,3.06,19.4,2.64,4.07-.36,7.1-1.36,9.74-2.22.43-.14.86-.28,1.28-.41,2.46-.78,6.06-.93,9.46-.82,3.44.11,6.79.48,8.85.79.43.07.73.47.66.9-.07.43-.47.73-.9.66-2-.3-5.29-.67-8.66-.78-3.39-.11-6.75.05-8.93.75-.4.13-.81.26-1.24.41-2.64.87-5.85,1.92-10.11,2.3-4.97.44-11.34-.04-20-2.7Z"/>
  <path class="cls-7" d="M125.14,231.29c.29-.33.79-.36,1.12-.07,5.62,4.97,15.78,10.97,27.9,12.71,12.09,1.74,26.15-.73,39.69-12.71.33-.29.83-.26,1.12.07.29.33.26.83-.07,1.12-13.91,12.31-28.45,14.89-40.96,13.09-12.47-1.8-22.91-7.95-28.72-13.09-.33-.29-.36-.79-.07-1.12Z"/>
  <path class="cls-7" d="M178.22,221.55c-2.6-.25-4.85.2-6.2.9-.32.16-.64.35-.98.54-1.17.66-2.49,1.39-4.05,1.77-2.08.51-4.59.41-8.01-.96-6.52-2.6-11.99-3.29-17.18-.06-4.43,2.76-11.8,6.63-14.92,8.21-.39.2-.87.04-1.06-.35-.2-.39-.04-.87.35-1.06,3.12-1.58,10.43-5.42,14.8-8.14,5.82-3.63,11.91-2.73,18.6-.06,3.18,1.27,5.35,1.3,7.05.89,1.34-.33,2.4-.92,3.54-1.55.37-.21.74-.41,1.13-.62,1.68-.88,4.25-1.35,7.08-1.08,2.85.28,6.02,1.31,8.9,3.52,1.41,1.08,2.5,2.07,3.41,2.95.3.28.57.55.83.8.55.54,1.03,1,1.51,1.42.69.6,1.32,1.03,2.04,1.32.72.29,1.58.46,2.74.46.44,0,.79.35.79.79s-.35.79-.79.79c-1.32,0-2.39-.19-3.33-.58-.94-.38-1.72-.94-2.48-1.6-.51-.45-1.05-.97-1.62-1.52-.25-.25-.51-.5-.78-.76-.89-.85-1.93-1.8-3.28-2.84-2.62-2.01-5.51-2.95-8.09-3.2Z"/>
  <path class="cls-7" d="M178.49,251.09c.14.41-.07.87-.49,1.01-9.28,3.24-21.22,2.06-26.03,1.08-.43-.09-.71-.51-.62-.93.09-.43.51-.7.93-.62,4.7.96,16.3,2.07,25.19-1.03.41-.14.87.07,1.01.49Z"/>
  <path class="cls-7" d="M195.19,185.27c.34-.28.84-.23,1.11.11,1.94,2.38,4.95,6.15,7.7,9.72,2.72,3.54,5.23,6.97,6.12,8.62.21.39.06.86-.33,1.07-.39.21-.87.06-1.07-.33-.81-1.51-3.22-4.82-5.98-8.4-2.73-3.56-5.74-7.31-7.67-9.68-.28-.34-.23-.84.11-1.11Z"/>
  <path class="cls-7" d="M129.93,185.27c-.34-.28-.84-.23-1.11.11-1.94,2.38-4.95,6.15-7.7,9.72-2.72,3.54-5.23,6.97-6.12,8.62-.21.39-.06.86.33,1.07.39.21.86.06,1.07-.33.81-1.51,3.22-4.82,5.98-8.4,2.73-3.56,5.74-7.31,7.67-9.68.28-.34.22-.84-.11-1.11Z"/>
  <path class="cls-3" d="M148.7,134.41c0,3.34-2.89,9.82-4.64,13.26.82-3.98-.11-11.91-.82-16.17-.05-.33.05-.67.29-.9,8.28-8.19,21.81-5.91,28.49-3.43.54.2.79.81.63,1.37-1.69,5.76.7,14.46,2.19,18.28-1.76-4.4-6.12-14.04-9.5-17.42-4.22-4.22-16.63.53-16.63,5.01Z"/>
  <path class="cls-7" d="M171.87,128.53c-14.01-6.39-24.13-.85-27.9,2.76-.32.3-.82.29-1.12-.02-.3-.32-.29-.82.03-1.12,4.15-3.96,14.94-9.76,29.65-3.05.4.18.57.65.39,1.05-.18.4-.65.57-1.05.39Z"/>
  <path class="cls-10" d="M74.52,230.5c2.49,6.15,5.91,11.5,8.2,14.61.56.76,1.65.41,1.62-.53-.22-7.49-3.1-21.34-8.23-36.52-6.07-17.95-6.53-36.11-2.38-53.33,4.13-17.1-2.15-28.24,10.56-43.82,14.42-17.69,26.4-16.1,77.08-17.95,39.16-1.43,37.81-35.14,31.81-53.53-.26-.81.49-1.6,1.31-1.36,54.63,16,58.72,90.09,56.11,97.66-2.64,7.66-4.22,18.21-1.85,24.02,2.38,5.81,6.33,21.91-2.38,36.43-6.33,10.56-4.06,20.03-3.13,23.64.13.52.63.87,1.15.78,7.22-1.22,17.75-7.75,20.99-18.88,4.22-14.52,7.39-15.31,25.87-34.32,18.48-19.01-2.11-60.98-2.9-79.19-.29-6.61-1.71-11.15-3.46-14.19-.62-1.08.87-4.57,2.1-4.75,4.5-.68,8.95-2.49,11.39-3.76-20.98,8.76-57.72-21.23-75.22-39-.67-.68-.14-1.82.82-1.76l7.27.42c1.3.07,1.41-.5.17-.89-14.93-4.62-31.46-17.1-45.49-22.39-14.42-5.44-26.76,2.13-31.28,6.72-.09.09-.19.17-.32.21-1.46.45-6.81.2-18.3-4.03-10.09-3.72-17.54-.15-21.25,3.17-.7.63-.13,1.69.8,1.81,2.76.38,3.87,2.15,4.08,3.2C68.19,28.02,29.38,113.29,27.8,152.36c-1.58,39.07,42.77,68.37,46.73,78.14Z"/>
  <path class="cls-4" d="M143.69,140.22c.2,19.54-15.09,39.07-36.96,39.07s-37.49-19.27-37.49-38.81,23.01-27.72,44.88-27.72c21.72.53,29.43,13.69,29.57,27.45Z"/>
  <path class="cls-1" d="M143.56,131.5c-.06-.23-.12-.45-.2-.67-.08-.3-.17-.59-.27-.88-1.11-3.3-2.82-6.39-5.25-9.05-.02-.03-.05-.05-.07-.08-4.89-5.34-12.55-8.84-23.62-9.11h-.03c-.36,0-.73,0-1.09.01h-.16c-.4,0-.8,0-1.21.02-.24.01-.48.02-.71.03-10.03.36-20.11,2.44-27.96,6.59-1.78.94-3.44,1.99-4.97,3.15-.37.28-.74.57-1.09.87-1.34,1.11-2.56,2.33-3.63,3.64h-.01c-3.2,3.92-5.1,8.71-5.1,14.46s1.28,11.33,3.64,16.53c.3.67.63,1.34.97,2,6.3,12.16,18.61,21.33,33.93,21.33,19.76,0,34.23-15.44,37.37-32.72v-.02c.45-2.44.67-4.92.64-7.39-.03-2.95-.4-5.9-1.18-8.71ZM143.69,140.6c0,.47-.01.95-.03,1.42,0,.22-.02.44-.03.66-.01.21-.03.43-.04.65-.04.52-.09,1.04-.15,1.56-.05.48-.12.95-.19,1.43-.06.43-.14.87-.22,1.3-.01.07-.03.14-.04.21-.08.39-.16.79-.25,1.18-.08.41-.18.82-.29,1.23,0,.02,0,.05-.02.07-.14.52-.28,1.04-.43,1.55-.13.42-.26.84-.4,1.25-.2.57-.41,1.14-.63,1.71h0c-.17.43-.34.85-.52,1.27-.18.42-.37.83-.56,1.25-.16.34-.32.67-.49,1-.1.21-.21.43-.32.64-.1.2-.21.4-.32.6-.11.2-.22.4-.34.6-.07.14-.15.27-.23.4-.23.4-.47.79-.71,1.18-.24.38-.5.76-.75,1.14-.34.51-.69,1-1.05,1.49-.37.48-.74.96-1.13,1.44-.29.36-.59.71-.91,1.06-.2.23-.4.45-.6.67-.2.22-.41.44-.62.66-.42.44-.85.86-1.29,1.27-.33.32-.67.63-1.02.94-.46.4-.93.79-1.41,1.17-.24.19-.48.38-.73.56-.22.17-.44.33-.66.49-.03.02-.05.04-.08.06-.43.3-.86.6-1.31.89-.47.3-.94.6-1.43.88-.38.23-.77.45-1.16.66-.45.24-.91.48-1.38.7-.09.04-.18.09-.28.13-.37.18-.75.35-1.13.51-.48.21-.96.4-1.45.58-.29.12-.58.22-.88.32-.38.13-.77.26-1.15.38-.21.07-.43.13-.65.19-.61.17-1.23.33-1.85.47-.31.08-.62.14-.94.2-.6.12-1.21.22-1.82.31-.33.05-.66.09-.99.13-1.34.15-2.69.23-4.08.23-.48,0-.95,0-1.42-.03-.31-.01-.61-.02-.91-.05-.24-.01-.47-.03-.7-.05-.04,0-.08,0-.11,0-.19-.01-.37-.03-.55-.05-.18-.02-.36-.04-.55-.06-.42-.04-.83-.1-1.25-.16-.07-.01-.14-.02-.2-.04-.27-.04-.54-.08-.8-.14-.15-.02-.3-.05-.45-.08-.15-.03-.29-.06-.44-.09-.05-.01-.1-.02-.15-.03-.3-.06-.6-.13-.9-.21-.4-.09-.79-.19-1.17-.3-.36-.1-.72-.2-1.07-.31-.27-.08-.52-.16-.77-.25-.04-.02-.09-.03-.13-.05-.06-.02-.12-.04-.18-.06-.24-.08-.48-.17-.72-.26-.31-.11-.62-.23-.93-.36-.21-.08-.41-.16-.61-.25-.2-.09-.4-.18-.6-.27-.41-.18-.8-.36-1.2-.56-.16-.08-.32-.16-.48-.24-.15-.08-.31-.16-.47-.24-.55-.29-1.1-.6-1.63-.92-.28-.17-.56-.34-.84-.52-.36-.23-.71-.46-1.06-.7-1.09-.74-2.13-1.54-3.13-2.39-.28-.24-.56-.48-.84-.74-.08-.07-.17-.14-.25-.22-.03-.03-.07-.06-.1-.1-.25-.22-.49-.45-.73-.69-.55-.53-1.09-1.08-1.61-1.65-.64-.71-1.27-1.44-1.86-2.19-.26-.34-.52-.68-.79-1.02t0-.01c-.22-.31-.45-.63-.67-.94-.31-.44-.61-.89-.89-1.34-.2-.31-.4-.63-.59-.95-.22-.37-.44-.74-.65-1.12-.42-.75-.82-1.51-1.19-2.29-.14-.29-.27-.58-.4-.87-.12-.26-.23-.52-.35-.78-.13-.31-.25-.62-.38-.93-.02-.06-.05-.12-.07-.18-.03-.07-.05-.14-.08-.21-.13-.34-.26-.69-.38-1.04-.17-.48-.33-.96-.48-1.44-.04-.14-.08-.27-.12-.4-.04-.14-.08-.28-.12-.41-.02-.05-.03-.11-.05-.16-.1-.36-.2-.72-.29-1.09-.08-.33-.16-.66-.23-.99-.1-.42-.19-.84-.27-1.26-.11-.54-.2-1.09-.28-1.64-.06-.45-.12-.91-.17-1.37-.05-.45-.09-.9-.13-1.36-.04-.59-.07-1.19-.09-1.79-.01-.31-.01-.63-.01-.95s.01-.64.02-.96c.01-.22.02-.45.04-.67.02-.25.04-.5.06-.75.02-.21.04-.41.07-.62.01-.05.01-.1.02-.15,0-.02.01-.05.01-.07h0c.02-.16.04-.32.07-.47.04-.26.09-.52.14-.77s.1-.49.16-.73c.13-.56.28-1.11.45-1.65.08-.25.17-.49.26-.73.08-.25.18-.5.28-.74.11-.26.22-.52.34-.77.09-.21.19-.42.3-.62.02-.05.04-.1.07-.15.11-.23.23-.45.36-.67.25-.47.53-.93.83-1.38.12-.19.25-.38.39-.57.34-.49.7-.96,1.08-1.42.24-.29.49-.57.74-.85.22-.25.45-.48.67-.71.03-.03.05-.05.07-.07.29-.29.58-.57.88-.85.19-.18.4-.36.6-.54.08-.07.15-.13.23-.2.48-.41.97-.79,1.48-1.17.25-.19.51-.38.77-.56.26-.18.53-.36.8-.54.48-.33.98-.64,1.49-.93.25-.15.51-.3.77-.44.29-.17.59-.33.9-.48.08-.04.16-.09.24-.13.4-.21.81-.42,1.23-.61.06-.03.12-.06.19-.09.47-.22.94-.44,1.43-.65.06-.02.12-.05.18-.07.49-.21.99-.41,1.5-.6.54-.21,1.08-.41,1.63-.6.4-.14.81-.27,1.22-.41.82-.26,1.65-.5,2.5-.74.31-.08.63-.17.95-.25.1-.03.2-.05.3-.08h.02c.71-.18,1.42-.35,2.14-.5.09-.02.17-.04.26-.06h.02c.26-.06.52-.12.78-.17h.01s.09-.02.14-.03c.43-.08.85-.17,1.28-.24.2-.04.41-.08.62-.11.02,0,.04,0,.06,0,.52-.1,1.04-.17,1.56-.25.08-.01.16-.03.25-.03.14-.02.29-.04.43-.06.35-.06.7-.11,1.05-.15.22-.03.44-.06.66-.08.2-.02.4-.05.6-.06.27-.03.54-.07.82-.09.21-.02.42-.04.63-.06.06-.01.13-.01.19-.02.25-.02.49-.05.74-.06.53-.05,1.05-.08,1.58-.11.28-.02.55-.04.82-.05.42-.03.83-.04,1.24-.05.34-.02.68-.03,1.01-.04.75-.02,1.5-.03,2.25-.03,21.72.54,29.43,13.7,29.57,27.46v.38Z"/>
  <path class="cls-4" d="M172.73,132.56c-.2,19.54,16.94,39.33,38.81,39.33s36.69-18.48,36.69-38.01-23.01-27.72-44.88-27.72c-21.72.54-30.48,12.64-30.62,26.4Z"/>
  <path class="cls-1" d="M234.49,111.76c-8.69-4.59-20.1-6.65-31.14-6.65h-.02c-11.05.27-18.96,3.49-24.12,8.54-1.66,1.63-3.03,3.43-4.12,5.37-1.39,2.46-2.33,5.13-2.87,7.93-.02.1-.04.19-.05.29h-.01c-.08.44-.15.88-.2,1.32-.19,1.31-.28,2.64-.29,3.99-.03,3.34.43,6.68,1.32,9.94h0c1.58,5.79,4.52,11.29,8.49,15.98.4.48.82.96,1.25,1.42,7.19,7.8,17.36,13.06,28.8,13.06,19.98,0,34.19-14.94,37.17-32.28h0c.39-2.24.59-4.51.59-6.79,0-10.27-6.09-17.51-14.8-22.12ZM247.37,142.01l-.03.15c-.02.08-.03.16-.06.23-.08.37-.17.74-.26,1.1-.02.09-.05.19-.07.28-.12.47-.25.93-.39,1.39-.08.26-.16.52-.24.77-.08.25-.16.51-.25.76-.16.46-.33.92-.5,1.38-.02.04-.04.08-.05.12-.19.49-.39.98-.61,1.47-.01.02-.02.05-.03.07-.21.46-.42.92-.64,1.38-.17.35-.35.7-.53,1.05-.07.14-.14.27-.22.41-.15.29-.31.58-.48.86-.04.08-.08.16-.13.24-.32.54-.64,1.07-.98,1.59-.29.45-.59.88-.89,1.32-.15.22-.31.43-.47.64-.16.21-.32.42-.48.63-.32.42-.65.83-.99,1.24-.32.38-.65.76-.99,1.13-.28.31-.57.61-.86.9-.12.14-.25.27-.38.39-.07.08-.15.15-.22.22-.03.03-.06.06-.1.09-.17.18-.35.35-.53.52-.05.04-.1.09-.15.14-.1.09-.2.18-.3.27-.37.33-.74.65-1.12.96-.2.17-.41.34-.62.51-.03.03-.07.06-.11.09-.31.24-.62.48-.94.71-.33.24-.66.48-1,.71-.36.25-.73.49-1.09.72-.38.23-.75.46-1.13.68-.33.2-.66.38-1,.56-.4.22-.8.43-1.21.63-.04.02-.09.04-.13.06-.49.23-.98.46-1.49.67-.43.19-.86.36-1.3.53-.04.01-.07.03-.11.04t-.02.01s-.06.02-.09.03c-.26.1-.52.19-.78.28s-.52.18-.79.26c-.28.09-.57.18-.86.26-1.08.32-2.18.59-3.31.8-.23.04-.46.08-.69.12-.23.04-.45.08-.69.11-.36.06-.73.11-1.09.15h-.02c-.07.01-.14.02-.21.03-.39.04-.78.08-1.18.11h-.04c-.25.02-.5.04-.75.06-.07,0-.14,0-.21,0-.67.03-1.34.05-2.03.05-21.87,0-39-19.8-38.8-39.34.01-.43.02-.86.04-1.28.02-.35.04-.7.07-1.04.01-.1.01-.21.03-.31,0-.02,0-.05.01-.07,0-.06,0-.12,0-.17.02-.26.05-.52.09-.77.04-.29.08-.57.12-.86,0-.01,0-.03.01-.05,0-.02.01-.04.01-.06,0-.01,0-.02.01-.03,0-.09.03-.18.04-.28.01-.09.03-.18.05-.27.03-.19.07-.37.11-.55.08-.38.16-.76.26-1.13,0-.02.01-.03.01-.05.01-.03.01-.05.02-.08.01-.04.02-.07.03-.11.05-.24.12-.46.19-.69,0-.03.01-.05.02-.08.02-.08.05-.17.07-.25.02-.05.03-.11.05-.16.01-.02.01-.04.02-.06.08-.27.17-.53.27-.8.01-.03.02-.07.03-.1.01-.04.03-.07.04-.11.01-.04.03-.08.05-.12.07-.22.16-.44.25-.65.02-.05.04-.11.06-.16.07-.2.16-.39.24-.58.03-.07.06-.13.09-.2.12-.27.24-.53.37-.79.17-.36.36-.71.54-1.05.02-.03.04-.06.06-.09.13-.23.26-.45.39-.67.17-.28.34-.55.52-.82.14-.21.29-.42.44-.63.11-.16.23-.32.35-.47.34-.45.7-.9,1.08-1.33l.02-.02.02-.02c.12-.15.25-.29.38-.43.02-.02.03-.03.05-.05.13-.14.26-.28.4-.41.14-.16.29-.3.44-.44t.02-.01c.19-.19.38-.37.58-.54.12-.12.24-.23.37-.33.33-.29.68-.57,1.03-.84.23-.17.46-.35.71-.51.17-.14.35-.26.54-.38.59-.4,1.21-.78,1.86-1.15.2-.11.41-.23.63-.33.18-.11.37-.2.57-.3.18-.09.37-.18.56-.27.21-.1.42-.2.63-.29.22-.1.44-.19.66-.28.38-.16.77-.31,1.17-.46.97-.35,1.99-.67,3.05-.96.41-.11.82-.21,1.24-.3.36-.09.73-.17,1.11-.24.07-.02.14-.03.21-.05.06-.01.13-.02.19-.03.28-.06.56-.11.85-.16.29-.04.59-.09.88-.13.33-.05.66-.1.99-.14.34-.04.68-.08,1.02-.12.47-.05.94-.09,1.42-.13.96-.07,1.95-.12,2.97-.15.51,0,1.03,0,1.54.01.51.01,1.03.03,1.54.04.51.02,1.03.05,1.54.07,1.03.05,2.06.12,3.08.22.47.04.94.09,1.42.14.07,0,.14.02.21.02.04.01.09.01.13.02.42.04.84.09,1.26.15.51.06,1.03.13,1.54.21.5.07,1,.15,1.5.24.47.08.94.16,1.41.26.06,0,.11.02.17.03.46.09.92.18,1.38.28.49.1.98.21,1.46.32.65.15,1.28.31,1.92.48.47.13.94.26,1.41.4.36.1.71.21,1.07.33.21.06.43.13.64.2.02,0,.03,0,.05.02.29.09.58.19.87.29.49.17.98.35,1.46.53.44.17.87.34,1.29.52.08.03.15.07.23.1.06.02.12.04.18.07.04.01.07.02.1.04.43.18.85.37,1.27.57.15.06.3.13.45.21.28.13.56.27.83.41.06.03.11.06.16.09.07.03.13.06.2.1.08.04.16.08.24.12.21.11.42.22.62.33.2.11.4.23.6.34s.4.23.6.35c.2.11.39.23.58.35.25.15.5.31.74.47s.48.32.72.48c.47.33.93.67,1.38,1.02.22.18.44.35.66.53.32.27.64.55.95.83.31.28.61.56.9.85.26.25.51.51.75.78.24.26.48.53.71.8.11.13.21.26.32.39.1.12.2.25.3.38h.01s.05.07.07.1c.23.3.45.61.66.92.01.01.02.01.02.02.01.01.01.02.02.03.16.24.33.48.48.73.18.28.35.56.5.85.15.26.29.52.43.78.15.3.3.61.44.93.07.15.14.3.2.45.07.15.13.31.19.47.07.15.13.31.18.47.11.29.21.58.3.87.1.32.19.64.27.96.07.24.13.48.18.73.05.18.09.37.12.56.01.03.01.05.02.08.11.56.2,1.12.26,1.7,0,.03.01.06.01.09.02.22.05.44.06.67.01.09.02.19.02.29.02.2.03.41.03.62.02.33.03.66.03,1,0,.49-.01.99-.03,1.48v.12c-.02.39-.04.76-.07,1.14-.01.24-.03.48-.06.72-.03.36-.07.73-.11,1.09-.02.15-.04.3-.06.46-.07.53-.15,1.06-.24,1.59-.09.51-.19,1.02-.29,1.53Z"/>
</svg>