<?xml version="1.0" encoding="UTF-8"?>
<svg id="Layer_1" data-name="Layer 1" xmlns="http://www.w3.org/2000/svg" viewBox="0 0 318.12 376.83">
  <defs>
    <style>
      .cls-1, .cls-2, .cls-3, .cls-4, .cls-5, .cls-6, .cls-7, .cls-8, .cls-9, .cls-10, .cls-11, .cls-12 {
        stroke-width: 0px;
      }

      .cls-1, .cls-8 {
        fill: #000;
      }

      .cls-2 {
        fill: #dca188;
      }

      .cls-3 {
        fill: rgba(217, 217, 217, .25);
      }

      .cls-4 {
        fill: #d0cbcb;
      }

      .cls-5 {
        fill: #d9d9d9;
      }

      .cls-6 {
        fill: #76c49a;
      }

      .cls-7, .cls-10 {
        fill: #9f9e9e;
      }

      .cls-8, .cls-10, .cls-12 {
        fill-rule: evenodd;
      }

      .cls-9, .cls-12 {
        fill: #707070;
      }

      .cls-11 {
        fill: #a1a1a1;
      }
    </style>
  </defs>
  <path class="cls-6" d="M318.12,217.91c0,38.33-13.56,73.5-36.14,100.96-17.74,21.58-41.06,38.4-67.75,48.27-.02.01-.04.02-.06.03h-.01c-1.96.72-3.93,1.41-5.93,2.06-.02,0-.04,0-.06.02-14.69,3.66-27.38,5.93-39.37,6.94h-.01c-.36.04-.71.07-1.07.09-.57.05-1.15.09-1.72.13-.58.04-1.15.07-1.72.11-1.72.11-3.42.18-5.11.22-.56.02-1.13.04-1.69.05-.57.02-1.13.03-1.69.02-.5.01-.99.01-1.48.01-.72.01-1.44.01-2.15,0h-.06c-.06,0-.12-.01-.18-.02-.02.01-.04.01-.06,0-21.07-.93-41.07-5.96-59.23-14.33-2.54-1.16-5.03-2.39-7.49-3.69h0c-18.25-9.59-34.39-22.62-47.59-38.24C14.12,292.84,0,257.02,0,217.91s13-72.04,34.77-99.25c16.75-20.97,38.7-37.6,63.89-47.95h.01c18.62-7.64,39.01-11.86,60.39-11.86,12.78,0,25.2,1.51,37.11,4.35,15.83,3.78,30.75,9.93,44.34,18.06,1.57.94,3.12,1.9,4.65,2.89,22.4,14.45,40.89,34.32,53.71,57.82.01.02.01.03.01.05,12.27,22.55,19.24,48.41,19.24,75.89Z"/>
  <path class="cls-9" d="M281.98,318.87c-17.74,21.58-41.06,38.4-67.75,48.27v-.15s4.7-60.99,4.7-60.99l2.11-7.13c2.55-.97,9.45-1.85,16.63,2.38,6.41,3.77,28.96,12.65,44.31,17.62Z"/>
  <path class="cls-9" d="M92.63,362.47c-2.54-1.16-5.03-2.39-7.49-3.69h0c-18.25-9.59-34.39-22.62-47.59-38.24,3.64-2.22,7.3-4.69,10.59-7.15,9.5-7.13,13.73-8.18,17.95-6.6,3.38,1.27,10.74,1.06,13.99.79l.08.23,3.62,10.6,8.86,44.06Z"/>
  <path class="cls-2" d="M177.22,97.45c-13.73,8.87-56.23,5.63-75.76,2.9-4.05-7.74-5.6-21.44,20.59-14.26,26.19,7.18,54.73-8.8,65.73-17.69,2.2,5.98,3.17,20.17-10.56,29.04Z"/>
  <path class="cls-2" d="M195.96,186.94c-2.29,5.63-2.74,16.89,13.73,16.89l-13.73-16.89Z"/>
  <path class="cls-4" d="M234.01,320.19l-19.77,46.8-.07.18h-.01c-1.96.72-3.93,1.41-5.93,2.06-.02,0-.04,0-.06.02-14.69,3.66-27.38,5.93-39.37,6.94-.36.03-.72.06-1.08.09-.57.05-1.15.09-1.72.13-.58.04-1.15.07-1.72.11-1.72.11-3.42.18-5.11.22-.56.02-1.13.04-1.69.05-.57.02-1.13.03-1.69.02-.5.01-.99.01-1.48.01-.8,0-1.59-.01-2.39-.02-.02.01-.04.01-.06,0-21.07-.93-41.07-5.96-59.23-14.33-2.54-1.16-5.03-2.39-7.49-3.69h0c-11.41-15.41-17.17-25.47-20.82-37.78-.71-2.41.51-4.95,2.78-6.05,4.95-2.41,9.04-4.58,13.06-7.14,3.69-2.35,7.31-5.02,11.5-8.48,1.54-1.28,2.41-3.19,2.41-5.19v-26.42l2.14.08h0l40.24,1.42,84.59,2.99v27.35c0,1.22.61,2.36,1.59,3.08,4.8,3.53,7.63,6.99,11.26,14.04.57,1.09.6,2.38.12,3.51Z"/>
  <path class="cls-10" d="M174.43,310.76c-.04,1.09-.83,5.4-3.81,17.15-2.49,9.81-1.58,21.07-.83,30.36.69,8.43,1.24,15.25-.99,17.92h-.01c-.36.04-.71.07-1.07.09-.57.05-1.15.09-1.72.13-.58.04-1.15.07-1.72.11-1.72.11-3.42.18-5.11.22-.56.02-1.13.04-1.69.05-.57.02-1.13.03-1.69.02-.5.01-.99.01-1.48.01-.72.01-1.44.01-2.15,0h-.06c-.06,0-.12-.01-.18-.02-.02.01-.04.01-.06,0-21.07-.93-41.07-5.96-59.23-14.33-2.54-1.16-5.03-2.39-7.49-3.69h0c-11.41-15.41-17.17-25.47-20.82-37.78-.71-2.41.51-4.95,2.78-6.05,4.95-2.41,9.04-4.58,13.06-7.14,3.69-2.35,7.31-5.02,11.5-8.48,1.54-1.28,2.41-3.19,2.41-5.19v-37.9l42.39,12.98,42.35,16.72-4.49,24.55c.08-.1.12-.04.12.27Z"/>
  <path class="cls-4" d="M252.19,167.39c-.36,11.42.76,25.88-5.15,40.92-.31,1.4-.9,2.81-1.25,4.22-9.7,41.45-35.31,98.99-67.25,97.94-66.75,6.33-110.5-66.59-107.44-133.05,0-74.02,28.4-134.69,79.77-138.17,3.11-.21,6.27-.6,9.3-1.31,72.69-17.16,95.09,31.85,92.02,129.45Z"/>
  <path class="cls-11" d="M136.83,224.91c-1.9,2.11-8.54,5.1-11.62,6.34l4.22,3.96,16.37,7.39,14.52,2.9,12.41-1.85,15.05-6.34,6.6-6.07-1.85-1.58c-1.14-.88-4.07-3.06-6.6-5.81-3.17-3.43-12.67-5.81-17.42-1.58-4.75,4.22-11.09,1.06-16.1-1.32-5.01-2.38-13.2,1.32-15.57,3.96Z"/>
  <path class="cls-7" d="M152.4,252.67c4.58,6.25,16.05,14.68,25.34-1.58-3.08,1.76-12.46,4.54-25.34,1.58Z"/>
  <path class="cls-7" d="M116.24,203.84c-1.94-5.54-1.9-16.89,13.73-17.95l-13.73,17.95Z"/>
  <path class="cls-7" d="M145.8,175.59c-7.6-7.6-6.86-13.73-5.54-15.84-6.07,8.45-7.39,23.23-6.86,28.77.53,5.54,5.02,7.13,8.71,1.32,3.7-5.81,5.28-5.81,13.99,3.7,6.97,7.6,12.23,2.82,13.99-.53,1.58-17.69-14.78-7.92-24.29-17.42Z"/>
  <path class="cls-7" d="M208.37,155.53c33.16-5.91,19.62-21.65,8.71-28.77,5.28-2.11,22.44,1.58,21.12,18.48-1.06,13.52-20.33,12.49-29.83,10.29Z"/>
  <path class="cls-7" d="M193.85,138.37c.85-12.04,11.62-13.99,16.9-13.46-11.35-1.85-33.58-1.74-31.68,13.46,1.9,15.21,19.97,17.77,28.77,17.16-5.02-.7-14.84-5.12-13.99-17.16Z"/>
  <path class="cls-7" d="M208.1,228.65c-2.19-2.02-7.82-.93-12.24.48-.98.31-.94,1.81-.05,2.31,6.33,3.52,9.47,11.76,13.61,11.99,4.75.26,2.11-11.62-1.32-14.78Z"/>
  <path class="cls-7" d="M116.5,229.18c2.24-1.03,5.8-.03,8.13.95.68.28.8,1.17.27,1.68-2.85,2.76-6.64,6.66-9.2,5.03-2.9-1.85-2.64-6.07.79-7.66Z"/>
  <path class="cls-7" d="M152.4,203.04c-1.15-5.94-6.73-9.14-10.12-10.27-.54-.18-.88-.72-.72-1.26.79-2.71,2.88-6.48,6.62-5.36,5.15,1.54,9.54,18.89,23.45,7.29.55-.46,1.4-.29,1.68.37,3.67,8.93,3.7,19.04-5.86,25.07-10.03,6.34-13.46-7.65-15.05-15.84Z"/>
  <path class="cls-7" d="M124.16,146.02c-4.22,11.62-18.13,14.17-24.55,13.99,35.11,4.75,36.96-12.41,35.37-21.12-1.58-8.71-25.08-22.44-41.45-6.86-13.09,12.46-5.46,20.68,0,23.23,3.43-36.69,35.9-23.76,30.62-9.24Z"/>
  <path class="cls-5" d="M133.48,142.17c-15.21-10.18-33.17-2.15-41.67,4.14-.65.48-.49,1.47.28,1.73,17.39,5.82,33.94.1,41.35-4.21.63-.37.65-1.26.04-1.66Z"/>
  <path class="cls-8" d="M133.92,141.51c-3.63-2.43-7.41-3.85-11.18-4.52h-.01c-4.36-.77-8.69-.54-12.76.3-4.94,1.01-9.52,2.91-13.3,4.99-2.03,1.11-3.83,2.27-5.34,3.39-1.18.88-.86,2.67.51,3.12.85.28,1.7.54,2.54.77,10.48,2.88,20.51,1.81,28.3-.42,4.64-1.33,8.48-3.06,11.15-4.62,1.15-.67,1.17-2.28.09-3.01ZM133.04,143.15c-2.3,1.34-5.51,2.82-9.35,4.03-1.05.33-2.15.64-3.29.93-3.63.9-7.7,1.53-12.02,1.6h-.01c-4.35.08-8.95-.4-13.64-1.7-.8-.21-1.59-.45-2.39-.72-.09-.03-.14-.09-.15-.16,0-.03,0-.07.01-.09,0-.03.03-.06.08-.09,1.02-.75,2.17-1.53,3.45-2.3,2.67-1.62,5.86-3.19,9.35-4.39h.01c1.67-.57,3.4-1.05,5.19-1.42,3-.61,6.12-.88,9.27-.65h.01c1.42.11,2.85.32,4.28.65,3.11.71,6.21,1.99,9.2,3.99.13.09.11.25,0,.32Z"/>
  <path class="cls-5" d="M225.98,143.7c-13.26-12.62-32.32-7.75-41.77-2.99-.73.37-.73,1.37-.01,1.75,16.15,8.68,33.43,5.86,41.46,2.87.69-.26.86-1.13.33-1.63Z"/>
  <path class="cls-8" d="M226.53,143.13c-6.82-6.49-15.13-8.47-22.89-8.23-3.32.1-6.54.61-9.52,1.35-3.98.98-7.52,2.38-10.26,3.76-1.32.66-1.3,2.47-.04,3.15,3.97,2.13,8.01,3.59,11.97,4.51,12.39,2.92,23.95.71,30.14-1.59,1.25-.47,1.55-2.05.6-2.95ZM225.38,144.59c-3.79,1.41-9.67,2.79-16.53,2.89h-.01c-4.2.06-8.78-.35-13.46-1.54-.01.01-.01,0-.01,0-.16-.03-.32-.07-.48-.12-3.42-.89-6.9-2.21-10.32-4.05-.08-.05-.11-.12-.11-.18,0-.04.01-.07.02-.09.02-.03.04-.06.09-.08,2.51-1.27,5.72-2.54,9.32-3.48.53-.14,1.06-.27,1.6-.39,2.6-.59,5.37-.99,8.2-1.07,1.93-.06,3.88.02,5.83.29h.01c5.59.74,11.14,2.96,15.91,7.51.12.11.07.27-.06.31Z"/>
  <path class="cls-1" d="M123.73,142.79c.32,3.56-4.06,6.87-9.8,7.39-5.73.52-10.64-1.94-10.97-5.5-.32-3.56,4.06-6.87,9.8-7.39,5.73-.52,10.64,1.94,10.97,5.5Z"/>
  <path class="cls-1" d="M213.78,142.13c-.08,3.57-4.81,6.37-10.56,6.24-5.76-.13-10.36-3.12-10.28-6.7.08-3.57,4.81-6.37,10.56-6.24,5.76.13,10.36,3.12,10.28,6.7Z"/>
  <path class="cls-8" d="M107.74,126.59c-6.94,1.72-12.97,5.95-16.55,9.44-.31.31-.81.3-1.12-.01-.31-.31-.3-.82.01-1.12,3.72-3.63,9.99-8.04,17.28-9.85,7.33-1.81,15.68-.99,23.4,5.86.33.29.36.79.07,1.12-.29.33-.79.36-1.12.07-7.27-6.45-15.07-7.21-21.97-5.51Z"/>
  <path class="cls-8" d="M191.1,178.07c-1.36-3.84-3.59-7.14-4.52-8.48-.67-.95-1.5-2.88-2.28-4.99-.61-1.68-1.17-3.41-1.57-4.72-.1-.32-.18-.62-.26-.88-.13-.42-.56-.66-.98-.53h-.01c-.41.13-.66.56-.53.98.4,1.37,1.09,3.57,1.87,5.69.77,2.09,1.65,4.21,2.46,5.36.92,1.31,3.04,4.47,4.32,8.1,1.3,3.65,1.65,7.53-.61,10.5-1.23,1.63-2.15,2.38-2.79,2.65-.3.13-.51.14-.66.11-.15-.03-.31-.11-.48-.27-.36-.35-.68-1-.95-1.87-.26-.84-.44-1.79-.57-2.63-.15-.99-.59-1.9-1.56-2.26-.9-.33-1.97-.07-3.1.48-2.08,1.02-4.96,3.39-8.76,7.3-.37.38-.75.77-1.13,1.18-2.09,2.21-3.93,2.99-5.52,3.04-1.62.04-3.15-.67-4.61-1.8s-2.77-2.62-3.95-4.02c-.17-.21-.34-.41-.51-.61-.39-.48-.77-.93-1.12-1.34-.5-.56-.99-1.08-1.46-1.43-1.62-1.21-3.54-2.23-5.5-2.03-2.05.2-3.82,1.68-5.2,4.71-.6,1.32-1.39,2.07-2.17,2.39-.76.31-1.58.24-2.37-.23-1.62-.97-3.18-3.77-2.92-8.65.42-7.92,2.61-14.77,3.63-17.15.14-.35.04-.73-.24-.94-.05-.04-.11-.07-.17-.1-.41-.18-.87.01-1.04.41-1.09,2.54-3.33,9.57-3.76,17.69-.27,5.15,1.34,8.69,3.68,10.1,1.19.71,2.54.84,3.79.33.83-.34,1.57-.95,2.18-1.78.32-.41.6-.89.84-1.41.51-1.11,1.04-1.93,1.58-2.51.78-.86,1.58-1.21,2.33-1.29,1.34-.13,2.84.57,4.39,1.73.3.22.65.57,1.08,1.05h0c.05.06.1.11.14.16.33.38.69.81,1.08,1.28.17.2.35.42.53.63,1.18,1.41,2.58,3.02,4.19,4.26,1.61,1.25,3.49,2.19,5.62,2.13,2.14-.06,4.36-1.12,6.63-3.53.32-.34.62-.66.93-.97t.02-.02h.01c1.53-1.61,2.9-2.91,4.1-3.98,1.82-1.6,3.27-2.63,4.38-3.18,1.02-.5,1.58-.51,1.85-.41.19.07.44.28.55,1.01.09.63.22,1.33.39,2.04.07.28.14.55.22.82.29.93.71,1.9,1.37,2.54.34.33.77.59,1.28.69.51.09,1.05,0,1.58-.21,1.03-.44,2.16-1.47,3.44-3.15,2.75-3.62,2.18-8.19.84-11.99ZM225.56,130.95c-1.95-1.98-4-3.52-6.11-4.68h-.01c-8.14-4.54-17.02-3.63-23.03-2.03-1.5.4-2.82.84-3.9,1.25-.41.15-.61.61-.46,1.02.16.41.61.61,1.02.46,3.65-1.38,9.8-3.03,16.38-2.25.06,0,.12.01.19.02,2.59.33,5.24,1.03,7.83,2.28.01,0,.01.01.02.01,2.4,1.16,4.75,2.79,6.94,5.03.31.31.81.32,1.12.01.32-.3.32-.8.01-1.12Z"/>
  <path class="cls-8" d="M129.82,151.37c.25.36.17.85-.19,1.1-5.26,3.72-12.6,5.05-19.48,5.28-6.9.23-13.47-.65-17.31-1.46-.43-.09-.7-.51-.61-.94.09-.43.51-.7.94-.61,3.73.78,10.18,1.64,16.93,1.42,6.78-.22,13.74-1.53,18.61-4.99.36-.25.85-.17,1.1.19Z"/>
  <path class="cls-8" d="M186.28,150.15c.2-.39.68-.54,1.07-.34,2.81,1.45,8.05,3.14,14.16,4.08,6.1.94,12.98,1.1,19.07-.45.42-.11.85.15.96.57s-.15.85-.57.96c-6.37,1.62-13.48,1.43-19.7.48-6.22-.96-11.64-2.69-14.64-4.24-.39-.2-.54-.68-.34-1.07Z"/>
  <path class="cls-1" d="M151.77,190.64c-3.03,4.12-6.08.88-7.51-1.78-.2-.36-.14-.81.16-1.1,2.97-2.94,5.95-.33,7.38,1.8.22.33.21.76-.02,1.07Z"/>
  <path class="cls-1" d="M182.93,188.48c-1.48,3.11-5.09,2.59-7.4,1.68-.64-.25-.76-1.06-.27-1.54,5.42-5.28,7.53-2.72,7.75-.59.02.15-.01.31-.08.45Z"/>
  <path class="cls-9" d="M247.33,139.96c-9.96-32.73-50.01-28.14-71.45-20.9-.89.3-1.69-.58-1.22-1.39,5.59-9.76,21.29-23.48,48.49-15.46,26.45,7.8,28.74,26.62,26.1,37.8-.24,1.02-1.62.96-1.92-.04Z"/>
  <path class="cls-9" d="M137.18,120.64c-22.05-19.17-52.69-3.47-70.39,10.02-.74.57-1.76-.01-1.56-.92,2.5-11.03,15.25-29.12,43.62-30.18,28.39-1.06,30.34,9.94,30.16,20.32-.01.92-1.14,1.36-1.83.76Z"/>
  <path class="cls-8" d="M148.47,232.05c-13.5-4.15-23.72-.49-27.04,1.75-.36.25-.85.15-1.1-.21-.25-.36-.15-.85.21-1.1,3.72-2.51,14.44-6.24,28.4-1.95,8.5,2.61,14.66,3.06,19.4,2.64,4.07-.36,7.1-1.36,9.74-2.22.43-.14.86-.28,1.28-.41,2.46-.78,6.06-.93,9.46-.82,3.44.11,6.79.48,8.85.79.43.07.73.47.66.9-.07.43-.47.73-.9.66-2-.3-5.29-.67-8.66-.78-3.39-.11-6.75.05-8.93.75-.4.13-.81.26-1.24.41-2.64.87-5.85,1.92-10.11,2.3-4.97.44-11.34-.04-20-2.7Z"/>
  <path class="cls-8" d="M125.15,231.29c.29-.33.79-.36,1.12-.07,5.62,4.97,15.78,10.97,27.9,12.71,12.09,1.74,26.15-.73,39.69-12.71.33-.29.83-.26,1.12.07.29.33.26.83-.07,1.12-13.91,12.31-28.45,14.89-40.96,13.09-12.47-1.8-22.91-7.95-28.72-13.09-.33-.29-.36-.79-.07-1.12Z"/>
  <path class="cls-8" d="M178.23,221.55c-2.6-.25-4.85.2-6.2.9-.32.16-.64.35-.98.54-1.17.66-2.49,1.39-4.05,1.77-2.08.51-4.59.41-8.01-.96-6.52-2.6-11.99-3.29-17.18-.06-4.43,2.76-11.8,6.63-14.92,8.21-.39.2-.87.04-1.06-.35-.2-.39-.04-.87.35-1.06,3.12-1.58,10.43-5.42,14.8-8.14,5.82-3.63,11.91-2.73,18.6-.06,3.18,1.27,5.35,1.3,7.05.89,1.34-.33,2.4-.92,3.54-1.55.37-.21.74-.41,1.13-.62,1.68-.88,4.25-1.35,7.08-1.08,2.85.28,6.02,1.31,8.9,3.52,1.41,1.08,2.5,2.07,3.41,2.95.3.28.57.55.83.8.55.54,1.03,1,1.51,1.42.69.6,1.32,1.03,2.04,1.32.72.29,1.58.46,2.74.46.44,0,.79.35.79.79s-.35.79-.79.79c-1.32,0-2.39-.19-3.33-.58-.94-.38-1.72-.94-2.48-1.6-.51-.45-1.05-.97-1.62-1.52-.25-.25-.51-.5-.78-.76-.89-.85-1.93-1.8-3.28-2.84-2.62-2.01-5.51-2.95-8.09-3.2Z"/>
  <path class="cls-8" d="M178.49,251.09c.14.41-.07.87-.49,1.01-9.28,3.24-21.22,2.06-26.03,1.08-.43-.09-.71-.51-.62-.93.09-.43.51-.7.93-.62,4.7.96,16.3,2.07,25.19-1.03.41-.14.87.07,1.01.49Z"/>
  <path class="cls-8" d="M195.2,185.27c.34-.28.84-.23,1.11.11,1.94,2.38,4.95,6.15,7.7,9.72,2.72,3.54,5.23,6.97,6.12,8.62.21.39.06.86-.33,1.07-.39.21-.87.06-1.07-.33-.81-1.51-3.22-4.82-5.98-8.4-2.73-3.56-5.74-7.31-7.67-9.68-.28-.34-.23-.84.11-1.11Z"/>
  <path class="cls-8" d="M129.94,185.27c-.34-.28-.84-.23-1.11.11-1.94,2.38-4.95,6.15-7.7,9.72-2.72,3.54-5.23,6.97-6.12,8.62-.21.39-.06.86.33,1.07.39.21.86.06,1.07-.33.81-1.51,3.22-4.82,5.98-8.4,2.73-3.56,5.74-7.31,7.67-9.68.28-.34.22-.84-.11-1.11Z"/>
  <path class="cls-7" d="M148.71,134.41c0,3.34-2.89,9.82-4.64,13.26.82-3.98-.11-11.91-.82-16.17-.05-.33.05-.67.29-.9,8.28-8.19,21.81-5.91,28.49-3.43.54.2.79.81.63,1.37-1.69,5.76.7,14.46,2.19,18.28-1.76-4.4-6.12-14.04-9.5-17.42-4.22-4.22-16.63.53-16.63,5.01Z"/>
  <path class="cls-8" d="M171.87,128.53c-14.01-6.39-24.13-.85-27.9,2.76-.32.3-.82.29-1.12-.02-.3-.32-.29-.82.03-1.12,4.15-3.96,14.94-9.76,29.65-3.05.4.18.57.65.39,1.05-.18.4-.65.57-1.05.39Z"/>
  <path class="cls-9" d="M74.53,230.5c2.49,6.15,5.91,11.5,8.2,14.61.56.76,1.65.41,1.62-.53-.22-7.49-3.1-21.34-8.23-36.52-6.07-17.95-6.53-36.11-2.38-53.33,4.13-17.1-2.15-28.24,10.56-43.82,14.42-17.69,26.4-16.1,77.08-17.95,39.16-1.43,37.81-35.14,31.81-53.53-.26-.81.49-1.6,1.31-1.36,54.63,16,58.72,90.09,56.11,97.66-2.64,7.66-4.22,18.21-1.85,24.02,2.38,5.81,6.33,21.91-2.38,36.43-6.33,10.56-4.06,20.03-3.13,23.64.13.52.63.87,1.15.78,7.22-1.22,17.75-7.75,20.99-18.88,4.22-14.52,7.39-15.31,25.87-34.32,18.48-19.01-2.11-60.98-2.9-79.19-.29-6.61-1.71-11.15-3.46-14.19-.62-1.08.87-4.57,2.1-4.75,4.5-.68,8.95-2.49,11.39-3.76-20.98,8.76-57.72-21.23-75.22-39-.67-.68-.14-1.82.82-1.76l7.27.42c1.3.07,1.41-.5.17-.89-14.93-4.62-31.46-17.1-45.49-22.39-14.42-5.44-26.76,2.13-31.28,6.72-.09.09-.19.17-.32.21-1.46.45-6.81.2-18.3-4.03-10.09-3.72-17.54-.15-21.25,3.17-.7.63-.13,1.69.8,1.81,2.76.38,3.87,2.15,4.08,3.2C68.19,28.02,29.39,113.29,27.8,152.36c-1.58,39.07,42.77,68.37,46.73,78.14Z"/>
  <path class="cls-3" d="M143.69,140.22c.2,19.54-15.09,39.07-36.96,39.07s-37.49-19.27-37.49-38.81,23.01-27.72,44.88-27.72c21.72.53,29.43,13.69,29.57,27.45Z"/>
  <path class="cls-12" d="M143.57,131.5c-.06-.23-.12-.45-.2-.67-.08-.3-.17-.6-.27-.89-1.12-3.3-2.83-6.38-5.25-9.04-.02-.03-.05-.05-.07-.08-4.9-5.34-12.55-8.84-23.63-9.11h-.03c-.36,0-.73,0-1.09.01h-.14c-.41,0-.82.01-1.23.03-.22,0-.42.01-.63.02h-.04c-.39.01-.78.03-1.17.06-9.65.45-19.27,2.53-26.83,6.53-1.78.94-3.43,1.99-4.96,3.14,0,.01-.01.01-.01.01-.37.28-.72.56-1.07.86h-.01c-1.35,1.12-2.58,2.34-3.64,3.66h-.01c-3.2,3.92-5.1,8.71-5.1,14.45s1.29,11.34,3.65,16.54c.3.68.62,1.34.96,2,6.31,12.16,18.61,21.32,33.93,21.32,19.77,0,34.24-15.46,37.38-32.74v-.02c.45-2.44.66-4.9.64-7.37-.03-2.96-.4-5.9-1.18-8.71ZM106.73,179.29c-.48,0-.95-.01-1.42-.03-.31-.01-.61-.02-.91-.05-.24-.01-.47-.03-.7-.05-.04,0-.07,0-.1-.01-.19-.02-.37-.03-.55-.05-.19-.01-.38-.03-.56-.06-.42-.04-.83-.1-1.25-.16-.05-.01-.11-.02-.16-.03-.43-.07-.86-.14-1.29-.23-.01,0-.02,0-.04,0-.48-.09-.97-.2-1.45-.32-.4-.09-.79-.19-1.17-.3-.44-.12-.87-.25-1.29-.38-.29-.09-.57-.19-.86-.29-.24-.08-.48-.17-.72-.26-.31-.11-.62-.23-.93-.36-.2-.08-.41-.17-.61-.25-.2-.09-.4-.18-.6-.27-.41-.18-.8-.36-1.2-.56-.32-.15-.63-.32-.95-.48-.71-.37-1.4-.77-2.08-1.2-.34-.21-.68-.43-1.01-.65-.3-.19-.59-.39-.87-.59-.04-.03-.08-.06-.12-.09-.32-.22-.64-.45-.95-.69-.01-.01-.03-.03-.05-.04-.61-.47-1.21-.95-1.79-1.45-.31-.28-.62-.55-.92-.83-.23-.2-.46-.42-.68-.63-1.28-1.24-2.47-2.56-3.57-3.95-.26-.33-.52-.67-.79-1.02h0c-.23-.32-.45-.63-.67-.95-.52-.75-1.02-1.51-1.48-2.28-.2-.34-.4-.67-.59-1.01-.44-.79-.86-1.59-1.25-2.41-.14-.29-.27-.58-.4-.87-.12-.26-.23-.52-.35-.78-.13-.31-.25-.62-.38-.93-.37-.94-.71-1.9-1.01-2.87-.08-.27-.17-.54-.24-.81-.02-.05-.03-.11-.05-.16-.13-.46-.25-.91-.36-1.38-.16-.65-.31-1.3-.43-1.96v-.02c-.1-.49-.18-.99-.26-1.48-.05-.37-.11-.75-.15-1.12-.03-.22-.05-.45-.07-.67-.04-.36-.07-.72-.1-1.08-.04-.59-.07-1.19-.09-1.79-.01-.31-.01-.63-.01-.95s.01-.64.02-.96c.01-.22.02-.45.04-.67.06-.98.19-1.93.37-2.84.04-.23.09-.46.15-.68,0-.02.01-.03.01-.05.07-.28.14-.56.21-.83.04-.15.09-.3.13-.44.04-.12.08-.25.12-.37.07-.23.14-.46.23-.68.19-.53.4-1.05.64-1.56.09-.21.19-.42.3-.62.02-.05.04-.1.07-.15.11-.23.23-.45.36-.67.25-.47.53-.93.83-1.38.12-.19.25-.38.39-.57.34-.49.7-.96,1.08-1.42.24-.29.49-.57.74-.85.22-.25.45-.48.67-.71.03-.03.05-.05.07-.07.28-.29.57-.57.87-.84h.01c.19-.19.4-.37.6-.55.08-.06.15-.13.23-.19.29-.24.58-.48.88-.72.02-.02.04-.03.07-.06.27-.21.55-.42.84-.63.31-.23.63-.45.95-.66.16-.11.32-.21.48-.32l.57-.36c.49-.31,1-.61,1.52-.9.29-.16.59-.32.9-.48.08-.04.16-.08.24-.13.4-.21.81-.41,1.23-.61.06-.03.12-.06.19-.09.43-.2.87-.4,1.32-.59.36-.16.72-.31,1.08-.45.27-.12.54-.22.81-.33.5-.19,1.01-.37,1.53-.55.4-.14.81-.28,1.22-.41.82-.26,1.65-.51,2.5-.74.31-.08.63-.17.95-.25.1-.03.2-.05.3-.08h.02c.71-.18,1.42-.35,2.14-.5.08-.02.17-.04.26-.06h.02c.26-.06.52-.12.78-.17h.01s.09-.02.14-.03c.43-.08.85-.17,1.28-.24.21-.04.41-.08.62-.11.02,0,.04-.01.06-.01.52-.1,1.04-.17,1.56-.25.17-.03.34-.05.51-.07.61-.09,1.21-.17,1.82-.24.26-.03.52-.06.78-.09.49-.06.98-.1,1.47-.14.27-.03.53-.06.8-.07.54-.05,1.07-.09,1.61-.11.03,0,.06,0,.09,0,.21-.02.43-.03.65-.04.43-.02.86-.04,1.29-.05.33-.02.66-.03.99-.04.75-.02,1.5-.03,2.25-.03,21.72.54,29.43,13.7,29.57,27.46.2,19.53-15.09,39.07-36.96,39.07Z"/>
  <path class="cls-3" d="M172.73,132.56c-.2,19.54,16.94,39.33,38.81,39.33s36.69-18.48,36.69-38.01-23.01-27.72-44.88-27.72c-21.72.54-30.48,12.64-30.62,26.4Z"/>
  <path class="cls-12" d="M234.49,111.76c-8.69-4.59-20.09-6.65-31.13-6.65h-.03c-11.05.27-18.95,3.49-24.12,8.54-1.66,1.62-3.03,3.43-4.12,5.37-1.39,2.46-2.33,5.14-2.86,7.94-.02.09-.04.19-.05.28h-.01c-.08.44-.15.88-.2,1.32-.19,1.31-.28,2.64-.29,3.99-.04,3.33.43,6.67,1.3,9.92h0s.01.03.01.04t.01.02c1.58,5.76,4.51,11.25,8.48,15.94.4.48.81.95,1.25,1.41,7.19,7.81,17.36,13.07,28.81,13.07,19.97,0,34.18-14.94,37.16-32.28.39-2.23.59-4.51.59-6.79,0-10.27-6.09-17.51-14.8-22.12ZM247.53,141.24c-.08.45-.18.89-.28,1.33-.06.29-.13.57-.2.86-.18.7-.37,1.4-.59,2.08-.12.4-.25.79-.38,1.17-.13.37-.26.74-.4,1.1-.03.1-.07.19-.11.28-.06.17-.12.33-.19.49-.16.4-.32.79-.49,1.18-.21.46-.42.92-.64,1.37-.04.09-.08.17-.12.25-.21.42-.41.82-.63,1.22-.16.29-.32.58-.48.86-.04.08-.09.16-.13.24-.37.63-.75,1.24-1.15,1.84-.17.26-.34.51-.51.76-.01.02-.03.04-.04.06-.05.08-.1.15-.15.22-.05.07-.1.13-.14.19-.27.38-.54.75-.83,1.11-.32.42-.65.83-.99,1.24-.32.38-.65.76-.99,1.13-.28.31-.57.61-.86.9-.12.14-.25.27-.38.39-.07.08-.15.15-.22.22-.25.25-.52.5-.78.75-.1.09-.2.18-.3.27-.37.33-.74.65-1.12.96-.2.17-.4.33-.61.5h-.01s-.07.07-.11.1c-.31.24-.62.48-.94.71-.33.24-.66.48-1,.71-.36.24-.73.48-1.09.72-.38.23-.75.46-1.13.68-.33.2-.66.38-1,.56-.4.22-.8.43-1.21.63-.04.02-.09.04-.13.06-.49.23-.98.46-1.49.67-.43.19-.86.36-1.3.53-.04.01-.07.03-.11.04t-.02.01s-.06.02-.09.03c-.26.1-.52.19-.78.28-.26.09-.52.18-.79.26-.28.09-.57.18-.86.26-1.08.32-2.18.59-3.31.8-.23.05-.46.09-.69.12-.23.04-.46.08-.69.11-.36.06-.73.11-1.09.15h-.02c-.07.01-.14.02-.21.03-.39.04-.78.08-1.18.11h-.04c-.25.02-.5.04-.75.06-.74.04-1.48.06-2.24.06-21.87,0-39.01-19.8-38.81-39.34,0-.43.02-.86.04-1.28.02-.43.05-.86.09-1.28.03-.42.08-.84.14-1.26.09-.72.22-1.43.37-2.13.06-.29.12-.57.2-.85.07-.29.14-.57.23-.86.07-.28.16-.56.25-.84.13-.4.26-.8.42-1.2.08-.23.17-.45.27-.68,0,0,0-.03.01-.04.02-.06.05-.12.07-.17,0-.01,0-.02,0-.03.01-.03.03-.06.04-.09h.01c.05-.12.09-.22.13-.32.04-.1.09-.2.14-.3.25-.53.52-1.06.8-1.57.15-.26.3-.52.45-.77.09-.16.19-.32.3-.48.1-.16.21-.32.31-.47.2-.3.41-.6.63-.9.04-.04.08-.09.11-.14.2-.26.41-.52.62-.78.5-.59,1.02-1.16,1.58-1.71.06-.06.13-.13.2-.19.14-.14.29-.27.43-.4.04-.03.07-.07.11-.1.01-.01.02-.02.03-.02.17-.16.35-.31.53-.46.12-.11.24-.21.36-.3.02-.02.05-.04.07-.05.2-.17.39-.32.59-.46.2-.16.39-.3.59-.44.01,0,.01,0,.02,0,.2-.15.42-.29.63-.43.11-.08.21-.15.32-.21.19-.13.39-.26.59-.37.01-.01.02-.01.03-.02.02-.01.03-.02.05-.03.2-.12.41-.24.62-.36.01-.01.02-.01.03-.02.19-.11.38-.21.58-.31.15-.08.29-.16.44-.23.03-.02.07-.03.1-.05.22-.12.45-.22.68-.33.03-.02.07-.03.1-.05.11-.05.23-.11.35-.16.25-.11.51-.23.77-.33.04-.02.08-.03.12-.05.37-.16.75-.31,1.14-.45.35-.13.7-.25,1.06-.36.3-.1.61-.2.93-.29.04,0,.09-.03.13-.04.31-.1.61-.19.93-.27,1.06-.28,2.17-.53,3.33-.73.58-.1,1.18-.19,1.78-.28.45-.06.91-.11,1.38-.16.46-.05.94-.09,1.42-.13.72-.06,1.47-.09,2.23-.12.08,0,.16-.01.25-.01.17-.01.33-.02.49-.02.51,0,1.03,0,1.54,0,.51.01,1.03.03,1.54.04.51.02,1.03.05,1.54.07,1.03.05,2.06.12,3.08.22.47.04.94.09,1.42.14.07.01.14.02.21.02.04,0,.09,0,.13.02.42.04.84.09,1.26.15.51.06,1.03.13,1.54.21,1.34.2,2.67.43,3.97.7.53.11,1.05.22,1.57.35.39.09.78.18,1.17.28.52.12,1.03.26,1.54.4.36.1.72.2,1.07.3.2.06.4.12.59.18.35.1.68.21,1.02.32.21.07.41.14.62.21.49.17.98.34,1.46.52.4.15.79.3,1.18.47.12.03.23.08.34.13.37.15.73.3,1.09.47.18.07.35.15.52.24.29.12.58.26.87.4.2.09.4.18.59.29.1.05.19.09.29.15.2.09.39.19.58.3.39.2.76.4,1.13.62.02.01.05.03.07.04.35.2.69.41,1.03.62.18.11.37.23.55.35.06.03.11.07.17.11.3.19.59.39.88.6.25.17.5.35.74.54.16.11.31.22.46.34.33.26.66.53.97.79.03.03.07.06.1.09.22.19.42.37.63.56.21.19.41.38.61.58.2.19.4.39.59.59.26.26.51.53.76.81.03.04.07.09.11.13.24.28.48.56.7.85.36.45.69.91,1.01,1.38,0,.01.01.01.02.02.19.28.37.58.56.88.28.46.54.93.78,1.41.2.39.39.79.56,1.2h0c.08.18.15.34.21.51.07.17.14.35.2.52.14.37.26.74.37,1.12.01.03.02.06.03.09.12.39.22.78.31,1.17.05.21.1.42.14.63.03.15.05.3.08.45.02.1.04.2.06.3.06.37.12.76.16,1.15.03.29.06.58.08.87.01.09.02.19.02.28.01.12.02.23.02.35.02.39.03.78.03,1.17,0,.49-.01.99-.03,1.48v.12c-.02.39-.04.76-.07,1.14-.01.24-.03.48-.06.72-.02.18-.03.36-.05.55,0,.18-.03.36-.06.54,0,.15-.03.31-.06.47-.03.22-.05.44-.09.67-.03.22-.06.44-.1.66,0,.08-.03.17-.04.25-.04.25-.09.51-.14.76Z"/>
</svg>