<?xml version="1.0" encoding="UTF-8"?>
<svg id="Layer_1" data-name="Layer 1" xmlns="http://www.w3.org/2000/svg" viewBox="0 0 318.12 376.82">
  <defs>
    <style>
      .cls-1, .cls-2, .cls-3, .cls-4, .cls-5, .cls-6, .cls-7, .cls-8, .cls-9, .cls-10, .cls-11 {
        stroke-width: 0px;
      }

      .cls-1, .cls-8, .cls-10 {
        fill-rule: evenodd;
      }

      .cls-1, .cls-9 {
        fill: #413e3e;
      }

      .cls-2, .cls-8 {
        fill: #000;
      }

      .cls-3, .cls-10 {
        fill: #dca188;
      }

      .cls-4 {
        fill: #4f52b0;
      }

      .cls-5 {
        fill: rgba(217, 217, 217, .25);
      }

      .cls-6 {
        fill: #d9d9d9;
      }

      .cls-7 {
        fill: #ce7979;
      }

      .cls-11 {
        fill: #e9bca9;
      }
    </style>
  </defs>
  <path class="cls-4" d="M318.12,217.91c0,38.33-13.55,73.49-36.13,100.95-17.75,21.58-41.07,38.41-67.76,48.28-.02,0-.04.02-.06.02-1.97.73-3.95,1.42-5.95,2.07-.02.01-.03.01-.05.02-14.69,3.67-27.39,5.93-39.38,6.94-1.23.1-2.45.19-3.67.28h-.09c-1.84.12-3.66.21-5.48.26-.61.02-1.21.04-1.82.05-1.21.03-2.42.04-3.62.04-.7,0-1.41-.01-2.12-.01-.04,0-.08,0-.12-.01h-.01c-21.07-.93-41.07-5.97-59.23-14.33-2.54-1.16-5.04-2.39-7.5-3.69-18.25-9.59-34.4-22.63-47.59-38.24C14.12,292.84,0,257.03,0,217.91s13.01-72.06,34.78-99.27h0c16.74-20.95,38.67-37.56,63.85-47.91,18.63-7.66,39.03-11.88,60.42-11.88,12.78,0,25.2,1.51,37.11,4.35,15.83,3.79,30.74,9.94,44.34,18.07h.01c1.57.93,3.11,1.89,4.64,2.88,22.4,14.45,40.89,34.33,53.71,57.82.01.01.01.03.01.04,12.27,22.56,19.24,48.42,19.24,75.9Z"/>
  <path class="cls-9" d="M281.99,318.86c-17.75,21.58-41.07,38.41-67.76,48.28v-.15s4.7-60.99,4.7-60.99l2.11-7.13c2.55-.97,9.45-1.85,16.63,2.38,6.41,3.77,28.97,12.65,44.32,17.61Z"/>
  <path class="cls-9" d="M92.63,362.47c-2.54-1.16-5.04-2.39-7.5-3.69-18.25-9.59-34.4-22.63-47.59-38.24,3.64-2.22,7.3-4.68,10.59-7.15,9.5-7.13,13.73-8.18,17.95-6.6,3.38,1.27,10.74,1.06,13.99.79l.08.23,3.62,10.6,8.86,44.06Z"/>
  <path class="cls-3" d="M177.22,97.45c-13.73,8.87-56.23,5.63-75.76,2.9-4.05-7.74-5.6-21.44,20.59-14.26,26.19,7.18,54.73-8.8,65.73-17.69,2.2,5.98,3.17,20.17-10.56,29.04Z"/>
  <path class="cls-3" d="M195.96,186.94c-2.29,5.63-2.74,16.89,13.73,16.89l-13.73-16.89Z"/>
  <path class="cls-11" d="M234.01,320.19l-19.77,46.8-.07.17c-1.97.73-3.95,1.42-5.95,2.07-.02.01-.03.01-.05.02-14.69,3.67-27.39,5.93-39.38,6.94-1.23.1-2.45.19-3.67.28h-.09c-1.84.12-3.66.21-5.48.26-.61.02-1.21.04-1.82.05-1.21.03-2.42.04-3.62.04-.7,0-1.41-.01-2.12-.01-.04,0-.08,0-.12-.01h-.01c-21.07-.93-41.07-5.97-59.23-14.33-2.54-1.16-5.04-2.39-7.5-3.69-11.41-15.41-17.17-25.46-20.82-37.78-.71-2.41.51-4.95,2.77-6.05,4.95-2.41,9.04-4.58,13.07-7.14,3.69-2.36,7.32-5.02,11.5-8.49,1.54-1.27,2.41-3.19,2.41-5.19v-26.41l2.14.08,40.24,1.42h.01l84.59,2.99v27.35c0,1.22.61,2.35,1.59,3.08,4.8,3.53,7.63,6.99,11.26,14.04.57,1.09.6,2.38.12,3.51Z"/>
  <path class="cls-10" d="M174.43,310.76c-.04,1.09-.83,5.39-3.81,17.15-2.49,9.81-1.58,21.06-.83,30.36.69,8.44,1.24,15.26-1,17.92-1.23.1-2.45.19-3.67.28h-.09c-1.84.11-3.67.2-5.48.26-.61.02-1.21.04-1.82.05-1.21.03-2.42.04-3.62.04-.7,0-1.41-.01-2.12-.01-.04,0-.08,0-.12-.01h-.01c-21.07-.93-41.07-5.97-59.23-14.33-2.54-1.16-5.04-2.39-7.5-3.69-11.41-15.41-17.17-25.46-20.82-37.78-.71-2.41.51-4.95,2.77-6.05,4.95-2.41,9.04-4.58,13.07-7.14,3.69-2.36,7.32-5.02,11.5-8.49,1.54-1.27,2.41-3.19,2.41-5.19v-32.89l42.38,7.98h.01l42.35,16.72-4.49,24.55c.08-.1.12-.04.12.27Z"/>
  <path class="cls-11" d="M252.19,167.39c-.36,11.42.76,25.88-5.15,40.92-.31,1.4-.9,2.81-1.25,4.22-9.7,41.45-35.31,98.99-67.25,97.94-66.75,6.33-110.5-66.59-107.44-133.05,0-74.02,28.4-134.69,79.77-138.17,3.11-.21,6.27-.6,9.3-1.31,72.69-17.16,95.09,31.85,92.02,129.45Z"/>
  <path class="cls-7" d="M136.83,224.91c-1.9,2.11-8.54,5.1-11.62,6.34l4.22,3.96,16.37,7.39,14.52,2.9,12.41-1.85,15.05-6.34,6.6-6.07-1.85-1.58c-1.14-.88-4.07-3.06-6.6-5.81-3.17-3.43-12.67-5.81-17.42-1.58-4.75,4.22-11.09,1.06-16.1-1.32-5.01-2.38-13.2,1.32-15.57,3.96Z"/>
  <path class="cls-3" d="M152.4,252.67c4.58,6.25,16.05,14.68,25.34-1.58-3.08,1.76-12.46,4.54-25.34,1.58Z"/>
  <path class="cls-3" d="M116.24,203.84c-1.94-5.54-1.9-16.89,13.73-17.95l-13.73,17.95Z"/>
  <path class="cls-3" d="M145.8,175.59c-7.6-7.6-6.86-13.73-5.54-15.84-6.07,8.45-7.39,23.23-6.86,28.77.53,5.54,5.02,7.13,8.71,1.32,3.7-5.81,5.28-5.81,13.99,3.7,6.97,7.6,12.23,2.82,13.99-.53,1.58-17.69-14.78-7.92-24.29-17.42Z"/>
  <path class="cls-3" d="M208.37,155.53c33.16-5.91,19.62-21.65,8.71-28.77,5.28-2.11,22.44,1.58,21.12,18.48-1.06,13.52-20.33,12.49-29.83,10.29Z"/>
  <path class="cls-3" d="M193.85,138.37c.85-12.04,11.62-13.99,16.9-13.46-11.35-1.85-33.58-1.74-31.68,13.46,1.9,15.21,19.97,17.77,28.77,17.16-5.02-.7-14.84-5.12-13.99-17.16Z"/>
  <path class="cls-3" d="M208.1,228.65c-2.19-2.02-7.82-.93-12.24.48-.98.31-.94,1.81-.05,2.31,6.33,3.52,9.47,11.76,13.61,11.99,4.75.26,2.11-11.62-1.32-14.78Z"/>
  <path class="cls-3" d="M116.5,229.18c2.24-1.03,5.8-.03,8.13.95.68.28.8,1.17.27,1.68-2.85,2.76-6.64,6.66-9.2,5.03-2.9-1.85-2.64-6.07.79-7.66Z"/>
  <path class="cls-3" d="M152.4,203.04c-1.15-5.94-6.73-9.14-10.12-10.27-.54-.18-.88-.72-.72-1.26.79-2.71,2.88-6.48,6.62-5.36,5.15,1.54,9.54,18.89,23.45,7.29.55-.46,1.4-.29,1.68.37,3.67,8.93,3.7,19.04-5.86,25.07-10.03,6.34-13.46-7.65-15.05-15.84Z"/>
  <path class="cls-3" d="M124.16,146.02c-4.22,11.62-18.13,14.17-24.55,13.99,35.11,4.75,36.96-12.41,35.37-21.12-1.58-8.71-25.08-22.44-41.45-6.86-13.09,12.46-5.46,20.68,0,23.23,3.43-36.69,35.9-23.76,30.62-9.24Z"/>
  <path class="cls-6" d="M133.48,142.17c-15.21-10.18-33.17-2.15-41.67,4.14-.65.48-.49,1.47.28,1.73,17.39,5.82,33.94.1,41.35-4.21.63-.37.65-1.26.04-1.66Z"/>
  <path class="cls-8" d="M133.92,141.51c-3.63-2.43-7.4-3.84-11.17-4.51-4.36-.78-8.7-.55-12.78.28-4.94,1.01-9.52,2.91-13.3,5-2.03,1.1-3.83,2.27-5.34,3.39-1.18.87-.86,2.66.51,3.12.85.28,1.7.54,2.54.77,10.48,2.88,20.5,1.8,28.29-.43h.01c4.64-1.32,8.47-3.05,11.15-4.61,1.15-.67,1.17-2.28.09-3.01ZM133.04,143.15c-2.3,1.33-5.51,2.81-9.35,4.02-1.05.34-2.14.65-3.28.93-3.63.91-7.7,1.53-12.03,1.61h-.01c-4.35.08-8.95-.4-13.64-1.7-.8-.21-1.59-.45-2.39-.72-.09-.03-.14-.1-.15-.16,0-.04,0-.07.01-.1.01-.02.03-.05.07-.08,1.02-.76,2.18-1.54,3.46-2.31,2.67-1.61,5.84-3.18,9.33-4.37h.01c1.67-.58,3.42-1.07,5.21-1.43,3-.62,6.11-.89,9.26-.66h.01c1.43.11,2.86.32,4.29.65,3.11.72,6.21,2,9.2,4,.13.08.11.25,0,.32Z"/>
  <path class="cls-6" d="M225.98,143.7c-13.26-12.62-32.32-7.75-41.77-2.99-.73.37-.73,1.37-.01,1.75,16.15,8.68,33.43,5.86,41.46,2.87.69-.26.86-1.13.33-1.63Z"/>
  <path class="cls-8" d="M226.53,143.13c-6.82-6.49-15.13-8.47-22.89-8.23-3.32.1-6.54.61-9.52,1.35-3.98.98-7.52,2.37-10.26,3.75-1.32.66-1.3,2.48-.04,3.16,3.98,2.14,8.02,3.59,11.97,4.51,12.39,2.92,23.96.71,30.14-1.59,1.25-.47,1.55-2.05.6-2.95ZM225.38,144.59c-3.79,1.41-9.68,2.79-16.55,2.89h-.01c-4.2.06-8.77-.35-13.45-1.54h-.01c-.16-.03-.31-.07-.47-.12-3.42-.89-6.9-2.21-10.32-4.05-.08-.05-.11-.12-.11-.18,0-.04,0-.07.02-.1.01-.02.04-.05.09-.07,2.51-1.27,5.72-2.54,9.32-3.48.53-.14,1.06-.27,1.6-.39,2.6-.59,5.37-.98,8.2-1.07,1.93-.06,3.88.02,5.83.29h.01c5.59.74,11.14,2.96,15.91,7.51.11.11.07.26-.06.31Z"/>
  <path class="cls-2" d="M123.73,142.79c.32,3.56-4.06,6.87-9.8,7.39-5.73.52-10.64-1.94-10.97-5.5-.32-3.56,4.06-6.87,9.8-7.39,5.73-.52,10.64,1.94,10.97,5.5Z"/>
  <path class="cls-2" d="M213.78,142.13c-.08,3.57-4.81,6.37-10.56,6.24-5.76-.13-10.36-3.12-10.28-6.7.08-3.57,4.81-6.37,10.56-6.24,5.76.13,10.36,3.12,10.28,6.7Z"/>
  <path class="cls-8" d="M107.74,126.59c-6.94,1.72-12.97,5.95-16.55,9.44-.31.31-.81.3-1.12-.01-.31-.31-.3-.82.01-1.12,3.72-3.63,9.99-8.04,17.28-9.85,7.33-1.81,15.68-.99,23.4,5.86.33.29.36.79.07,1.12-.29.33-.79.36-1.12.07-7.27-6.45-15.07-7.21-21.97-5.51Z"/>
  <path class="cls-8" d="M225.56,130.95c-1.95-1.98-4-3.52-6.11-4.69h-.02c-8.15-4.53-17.02-3.62-23.03-2.02h-.04s-.01,0-.02.01c-1.47.39-2.76.82-3.83,1.23-.41.16-.61.62-.46,1.02.16.41.61.62,1.02.47,3.65-1.38,9.8-3.04,16.37-2.26.2.02.39.05.59.08.23.03.47.07.71.11,2.25.37,4.53,1.05,6.76,2.13,2.4,1.16,4.74,2.8,6.93,5.03.31.31.81.32,1.12.01.32-.31.32-.81.01-1.12ZM191.1,178.06c-1.36-3.83-3.59-7.14-4.52-8.47-.67-.96-1.5-2.89-2.28-5-.61-1.67-1.17-3.39-1.57-4.7-.09-.32-.18-.62-.26-.89-.13-.42-.57-.66-.98-.54t-.02.01c-.41.13-.65.56-.52.97.4,1.38,1.09,3.58,1.87,5.7.77,2.09,1.65,4.21,2.46,5.36.92,1.31,3.04,4.47,4.32,8.09,1.3,3.66,1.65,7.54-.61,10.51-1.23,1.62-2.15,2.38-2.79,2.65-.3.13-.51.14-.66.11-.15-.03-.31-.11-.48-.27-.36-.36-.68-1-.95-1.87-.26-.84-.44-1.79-.57-2.63-.15-1-.59-1.9-1.56-2.26-.9-.33-1.97-.08-3.1.48-2.08,1.02-4.96,3.39-8.76,7.3-.37.38-.75.77-1.13,1.18-2.09,2.21-3.93,2.99-5.53,3.04-1.61.04-3.14-.67-4.6-1.8-1.46-1.13-2.77-2.63-3.95-4.03-.17-.2-.34-.41-.51-.61-.39-.47-.77-.93-1.12-1.33-.5-.57-.99-1.08-1.46-1.43-1.62-1.22-3.54-2.23-5.5-2.04-2.05.21-3.82,1.68-5.2,4.72-.6,1.32-1.39,2.07-2.17,2.38-.76.31-1.58.25-2.37-.22-1.62-.97-3.18-3.77-2.92-8.66.42-7.92,2.61-14.76,3.63-17.15.14-.34.04-.72-.24-.93-.05-.05-.11-.08-.17-.11-.41-.17-.87.02-1.04.42-1.09,2.54-3.33,9.56-3.76,17.69-.27,5.15,1.34,8.69,3.68,10.09,1.19.72,2.54.85,3.79.34.83-.34,1.57-.95,2.19-1.78.31-.41.59-.89.83-1.41.51-1.12,1.04-1.94,1.58-2.52.78-.86,1.58-1.21,2.33-1.28,1.34-.14,2.84.56,4.39,1.72.3.23.65.58,1.08,1.06.05.05.09.11.14.16.33.38.69.81,1.08,1.28.17.2.35.41.53.63,1.18,1.4,2.58,3.01,4.19,4.26s3.49,2.18,5.62,2.13c2.14-.06,4.36-1.12,6.63-3.53.33-.35.65-.69.96-1.01h.01c1.54-1.6,2.89-2.9,4.09-3.96,1.81-1.6,3.26-2.63,4.38-3.18,1.02-.5,1.58-.51,1.85-.42.19.08.44.29.55,1.02.09.63.22,1.33.39,2.04.07.28.14.55.22.82.29.93.71,1.9,1.37,2.53.34.34.77.6,1.28.69.51.1,1.05.02,1.58-.2,1.03-.44,2.16-1.47,3.44-3.15,2.75-3.63,2.18-8.19.84-12Z"/>
  <path class="cls-8" d="M129.82,151.37c.25.36.17.85-.19,1.1-5.26,3.72-12.6,5.05-19.48,5.28-6.9.23-13.47-.65-17.31-1.46-.43-.09-.7-.51-.61-.94.09-.43.51-.7.94-.61,3.73.78,10.18,1.64,16.93,1.42,6.78-.22,13.74-1.53,18.61-4.99.36-.25.85-.17,1.1.19Z"/>
  <path class="cls-8" d="M186.28,150.15c.2-.39.68-.54,1.07-.34,2.81,1.45,8.05,3.14,14.16,4.08,6.1.94,12.98,1.1,19.07-.45.42-.11.85.15.96.57s-.15.85-.57.96c-6.37,1.62-13.48,1.43-19.7.48-6.22-.96-11.64-2.69-14.64-4.24-.39-.2-.54-.68-.34-1.07Z"/>
  <path class="cls-2" d="M151.77,190.64c-3.03,4.12-6.08.88-7.51-1.78-.2-.36-.14-.81.16-1.1,2.97-2.94,5.95-.33,7.38,1.8.22.33.21.76-.02,1.07Z"/>
  <path class="cls-2" d="M182.93,188.48c-1.48,3.11-5.09,2.59-7.4,1.68-.64-.25-.76-1.06-.27-1.54,5.42-5.28,7.53-2.72,7.75-.59.02.15-.01.31-.08.45Z"/>
  <path class="cls-9" d="M247.33,139.96c-9.96-32.73-50.01-28.14-71.45-20.9-.89.3-1.69-.58-1.22-1.39,5.59-9.76,21.29-23.48,48.49-15.46,26.45,7.8,28.74,26.62,26.1,37.8-.24,1.02-1.62.96-1.92-.04Z"/>
  <path class="cls-9" d="M137.18,120.64c-22.05-19.17-52.69-3.47-70.39,10.02-.74.57-1.76-.01-1.56-.92,2.5-11.03,15.25-29.12,43.62-30.18,28.39-1.06,30.34,9.94,30.16,20.32-.01.92-1.14,1.36-1.83.76Z"/>
  <path class="cls-8" d="M148.47,232.05c-13.5-4.15-23.72-.49-27.04,1.75-.36.25-.85.15-1.1-.21-.25-.36-.15-.85.21-1.1,3.72-2.51,14.44-6.24,28.4-1.95,8.5,2.61,14.66,3.06,19.4,2.64,4.07-.36,7.1-1.36,9.74-2.22.43-.14.86-.28,1.28-.41,2.46-.78,6.06-.93,9.46-.82,3.44.11,6.79.48,8.85.79.43.07.73.47.66.9-.07.43-.47.73-.9.66-2-.3-5.29-.67-8.66-.78-3.39-.11-6.75.05-8.93.75-.4.13-.81.26-1.24.41-2.64.87-5.85,1.92-10.11,2.3-4.97.44-11.34-.04-20-2.7Z"/>
  <path class="cls-8" d="M125.15,231.29c.29-.33.79-.36,1.12-.07,5.62,4.97,15.78,10.97,27.9,12.71,12.09,1.74,26.15-.73,39.69-12.71.33-.29.83-.26,1.12.07.29.33.26.83-.07,1.12-13.91,12.31-28.45,14.89-40.96,13.09-12.47-1.8-22.91-7.95-28.72-13.09-.33-.29-.36-.79-.07-1.12Z"/>
  <path class="cls-8" d="M178.23,221.55c-2.6-.25-4.85.2-6.2.9-.32.16-.64.35-.98.54-1.17.66-2.49,1.39-4.05,1.77-2.08.51-4.59.41-8.01-.96-6.52-2.6-11.99-3.29-17.18-.06-4.43,2.76-11.8,6.63-14.92,8.21-.39.2-.87.04-1.06-.35-.2-.39-.04-.87.35-1.06,3.12-1.58,10.43-5.42,14.8-8.14,5.82-3.63,11.91-2.73,18.6-.06,3.18,1.27,5.35,1.3,7.05.89,1.34-.33,2.4-.92,3.54-1.55.37-.21.74-.41,1.13-.62,1.68-.88,4.25-1.35,7.08-1.08,2.85.28,6.02,1.31,8.9,3.52,1.41,1.08,2.5,2.07,3.41,2.95.3.28.57.55.83.8.55.54,1.03,1,1.51,1.42.69.6,1.32,1.03,2.04,1.32.72.29,1.58.46,2.74.46.44,0,.79.35.79.79s-.35.79-.79.79c-1.32,0-2.39-.19-3.33-.58-.94-.38-1.72-.94-2.48-1.6-.51-.45-1.05-.97-1.62-1.52-.25-.25-.51-.5-.78-.76-.89-.85-1.93-1.8-3.28-2.84-2.62-2.01-5.51-2.95-8.09-3.2Z"/>
  <path class="cls-8" d="M178.49,251.09c.14.41-.07.87-.49,1.01-9.28,3.24-21.22,2.06-26.03,1.08-.43-.09-.71-.51-.62-.93.09-.43.51-.7.93-.62,4.7.96,16.3,2.07,25.19-1.03.41-.14.87.07,1.01.49Z"/>
  <path class="cls-8" d="M195.2,185.27c.34-.28.84-.23,1.11.11,1.94,2.38,4.95,6.15,7.7,9.72,2.72,3.54,5.23,6.97,6.12,8.62.21.39.06.86-.33,1.07-.39.21-.87.06-1.07-.33-.81-1.51-3.22-4.82-5.98-8.4-2.73-3.56-5.74-7.31-7.67-9.68-.28-.34-.23-.84.11-1.11Z"/>
  <path class="cls-8" d="M129.94,185.27c-.34-.28-.84-.23-1.11.11-1.94,2.38-4.95,6.15-7.7,9.72-2.72,3.54-5.23,6.97-6.12,8.62-.21.39-.06.86.33,1.07.39.21.86.06,1.07-.33.81-1.51,3.22-4.82,5.98-8.4,2.73-3.56,5.74-7.31,7.67-9.68.28-.34.22-.84-.11-1.11Z"/>
  <path class="cls-3" d="M148.71,134.41c0,3.34-2.89,9.82-4.64,13.26.82-3.98-.11-11.91-.82-16.17-.05-.33.05-.67.29-.9,8.28-8.19,21.81-5.91,28.49-3.43.54.2.79.81.63,1.37-1.69,5.76.7,14.46,2.19,18.28-1.76-4.4-6.12-14.04-9.5-17.42-4.22-4.22-16.63.53-16.63,5.01Z"/>
  <path class="cls-8" d="M171.87,128.53c-14.01-6.39-24.13-.85-27.9,2.76-.32.3-.82.29-1.12-.02-.3-.32-.29-.82.03-1.12,4.15-3.96,14.94-9.76,29.65-3.05.4.18.57.65.39,1.05-.18.4-.65.57-1.05.39Z"/>
  <path class="cls-9" d="M74.53,230.5c2.49,6.15,5.91,11.5,8.2,14.61.56.76,1.65.41,1.62-.53-.22-7.49-3.1-21.34-8.23-36.52-6.07-17.95-6.53-36.11-2.38-53.33,4.13-17.1-2.15-28.24,10.56-43.82,14.42-17.69,26.4-16.1,77.08-17.95,39.16-1.43,37.81-35.14,31.81-53.53-.26-.81.49-1.6,1.31-1.36,54.63,16,58.72,90.09,56.11,97.66-2.64,7.66-4.22,18.21-1.85,24.02,2.38,5.81,6.33,21.91-2.38,36.43-6.33,10.56-4.06,20.03-3.13,23.64.13.52.63.87,1.15.78,7.22-1.22,17.75-7.75,20.99-18.88,4.22-14.52,7.39-15.31,25.87-34.32,18.48-19.01-2.11-60.98-2.9-79.19-.29-6.61-1.71-11.15-3.46-14.19-.62-1.08.87-4.57,2.1-4.75,4.5-.68,8.95-2.49,11.39-3.76-20.98,8.76-57.72-21.23-75.22-39-.67-.68-.14-1.82.82-1.76l7.27.42c1.3.07,1.41-.5.17-.89-14.93-4.62-31.46-17.1-45.49-22.39-14.42-5.44-26.76,2.13-31.28,6.72-.09.09-.19.17-.32.21-1.46.45-6.81.2-18.3-4.03-10.09-3.72-17.54-.15-21.25,3.17-.7.63-.13,1.69.8,1.81,2.76.38,3.87,2.15,4.08,3.2C68.19,28.02,29.39,113.29,27.8,152.36c-1.58,39.07,42.77,68.37,46.73,78.14Z"/>
  <path class="cls-5" d="M143.69,140.22c.2,19.54-15.09,39.07-36.96,39.07s-37.49-19.27-37.49-38.81,23.01-27.72,44.88-27.72c21.72.53,29.43,13.69,29.57,27.45Z"/>
  <path class="cls-1" d="M143.57,131.5c-.06-.23-.13-.44-.2-.66h0c-.08-.31-.18-.6-.28-.89-1.1-3.3-2.81-6.39-5.24-9.05-.02-.03-.05-.05-.07-.08-4.9-5.34-12.55-8.84-23.63-9.11h-.03c-.36,0-.73,0-1.09.01h-.14c-.41,0-.82.01-1.23.03-.22,0-.42.01-.63.02h-.04c-10.04.35-20.13,2.43-28,6.59-1.77.94-3.44,1.99-4.97,3.15-.37.28-.73.56-1.08.85h-.01c-1.35,1.14-2.56,2.35-3.64,3.67h0c-3.19,3.92-5.09,8.71-5.09,14.45s1.28,11.33,3.64,16.53c.3.67.63,1.34.97,2,6.3,12.16,18.61,21.33,33.93,21.33,19.77,0,34.24-15.46,37.38-32.75.45-2.44.66-4.92.64-7.39-.03-2.95-.4-5.89-1.18-8.7ZM106.73,179.29c-.48,0-.95-.01-1.42-.03-.31-.01-.61-.02-.91-.05-.24,0-.47-.03-.7-.05-.04,0-.08,0-.11-.01-.19,0-.37-.03-.55-.05-.18-.02-.36-.04-.55-.06-.42-.04-.83-.1-1.25-.16-.07-.01-.14-.02-.2-.04-.27-.04-.54-.08-.8-.14-.15-.02-.3-.05-.45-.08-.15-.03-.29-.06-.44-.09-.05,0-.1-.02-.15-.03-.3-.06-.6-.13-.9-.21-.4-.09-.79-.19-1.17-.3-.36-.1-.72-.2-1.07-.31-.36-.11-.72-.23-1.08-.36-.24-.08-.48-.17-.72-.26-.31-.11-.62-.23-.93-.36-.41-.16-.81-.34-1.21-.52-.41-.18-.8-.36-1.2-.56-.16-.08-.32-.16-.48-.24-.15-.08-.31-.16-.47-.24-.57-.3-1.13-.62-1.68-.95-.1-.06-.2-.12-.3-.18-.06-.04-.12-.08-.18-.12-.11-.06-.21-.13-.31-.19-.36-.23-.71-.46-1.06-.7-.4-.27-.79-.55-1.18-.84-.32-.24-.63-.48-.94-.73-.34-.26-.68-.54-1.01-.82-.31-.26-.61-.53-.91-.8-.02-.02-.04-.04-.06-.06-.29-.26-.57-.52-.85-.8-.36-.35-.72-.71-1.07-1.07-.04-.04-.07-.08-.11-.12-.39-.4-.77-.82-1.13-1.24-.21-.23-.41-.46-.6-.7-.22-.26-.44-.53-.65-.8-.27-.34-.53-.68-.79-1.02h0c-.23-.32-.45-.64-.67-.95-.31-.44-.61-.89-.89-1.34-.21-.31-.4-.63-.59-.95-.05-.09-.11-.18-.17-.28-.06-.09-.11-.18-.16-.28-.11-.18-.22-.37-.32-.56-.42-.75-.82-1.51-1.19-2.29h0s-.01-.03-.02-.04c-.2-.43-.39-.86-.58-1.29-.18-.41-.36-.82-.52-1.23-.01-.01-.01-.03-.02-.04h0s-.01-.04-.02-.06c-.2-.51-.39-1.02-.56-1.53-.09-.26-.19-.53-.27-.8-.09-.26-.17-.53-.25-.8-.11-.37-.22-.75-.32-1.13-.05-.18-.1-.37-.15-.56-.01-.04-.02-.07-.03-.11-.02-.07-.03-.14-.05-.21-.1-.41-.19-.83-.28-1.25-.04-.19-.08-.38-.12-.57-.07-.37-.14-.75-.2-1.12-.06-.38-.12-.75-.17-1.13-.04-.3-.08-.6-.11-.91-.02-.14-.04-.29-.05-.43-.03-.31-.06-.61-.08-.92-.04-.6-.07-1.19-.09-1.79-.01-.31-.01-.63-.01-.95,0-.39.01-.78.03-1.17,0-.12,0-.23.02-.35,0-.09.01-.19.02-.28.02-.29.05-.58.08-.87.04-.39.1-.78.16-1.15.02-.1.04-.2.06-.3.02-.15.05-.3.08-.45.04-.21.09-.42.14-.63.09-.39.19-.78.31-1.17,0-.03.02-.06.03-.09.11-.38.23-.75.37-1.12.07-.18.13-.35.2-.52.06-.17.13-.33.21-.5h0c.17-.42.36-.82.56-1.21.24-.49.5-.96.78-1.42.14-.23.28-.45.43-.68.29-.45.61-.89.94-1.32.23-.31.48-.61.73-.9t.02-.02c.19-.23.4-.47.61-.69.21-.23.43-.47.66-.69.01-.02.02-.03.04-.05.03-.03.07-.07.1-.1.2-.2.39-.39.6-.57.04-.04.07-.08.11-.11h.01c.2-.19.4-.37.6-.54t.02-.01l.02-.02c.06-.06.13-.13.19-.17.29-.24.58-.49.88-.72.25-.2.5-.39.76-.58.09-.06.17-.12.26-.19,0,0,0-.01.02-.01.27-.2.55-.39.83-.58.33-.22.66-.43.99-.64.34-.21.68-.42,1.02-.62.35-.2.7-.39,1.05-.58.24-.13.48-.26.72-.38.26-.14.53-.27.8-.4.22-.11.44-.22.67-.32.37-.18.75-.35,1.13-.51.17-.07.35-.15.52-.22.17-.07.35-.15.52-.21h.01c.09-.05.19-.09.28-.12.32-.13.64-.25.96-.38.41-.15.81-.3,1.23-.43,0-.01.03-.02.04-.02.28-.1.57-.2.86-.29.09-.03.18-.06.28-.09.23-.07.46-.15.7-.22.23-.07.47-.15.71-.21.25-.08.51-.16.77-.23.05-.01.11-.03.16-.04.45-.13.91-.25,1.37-.36.02,0,.05-.02.08-.02t.02-.01s.05-.01.08-.02c.01-.01.02-.01.03-.01h.01s.03-.01.04-.01.02,0,.03,0c.04,0,.07-.01.11-.02.53-.14,1.06-.26,1.6-.38.23-.05.47-.1.71-.15.46-.1.92-.19,1.38-.27.36-.07.72-.14,1.08-.2.49-.09.98-.17,1.47-.24.17-.03.35-.05.53-.08.69-.1,1.39-.19,2.1-.27.36-.05.72-.09,1.09-.12.31-.04.62-.07.94-.09.5-.05,1-.1,1.5-.13.17-.02.33-.03.5-.04.6-.04,1.19-.07,1.79-.1.62-.03,1.24-.06,1.86-.07.75-.02,1.5-.03,2.25-.03,21.72.54,29.43,13.7,29.57,27.46.2,19.53-15.09,39.07-36.96,39.07Z"/>
  <path class="cls-5" d="M172.73,132.56c-.2,19.54,16.94,39.33,38.81,39.33s36.69-18.48,36.69-38.01-23.01-27.72-44.88-27.72c-21.72.54-30.48,12.64-30.62,26.4Z"/>
  <path class="cls-1" d="M234.49,111.76c-8.69-4.59-20.09-6.65-31.13-6.65h-.03c-11.05.27-18.95,3.49-24.12,8.54-1.66,1.63-3.03,3.43-4.12,5.37-1.39,2.46-2.33,5.14-2.86,7.94-.02.09-.04.19-.05.28h-.01c-.07.44-.14.88-.2,1.32-.18,1.31-.27,2.64-.29,3.99-.04,3.33.43,6.67,1.3,9.92h0s.01.03.01.04t.01.02c1.58,5.76,4.51,11.25,8.47,15.94.41.48.83.96,1.26,1.42,7.2,7.81,17.37,13.06,28.81,13.06,19.97,0,34.18-14.94,37.16-32.28h0c.39-2.24.59-4.51.59-6.79,0-10.27-6.09-17.51-14.8-22.12ZM247.52,141.24c-.04.26-.1.52-.15.77-.02.06-.03.12-.04.19-.11.47-.22.95-.34,1.42-.04.17-.09.34-.13.51-.02.07-.03.13-.05.2-.08.28-.16.56-.25.83-.12.41-.25.81-.38,1.21l-.18.54c-.11.29-.21.58-.32.87-.04.1-.07.19-.11.28-.06.15-.11.3-.17.44-.01.03-.03.07-.04.1-.01.02-.02.05-.03.07-.03.09-.07.18-.11.26-.04.11-.09.22-.14.33-.06.15-.13.31-.2.46-.1.24-.21.48-.32.71-.02.06-.05.12-.08.17-.11.25-.23.5-.36.75-.01.04-.03.07-.05.11-.09.17-.17.34-.26.5-.09.17-.17.34-.27.51-.08.16-.16.32-.25.47-.18.32-.36.64-.55.96-.27.46-.55.91-.83,1.35-.29.45-.59.88-.9,1.32-.03.05-.07.11-.11.16-.27.38-.55.75-.83,1.11-.16.21-.33.42-.49.62-.17.21-.34.42-.51.62-.32.38-.65.76-.98,1.13-.03.02-.05.04-.06.06-.3.33-.6.65-.92.96-.02.03-.05.06-.08.09-.02.02-.04.04-.06.06l-.12.12c-.35.35-.71.69-1.07,1.02-.2.18-.39.36-.59.53-.21.19-.42.38-.64.55-.19.16-.39.32-.58.48-.29.23-.58.46-.88.68-.11.09-.22.17-.33.25-.31.23-.63.46-.96.68-.37.26-.75.51-1.13.75s-.77.47-1.16.7c-.19.11-.37.22-.56.32-.46.25-.91.5-1.38.73-.12.06-.25.12-.37.18-.71.34-1.44.66-2.18.96-.53.21-1.07.42-1.61.6-.26.09-.53.18-.79.26-.4.13-.8.25-1.2.36-.4.11-.81.22-1.22.32-.55.14-1.1.26-1.66.36-.03.01-.05.01-.08.02-.23.05-.46.09-.69.12-.23.04-.47.07-.7.11-.39.06-.79.12-1.19.16-.26.03-.51.06-.77.08-.19.02-.39.04-.58.05-.25.02-.5.04-.75.06-.74.04-1.48.06-2.24.06-21.87,0-39.01-19.79-38.81-39.33.01-.43.02-.86.04-1.28.02-.35.04-.7.07-1.04,0-.1.02-.21.03-.31.03-.34.06-.68.11-1.01.02-.18.05-.36.08-.54.03-.22.06-.44.1-.66.03-.2.07-.41.12-.61,0-.05.02-.09.02-.14.03-.14.05-.28.08-.41.01-.05.03-.11.04-.16.02-.12.05-.24.08-.35.02-.12.06-.23.09-.35,0-.02,0-.04,0-.06.07-.27.14-.53.21-.79.07-.23.14-.47.21-.7.01-.04.02-.07.04-.11.05-.17.11-.33.17-.5.07-.23.15-.46.24-.68.06-.18.14-.36.21-.54.06-.16.13-.32.2-.47.08-.2.17-.39.26-.59.01-.02.02-.05.03-.07.24-.52.5-1.03.78-1.53.15-.26.3-.52.45-.77.14-.23.28-.45.42-.67.17-.25.33-.5.51-.74.13-.19.27-.38.42-.57.28-.37.57-.73.87-1.08.07-.08.14-.17.21-.25.02-.02.04-.05.06-.07.02-.02.04-.04.06-.06.13-.14.25-.27.38-.4.18-.2.38-.4.57-.59.14-.13.27-.26.41-.39.11-.11.23-.22.35-.32.15-.14.31-.28.47-.41.23-.2.47-.4.72-.59.13-.09.25-.19.37-.28.12-.1.25-.19.38-.28.19-.15.38-.29.57-.42.01,0,.01-.01.02-.01.28-.19.57-.39.87-.57.12-.07.23-.14.35-.22.01,0,.03-.01.04-.02.25-.15.51-.3.77-.45.3-.16.61-.33.92-.48.12-.06.24-.12.36-.18s.24-.12.37-.18c.28-.14.56-.27.85-.39.18-.08.36-.16.54-.23.33-.14.66-.27,1-.39.16-.06.33-.13.5-.18.38-.14.76-.27,1.16-.4.47-.15.96-.29,1.45-.42.05,0,.09-.03.14-.04.4-.11.8-.2,1.21-.29.05-.02.11-.03.16-.04.35-.08.71-.16,1.08-.23.36-.07.72-.14,1.1-.21h.01c.48-.08.96-.15,1.46-.22.07-.01.13-.02.19-.03.4-.05.81-.1,1.22-.14.3-.03.6-.06.91-.09.35-.03.7-.06,1.06-.09.06,0,.12-.01.19-.01.2-.01.4-.02.61-.03.09-.01.19-.01.28-.02.45-.02.91-.04,1.37-.05h.14c.42,0,.84,0,1.26.01.29.01.58.01.86.02h.11c.56.02,1.12.04,1.68.07.7.03,1.4.07,2.1.12.65.04,1.3.1,1.94.16.06,0,.12.01.18.02.55.05,1.09.11,1.63.17.21.02.42.05.63.08.57.07,1.15.15,1.72.23.67.1,1.34.21,2,.33.66.11,1.32.23,1.97.37.65.13,1.31.27,1.95.43.65.15,1.29.31,1.92.48,1.27.34,2.51.72,3.71,1.13.55.18,1.1.38,1.64.58.09.04.17.07.26.1.52.2,1.04.41,1.55.63.03.01.07.03.1.05.1.04.21.09.31.13.46.19.91.4,1.35.61.54.25,1.07.52,1.58.79.01.01.03.01.04.02.41.21.81.44,1.21.67.37.22.74.44,1.1.66.2.12.39.24.57.36.24.15.46.3.69.46.27.18.53.37.79.56.15.11.3.22.45.34.26.19.52.39.77.6.3.24.59.48.87.73.21.18.41.36.61.56.18.16.36.33.52.5.41.4.8.81,1.17,1.23.38.42.73.85,1.07,1.29.33.43.65.87.94,1.32.15.23.29.45.43.68.28.46.54.93.78,1.42.2.39.39.79.56,1.2h0c.08.18.15.34.21.51.07.17.13.34.2.52.14.37.26.74.37,1.12.01.03.02.06.03.09.12.39.22.78.31,1.17.05.21.1.42.14.63.03.15.06.3.08.45.02.1.04.2.06.3.06.37.12.76.16,1.15.03.29.06.58.08.87.01.09.02.19.02.28.01.12.02.23.02.35.02.39.03.78.03,1.17,0,.49-.01.99-.03,1.48v.12c-.02.39-.04.76-.07,1.14-.01.24-.03.48-.06.72-.03.36-.07.73-.11,1.09-.02.15-.04.3-.06.46-.07.53-.15,1.06-.24,1.59-.04.26-.09.51-.14.76Z"/>
</svg>