<?xml version="1.0" encoding="UTF-8"?>
<svg id="Layer_1" data-name="Layer 1" xmlns="http://www.w3.org/2000/svg" viewBox="0 0 1002 1002">
  <defs>
    <style>
      .cls-1 {
        opacity: .25;
      }

      .cls-2 {
        fill: none;
        stroke: #787879;
        stroke-miterlimit: 10;
        stroke-width: 2px;
      }
    </style>
  </defs>
  <g id="Logomark" class="cls-1">
    <g id="Rocket">
      <path class="cls-2" d="M864.06,554.56c-8.01,8.01-18.61,12.55-30.65,13.13-74.05,3.56-138.62,30.87-186.74,78.99-48.12,48.12-75.43,112.69-78.99,186.74-.58,12.04-5.12,22.64-13.13,30.65-9.87,9.87-23.37,14.22-38.01,12.24l-370.18-49.92c-23.9-3.22-43.59-22.91-46.81-46.81L1.47,52.17C-.52,37.35,3.85,23.72,13.78,13.78,23.72,3.85,37.35-.52,52.17,1.47l727.41,98.08c23.9,3.22,43.59,22.91,46.81,46.82l49.92,370.18c1.98,14.64-2.37,28.14-12.24,38.01Z"/>
    </g>
    <g id="Fire">
      <rect class="cls-2" x="727.59" y="727.59" width="273.41" height="273.41" rx="30.53" ry="30.53"/>
    </g>
  </g>
</svg>