<svg width="290" height="52" viewBox="0 0 290 52" fill="none" xmlns="http://www.w3.org/2000/svg">
<circle cx="22.5694" cy="26.0001" r="22.5694" fill="#5053B1"/>
<ellipse cx="22.5694" cy="26.0001" rx="22.5694" ry="14.4444" fill="#50B182"/>
<circle cx="13.7798" cy="26.0001" r="7.22222" fill="white"/>
<path d="M72.5947 28.384C71.5067 28.384 70.504 28.1707 69.5867 27.744C68.6907 27.296 67.9653 26.624 67.4107 25.728H67.1867L66.8347 28H63.1867V4.864H67.6347V13.024H67.8267C68.168 12.5333 68.584 12.1173 69.0747 11.776C69.5653 11.4347 70.12 11.1893 70.7387 11.04C71.3573 10.8693 72.0293 10.784 72.7547 10.784C74.0773 10.784 75.2293 11.0933 76.2107 11.712C77.2133 12.3307 77.992 13.2907 78.5467 14.592C79.1013 15.872 79.3787 17.5253 79.3787 19.552C79.3787 21.5787 79.1013 23.2427 78.5467 24.544C78.0133 25.8453 77.2347 26.816 76.2107 27.456C75.208 28.0747 74.0027 28.384 72.5947 28.384ZM71.2187 24.736C72.1147 24.736 72.8187 24.5653 73.3307 24.224C73.864 23.8613 74.248 23.328 74.4827 22.624C74.7173 21.92 74.8347 21.0347 74.8347 19.968V19.232C74.8347 18.1653 74.7173 17.28 74.4827 16.576C74.248 15.8507 73.864 15.3173 73.3307 14.976C72.8187 14.6133 72.1147 14.432 71.2187 14.432C70.5787 14.432 70.0347 14.5493 69.5867 14.784C69.1387 14.9973 68.7653 15.3173 68.4667 15.744C68.1893 16.1493 67.976 16.6613 67.8267 17.28C67.6773 17.8987 67.6027 18.5813 67.6027 19.328V19.904C67.6027 20.9067 67.7307 21.7707 67.9867 22.496C68.2427 23.2213 68.6373 23.776 69.1707 24.16C69.704 24.544 70.3867 24.736 71.2187 24.736ZM90.3994 28.384C88.5648 28.384 87.0074 28.0747 85.7274 27.456C84.4474 26.816 83.4768 25.8453 82.8154 24.544C82.1541 23.2213 81.8234 21.568 81.8234 19.584C81.8234 17.5573 82.1541 15.904 82.8154 14.624C83.4768 13.3227 84.4474 12.3627 85.7274 11.744C87.0074 11.104 88.5648 10.784 90.3994 10.784C92.2768 10.784 93.8448 11.104 95.1034 11.744C96.3834 12.3627 97.3541 13.3227 98.0154 14.624C98.6768 15.904 99.0074 17.5573 99.0074 19.584C99.0074 21.568 98.6768 23.2213 98.0154 24.544C97.3541 25.8453 96.3834 26.816 95.1034 27.456C93.8448 28.0747 92.2768 28.384 90.3994 28.384ZM90.3994 24.928C91.3808 24.928 92.1594 24.7467 92.7354 24.384C93.3328 24.0213 93.7701 23.4667 94.0474 22.72C94.3248 21.9733 94.4634 21.056 94.4634 19.968V19.2C94.4634 18.112 94.3248 17.1947 94.0474 16.448C93.7701 15.7013 93.3328 15.1467 92.7354 14.784C92.1594 14.4 91.3808 14.208 90.3994 14.208C89.4394 14.208 88.6608 14.4 88.0634 14.784C87.4874 15.1467 87.0608 15.7013 86.7834 16.448C86.5061 17.1947 86.3674 18.112 86.3674 19.2V19.968C86.3674 21.056 86.5061 21.9733 86.7834 22.72C87.0608 23.4667 87.4874 24.0213 88.0634 24.384C88.6608 24.7467 89.4394 24.928 90.3994 24.928ZM110.024 28.384C108.19 28.384 106.632 28.0747 105.352 27.456C104.072 26.816 103.102 25.8453 102.44 24.544C101.779 23.2213 101.448 21.568 101.448 19.584C101.448 17.5573 101.779 15.904 102.44 14.624C103.102 13.3227 104.072 12.3627 105.352 11.744C106.632 11.104 108.19 10.784 110.024 10.784C111.902 10.784 113.47 11.104 114.728 11.744C116.008 12.3627 116.979 13.3227 117.64 14.624C118.302 15.904 118.632 17.5573 118.632 19.584C118.632 21.568 118.302 23.2213 117.64 24.544C116.979 25.8453 116.008 26.816 114.728 27.456C113.47 28.0747 111.902 28.384 110.024 28.384ZM110.024 24.928C111.006 24.928 111.784 24.7467 112.36 24.384C112.958 24.0213 113.395 23.4667 113.672 22.72C113.95 21.9733 114.088 21.056 114.088 19.968V19.2C114.088 18.112 113.95 17.1947 113.672 16.448C113.395 15.7013 112.958 15.1467 112.36 14.784C111.784 14.4 111.006 14.208 110.024 14.208C109.064 14.208 108.286 14.4 107.688 14.784C107.112 15.1467 106.686 15.7013 106.408 16.448C106.131 17.1947 105.992 18.112 105.992 19.2V19.968C105.992 21.056 106.131 21.9733 106.408 22.72C106.686 23.4667 107.112 24.0213 107.688 24.384C108.286 24.7467 109.064 24.928 110.024 24.928ZM128.721 28.384C127.548 28.384 126.492 28.256 125.553 28C124.615 27.744 123.815 27.392 123.153 26.944C122.492 26.4747 121.98 25.92 121.617 25.28C121.276 24.64 121.105 23.9147 121.105 23.104C121.105 23.0187 121.105 22.9333 121.105 22.848C121.105 22.7627 121.116 22.6987 121.137 22.656H125.425C125.425 22.6987 125.425 22.7413 125.425 22.784C125.425 22.8267 125.425 22.8693 125.425 22.912C125.447 23.4453 125.617 23.8827 125.937 24.224C126.257 24.544 126.673 24.7787 127.185 24.928C127.719 25.0773 128.273 25.152 128.849 25.152C129.361 25.152 129.852 25.1093 130.321 25.024C130.812 24.9173 131.217 24.736 131.537 24.48C131.879 24.224 132.049 23.8933 132.049 23.488C132.049 22.976 131.836 22.5813 131.409 22.304C131.004 22.0267 130.46 21.8027 129.777 21.632C129.116 21.4613 128.391 21.2693 127.601 21.056C126.876 20.8853 126.151 20.6933 125.425 20.48C124.7 20.2453 124.039 19.9467 123.441 19.584C122.865 19.2213 122.396 18.752 122.033 18.176C121.671 17.5787 121.489 16.832 121.489 15.936C121.489 15.0613 121.681 14.304 122.065 13.664C122.449 13.0027 122.972 12.4587 123.633 12.032C124.316 11.6053 125.105 11.296 126.001 11.104C126.919 10.8907 127.9 10.784 128.945 10.784C129.927 10.784 130.844 10.8907 131.697 11.104C132.551 11.296 133.297 11.5947 133.937 12C134.577 12.384 135.079 12.8747 135.441 13.472C135.804 14.048 135.985 14.6987 135.985 15.424C135.985 15.5733 135.985 15.712 135.985 15.84C135.985 15.968 135.975 16.0533 135.953 16.096H131.697V15.84C131.697 15.456 131.58 15.136 131.345 14.88C131.111 14.6027 130.769 14.3893 130.321 14.24C129.895 14.0907 129.372 14.016 128.753 14.016C128.327 14.016 127.932 14.048 127.569 14.112C127.228 14.176 126.929 14.272 126.673 14.4C126.417 14.528 126.215 14.688 126.065 14.88C125.937 15.0507 125.873 15.264 125.873 15.52C125.873 15.8827 126.023 16.1813 126.321 16.416C126.641 16.6293 127.057 16.8107 127.569 16.96C128.081 17.1093 128.647 17.2693 129.265 17.44C130.033 17.6533 130.833 17.8667 131.665 18.08C132.519 18.272 133.308 18.5387 134.033 18.88C134.759 19.2213 135.345 19.712 135.793 20.352C136.241 20.9707 136.465 21.8133 136.465 22.88C136.465 23.904 136.263 24.768 135.857 25.472C135.473 26.176 134.929 26.7413 134.225 27.168C133.521 27.5947 132.7 27.904 131.761 28.096C130.823 28.288 129.809 28.384 128.721 28.384ZM144.711 28.384C143.644 28.384 142.78 28.192 142.119 27.808C141.457 27.424 140.977 26.912 140.679 26.272C140.38 25.6107 140.231 24.8853 140.231 24.096V14.592H138.151V11.168H140.391L141.223 6.368H144.679V11.168H147.751V14.592H144.679V23.36C144.679 23.872 144.796 24.2667 145.031 24.544C145.265 24.8 145.649 24.928 146.183 24.928H147.751V27.872C147.495 27.9573 147.196 28.032 146.855 28.096C146.513 28.1813 146.151 28.2453 145.767 28.288C145.383 28.352 145.031 28.384 144.711 28.384ZM158.272 28.384C156.416 28.384 154.859 28.0747 153.6 27.456C152.342 26.816 151.392 25.8453 150.752 24.544C150.112 23.2427 149.792 21.5893 149.792 19.584C149.792 17.5573 150.112 15.904 150.752 14.624C151.392 13.3227 152.331 12.3627 153.568 11.744C154.827 11.104 156.363 10.784 158.176 10.784C159.883 10.784 161.323 11.0933 162.496 11.712C163.67 12.3093 164.555 13.248 165.152 14.528C165.75 15.7867 166.048 17.4187 166.048 19.424V20.576H154.304C154.347 21.5573 154.496 22.3893 154.752 23.072C155.03 23.7547 155.446 24.2667 156 24.608C156.576 24.928 157.334 25.088 158.272 25.088C158.784 25.088 159.243 25.024 159.648 24.896C160.075 24.768 160.438 24.576 160.736 24.32C161.035 24.064 161.27 23.744 161.44 23.36C161.611 22.976 161.696 22.5387 161.696 22.048H166.048C166.048 23.1147 165.856 24.0427 165.472 24.832C165.088 25.6213 164.555 26.2827 163.872 26.816C163.19 27.328 162.368 27.7227 161.408 28C160.47 28.256 159.424 28.384 158.272 28.384ZM154.368 17.76H161.472C161.472 17.12 161.387 16.5653 161.216 16.096C161.067 15.6267 160.854 15.2427 160.576 14.944C160.299 14.6453 159.958 14.432 159.552 14.304C159.168 14.1547 158.731 14.08 158.24 14.08C157.43 14.08 156.747 14.2187 156.192 14.496C155.659 14.752 155.243 15.1573 154.944 15.712C154.667 16.2453 154.475 16.928 154.368 17.76ZM169.312 28V11.168H172.992L173.344 13.792H173.568C173.781 13.2373 174.058 12.736 174.4 12.288C174.741 11.8187 175.168 11.4453 175.68 11.168C176.192 10.8907 176.789 10.752 177.472 10.752C177.834 10.752 178.165 10.7947 178.464 10.88C178.762 10.944 178.986 11.008 179.136 11.072V15.104H177.76C177.098 15.104 176.512 15.2 176 15.392C175.509 15.5627 175.093 15.84 174.752 16.224C174.41 16.608 174.154 17.0773 173.984 17.632C173.834 18.1867 173.76 18.8373 173.76 19.584V28H169.312ZM193.076 28.384C191.69 28.384 190.484 28.0747 189.46 27.456C188.458 26.816 187.679 25.8453 187.124 24.544C186.57 23.2427 186.292 21.5787 186.292 19.552C186.292 17.5253 186.57 15.872 187.124 14.592C187.7 13.2907 188.479 12.3307 189.46 11.712C190.463 11.0933 191.615 10.784 192.916 10.784C193.642 10.784 194.314 10.8693 194.932 11.04C195.572 11.1893 196.127 11.4347 196.596 11.776C197.087 12.1173 197.503 12.5333 197.844 13.024H198.036V4.864H202.484V28H198.836L198.484 25.728H198.26C197.706 26.624 196.98 27.296 196.084 27.744C195.188 28.1707 194.186 28.384 193.076 28.384ZM194.484 24.736C195.316 24.736 195.988 24.544 196.5 24.16C197.034 23.776 197.428 23.2213 197.684 22.496C197.94 21.7707 198.068 20.9067 198.068 19.904V19.328C198.068 18.5813 197.994 17.8987 197.844 17.28C197.716 16.6613 197.503 16.1493 197.204 15.744C196.906 15.3173 196.532 14.9973 196.084 14.784C195.636 14.5493 195.103 14.432 194.484 14.432C193.588 14.432 192.874 14.6133 192.34 14.976C191.807 15.3173 191.423 15.8507 191.188 16.576C190.954 17.28 190.836 18.1653 190.836 19.232V19.968C190.836 21.0347 190.954 21.92 191.188 22.624C191.423 23.328 191.807 23.8613 192.34 24.224C192.874 24.5653 193.588 24.736 194.484 24.736ZM214.241 28.384C212.385 28.384 210.828 28.0747 209.569 27.456C208.31 26.816 207.361 25.8453 206.721 24.544C206.081 23.2427 205.761 21.5893 205.761 19.584C205.761 17.5573 206.081 15.904 206.721 14.624C207.361 13.3227 208.3 12.3627 209.537 11.744C210.796 11.104 212.332 10.784 214.145 10.784C215.852 10.784 217.292 11.0933 218.465 11.712C219.638 12.3093 220.524 13.248 221.121 14.528C221.718 15.7867 222.017 17.4187 222.017 19.424V20.576H210.273C210.316 21.5573 210.465 22.3893 210.721 23.072C210.998 23.7547 211.414 24.2667 211.969 24.608C212.545 24.928 213.302 25.088 214.241 25.088C214.753 25.088 215.212 25.024 215.617 24.896C216.044 24.768 216.406 24.576 216.705 24.32C217.004 24.064 217.238 23.744 217.409 23.36C217.58 22.976 217.665 22.5387 217.665 22.048H222.017C222.017 23.1147 221.825 24.0427 221.441 24.832C221.057 25.6213 220.524 26.2827 219.841 26.816C219.158 27.328 218.337 27.7227 217.377 28C216.438 28.256 215.393 28.384 214.241 28.384ZM210.337 17.76H217.441C217.441 17.12 217.356 16.5653 217.185 16.096C217.036 15.6267 216.822 15.2427 216.545 14.944C216.268 14.6453 215.926 14.432 215.521 14.304C215.137 14.1547 214.7 14.08 214.209 14.08C213.398 14.08 212.716 14.2187 212.161 14.496C211.628 14.752 211.212 15.1573 210.913 15.712C210.636 16.2453 210.444 16.928 210.337 17.76ZM232.096 28.384C230.923 28.384 229.867 28.256 228.928 28C227.99 27.744 227.19 27.392 226.528 26.944C225.867 26.4747 225.355 25.92 224.992 25.28C224.651 24.64 224.48 23.9147 224.48 23.104C224.48 23.0187 224.48 22.9333 224.48 22.848C224.48 22.7627 224.491 22.6987 224.512 22.656H228.8C228.8 22.6987 228.8 22.7413 228.8 22.784C228.8 22.8267 228.8 22.8693 228.8 22.912C228.822 23.4453 228.992 23.8827 229.312 24.224C229.632 24.544 230.048 24.7787 230.56 24.928C231.094 25.0773 231.648 25.152 232.224 25.152C232.736 25.152 233.227 25.1093 233.696 25.024C234.187 24.9173 234.592 24.736 234.912 24.48C235.254 24.224 235.424 23.8933 235.424 23.488C235.424 22.976 235.211 22.5813 234.784 22.304C234.379 22.0267 233.835 21.8027 233.152 21.632C232.491 21.4613 231.766 21.2693 230.976 21.056C230.251 20.8853 229.526 20.6933 228.8 20.48C228.075 20.2453 227.414 19.9467 226.816 19.584C226.24 19.2213 225.771 18.752 225.408 18.176C225.046 17.5787 224.864 16.832 224.864 15.936C224.864 15.0613 225.056 14.304 225.44 13.664C225.824 13.0027 226.347 12.4587 227.008 12.032C227.691 11.6053 228.48 11.296 229.376 11.104C230.294 10.8907 231.275 10.784 232.32 10.784C233.302 10.784 234.219 10.8907 235.072 11.104C235.926 11.296 236.672 11.5947 237.312 12C237.952 12.384 238.454 12.8747 238.816 13.472C239.179 14.048 239.36 14.6987 239.36 15.424C239.36 15.5733 239.36 15.712 239.36 15.84C239.36 15.968 239.35 16.0533 239.328 16.096H235.072V15.84C235.072 15.456 234.955 15.136 234.72 14.88C234.486 14.6027 234.144 14.3893 233.696 14.24C233.27 14.0907 232.747 14.016 232.128 14.016C231.702 14.016 231.307 14.048 230.944 14.112C230.603 14.176 230.304 14.272 230.048 14.4C229.792 14.528 229.59 14.688 229.44 14.88C229.312 15.0507 229.248 15.264 229.248 15.52C229.248 15.8827 229.398 16.1813 229.696 16.416C230.016 16.6293 230.432 16.8107 230.944 16.96C231.456 17.1093 232.022 17.2693 232.64 17.44C233.408 17.6533 234.208 17.8667 235.04 18.08C235.894 18.272 236.683 18.5387 237.408 18.88C238.134 19.2213 238.72 19.712 239.168 20.352C239.616 20.9707 239.84 21.8133 239.84 22.88C239.84 23.904 239.638 24.768 239.232 25.472C238.848 26.176 238.304 26.7413 237.6 27.168C236.896 27.5947 236.075 27.904 235.136 28.096C234.198 28.288 233.184 28.384 232.096 28.384ZM243.062 8.704V4.864H247.51V8.704H243.062ZM243.062 28V11.168H247.51V28H243.062ZM254.345 34.016C253.598 34.016 252.894 33.856 252.233 33.536C251.572 33.2373 251.038 32.7893 250.633 32.192C250.228 31.5947 250.025 30.88 250.025 30.048C250.025 29.1093 250.292 28.3627 250.825 27.808C251.38 27.232 251.998 26.8053 252.681 26.528C252.19 26.2507 251.785 25.888 251.465 25.44C251.166 24.992 251.017 24.4693 251.017 23.872C251.017 23.04 251.316 22.368 251.913 21.856C252.532 21.3227 253.236 20.9813 254.025 20.832C253.236 20.3413 252.617 19.7227 252.169 18.976C251.742 18.208 251.529 17.3547 251.529 16.416C251.529 15.2 251.828 14.176 252.425 13.344C253.044 12.512 253.918 11.8827 255.049 11.456C256.201 11.008 257.556 10.784 259.113 10.784C259.732 10.784 260.308 10.816 260.841 10.88C261.396 10.944 261.897 11.0507 262.345 11.2C263.134 10.7307 263.668 10.2187 263.945 9.664C264.244 9.088 264.404 8.62933 264.425 8.288H268.553C268.553 9.07733 268.404 9.76 268.105 10.336C267.828 10.912 267.422 11.392 266.889 11.776C266.356 12.1387 265.716 12.4053 264.969 12.576C265.524 13.0453 265.95 13.6107 266.249 14.272C266.548 14.9333 266.697 15.648 266.697 16.416C266.697 17.6107 266.409 18.6347 265.833 19.488C265.257 20.32 264.436 20.96 263.369 21.408C262.324 21.856 261.065 22.08 259.593 22.08H257.033C256.521 22.08 256.137 22.176 255.881 22.368C255.625 22.5387 255.497 22.7947 255.497 23.136C255.497 23.4133 255.604 23.6587 255.817 23.872C256.052 24.064 256.425 24.16 256.937 24.16H263.945C265.353 24.16 266.473 24.5973 267.305 25.472C268.158 26.3253 268.585 27.424 268.585 28.768C268.585 29.792 268.318 30.6987 267.785 31.488C267.252 32.2773 266.516 32.896 265.577 33.344C264.638 33.792 263.561 34.016 262.345 34.016H254.345ZM256.201 31.04H262.121C262.505 31.04 262.846 30.9653 263.145 30.816C263.444 30.688 263.678 30.496 263.849 30.24C264.02 30.0053 264.105 29.728 264.105 29.408C264.105 28.8533 263.934 28.4373 263.593 28.16C263.252 27.8827 262.825 27.744 262.313 27.744H256.201C255.689 27.744 255.262 27.8933 254.921 28.192C254.601 28.4907 254.441 28.8853 254.441 29.376C254.441 29.8667 254.601 30.2613 254.921 30.56C255.262 30.88 255.689 31.04 256.201 31.04ZM259.113 19.2C260.158 19.2 260.948 18.9653 261.481 18.496C262.036 18.0053 262.313 17.312 262.313 16.416C262.313 15.52 262.036 14.8373 261.481 14.368C260.948 13.8773 260.158 13.632 259.113 13.632C258.089 13.632 257.3 13.8773 256.745 14.368C256.212 14.8373 255.945 15.52 255.945 16.416C255.945 16.992 256.062 17.4933 256.297 17.92C256.532 18.3467 256.884 18.6667 257.353 18.88C257.822 19.0933 258.409 19.2 259.113 19.2ZM271.03 28V11.168H274.71L275.062 13.472H275.286C275.67 12.9173 276.129 12.4373 276.662 12.032C277.217 11.6267 277.836 11.3173 278.518 11.104C279.201 10.8907 279.948 10.784 280.758 10.784C281.868 10.784 282.838 10.9867 283.67 11.392C284.502 11.7973 285.142 12.4373 285.59 13.312C286.06 14.1867 286.294 15.328 286.294 16.736V28H281.846V17.44C281.846 16.9067 281.782 16.4587 281.654 16.096C281.526 15.712 281.334 15.4027 281.078 15.168C280.844 14.912 280.545 14.7307 280.182 14.624C279.82 14.5173 279.414 14.464 278.966 14.464C278.305 14.464 277.708 14.624 277.174 14.944C276.641 15.264 276.225 15.7013 275.926 16.256C275.628 16.8107 275.478 17.4507 275.478 18.176V28H271.03Z" fill="#403E3E"/>
<path d="M119.943 49.192C118.801 49.192 117.82 48.984 116.999 48.568C116.188 48.152 115.559 47.5227 115.111 46.68C114.673 45.8373 114.455 44.7813 114.455 43.512C114.455 42.232 114.673 41.176 115.111 40.344C115.559 39.5013 116.188 38.872 116.999 38.456C117.82 38.04 118.801 37.832 119.943 37.832C121.084 37.832 122.06 38.04 122.871 38.456C123.692 38.872 124.321 39.5013 124.759 40.344C125.207 41.176 125.431 42.232 125.431 43.512C125.431 44.7813 125.207 45.8373 124.759 46.68C124.321 47.5227 123.692 48.152 122.871 48.568C122.06 48.984 121.084 49.192 119.943 49.192ZM119.943 47.88C120.54 47.88 121.079 47.8 121.559 47.64C122.049 47.48 122.46 47.2293 122.791 46.888C123.132 46.536 123.393 46.0987 123.575 45.576C123.756 45.0427 123.847 44.4133 123.847 43.688V43.352C123.847 42.616 123.756 41.9867 123.575 41.464C123.393 40.9307 123.132 40.4933 122.791 40.152C122.46 39.8 122.049 39.544 121.559 39.384C121.079 39.224 120.54 39.144 119.943 39.144C119.335 39.144 118.791 39.224 118.311 39.384C117.831 39.544 117.42 39.8 117.079 40.152C116.737 40.4933 116.476 40.9307 116.295 41.464C116.124 41.9867 116.039 42.616 116.039 43.352V43.688C116.039 44.4133 116.124 45.0427 116.295 45.576C116.476 46.0987 116.737 46.536 117.079 46.888C117.42 47.2293 117.831 47.48 118.311 47.64C118.791 47.8 119.335 47.88 119.943 47.88ZM140.424 49V38.024H148.2V39.336H141.944V42.856H147.64V44.152H141.944V49H140.424ZM163.021 49V38.024H170.797V39.336H164.541V42.856H170.237V44.152H164.541V49H163.021ZM185.618 49V38.024H187.138V49H185.618ZM207.371 49.192C206.251 49.192 205.302 48.9893 204.523 48.584C203.745 48.168 203.147 47.544 202.731 46.712C202.326 45.8693 202.123 44.8027 202.123 43.512C202.123 41.6027 202.587 40.1787 203.515 39.24C204.443 38.3013 205.734 37.832 207.387 37.832C208.326 37.832 209.158 37.9867 209.883 38.296C210.609 38.5947 211.174 39.0533 211.579 39.672C211.995 40.28 212.203 41.048 212.203 41.976H210.667C210.667 41.336 210.529 40.808 210.251 40.392C209.985 39.976 209.606 39.6667 209.115 39.464C208.625 39.2507 208.049 39.144 207.387 39.144C206.619 39.144 205.958 39.2933 205.403 39.592C204.849 39.8907 204.427 40.3547 204.139 40.984C203.851 41.6027 203.707 42.4027 203.707 43.384V43.72C203.707 44.6907 203.851 45.4853 204.139 46.104C204.427 46.712 204.843 47.16 205.387 47.448C205.942 47.736 206.609 47.88 207.387 47.88C208.07 47.88 208.657 47.7787 209.147 47.576C209.649 47.3733 210.033 47.064 210.299 46.648C210.577 46.2213 210.715 45.688 210.715 45.048H212.203C212.203 45.9973 211.99 46.776 211.563 47.384C211.147 47.992 210.577 48.4453 209.851 48.744C209.126 49.0427 208.299 49.192 207.371 49.192ZM227.124 49V38.024H235.572V39.336H228.644V42.728H234.868V44.04H228.644V47.688H235.668V49H227.124Z" fill="#403E3E"/>
</svg>
