<svg width="290" height="53" viewBox="0 0 290 53" fill="none" xmlns="http://www.w3.org/2000/svg">
<circle cx="22.5694" cy="26.4308" r="22.5694" fill="#5053B1"/>
<ellipse cx="22.5694" cy="26.4308" rx="22.5694" ry="14.4444" fill="#50B182"/>
<circle cx="27.0835" cy="26.4307" r="7.22222" fill="white"/>
<path d="M72.5947 28.8147C71.5067 28.8147 70.504 28.6013 69.5867 28.1747C68.6907 27.7267 67.9653 27.0547 67.4107 26.1587H67.1867L66.8347 28.4307H63.1867V5.29466H67.6347V13.4547H67.8267C68.168 12.964 68.584 12.548 69.0747 12.2067C69.5653 11.8653 70.12 11.62 70.7387 11.4707C71.3573 11.3 72.0293 11.2147 72.7547 11.2147C74.0773 11.2147 75.2293 11.524 76.2107 12.1427C77.2133 12.7613 77.992 13.7213 78.5467 15.0227C79.1013 16.3027 79.3787 17.956 79.3787 19.9827C79.3787 22.0093 79.1013 23.6733 78.5467 24.9747C78.0133 26.276 77.2347 27.2467 76.2107 27.8867C75.208 28.5053 74.0027 28.8147 72.5947 28.8147ZM71.2187 25.1667C72.1147 25.1667 72.8187 24.996 73.3307 24.6547C73.864 24.292 74.248 23.7587 74.4827 23.0547C74.7173 22.3507 74.8347 21.4653 74.8347 20.3987V19.6627C74.8347 18.596 74.7173 17.7107 74.4827 17.0067C74.248 16.2813 73.864 15.748 73.3307 15.4067C72.8187 15.044 72.1147 14.8627 71.2187 14.8627C70.5787 14.8627 70.0347 14.98 69.5867 15.2147C69.1387 15.428 68.7653 15.748 68.4667 16.1747C68.1893 16.58 67.976 17.092 67.8267 17.7107C67.6773 18.3293 67.6027 19.012 67.6027 19.7587V20.3347C67.6027 21.3373 67.7307 22.2013 67.9867 22.9267C68.2427 23.652 68.6373 24.2067 69.1707 24.5907C69.704 24.9747 70.3867 25.1667 71.2187 25.1667ZM90.3994 28.8147C88.5648 28.8147 87.0074 28.5053 85.7274 27.8867C84.4474 27.2467 83.4768 26.276 82.8154 24.9747C82.1541 23.652 81.8234 21.9987 81.8234 20.0147C81.8234 17.988 82.1541 16.3347 82.8154 15.0547C83.4768 13.7533 84.4474 12.7933 85.7274 12.1747C87.0074 11.5347 88.5648 11.2147 90.3994 11.2147C92.2768 11.2147 93.8448 11.5347 95.1034 12.1747C96.3834 12.7933 97.3541 13.7533 98.0154 15.0547C98.6768 16.3347 99.0074 17.988 99.0074 20.0147C99.0074 21.9987 98.6768 23.652 98.0154 24.9747C97.3541 26.276 96.3834 27.2467 95.1034 27.8867C93.8448 28.5053 92.2768 28.8147 90.3994 28.8147ZM90.3994 25.3587C91.3808 25.3587 92.1594 25.1773 92.7354 24.8147C93.3328 24.452 93.7701 23.8973 94.0474 23.1507C94.3248 22.404 94.4634 21.4867 94.4634 20.3987V19.6307C94.4634 18.5427 94.3248 17.6253 94.0474 16.8787C93.7701 16.132 93.3328 15.5773 92.7354 15.2147C92.1594 14.8307 91.3808 14.6387 90.3994 14.6387C89.4394 14.6387 88.6608 14.8307 88.0634 15.2147C87.4874 15.5773 87.0608 16.132 86.7834 16.8787C86.5061 17.6253 86.3674 18.5427 86.3674 19.6307V20.3987C86.3674 21.4867 86.5061 22.404 86.7834 23.1507C87.0608 23.8973 87.4874 24.452 88.0634 24.8147C88.6608 25.1773 89.4394 25.3587 90.3994 25.3587ZM110.024 28.8147C108.19 28.8147 106.632 28.5053 105.352 27.8867C104.072 27.2467 103.102 26.276 102.44 24.9747C101.779 23.652 101.448 21.9987 101.448 20.0147C101.448 17.988 101.779 16.3347 102.44 15.0547C103.102 13.7533 104.072 12.7933 105.352 12.1747C106.632 11.5347 108.19 11.2147 110.024 11.2147C111.902 11.2147 113.47 11.5347 114.728 12.1747C116.008 12.7933 116.979 13.7533 117.64 15.0547C118.302 16.3347 118.632 17.988 118.632 20.0147C118.632 21.9987 118.302 23.652 117.64 24.9747C116.979 26.276 116.008 27.2467 114.728 27.8867C113.47 28.5053 111.902 28.8147 110.024 28.8147ZM110.024 25.3587C111.006 25.3587 111.784 25.1773 112.36 24.8147C112.958 24.452 113.395 23.8973 113.672 23.1507C113.95 22.404 114.088 21.4867 114.088 20.3987V19.6307C114.088 18.5427 113.95 17.6253 113.672 16.8787C113.395 16.132 112.958 15.5773 112.36 15.2147C111.784 14.8307 111.006 14.6387 110.024 14.6387C109.064 14.6387 108.286 14.8307 107.688 15.2147C107.112 15.5773 106.686 16.132 106.408 16.8787C106.131 17.6253 105.992 18.5427 105.992 19.6307V20.3987C105.992 21.4867 106.131 22.404 106.408 23.1507C106.686 23.8973 107.112 24.452 107.688 24.8147C108.286 25.1773 109.064 25.3587 110.024 25.3587ZM128.721 28.8147C127.548 28.8147 126.492 28.6867 125.553 28.4307C124.615 28.1747 123.815 27.8227 123.153 27.3747C122.492 26.9053 121.98 26.3507 121.617 25.7107C121.276 25.0707 121.105 24.3453 121.105 23.5347C121.105 23.4493 121.105 23.364 121.105 23.2787C121.105 23.1933 121.116 23.1293 121.137 23.0867H125.425C125.425 23.1293 125.425 23.172 125.425 23.2147C125.425 23.2573 125.425 23.3 125.425 23.3427C125.447 23.876 125.617 24.3133 125.937 24.6547C126.257 24.9747 126.673 25.2093 127.185 25.3587C127.719 25.508 128.273 25.5827 128.849 25.5827C129.361 25.5827 129.852 25.54 130.321 25.4547C130.812 25.348 131.217 25.1667 131.537 24.9107C131.879 24.6547 132.049 24.324 132.049 23.9187C132.049 23.4067 131.836 23.012 131.409 22.7347C131.004 22.4573 130.46 22.2333 129.777 22.0627C129.116 21.892 128.391 21.7 127.601 21.4867C126.876 21.316 126.151 21.124 125.425 20.9107C124.7 20.676 124.039 20.3773 123.441 20.0147C122.865 19.652 122.396 19.1827 122.033 18.6067C121.671 18.0093 121.489 17.2627 121.489 16.3667C121.489 15.492 121.681 14.7347 122.065 14.0947C122.449 13.4333 122.972 12.8893 123.633 12.4627C124.316 12.036 125.105 11.7267 126.001 11.5347C126.919 11.3213 127.9 11.2147 128.945 11.2147C129.927 11.2147 130.844 11.3213 131.697 11.5347C132.551 11.7267 133.297 12.0253 133.937 12.4307C134.577 12.8147 135.079 13.3053 135.441 13.9027C135.804 14.4787 135.985 15.1293 135.985 15.8547C135.985 16.004 135.985 16.1427 135.985 16.2707C135.985 16.3987 135.975 16.484 135.953 16.5267H131.697V16.2707C131.697 15.8867 131.58 15.5667 131.345 15.3107C131.111 15.0333 130.769 14.82 130.321 14.6707C129.895 14.5213 129.372 14.4467 128.753 14.4467C128.327 14.4467 127.932 14.4787 127.569 14.5427C127.228 14.6067 126.929 14.7027 126.673 14.8307C126.417 14.9587 126.215 15.1187 126.065 15.3107C125.937 15.4813 125.873 15.6947 125.873 15.9507C125.873 16.3133 126.023 16.612 126.321 16.8467C126.641 17.06 127.057 17.2413 127.569 17.3907C128.081 17.54 128.647 17.7 129.265 17.8707C130.033 18.084 130.833 18.2973 131.665 18.5107C132.519 18.7027 133.308 18.9693 134.033 19.3107C134.759 19.652 135.345 20.1427 135.793 20.7827C136.241 21.4013 136.465 22.244 136.465 23.3107C136.465 24.3347 136.263 25.1987 135.857 25.9027C135.473 26.6067 134.929 27.172 134.225 27.5987C133.521 28.0253 132.7 28.3347 131.761 28.5267C130.823 28.7187 129.809 28.8147 128.721 28.8147ZM144.711 28.8147C143.644 28.8147 142.78 28.6227 142.119 28.2387C141.457 27.8547 140.977 27.3427 140.679 26.7027C140.38 26.0413 140.231 25.316 140.231 24.5267V15.0227H138.151V11.5987H140.391L141.223 6.79866H144.679V11.5987H147.751V15.0227H144.679V23.7907C144.679 24.3027 144.796 24.6973 145.031 24.9747C145.265 25.2307 145.649 25.3587 146.183 25.3587H147.751V28.3027C147.495 28.388 147.196 28.4627 146.855 28.5267C146.513 28.612 146.151 28.676 145.767 28.7187C145.383 28.7827 145.031 28.8147 144.711 28.8147ZM158.272 28.8147C156.416 28.8147 154.859 28.5053 153.6 27.8867C152.342 27.2467 151.392 26.276 150.752 24.9747C150.112 23.6733 149.792 22.02 149.792 20.0147C149.792 17.988 150.112 16.3347 150.752 15.0547C151.392 13.7533 152.331 12.7933 153.568 12.1747C154.827 11.5347 156.363 11.2147 158.176 11.2147C159.883 11.2147 161.323 11.524 162.496 12.1427C163.67 12.74 164.555 13.6787 165.152 14.9587C165.75 16.2173 166.048 17.8493 166.048 19.8547V21.0067H154.304C154.347 21.988 154.496 22.82 154.752 23.5027C155.03 24.1853 155.446 24.6973 156 25.0387C156.576 25.3587 157.334 25.5187 158.272 25.5187C158.784 25.5187 159.243 25.4547 159.648 25.3267C160.075 25.1987 160.438 25.0067 160.736 24.7507C161.035 24.4947 161.27 24.1747 161.44 23.7907C161.611 23.4067 161.696 22.9693 161.696 22.4787H166.048C166.048 23.5453 165.856 24.4733 165.472 25.2627C165.088 26.052 164.555 26.7133 163.872 27.2467C163.19 27.7587 162.368 28.1533 161.408 28.4307C160.47 28.6867 159.424 28.8147 158.272 28.8147ZM154.368 18.1907H161.472C161.472 17.5507 161.387 16.996 161.216 16.5267C161.067 16.0573 160.854 15.6733 160.576 15.3747C160.299 15.076 159.958 14.8627 159.552 14.7347C159.168 14.5853 158.731 14.5107 158.24 14.5107C157.43 14.5107 156.747 14.6493 156.192 14.9267C155.659 15.1827 155.243 15.588 154.944 16.1427C154.667 16.676 154.475 17.3587 154.368 18.1907ZM169.312 28.4307V11.5987H172.992L173.344 14.2227H173.568C173.781 13.668 174.058 13.1667 174.4 12.7187C174.741 12.2493 175.168 11.876 175.68 11.5987C176.192 11.3213 176.789 11.1827 177.472 11.1827C177.834 11.1827 178.165 11.2253 178.464 11.3107C178.762 11.3747 178.986 11.4387 179.136 11.5027V15.5347H177.76C177.098 15.5347 176.512 15.6307 176 15.8227C175.509 15.9933 175.093 16.2707 174.752 16.6547C174.41 17.0387 174.154 17.508 173.984 18.0627C173.834 18.6173 173.76 19.268 173.76 20.0147V28.4307H169.312ZM193.076 28.8147C191.69 28.8147 190.484 28.5053 189.46 27.8867C188.458 27.2467 187.679 26.276 187.124 24.9747C186.57 23.6733 186.292 22.0093 186.292 19.9827C186.292 17.956 186.57 16.3027 187.124 15.0227C187.7 13.7213 188.479 12.7613 189.46 12.1427C190.463 11.524 191.615 11.2147 192.916 11.2147C193.642 11.2147 194.314 11.3 194.932 11.4707C195.572 11.62 196.127 11.8653 196.596 12.2067C197.087 12.548 197.503 12.964 197.844 13.4547H198.036V5.29466H202.484V28.4307H198.836L198.484 26.1587H198.26C197.706 27.0547 196.98 27.7267 196.084 28.1747C195.188 28.6013 194.186 28.8147 193.076 28.8147ZM194.484 25.1667C195.316 25.1667 195.988 24.9747 196.5 24.5907C197.034 24.2067 197.428 23.652 197.684 22.9267C197.94 22.2013 198.068 21.3373 198.068 20.3347V19.7587C198.068 19.012 197.994 18.3293 197.844 17.7107C197.716 17.092 197.503 16.58 197.204 16.1747C196.906 15.748 196.532 15.428 196.084 15.2147C195.636 14.98 195.103 14.8627 194.484 14.8627C193.588 14.8627 192.874 15.044 192.34 15.4067C191.807 15.748 191.423 16.2813 191.188 17.0067C190.954 17.7107 190.836 18.596 190.836 19.6627V20.3987C190.836 21.4653 190.954 22.3507 191.188 23.0547C191.423 23.7587 191.807 24.292 192.34 24.6547C192.874 24.996 193.588 25.1667 194.484 25.1667ZM214.241 28.8147C212.385 28.8147 210.828 28.5053 209.569 27.8867C208.31 27.2467 207.361 26.276 206.721 24.9747C206.081 23.6733 205.761 22.02 205.761 20.0147C205.761 17.988 206.081 16.3347 206.721 15.0547C207.361 13.7533 208.3 12.7933 209.537 12.1747C210.796 11.5347 212.332 11.2147 214.145 11.2147C215.852 11.2147 217.292 11.524 218.465 12.1427C219.638 12.74 220.524 13.6787 221.121 14.9587C221.718 16.2173 222.017 17.8493 222.017 19.8547V21.0067H210.273C210.316 21.988 210.465 22.82 210.721 23.5027C210.998 24.1853 211.414 24.6973 211.969 25.0387C212.545 25.3587 213.302 25.5187 214.241 25.5187C214.753 25.5187 215.212 25.4547 215.617 25.3267C216.044 25.1987 216.406 25.0067 216.705 24.7507C217.004 24.4947 217.238 24.1747 217.409 23.7907C217.58 23.4067 217.665 22.9693 217.665 22.4787H222.017C222.017 23.5453 221.825 24.4733 221.441 25.2627C221.057 26.052 220.524 26.7133 219.841 27.2467C219.158 27.7587 218.337 28.1533 217.377 28.4307C216.438 28.6867 215.393 28.8147 214.241 28.8147ZM210.337 18.1907H217.441C217.441 17.5507 217.356 16.996 217.185 16.5267C217.036 16.0573 216.822 15.6733 216.545 15.3747C216.268 15.076 215.926 14.8627 215.521 14.7347C215.137 14.5853 214.7 14.5107 214.209 14.5107C213.398 14.5107 212.716 14.6493 212.161 14.9267C211.628 15.1827 211.212 15.588 210.913 16.1427C210.636 16.676 210.444 17.3587 210.337 18.1907ZM232.096 28.8147C230.923 28.8147 229.867 28.6867 228.928 28.4307C227.99 28.1747 227.19 27.8227 226.528 27.3747C225.867 26.9053 225.355 26.3507 224.992 25.7107C224.651 25.0707 224.48 24.3453 224.48 23.5347C224.48 23.4493 224.48 23.364 224.48 23.2787C224.48 23.1933 224.491 23.1293 224.512 23.0867H228.8C228.8 23.1293 228.8 23.172 228.8 23.2147C228.8 23.2573 228.8 23.3 228.8 23.3427C228.822 23.876 228.992 24.3133 229.312 24.6547C229.632 24.9747 230.048 25.2093 230.56 25.3587C231.094 25.508 231.648 25.5827 232.224 25.5827C232.736 25.5827 233.227 25.54 233.696 25.4547C234.187 25.348 234.592 25.1667 234.912 24.9107C235.254 24.6547 235.424 24.324 235.424 23.9187C235.424 23.4067 235.211 23.012 234.784 22.7347C234.379 22.4573 233.835 22.2333 233.152 22.0627C232.491 21.892 231.766 21.7 230.976 21.4867C230.251 21.316 229.526 21.124 228.8 20.9107C228.075 20.676 227.414 20.3773 226.816 20.0147C226.24 19.652 225.771 19.1827 225.408 18.6067C225.046 18.0093 224.864 17.2627 224.864 16.3667C224.864 15.492 225.056 14.7347 225.44 14.0947C225.824 13.4333 226.347 12.8893 227.008 12.4627C227.691 12.036 228.48 11.7267 229.376 11.5347C230.294 11.3213 231.275 11.2147 232.32 11.2147C233.302 11.2147 234.219 11.3213 235.072 11.5347C235.926 11.7267 236.672 12.0253 237.312 12.4307C237.952 12.8147 238.454 13.3053 238.816 13.9027C239.179 14.4787 239.36 15.1293 239.36 15.8547C239.36 16.004 239.36 16.1427 239.36 16.2707C239.36 16.3987 239.35 16.484 239.328 16.5267H235.072V16.2707C235.072 15.8867 234.955 15.5667 234.72 15.3107C234.486 15.0333 234.144 14.82 233.696 14.6707C233.27 14.5213 232.747 14.4467 232.128 14.4467C231.702 14.4467 231.307 14.4787 230.944 14.5427C230.603 14.6067 230.304 14.7027 230.048 14.8307C229.792 14.9587 229.59 15.1187 229.44 15.3107C229.312 15.4813 229.248 15.6947 229.248 15.9507C229.248 16.3133 229.398 16.612 229.696 16.8467C230.016 17.06 230.432 17.2413 230.944 17.3907C231.456 17.54 232.022 17.7 232.64 17.8707C233.408 18.084 234.208 18.2973 235.04 18.5107C235.894 18.7027 236.683 18.9693 237.408 19.3107C238.134 19.652 238.72 20.1427 239.168 20.7827C239.616 21.4013 239.84 22.244 239.84 23.3107C239.84 24.3347 239.638 25.1987 239.232 25.9027C238.848 26.6067 238.304 27.172 237.6 27.5987C236.896 28.0253 236.075 28.3347 235.136 28.5267C234.198 28.7187 233.184 28.8147 232.096 28.8147ZM243.062 9.13466V5.29466H247.51V9.13466H243.062ZM243.062 28.4307V11.5987H247.51V28.4307H243.062ZM254.345 34.4467C253.598 34.4467 252.894 34.2867 252.233 33.9667C251.572 33.668 251.038 33.22 250.633 32.6227C250.228 32.0253 250.025 31.3107 250.025 30.4787C250.025 29.54 250.292 28.7933 250.825 28.2387C251.38 27.6627 251.998 27.236 252.681 26.9587C252.19 26.6813 251.785 26.3187 251.465 25.8707C251.166 25.4227 251.017 24.9 251.017 24.3027C251.017 23.4707 251.316 22.7987 251.913 22.2867C252.532 21.7533 253.236 21.412 254.025 21.2627C253.236 20.772 252.617 20.1533 252.169 19.4067C251.742 18.6387 251.529 17.7853 251.529 16.8467C251.529 15.6307 251.828 14.6067 252.425 13.7747C253.044 12.9427 253.918 12.3133 255.049 11.8867C256.201 11.4387 257.556 11.2147 259.113 11.2147C259.732 11.2147 260.308 11.2467 260.841 11.3107C261.396 11.3747 261.897 11.4813 262.345 11.6307C263.134 11.1613 263.668 10.6493 263.945 10.0947C264.244 9.51866 264.404 9.06 264.425 8.71866H268.553C268.553 9.508 268.404 10.1907 268.105 10.7667C267.828 11.3427 267.422 11.8227 266.889 12.2067C266.356 12.5693 265.716 12.836 264.969 13.0067C265.524 13.476 265.95 14.0413 266.249 14.7027C266.548 15.364 266.697 16.0787 266.697 16.8467C266.697 18.0413 266.409 19.0653 265.833 19.9187C265.257 20.7507 264.436 21.3907 263.369 21.8387C262.324 22.2867 261.065 22.5107 259.593 22.5107H257.033C256.521 22.5107 256.137 22.6067 255.881 22.7987C255.625 22.9693 255.497 23.2253 255.497 23.5667C255.497 23.844 255.604 24.0893 255.817 24.3027C256.052 24.4947 256.425 24.5907 256.937 24.5907H263.945C265.353 24.5907 266.473 25.028 267.305 25.9027C268.158 26.756 268.585 27.8547 268.585 29.1987C268.585 30.2227 268.318 31.1293 267.785 31.9187C267.252 32.708 266.516 33.3267 265.577 33.7747C264.638 34.2227 263.561 34.4467 262.345 34.4467H254.345ZM256.201 31.4707H262.121C262.505 31.4707 262.846 31.396 263.145 31.2467C263.444 31.1187 263.678 30.9267 263.849 30.6707C264.02 30.436 264.105 30.1587 264.105 29.8387C264.105 29.284 263.934 28.868 263.593 28.5907C263.252 28.3133 262.825 28.1747 262.313 28.1747H256.201C255.689 28.1747 255.262 28.324 254.921 28.6227C254.601 28.9213 254.441 29.316 254.441 29.8067C254.441 30.2973 254.601 30.692 254.921 30.9907C255.262 31.3107 255.689 31.4707 256.201 31.4707ZM259.113 19.6307C260.158 19.6307 260.948 19.396 261.481 18.9267C262.036 18.436 262.313 17.7427 262.313 16.8467C262.313 15.9507 262.036 15.268 261.481 14.7987C260.948 14.308 260.158 14.0627 259.113 14.0627C258.089 14.0627 257.3 14.308 256.745 14.7987C256.212 15.268 255.945 15.9507 255.945 16.8467C255.945 17.4227 256.062 17.924 256.297 18.3507C256.532 18.7773 256.884 19.0973 257.353 19.3107C257.822 19.524 258.409 19.6307 259.113 19.6307ZM271.03 28.4307V11.5987H274.71L275.062 13.9027H275.286C275.67 13.348 276.129 12.868 276.662 12.4627C277.217 12.0573 277.836 11.748 278.518 11.5347C279.201 11.3213 279.948 11.2147 280.758 11.2147C281.868 11.2147 282.838 11.4173 283.67 11.8227C284.502 12.228 285.142 12.868 285.59 13.7427C286.06 14.6173 286.294 15.7587 286.294 17.1667V28.4307H281.846V17.8707C281.846 17.3373 281.782 16.8893 281.654 16.5267C281.526 16.1427 281.334 15.8333 281.078 15.5987C280.844 15.3427 280.545 15.1613 280.182 15.0547C279.82 14.948 279.414 14.8947 278.966 14.8947C278.305 14.8947 277.708 15.0547 277.174 15.3747C276.641 15.6947 276.225 16.132 275.926 16.6867C275.628 17.2413 275.478 17.8813 275.478 18.6067V28.4307H271.03Z" fill="#403E3E"/>
<path d="M119.943 49.6227C118.801 49.6227 117.82 49.4147 116.999 48.9987C116.188 48.5827 115.559 47.9533 115.111 47.1107C114.673 46.268 114.455 45.212 114.455 43.9427C114.455 42.6627 114.673 41.6067 115.111 40.7747C115.559 39.932 116.188 39.3027 116.999 38.8867C117.82 38.4707 118.801 38.2627 119.943 38.2627C121.084 38.2627 122.06 38.4707 122.871 38.8867C123.692 39.3027 124.321 39.932 124.759 40.7747C125.207 41.6067 125.431 42.6627 125.431 43.9427C125.431 45.212 125.207 46.268 124.759 47.1107C124.321 47.9533 123.692 48.5827 122.871 48.9987C122.06 49.4147 121.084 49.6227 119.943 49.6227ZM119.943 48.3107C120.54 48.3107 121.079 48.2307 121.559 48.0707C122.049 47.9107 122.46 47.66 122.791 47.3187C123.132 46.9667 123.393 46.5293 123.575 46.0067C123.756 45.4733 123.847 44.844 123.847 44.1187V43.7827C123.847 43.0467 123.756 42.4173 123.575 41.8947C123.393 41.3613 123.132 40.924 122.791 40.5827C122.46 40.2307 122.049 39.9747 121.559 39.8147C121.079 39.6547 120.54 39.5747 119.943 39.5747C119.335 39.5747 118.791 39.6547 118.311 39.8147C117.831 39.9747 117.42 40.2307 117.079 40.5827C116.737 40.924 116.476 41.3613 116.295 41.8947C116.124 42.4173 116.039 43.0467 116.039 43.7827V44.1187C116.039 44.844 116.124 45.4733 116.295 46.0067C116.476 46.5293 116.737 46.9667 117.079 47.3187C117.42 47.66 117.831 47.9107 118.311 48.0707C118.791 48.2307 119.335 48.3107 119.943 48.3107ZM140.424 49.4307V38.4547H148.2V39.7667H141.944V43.2867H147.64V44.5827H141.944V49.4307H140.424ZM163.021 49.4307V38.4547H170.797V39.7667H164.541V43.2867H170.237V44.5827H164.541V49.4307H163.021ZM185.618 49.4307V38.4547H187.138V49.4307H185.618ZM207.371 49.6227C206.251 49.6227 205.302 49.42 204.523 49.0147C203.745 48.5987 203.147 47.9747 202.731 47.1427C202.326 46.3 202.123 45.2333 202.123 43.9427C202.123 42.0333 202.587 40.6093 203.515 39.6707C204.443 38.732 205.734 38.2627 207.387 38.2627C208.326 38.2627 209.158 38.4173 209.883 38.7267C210.609 39.0253 211.174 39.484 211.579 40.1027C211.995 40.7107 212.203 41.4787 212.203 42.4067H210.667C210.667 41.7667 210.529 41.2387 210.251 40.8227C209.985 40.4067 209.606 40.0973 209.115 39.8947C208.625 39.6813 208.049 39.5747 207.387 39.5747C206.619 39.5747 205.958 39.724 205.403 40.0227C204.849 40.3213 204.427 40.7853 204.139 41.4147C203.851 42.0333 203.707 42.8333 203.707 43.8147V44.1507C203.707 45.1213 203.851 45.916 204.139 46.5347C204.427 47.1427 204.843 47.5907 205.387 47.8787C205.942 48.1667 206.609 48.3107 207.387 48.3107C208.07 48.3107 208.657 48.2093 209.147 48.0067C209.649 47.804 210.033 47.4947 210.299 47.0787C210.577 46.652 210.715 46.1187 210.715 45.4787H212.203C212.203 46.428 211.99 47.2067 211.563 47.8147C211.147 48.4227 210.577 48.876 209.851 49.1747C209.126 49.4733 208.299 49.6227 207.371 49.6227ZM227.124 49.4307V38.4547H235.572V39.7667H228.644V43.1587H234.868V44.4707H228.644V48.1187H235.668V49.4307H227.124Z" fill="#403E3E"/>
</svg>
