<svg width="324" height="384" viewBox="0 0 324 384" fill="none" xmlns="http://www.w3.org/2000/svg">
<circle cx="161.976" cy="221.754" r="161.976" fill="#76C49A"/>
<mask id="mask0_2390_10742" style="mask-type:alpha" maskUnits="userSpaceOnUse" x="0" y="0" width="324" height="384">
<path d="M323.952 221.753C323.952 311.21 251.433 383.73 161.976 383.73C72.5192 383.73 0 311.21 0 221.753C0 132.296 72.5192 0 161.976 0C251.433 0 323.952 132.296 323.952 221.753Z" fill="#5053B1"/>
</mask>
<g mask="url(#mask0_2390_10742)">
<path fill-rule="evenodd" clip-rule="evenodd" d="M192.01 134.412C200.196 129.392 207.078 129.356 211.213 130.487C206.971 128.289 203.034 128.335 199.719 129.403C196.453 130.456 193.778 132.507 192.01 134.412ZM199.562 128.916C203.718 127.576 208.801 127.801 214.198 131.746L213.909 132.168C210.932 130.267 202.075 128.216 190.873 135.752L190.525 135.386C192.215 133.133 195.421 130.251 199.562 128.916Z" fill="black"/>
<path d="M93.1913 283.499C58.6007 294.09 -11.5542 317.475 -23.6481 324.239C-35.5607 330.902 -47.1254 365.293 -51.6323 382.403H375.553C362.229 307.79 289.376 295.457 254.614 298.617L93.1913 283.499Z" fill="#787879"/>
<path d="M113.177 262.745C118.096 241.837 114.031 215.258 111.383 204.582H234.116C231.78 224.705 218.667 267.819 231.553 285.806C251.795 308.866 274.343 296.311 300.222 310.403C320.925 321.677 298.941 363.101 285.361 382.403H153.66C80.6871 317.834 80.7213 291.101 89.86 285.806C95.5824 286.831 108.257 283.653 113.177 262.745Z" fill="#D0CBCB"/>
<mask id="mask1_2390_10742" style="mask-type:alpha" maskUnits="userSpaceOnUse" x="85" y="204" width="224" height="179">
<path d="M113.179 262.745C118.098 241.837 114.033 215.258 111.385 204.582H234.118C231.782 224.705 218.669 267.819 231.555 285.806C251.797 308.866 274.345 296.311 300.224 310.403C320.927 321.677 298.943 363.101 285.363 382.403H153.662C80.6891 317.834 80.7232 291.101 89.862 285.806C95.5844 286.831 108.259 283.653 113.179 262.745Z" fill="#D0CBCB"/>
</mask>
<g mask="url(#mask1_2390_10742)">
<path d="M65.5205 316.041C142.799 349.453 205.506 305.365 227.2 279.144L251.797 268.383L240.267 176.141L118.816 205.607L82.4315 265.052L65.5205 316.041Z" fill="#C7AD9C"/>
<path d="M65.5205 316.041C142.799 349.453 205.506 305.365 227.2 279.144L251.797 268.383L240.267 176.141L118.816 205.607L82.4315 265.052L65.5205 316.041Z" fill="#9F9E9E"/>
</g>
<path d="M177.746 266.075C235.141 267.92 240.266 209.108 235.654 179.471C237.908 208.988 190.131 239.086 165.96 250.446C169.855 262.13 180.736 260.268 185.689 257.876C186.509 261.976 180.736 265.051 177.746 266.075Z" fill="#777777"/>
<path d="M177.746 266.075C235.141 267.92 240.266 209.108 235.654 179.471C237.908 208.988 190.131 239.086 165.96 250.446C169.855 262.13 180.736 260.268 185.689 257.876C186.509 261.976 180.736 265.051 177.746 266.075Z" fill="black" fill-opacity="0.3"/>
<path d="M245.536 145.865C245.536 209.197 211.182 253.596 169.437 253.596C124.436 253.708 95.6575 213.035 99.8998 150.343C99.9619 149.427 99.9121 148.483 99.754 147.578C88.3521 82.2996 117.348 28.8248 169.949 31.1912C211.694 31.1912 245.536 82.5322 245.536 145.865Z" fill="#D0CBCB"/>
<path d="M156.992 151.542C165.601 132.274 140.252 120.965 126.501 117.72C135.896 117.037 156.018 118.54 161.348 130.019C166.677 141.498 160.665 149.15 156.992 151.542Z" fill="#9F9E9E"/>
<mask id="mask2_2390_10742" style="mask-type:alpha" maskUnits="userSpaceOnUse" x="97" y="31" width="149" height="223">
<path d="M245.536 145.865C245.536 209.197 211.182 253.596 169.437 253.596C124.436 253.708 95.6575 213.035 99.8998 150.343C99.9619 149.427 99.9121 148.483 99.754 147.578C88.3521 82.2996 117.348 28.8248 169.949 31.1912C211.694 31.1912 245.536 82.5322 245.536 145.865Z" fill="#C7AD9C"/>
</mask>
<g mask="url(#mask2_2390_10742)">
<path d="M213.106 199.969C215.565 224.362 202.002 248.055 194.914 256.852L228.479 260.183L244.878 151.03C243.084 128.311 237.037 76.7244 227.198 52.1266C214.899 21.3794 118.302 27.2725 122.658 48.5394C127.013 69.8062 176.721 55.97 187.739 65.7066C198.757 75.4433 214.131 107.728 194.914 120.027C175.697 132.326 178.515 151.799 187.739 157.436C196.963 163.073 210.031 169.478 213.106 199.969Z" fill="#9F9E9E"/>
</g>
<path d="M218.486 135.143C203.933 125.509 195.17 133.349 192.607 138.474C202.242 127.405 212.849 132.154 216.949 135.912L218.486 135.143Z" fill="black"/>
<path d="M192.902 137.867C204.519 126.835 214.831 132.978 219.688 137.948C219.939 138.204 219.842 138.627 219.505 138.748C210.774 141.905 198.844 140.177 193.109 138.71C192.729 138.613 192.618 138.137 192.902 137.867Z" fill="#D9D9D9"/>
<path fill-rule="evenodd" clip-rule="evenodd" d="M208.787 132.161C213.351 132.927 217.097 135.666 219.504 138.128C219.624 138.251 219.579 138.451 219.417 138.509C215.097 140.071 209.969 140.429 205.195 140.209C200.423 139.989 196.024 139.193 193.172 138.463C193 138.42 192.931 138.195 193.078 138.054C198.836 132.586 204.239 131.398 208.787 132.161ZM208.872 131.656C204.145 130.862 198.584 132.118 192.725 137.683C192.305 138.082 192.457 138.81 193.045 138.96C195.927 139.697 200.361 140.499 205.171 140.72C209.978 140.942 215.182 140.585 219.591 138.991C220.103 138.806 220.252 138.16 219.871 137.77C217.421 135.264 213.582 132.446 208.872 131.656Z" fill="black"/>
<mask id="mask3_2390_10742" style="mask-type:alpha" maskUnits="userSpaceOnUse" x="192" y="131" width="29" height="10">
<path d="M220.195 138.485C215.498 133.36 204.565 126.186 192.267 138.485C197.733 140.022 210.971 142.175 220.195 138.485Z" fill="#D9D9D9"/>
</mask>
<g mask="url(#mask3_2390_10742)">
<path d="M199.185 135.667C199.185 139.346 202.283 142.329 206.103 142.329C209.924 142.329 213.021 139.346 213.021 135.667C213.021 131.988 209.924 129.005 206.103 129.005C202.283 129.005 199.185 131.988 199.185 135.667Z" fill="black"/>
</g>
<path d="M186.63 161.93C191.242 165.688 200.517 175.766 200.722 186.016L186.63 161.93Z" fill="#9F9E9E"/>
<path d="M196.194 207.4C198.927 206.802 204.547 206.375 205.162 209.45C205.931 213.293 203.881 216.624 196.194 207.4Z" fill="#9F9E9E"/>
<path d="M147.255 208.425C146.145 207.143 143.156 205.35 140.081 208.425C136.238 212.268 143.156 215.343 147.255 208.425Z" fill="#9F9E9E"/>
<path d="M169.803 229.947C188.456 230.562 194.486 220.467 195.169 215.342C195.169 214.232 193.119 213.088 184.92 217.392C176.721 221.697 155.027 214.915 145.205 210.987C145.632 217.051 151.15 229.332 169.803 229.947Z" fill="#9F9E9E"/>
<path d="M148.792 191.257C150.432 196.997 146.23 204.069 143.924 206.887C146.486 214.318 171.34 208.424 167.24 204.581C163.141 200.738 166.728 192.026 169.29 186.901C171.853 181.777 166.472 181.008 162.116 182.289C158.631 183.314 155.198 180.837 153.917 179.471C151.525 181.008 147.152 185.518 148.792 191.257Z" fill="#9F9E9E"/>
<path d="M169.462 183.966C166.183 181.507 163.313 182.941 162.288 183.966C157.164 184.376 154.345 180.892 153.576 179.098C155.028 180.294 158.086 181.507 158.701 176.792C159.469 170.899 167.412 168.849 168.181 172.692C168.95 176.536 174.074 176.792 177.405 173.973C180.736 171.155 184.323 172.18 188.423 176.792C192.523 181.404 186.886 186.529 183.298 184.991C179.711 183.454 174.074 184.991 175.099 189.603C176.124 194.215 176.124 200.109 173.049 198.571C169.975 197.034 173.562 187.041 169.462 183.966Z" fill="#9F9E9E"/>
<path d="M136.236 148.724C122.677 149.335 119.367 142.637 124.45 138.219C135.109 142.319 147.169 139.927 151.866 138.219C151.012 141.721 146.68 148.254 136.236 148.724Z" fill="#9F9E9E"/>
<path d="M151.746 137.856C140.13 126.823 129.818 132.967 124.96 137.936C124.71 138.193 124.807 138.616 125.144 138.737C133.874 141.894 145.804 140.165 151.54 138.699C151.919 138.602 152.03 138.126 151.746 137.856Z" fill="#D9D9D9"/>
<path fill-rule="evenodd" clip-rule="evenodd" d="M135.86 132.15C131.296 132.916 127.55 135.654 125.143 138.117C125.023 138.24 125.068 138.439 125.23 138.498C129.551 140.06 134.678 140.418 139.453 140.198C144.224 139.978 148.623 139.182 151.476 138.452C151.647 138.409 151.717 138.184 151.569 138.043C145.812 132.575 140.408 131.387 135.86 132.15ZM135.776 131.644C140.502 130.851 146.063 132.107 151.922 137.672C152.342 138.071 152.19 138.799 151.603 138.949C148.72 139.686 144.286 140.488 139.476 140.709C134.669 140.931 129.466 140.574 125.056 138.98C124.544 138.795 124.396 138.149 124.777 137.759C127.227 135.252 131.065 132.435 135.776 131.644Z" fill="black"/>
<mask id="mask4_2390_10742" style="mask-type:alpha" maskUnits="userSpaceOnUse" x="124" y="131" width="29" height="10">
<path d="M124.45 138.474C129.148 133.349 140.08 126.175 152.379 138.474C146.913 140.011 133.674 142.164 124.45 138.474Z" fill="#D9D9D9"/>
</mask>
<g mask="url(#mask4_2390_10742)">
<path d="M145.46 135.656C145.46 139.335 142.363 142.318 138.542 142.318C134.721 142.318 131.624 139.335 131.624 135.656C131.624 131.977 134.721 128.994 138.542 128.994C142.363 128.994 145.46 131.977 145.46 135.656Z" fill="black"/>
</g>
<path fill-rule="evenodd" clip-rule="evenodd" d="M134.088 129.154C128.389 130.016 123.945 133.557 121.321 136.841C121.232 136.951 121.071 136.969 120.961 136.881C120.85 136.793 120.832 136.631 120.92 136.521C123.599 133.17 128.148 129.534 134.011 128.647C139.889 127.758 147.031 129.638 154.864 137.217C154.966 137.315 154.969 137.477 154.87 137.579C154.772 137.681 154.61 137.683 154.508 137.585C146.762 130.091 139.773 128.293 134.088 129.154Z" fill="black"/>
<path d="M121.89 135.912C125.989 129.079 138.186 119.667 154.174 136.68C138.801 122.536 126.246 130.275 121.89 135.912Z" fill="#9F9E9E"/>
<path d="M146.998 133.662C142.557 130.075 131.01 126.59 120.351 141.349C125.475 137.932 137.979 131.612 146.998 133.662Z" fill="black"/>
<path fill-rule="evenodd" clip-rule="evenodd" d="M198.496 131.529C193.675 133.112 189.869 136.07 187.845 138.305C187.75 138.41 187.588 138.418 187.483 138.323C187.378 138.228 187.37 138.066 187.465 137.961C189.54 135.669 193.42 132.657 198.336 131.042C203.259 129.424 209.227 129.208 215.448 132.526C215.573 132.593 215.62 132.748 215.553 132.873C215.487 132.997 215.331 133.045 215.207 132.978C209.129 129.737 203.31 129.947 198.496 131.529Z" fill="black"/>
<path d="M149.202 124.691C134.662 112.743 117.848 120.001 110.501 126.591C110.128 126.926 109.537 126.604 109.66 126.119C113.946 109.204 141.354 111.518 153.011 116.066C153.524 116.266 153.76 116.845 153.56 117.359L152.125 121.05L150.869 124.28C150.609 124.948 149.755 125.146 149.202 124.691Z" fill="#353434"/>
<path d="M194.86 125.024C209.742 116.897 226.78 123.541 233.89 127.199C234.267 127.393 234.697 127.063 234.607 126.649C230.791 109.12 202.908 111.435 191.124 116.033C190.61 116.233 190.374 116.812 190.574 117.326L192.01 121.017L193.363 124.498C193.593 125.089 194.303 125.329 194.86 125.024Z" fill="#353434"/>
<path fill-rule="evenodd" clip-rule="evenodd" d="M145.476 147.176C145.513 147.313 145.433 147.454 145.297 147.491C134.49 150.463 126.858 148.321 124.353 146.839C124.232 146.767 124.191 146.609 124.263 146.488C124.335 146.366 124.492 146.326 124.614 146.398C126.978 147.796 134.461 149.939 145.161 146.997C145.297 146.96 145.438 147.04 145.476 147.176Z" fill="black"/>
<path fill-rule="evenodd" clip-rule="evenodd" d="M186.621 177.652C186.585 177.789 186.444 177.87 186.307 177.833C182.1 176.703 179.471 178.17 178.701 178.989C176.568 181.843 174.407 182.886 172.441 182.876C170.486 182.866 168.794 181.814 167.591 180.631C167.325 180.37 167.064 180.077 166.81 179.793C166.645 179.609 166.484 179.428 166.326 179.262C165.91 178.822 165.484 178.437 164.975 178.174C163.206 177.259 161.398 177.512 160.587 177.825C160.455 177.876 160.307 177.81 160.256 177.678C160.205 177.546 160.271 177.398 160.403 177.347C161.322 176.992 163.286 176.724 165.211 177.719C165.795 178.021 166.269 178.455 166.699 178.91C166.88 179.101 167.049 179.29 167.214 179.476C167.455 179.746 167.69 180.01 167.95 180.266C169.102 181.398 170.673 182.354 172.444 182.363C174.201 182.372 176.227 181.448 178.299 178.671L178.307 178.66L178.317 178.65C179.218 177.678 182.055 176.16 186.44 177.338C186.577 177.375 186.658 177.516 186.621 177.652Z" fill="black"/>
<path fill-rule="evenodd" clip-rule="evenodd" d="M156.888 166.71C157.002 166.793 157.026 166.954 156.943 167.068C155.948 168.422 154.91 170.125 154.163 171.927C153.415 173.732 152.966 175.619 153.129 177.346C153.29 179.062 154.053 180.632 155.757 181.83C157.471 183.036 160.156 183.88 164.18 184.084C164.321 184.091 164.43 184.211 164.423 184.352C164.415 184.494 164.295 184.603 164.154 184.595C160.08 184.389 157.286 183.533 155.462 182.249C153.627 180.958 152.792 179.248 152.618 177.394C152.445 175.551 152.925 173.577 153.69 171.731C154.456 169.882 155.517 168.143 156.53 166.764C156.613 166.65 156.774 166.626 156.888 166.71Z" fill="black"/>
<path fill-rule="evenodd" clip-rule="evenodd" d="M189.809 166.849C189.695 166.932 189.67 167.093 189.754 167.207C190.744 168.555 191.717 170.286 192.368 172.134C193.02 173.983 193.344 175.932 193.057 177.725C192.772 179.51 191.881 181.15 190.076 182.401C188.264 183.657 185.513 184.532 181.492 184.735C181.35 184.742 181.242 184.863 181.249 185.004C181.256 185.145 181.376 185.254 181.518 185.247C185.593 185.041 188.449 184.152 190.368 182.822C192.294 181.487 193.257 179.72 193.563 177.806C193.868 175.901 193.521 173.862 192.851 171.963C192.182 170.063 191.184 168.288 190.167 166.904C190.083 166.79 189.923 166.765 189.809 166.849Z" fill="black"/>
<path d="M166.215 178.958C164.849 180.239 161.757 181.776 160.322 177.677C161.433 177.25 164.166 176.908 166.215 178.958Z" fill="black"/>
<path d="M179.974 178.387C181.187 179.814 184.086 181.691 185.974 177.779C184.919 177.229 182.242 176.582 179.974 178.387Z" fill="black"/>
<path d="M160.579 222.005C152.994 219.545 146.657 213.378 144.437 210.731C149.988 206.46 161.757 198.194 166.472 199.834C172.365 201.884 173.134 202.14 176.721 199.834C180.308 197.528 200.038 208.681 200.038 210.474C183.127 227.385 170.059 225.079 160.579 222.005Z" fill="#777777"/>
<path d="M152.636 211.755C149.356 212.575 145.803 211.585 144.437 210.987C145.034 210.987 147.204 210.679 151.098 209.449C155.967 207.912 162.629 207.656 166.472 209.962C170.315 212.268 181.846 206.375 186.201 208.168C189.686 209.603 195.511 210.303 197.988 210.474C192.607 214.83 179.796 210.218 175.696 211.755C171.597 213.293 165.96 212.78 162.629 211.755C159.298 210.73 156.735 210.73 152.636 211.755Z" fill="#525252"/>
<path fill-rule="evenodd" clip-rule="evenodd" d="M162.267 210.249C159.479 209.706 157.1 209.242 154.496 209.953C149.942 211.195 144.508 210.987 142.356 210.728C142.215 210.712 142.115 210.584 142.132 210.444C142.149 210.303 142.276 210.203 142.417 210.22C144.535 210.474 149.896 210.676 154.361 209.458C157.084 208.716 159.575 209.202 162.335 209.74C162.501 209.773 162.668 209.806 162.837 209.838C165.807 210.413 169.165 210.982 173.603 210.222C182.285 208.733 188.104 209.636 191.503 210.163C191.631 210.183 191.756 210.202 191.877 210.221C193.519 210.474 194.91 210.474 196.343 210.41C196.766 210.391 197.196 210.367 197.637 210.342C198.683 210.282 199.796 210.218 201.062 210.218C201.204 210.218 201.318 210.333 201.318 210.474C201.318 210.616 201.204 210.73 201.062 210.73C199.811 210.73 198.722 210.793 197.682 210.852C197.237 210.878 196.801 210.903 196.365 210.922C194.915 210.987 193.488 210.987 191.799 210.727C191.678 210.709 191.553 210.689 191.425 210.669C188.043 210.145 182.289 209.252 173.689 210.727C169.158 211.503 165.726 210.919 162.74 210.341C162.581 210.311 162.423 210.28 162.267 210.249Z" fill="black"/>
<path fill-rule="evenodd" clip-rule="evenodd" d="M196.143 145.919C196.213 145.795 196.369 145.752 196.492 145.821C197.833 146.575 200.213 147.538 202.964 147.956C205.716 148.374 208.818 148.244 211.626 146.84C211.752 146.777 211.906 146.828 211.969 146.955C212.033 147.081 211.981 147.235 211.855 147.298C208.923 148.764 205.705 148.891 202.888 148.463C200.071 148.035 197.633 147.051 196.241 146.268C196.118 146.198 196.074 146.042 196.143 145.919Z" fill="black"/>
<path d="M114.97 240.453C98.0592 247.2 60.4963 250.856 45.5327 211.499C26.8281 162.304 70.6429 118.489 79.0984 79.0299C87.5539 39.571 107.283 4.21169 146.486 0.11206C185.689 -3.98757 234.116 10.3611 258.457 52.8948C282.799 95.4284 337.631 230.204 265.375 276.581C207.571 313.682 182.699 284.866 177.489 265.819C192.607 262.574 224.481 248.908 231.041 220.211C239.24 184.339 215.155 172.553 217.973 133.094C218.315 119.941 214.079 88.5617 194.4 68.2685C169.803 42.9021 138.799 45.2081 125.219 60.5817C112.607 74.8592 99.9957 107.7 101.75 134.681C101.993 137.164 102.233 139.232 102.415 140.781C104.41 157.759 106.833 211.956 115.226 224.054C115.739 231.058 116.2 239.428 114.97 240.453Z" fill="#787879"/>
<mask id="mask5_2390_10742" style="mask-type:alpha" maskUnits="userSpaceOnUse" x="40" y="-1" width="262" height="296">
<path d="M114.969 240.453C98.0582 247.2 60.4953 250.856 45.5317 211.499C26.8271 162.304 70.6419 118.489 79.0974 79.0299C87.5529 39.571 107.282 4.21169 146.485 0.11206C185.688 -3.98757 234.115 10.3611 258.456 52.8948C282.798 95.4284 337.63 230.204 265.374 276.581C207.57 313.682 182.698 284.866 177.489 265.819C192.606 262.574 224.48 248.908 231.04 220.211C239.239 184.339 215.154 172.553 217.972 133.094C218.314 119.941 214.078 88.5617 194.399 68.2685C169.802 42.9021 138.798 45.2081 125.218 60.5817C112.606 74.8592 99.9947 107.7 101.749 134.681C101.992 137.164 102.232 139.232 102.414 140.781C104.409 157.759 106.832 211.956 115.225 224.054C115.738 231.058 116.199 239.428 114.969 240.453Z" fill="#9D7457"/>
</mask>
<g mask="url(#mask5_2390_10742)">
<path d="M155.71 19.8419C132.342 25.9913 141.532 44.2688 149.048 52.6389C198.858 62.273 213.702 107.898 214.898 129.507C223.61 67.5001 184.92 12.1551 155.71 19.8419Z" fill="#353434"/>
<path d="M71.4099 191.258C57.8811 214.42 70.7266 242.076 78.8405 253.008L109.588 261.208L131.879 226.361L107.025 181.777C93.1892 184.083 89.0895 173.834 89.8582 157.179C90.4732 143.856 82.7693 143.77 78.8405 145.393C82.0006 151.03 84.9387 168.095 71.4099 191.258Z" fill="#353434"/>
<path d="M204.648 279.911C267.577 253.674 242.143 198.26 221.559 173.833C243.287 229.178 195.424 256.509 168.776 263.256C195.424 280.065 210.798 269.406 215.153 261.975C217.818 268.125 209.26 276.495 204.648 279.911Z" fill="#353434"/>
</g>
</g>
</svg>
